<?xml version="1.0" standalone="no"?>
<!DOCTYPE svg PUBLIC "-//W3C//DTD SVG 1.1//EN" "http://www.w3.org/Graphics/SVG/1.1/DTD/svg11.dtd" >
<svg xmlns="http://www.w3.org/2000/svg" xmlns:xlink="http://www.w3.org/1999/xlink" version="1.1">
<metadata>
Created by FontForge 20170731 at Fri Jun 10 15:59:53 2022
 By Aleksey,,,
Copyright 2015 The Vazirmatn Project Authors (https://github.com/rastikerdar/vazirmatn)
</metadata>
<defs>
<font id="Vazirmatn-FD-Thin" horiz-adv-x="1121" >
  <font-face 
    font-family="Vazirmatn FD Thin"
    font-weight="100"
    font-stretch="normal"
    units-per-em="2048"
    panose-1="0 0 0 0 0 0 0 0 0 0"
    ascent="1638"
    descent="-410"
    x-height="1082"
    cap-height="1456"
    bbox="-969 -1027 2608 2163"
    underline-thickness="100"
    underline-position="-880"
    unicode-range="U+000D-FFFD"
  />
<missing-glyph horiz-adv-x="908" 
 />
    <glyph glyph-name="uni0622" unicode="&#x627;&#x653;" horiz-adv-x="415" 
d="M291 1428q22 -11 45 -11q38 0 68.5 25.5t56.5 49.5l26 23l35 -32l-26 -24q-48 -46 -83.5 -67t-70.5 -21q-32 0 -70 18l-129 59q-36 16 -66 16q-43 0 -77.5 -27.5t-69.5 -62.5l-31 -32l-35 32l30 32q54 56 93.5 81t79.5 25t95 -26zM233 1193v-1193h-51v1193h51z" />
    <glyph glyph-name="uni0623" unicode="&#x627;&#x654;" horiz-adv-x="415" 
d="M162 1382q-40 20 -71.5 56.5t-31.5 91.5q0 78 56 126t122 48q26 0 42 -3t42 -12l1 -44q-38 13 -81 13q-57 0 -100 -38t-43 -91q0 -55 44.5 -87.5t84.5 -27.5q13 1 28 8l114 43l6 -40l-344 -135l-5 37zM233 1193v-1193h-51v1193h51z" />
    <glyph glyph-name="uni0624" unicode="&#x648;&#x654;" horiz-adv-x="850" 
d="M368 906q-40 20 -71.5 56.5t-31.5 91.5q0 78 56 126t122 48q26 0 42 -3t42 -12l1 -44q-38 13 -81 13q-57 0 -100 -38t-43 -91q0 -55 44.5 -87.5t84.5 -27.5q13 1 28 8l114 43l6 -40l-344 -135l-5 37zM722 111q0 -190 -65 -317.5t-186.5 -204t-290.5 -115.5l-20 50
q171 44 275.5 109t159.5 161.5t74 236.5q-52 -16 -111 -27.5t-124 -11.5q-139 0 -222 58t-83 197q0 94 30 179.5t91.5 140t155.5 54.5q98 0 159.5 -49.5t96 -127.5t47.5 -166.5t13 -166.5zM439 53q59 0 118.5 11.5t112.5 27.5q-1 67 -11.5 147.5t-38 154t-79.5 120.5
t-136 47q-79 0 -128 -47.5t-71.5 -118.5t-22.5 -142q0 -111 72.5 -155.5t183.5 -44.5z" />
    <glyph glyph-name="uni0625" unicode="&#x627;&#x655;" horiz-adv-x="415" 
d="M156 -465q-40 20 -71.5 56.5t-31.5 91.5q0 78 56 126t122 48q26 0 42 -3t42 -12l1 -44q-38 13 -81 13q-57 0 -100 -38t-43 -91q0 -55 44.5 -87.5t84.5 -27.5q13 1 28 8l114 43l6 -40l-344 -135l-5 37zM234 1317v-1317h-51v1317h51z" />
    <glyph glyph-name="uni0626" unicode="&#x64a;&#x654;" horiz-adv-x="1386" 
d="M420 690q-40 20 -71.5 56.5t-31.5 91.5q0 78 56 126t122 48q26 0 42 -3t42 -12l1 -44q-38 13 -81 13q-57 0 -100 -38t-43 -91q0 -55 44.5 -87.5t84.5 -27.5q13 1 28 8l114 43l6 -40l-344 -135l-5 37zM659 -504q-261 0 -395.5 133.5t-134.5 384.5q0 85 15.5 176t43.5 180
l53 -20q-24 -83 -40 -170t-16 -172q0 -217 122.5 -334.5t351.5 -117.5q97 0 193 19.5t175 59t126.5 99t47.5 138.5q0 59 -27.5 99t-106.5 40h-162q-81 0 -127 30t-65 78t-19 102q0 111 41.5 207.5t123 156.5t202.5 60q103 0 174 -38l-18 -49q-34 12 -72 19t-82 7
q-103 0 -172 -48.5t-103.5 -131t-34.5 -184.5q0 -86 42 -117t110 -31h162q106 0 148 -52t42 -144q0 -95 -49.5 -166.5t-134.5 -118.5t-192 -71t-222 -24z" />
    <glyph glyph-name="uni06C0" unicode="&#x647;&#x654;" horiz-adv-x="894" 
d="M546 1491q11 0 30 -2t38 -7l-8 -46q-16 3 -31.5 5t-28.5 2q-79 0 -128 -49t-49 -108q0 -68 68 -68h74q43 0 78.5 -20.5t35.5 -67.5q0 -73 -44.5 -124t-119 -78t-163.5 -27q-85 0 -149 23l21 44q57 -22 130 -22q63 0 128 19.5t109.5 58.5t44.5 95q0 30 -24 41.5t-52 11.5
h-75q-46 0 -76 25.5t-30 80.5q0 95 66.5 154t154.5 59zM390 687l-30 26l35 45q91 -74 176 -151.5t139.5 -159.5t54.5 -171q0 -137 -89 -204.5t-229 -67.5q-146 0 -232 64t-86 188q0 188 261 431zM713 284q0 62 -43 126.5t-107.5 126t-128.5 112.5q-56 -50 -114 -113
t-97 -132.5t-39 -140.5q0 -107 73.5 -154t188.5 -47q119 0 193 51.5t74 170.5z" />
    <glyph glyph-name="fi" unicode="fi" horiz-adv-x="1067" 
d="M308 0h-54v1027h-188v55h188v134q0 165 86.5 253t236.5 88q62 0 131 -12.5t137 -44.5l-8 -52q-60 27 -115.5 41t-143.5 14q-124 0 -197 -75t-73 -212v-134h286v-55h-286v-1027zM884 1082v-1082h-54v1082h54z" />
    <glyph glyph-name="f_l" unicode="fl" horiz-adv-x="1067" 
d="M308 0h-54v1027h-188v55h188v154q0 155 75.5 238t207.5 83q72 0 165.5 -18t181.5 -43v-1496h-54v1461q-74 16 -146 29t-146 13q-106 0 -168 -70t-62 -197v-154h286v-55h-286v-1027z" />
    <glyph glyph-name="f_f_i" unicode="ffi" horiz-adv-x="1643" 
d="M308 0h-54v1027h-188v55h188v154q0 155 75.5 238t207.5 83q31 0 64 -3.5t64 -13.5l-8 -52q-28 8 -53 11.5t-66 3.5q-106 0 -168 -70t-62 -197v-154h522v134q0 165 86.5 253t236.5 88q62 0 131 -12.5t137 -44.5l-8 -52q-60 27 -115.5 41t-143.5 14q-124 0 -197 -75
t-73 -212v-134h286v-55h-286v-1027h-54v1027h-522v-1027zM1460 1082v-1082h-54v1082h54z" />
    <glyph glyph-name="f_f_l" unicode="ffl" horiz-adv-x="1643" 
d="M308 0h-54v1027h-188v55h188v154q0 155 75.5 238t207.5 83q31 0 64 -3.5t64 -13.5l-8 -52q-28 8 -53 11.5t-66 3.5q-106 0 -168 -70t-62 -197v-154h522v154q0 155 75.5 238t207.5 83q72 0 165.5 -18t181.5 -43v-1496h-54v1461q-74 16 -146 29t-146 13q-106 0 -168 -70
t-62 -197v-154h286v-55h-286v-1027h-54v1027h-522v-1027z" />
    <glyph glyph-name="uniFBA5.fina" unicode="&#xfeea;&#x654;" horiz-adv-x="1032" arabic-form="final" 
d="M697 1601q11 0 30 -2t38 -7l-8 -46q-16 3 -31.5 5t-28.5 2q-79 0 -128 -49t-49 -108q0 -68 68 -68h74q43 0 78.5 -20.5t35.5 -67.5q0 -73 -44.5 -124t-119 -78t-163.5 -27q-85 0 -149 23l21 44q57 -22 130 -22q63 0 128 19.5t109.5 58.5t44.5 95q0 30 -24 41.5t-52 11.5
h-75q-46 0 -76 25.5t-30 80.5q0 95 66.5 154t154.5 59zM991 0q-93 0 -146 42.5t-79 117t-39 170.5q-37 -88 -124.5 -137.5t-186.5 -49.5q-124 0 -205.5 65t-81.5 181q0 85 49.5 151t129 116.5t171.5 87.5t178 64l-5 33l54 10l79 -551q17 -113 66 -175.5t140 -62.5h61v-62
h-61zM708 453q0 17 -1.5 33.5t-3.5 34.5l-37 234q-70 -25 -153 -58t-158 -76t-123.5 -99.5t-48.5 -129.5q0 -97 66 -145.5t161 -48.5q79 0 147 32.5t109.5 90t41.5 132.5z" />
    <glyph glyph-name="uniFDF2" unicode="&#x627;&#xfedf;&#xfee0;&#xfeea;" horiz-adv-x="2456" arabic-form="isolated" 
d="M1279 1526v259h38v-259h-38zM1321 1401q2 -42 7 -85t24.5 -72t63.5 -29q55 0 74 37t19 87q0 25 -3 50t-8 50l39 9q14 -54 14 -107q0 -69 -30.5 -119t-107.5 -50q-41 0 -69 23t-32 60q-9 -50 -37 -86t-99 -36t-99 47.5t-28 109.5q0 33 6 66l35 -6q-5 -32 -5 -56
q0 -49 20 -84.5t72 -35.5q53 0 76 29.5t28 77t5 101.5v14zM2276 1317v-1317h-51v1317h51zM991 0q-93 0 -146 42.5t-79 117t-39 170.5q-37 -88 -124.5 -137.5t-186.5 -49.5q-124 0 -205.5 65t-81.5 181q0 85 49.5 151t129 116.5t171.5 87.5t178 64l-5 33l54 10l79 -551
q17 -113 66 -175.5t140 -62.5h96q65 0 109.5 27t67 97t22.5 199v610h50v-610q0 -114 19 -179.5t49.5 -96t65 -39t65.5 -8.5h96q110 0 154 79.5t44 218.5v795h52v-793q0 -167 -54 -264.5t-196 -97.5h-96q-109 0 -157 59.5t-65 134.5q-13 -52 -36 -96t-68 -71t-124 -27h-94z
M708 453q0 17 -1.5 33.5t-3.5 34.5l-37 234q-70 -25 -153 -58t-158 -76t-123.5 -99.5t-48.5 -129.5q0 -97 66 -145.5t161 -48.5q79 0 147 32.5t109.5 90t41.5 132.5z" />
    <glyph glyph-name="uniFE70" unicode="&#x20;&#x64b;" horiz-adv-x="592" arabic-form="isolated" 
d="M90 1216v46l412 169v-46zM90 1006v46l412 169v-46z" />
    <glyph glyph-name="uniFE71" unicode="&#x640;&#x64b;" horiz-adv-x="606" arabic-form="medial" 
d="M94 1216v46l412 169v-46zM94 1006v46l412 169v-46zM-18 62h642v-62h-642v62z" />
    <glyph glyph-name="uniFE72" unicode="&#x20;&#x64c;" horiz-adv-x="743" arabic-form="isolated" 
d="M564 959q-47 -66 -135.5 -106.5t-221.5 -45.5l-20 31q14 40 19 78t5 62q0 34 -14 56.5t-46 22.5q-12 0 -30.5 -4t-34.5 -8l-4 35q22 7 41 11t35 4q86 0 86 -113q0 -27 -5.5 -67.5t-12.5 -73.5q92 12 165 36t135 90q-47 3 -92 20t-74.5 51.5t-29.5 90.5q0 50 40 97t105 47
t103.5 -40t38.5 -105q0 -34 -11 -70.5t-24 -68.5q13 -2 26 -3.5t26 -3.5l-4 -31q-15 1 -32.5 3.5t-33.5 4.5zM545 997q12 20 24 60t12 72q0 46 -31 76t-73 30q-48 0 -79 -35t-31 -74q0 -44 28.5 -70.5t70 -40t79.5 -18.5z" />
    <glyph glyph-name="uniFE74" unicode="&#x20;&#x64d;" horiz-adv-x="592" arabic-form="isolated" 
d="M90 -375v46l412 169v-46zM90 -585v46l412 169v-46z" />
    <glyph glyph-name="uniFE76" unicode="&#x20;&#x64e;" horiz-adv-x="592" arabic-form="isolated" 
d="M90 1030v46l412 169v-46z" />
    <glyph glyph-name="uniFE77" unicode="&#x640;&#x64e;" horiz-adv-x="606" arabic-form="medial" 
d="M93 1030v46l412 169v-46zM-18 62h642v-62h-642v62z" />
    <glyph glyph-name="uniFE78" unicode="&#x20;&#x64f;" horiz-adv-x="592" arabic-form="isolated" 
d="M494 1015q-19 2 -33 4t-31 4q-47 -64 -127.5 -102t-202.5 -49l-6 34q108 12 175 39t122 85q-46 4 -91 21t-74.5 52t-29.5 92q0 50 39.5 96t103.5 46q65 0 104 -39t39 -104q0 -34 -11 -71t-24 -69q13 -2 26 -3.5t26 -3.5zM410 1061q12 23 24 61t12 71q0 46 -30 76t-73 30
q-48 0 -79 -34t-31 -74q0 -45 29 -72t70.5 -40t77.5 -18z" />
    <glyph glyph-name="uniFE79" unicode="&#x640;&#x64f;" horiz-adv-x="606" arabic-form="medial" 
d="M495 1015q-19 2 -33 4t-31 4q-47 -64 -127.5 -102t-202.5 -49l-6 34q108 12 175 39t122 85q-46 4 -91 21t-74.5 52t-29.5 92q0 50 39.5 96t103.5 46q65 0 104 -39t39 -104q0 -34 -11 -71t-24 -69q13 -2 26 -3.5t26 -3.5zM411 1061q12 23 24 61t12 71q0 46 -30 76t-73 30
q-48 0 -79 -34t-31 -74q0 -45 29 -72t70.5 -40t77.5 -18zM-18 62h642v-62h-642v62z" />
    <glyph glyph-name="uniFE7A" unicode="&#x20;&#x650;" horiz-adv-x="592" arabic-form="isolated" 
d="M91 -372v47l411 168v-45z" />
    <glyph glyph-name="uniFE7B" unicode="&#x640;&#x650;" horiz-adv-x="606" arabic-form="medial" 
d="M-18 62h642v-62h-642v62zM95 -402v47l411 168v-45z" />
    <glyph glyph-name="uniFE7C" unicode="&#x20;&#x651;" horiz-adv-x="592" arabic-form="isolated" 
d="M319 1134q2 -42 7 -85t24.5 -72t63.5 -29q55 0 74 37t19 87q0 25 -3 50t-8 50l39 9q14 -54 14 -107q0 -69 -30.5 -119t-107.5 -50q-41 0 -69 23t-32 60q-9 -50 -37 -86t-99 -36t-99 47.5t-28 109.5q0 33 6 66l35 -6q-5 -32 -5 -56q0 -49 20 -84.5t72 -35.5q53 0 76 29.5
t28 77t5 101.5v14z" />
    <glyph glyph-name="uniFE7D" unicode="&#x640;&#x651;" horiz-adv-x="606" arabic-form="medial" 
d="M326 1134q2 -42 7 -85t24.5 -72t63.5 -29q55 0 74 37t19 87q0 25 -3 50t-8 50l39 9q14 -54 14 -107q0 -69 -30.5 -119t-107.5 -50q-41 0 -69 23t-32 60q-9 -50 -37 -86t-99 -36t-99 47.5t-28 109.5q0 33 6 66l35 -6q-5 -32 -5 -56q0 -49 20 -84.5t72 -35.5q53 0 76 29.5
t28 77t5 101.5v14zM-18 62h642v-62h-642v62z" />
    <glyph glyph-name="uniFE7E" unicode="&#x20;&#x652;" horiz-adv-x="592" arabic-form="isolated" 
d="M143 1032q0 63 45 108.5t108 45.5t108 -45.5t45 -108.5t-45 -108t-108 -45t-108 45t-45 108zM181 1032q0 -48 34 -81t81 -33q48 0 81 33t33 81q0 47 -33 81.5t-81 34.5t-81.5 -34.5t-33.5 -81.5z" />
    <glyph glyph-name="uniFE7F" unicode="&#x640;&#x652;" horiz-adv-x="606" arabic-form="medial" 
d="M150 1032q0 63 45 108.5t108 45.5t108 -45.5t45 -108.5t-45 -108t-108 -45t-108 45t-45 108zM188 1032q0 -48 34 -81t81 -33q48 0 81 33t33 81q0 47 -33 81.5t-81 34.5t-81.5 -34.5t-33.5 -81.5zM-18 62h642v-62h-642v62z" />
    <glyph glyph-name="uniFEF5" unicode="&#xfedf;&#xfe82;" horiz-adv-x="1104" arabic-form="isolated" 
d="M181 1461q-27 0 -59.5 -21t-61 -47.5t-45.5 -43.5l-31 27q18 18 52 50t72.5 57.5t68.5 25.5q31 0 70 -22t78.5 -44.5t71.5 -22.5q24 0 52 17t52.5 38.5t38.5 33.5l30 -27q-15 -14 -47 -40.5t-66 -48t-56 -21.5q-28 0 -68.5 22.5t-81 44.5t-70.5 22zM249 0
q-27 0 -54.5 1.5t-56.5 2.5v59q38 -2 68.5 -3.5t62.5 -1.5q66 0 104.5 2t82.5 8l-11.5 95t-42.5 257.5t-90 370t-154 432.5l48 21q93 -231 152 -441t91 -374t44 -259l12 -95q126 29 207 83t120.5 151.5t39.5 254.5v753h51v-756q0 -296 -160.5 -428.5t-513.5 -132.5z" />
    <glyph glyph-name="uniFEF6" unicode="&#xfee0;&#xfe82;" horiz-adv-x="1204" arabic-form="final" 
d="M181 1461q-27 0 -59.5 -21t-61 -47.5t-45.5 -43.5l-31 27q18 18 52 50t72.5 57.5t68.5 25.5q31 0 70 -22t78.5 -44.5t71.5 -22.5q24 0 52 17t52.5 38.5t38.5 33.5l30 -27q-15 -14 -47 -40.5t-66 -48t-56 -21.5q-28 0 -68.5 22.5t-81 44.5t-70.5 22zM505 76q126 29 207 83
t120.5 151t39.5 254v753h51v-806q0 -113 21 -216t73 -168t146 -65h61v-62h-61q-91 0 -149 47t-87 121.5t-35 155.5q-40 -104 -116 -176.5t-203.5 -110t-323.5 -37.5q-27 0 -54.5 1.5t-56.5 2.5v59q38 -2 68.5 -3.5t62.5 -1.5q66 0 104 2t83 8l-11.5 95t-42.5 257.5t-90 370
t-154 432.5l48 21q93 -231 152 -441t91 -374t44 -258.5z" />
    <glyph glyph-name="uniFEF7" unicode="&#xfedf;&#xfe84;" horiz-adv-x="1104" arabic-form="isolated" 
d="M137 1397q-40 20 -71.5 56.5t-31.5 91.5q0 78 56 126t122 48q26 0 42 -3t42 -12l1 -44q-38 13 -81 13q-57 0 -100 -38t-43 -91q0 -55 44.5 -87.5t84.5 -27.5q13 1 28 8l114 43l6 -40l-344 -135l-5 37zM249 0q-27 0 -54.5 1.5t-56.5 2.5v59q38 -2 68.5 -3.5t62.5 -1.5
q66 0 104.5 2t82.5 8l-11.5 95t-42.5 257.5t-90 370t-154 432.5l48 21q93 -231 152 -441t91 -374t44 -259l12 -95q126 29 207 83t120.5 151.5t39.5 254.5v753h51v-756q0 -296 -160.5 -428.5t-513.5 -132.5z" />
    <glyph glyph-name="uniFEF8" unicode="&#xfee0;&#xfe84;" horiz-adv-x="1204" arabic-form="final" 
d="M137 1397q-40 20 -71.5 56.5t-31.5 91.5q0 78 56 126t122 48q26 0 42 -3t42 -12l1 -44q-38 13 -81 13q-57 0 -100 -38t-43 -91q0 -55 44.5 -87.5t84.5 -27.5q13 1 28 8l114 43l6 -40l-344 -135l-5 37zM505 76q126 29 207 83t120.5 151t39.5 254v753h51v-806
q0 -113 21 -216t73 -168t146 -65h61v-62h-61q-91 0 -149 47t-87 121.5t-35 155.5q-40 -104 -116 -176.5t-203.5 -110t-323.5 -37.5q-27 0 -54.5 1.5t-56.5 2.5v59q38 -2 68.5 -3.5t62.5 -1.5q66 0 104 2t83 8l-11.5 95t-42.5 257.5t-90 370t-154 432.5l48 21
q93 -231 152 -441t91 -374t44 -258.5z" />
    <glyph glyph-name="uniFEF9" unicode="&#xfedf;&#xfe88;" horiz-adv-x="1104" arabic-form="isolated" 
d="M284 -466q-40 20 -71.5 56.5t-31.5 91.5q0 78 56 126t122 48q26 0 42 -3t42 -12l1 -44q-38 13 -81 13q-57 0 -100 -38t-43 -91q0 -55 44.5 -87.5t84.5 -27.5q13 1 28 8l114 43l6 -40l-344 -135l-5 37zM249 0q-27 0 -54.5 1.5t-56.5 2.5v59q38 -2 68.5 -3.5t62.5 -1.5
q66 0 104.5 2t82.5 8l-11.5 95t-42.5 257.5t-90 370t-154 432.5l48 21q93 -231 152 -441t91 -374t44 -259l12 -95q126 29 207 83t120.5 151.5t39.5 254.5v753h51v-756q0 -296 -160.5 -428.5t-513.5 -132.5z" />
    <glyph glyph-name="uniFEFA" unicode="&#xfee0;&#xfe88;" horiz-adv-x="1204" arabic-form="final" 
d="M284 -466q-40 20 -71.5 56.5t-31.5 91.5q0 78 56 126t122 48q26 0 42 -3t42 -12l1 -44q-38 13 -81 13q-57 0 -100 -38t-43 -91q0 -55 44.5 -87.5t84.5 -27.5q13 1 28 8l114 43l6 -40l-344 -135l-5 37zM505 76q126 29 207 83t120.5 151t39.5 254v753h51v-806
q0 -113 21 -216t73 -168t146 -65h61v-62h-61q-91 0 -149 47t-87 121.5t-35 155.5q-40 -104 -116 -176.5t-203.5 -110t-323.5 -37.5q-27 0 -54.5 1.5t-56.5 2.5v59q38 -2 68.5 -3.5t62.5 -1.5q66 0 104 2t83 8l-11.5 95t-42.5 257.5t-90 370t-154 432.5l48 21
q93 -231 152 -441t91 -374t44 -258.5z" />
    <glyph glyph-name="uniFEFB" unicode="&#xfedf;&#xfe8e;" horiz-adv-x="1104" arabic-form="isolated" 
d="M249 0q-27 0 -54.5 1.5t-56.5 2.5v59q38 -2 68.5 -3.5t62.5 -1.5q66 0 104.5 2t82.5 8l-11.5 95t-42.5 257.5t-90 370t-154 432.5l48 21q93 -231 152 -441t91 -374t44 -259l12 -95q126 29 207 83t120.5 151.5t39.5 254.5v753h51v-756q0 -296 -160.5 -428.5t-513.5 -132.5
z" />
    <glyph glyph-name="uniFEFC" unicode="&#xfee0;&#xfe8e;" horiz-adv-x="1204" arabic-form="final" 
d="M505 76q126 29 207 83t120.5 151t39.5 254v753h51v-806q0 -113 21 -216t73 -168t146 -65h61v-62h-61q-91 0 -149 47t-87 121.5t-35 155.5q-40 -104 -116 -176.5t-203.5 -110t-323.5 -37.5q-27 0 -54.5 1.5t-56.5 2.5v59q38 -2 68.5 -3.5t62.5 -1.5q66 0 104 2t83 8
l-11.5 95t-42.5 257.5t-90 370t-154 432.5l48 21q93 -231 152 -441t91 -374t44 -258.5z" />
    <glyph glyph-name="LamAlefWasla" unicode="&#xfedf;&#xfb51;" horiz-adv-x="1104" 
d="M-25 1420l7 32q32 -24 69 -38q80 135 144 198.5t136 63.5q69 0 113 -42t44 -108q0 -68 -37 -101t-101.5 -43.5t-148.5 -10.5h-25q-67 0 -121 9t-80 40zM199 1407q66 0 124 6.5t94.5 31t36.5 77.5q0 50 -33 83t-85 33q-73 0 -132 -67.5t-121 -163.5h116zM249 0
q-27 0 -54.5 1.5t-56.5 2.5v59q38 -2 68.5 -3.5t62.5 -1.5q66 0 104.5 2t82.5 8l-11.5 95t-42.5 257.5t-90 370t-154 432.5l48 21q93 -231 152 -441t91 -374t44 -259l12 -95q126 29 207 83t120.5 151.5t39.5 254.5v753h51v-756q0 -296 -160.5 -428.5t-513.5 -132.5z" />
    <glyph glyph-name="LamAlefWasla.fina" unicode="&#xfee0;&#xfb51;" horiz-adv-x="1204" 
d="M-25 1420l7 32q32 -24 69 -38q80 135 144 198.5t136 63.5q69 0 113 -42t44 -108q0 -68 -37 -101t-101.5 -43.5t-148.5 -10.5h-25q-67 0 -121 9t-80 40zM199 1407q66 0 124 6.5t94.5 31t36.5 77.5q0 50 -33 83t-85 33q-73 0 -132 -67.5t-121 -163.5h116zM505 76
q126 29 207 83t120.5 151t39.5 254v753h51v-806q0 -113 21 -216t73 -168t146 -65h61v-62h-61q-91 0 -149 47t-87 121.5t-35 155.5q-40 -104 -116 -176.5t-203.5 -110t-323.5 -37.5q-27 0 -54.5 1.5t-56.5 2.5v59q38 -2 68.5 -3.5t62.5 -1.5q66 0 104 2t83 8l-11.5 95
t-42.5 257.5t-90 370t-154 432.5l48 21q93 -231 152 -441t91 -374t44 -258.5z" />
    <glyph glyph-name="uni063D.init" unicode="&#x63d;" horiz-adv-x="608" 
d="M-22 62h216q130 0 179.5 70t49.5 195q0 51 -7 117.5t-18 126.5l58 15q11 -55 17 -123t6 -120q0 -163 -63 -253t-220 -90h-218v62zM283 -234l65 -64l-65 -66l-65 66zM63 -234l65 -64l-65 -66l-65 66zM500 872l-40 -20l-135 275l-135 -275l-40 20l137 278h76z" />
    <glyph glyph-name="uni063D.medi" unicode="&#x63d;" horiz-adv-x="743" 
d="M-22 62h148q134 0 215.5 64.5t82.5 226.5q0 73 -5 125l48 6l12 -171q5 -80 39.5 -136t84.5 -85.5t101 -29.5h59v-62h-59q-74 0 -129 35.5t-86 81t-34 74.5q-29 -97 -116 -144t-215 -47h-146v62zM283 -234l65 -64l-65 -66l-65 66zM63 -234l65 -64l-65 -66l-65 66zM530 793
l-40 -20l-135 275l-135 -275l-40 20l137 278h76z" />
    <glyph glyph-name="uni063D.fina" unicode="&#x63d;" horiz-adv-x="1299" 
d="M654 564l-40 -20l-135 275l-135 -275l-40 20l137 278h76zM659 -515q-266 0 -400.5 140.5t-134.5 375.5q0 136 43 290l53 -20q-36 -142 -36 -265q0 -211 115.5 -336t359.5 -125q136 0 257.5 35.5t197.5 98.5t76 145q0 89 -67 132.5t-160 43.5h-111q-6 0 -13 1.5t-9 9.5
l-12 39q-3 12 16 12h485v-62h-166q52 -33 70.5 -80t18.5 -93q0 -101 -79.5 -178t-211.5 -120.5t-292 -43.5z" />
    <glyph glyph-name="uni066E.init" unicode="&#x66e;" horiz-adv-x="558" 
d="M142 0h-162v62h160q130 0 179.5 70t49.5 195q0 51 -7 117.5t-18 126.5l58 15q11 -55 17 -123t6 -120q0 -163 -63 -253t-220 -90z" />
    <glyph glyph-name="uni066E.medi" unicode="&#x66e;" horiz-adv-x="690" 
d="M366 478l48 6l12 -171q5 -80 39.5 -136t84.5 -85.5t101 -29.5h59v-62h-59q-74 0 -129 35.5t-86 81t-34 74.5q-29 -97 -116 -144t-215 -47h-91v62h93q134 0 215.5 64.5t82.5 226.5q0 73 -5 125z" />
    <glyph glyph-name="uni066E.fina" unicode="&#x66e;" horiz-adv-x="1873" 
d="M1547 478l48 6l13 -183q7 -106 68 -172.5t156 -66.5h61v-62h-61q-106 0 -174.5 59.5t-83.5 147.5q-64 -121 -202 -164t-378 -43h-169q-145 0 -271 13t-221.5 53t-149.5 119t-54 210q0 92 31 185l47 -18q-9 -37 -16.5 -75.5t-7.5 -74.5q0 -123 51.5 -193.5t141 -104
t205.5 -43t244 -9.5h167q163 0 289 23t198.5 91t72.5 204q0 29 -1.5 54t-3.5 44z" />
    <glyph glyph-name="uni066F.init" unicode="&#x66f;" horiz-adv-x="906" 
d="M360 62q141 0 221.5 22.5t114 94.5t33.5 220q-61 -19 -121 -32t-140 -13q-137 0 -210 53.5t-73 174.5q0 96 32.5 179t94.5 133.5t151 50.5q94 0 155.5 -52.5t97 -135t50.5 -175.5t15 -175q0 -125 -18.5 -205t-65.5 -124t-132 -61t-217 -17h-368v62h380zM481 413
q66 0 127 14t119 30q-9 65 -22.5 139t-40.5 140.5t-75.5 108.5t-126.5 42q-76 0 -126.5 -45t-75.5 -114t-25 -143q0 -104 71 -138t175 -34z" />
    <glyph glyph-name="uni066F.medi" unicode="&#x66f;" horiz-adv-x="1019" 
d="M838 410q0 -78 -38.5 -143.5t-94 -114.5t-106.5 -80q43 -2 110 -4.5t132 -4t101 -1.5h97v-62h-94q-60 0 -135 3.5t-147 13t-125 28.5q-52 -21 -126.5 -30.5t-151.5 -12t-140 -2.5h-140v62h140q40 0 107 1.5t137 4t117 5.5q-49 31 -104 80.5t-93 115t-38 143.5
q0 75 44.5 145t112 115.5t136.5 45.5q72 0 141 -45.5t113.5 -116t44.5 -146.5zM539 660q-62 0 -117.5 -41t-89.5 -99.5t-34 -111.5q0 -68 43 -130t100 -109t98 -72q48 26 106 72.5t100 108.5t42 132q0 54 -36 112t-92.5 98t-119.5 40z" />
    <glyph glyph-name="uni066F.fina" unicode="&#x66f;" horiz-adv-x="1379" 
d="M659 -515q-261 0 -395.5 133.5t-134.5 384.5q0 85 15.5 176t43.5 180l53 -20q-24 -83 -40 -170t-16 -172q0 -217 122.5 -334.5t351.5 -117.5q263 0 389.5 110t126.5 345h-223q-151 0 -235.5 52.5t-84.5 194.5q0 94 30 179.5t91.5 140t154.5 54.5q102 0 165.5 -51.5
t98 -135t47.5 -181.5t13 -191h167v-62h-169q0 -274 -152 -394.5t-419 -120.5zM942 62h235q-1 79 -10.5 165.5t-36.5 162.5t-80.5 123.5t-143.5 47.5q-78 0 -127 -48t-71.5 -119t-22.5 -141q0 -110 73 -150.5t184 -40.5z" />
    <glyph glyph-name="uni067C.init" unicode="&#x67c;" horiz-adv-x="648" 
d="M414 1054l65 -64l-65 -66l-65 66zM194 1054l65 -64l-65 -66l-65 66zM-20 62h254q130 0 179.5 70t49.5 195q0 51 -7 117.5t-18 126.5l58 15q11 -55 17 -123t6 -120q0 -111 -28.5 -189.5t-95.5 -117.5q45 -17 74 -57.5t29 -90.5q0 -65 -47 -112.5t-112 -47.5t-112.5 47.5
t-47.5 112.5t47 112h-246v62zM219 -112q0 -50 35.5 -84.5t84.5 -34.5q50 0 84.5 34.5t34.5 84.5t-34.5 85t-84.5 35t-85 -35t-35 -85z" />
    <glyph glyph-name="uni067C.medi" unicode="&#x67c;" horiz-adv-x="784" 
d="M414 967l65 -64l-65 -66l-65 66zM194 967l65 -64l-65 -66l-65 66zM-20 62h187q134 0 215.5 64.5t82.5 226.5q0 73 -5 125l48 6l12 -171q5 -80 39.5 -136t84.5 -85.5t101 -29.5h59v-62h-59q-74 0 -129 35.5t-86 81t-34 74.5q-28 -93 -113 -142q50 -14 83 -56.5t33 -96.5
q0 -65 -47 -112.5t-112 -47.5t-112.5 47.5t-47.5 112.5q0 61 42 106q-27 -2 -57 -2h-185v62zM220 -104q0 -50 35.5 -84.5t84.5 -34.5q50 0 84.5 34.5t34.5 84.5t-34.5 85t-84.5 35t-85 -35t-35 -85z" />
    <glyph glyph-name="uni067C.fina" unicode="&#x67c;" horiz-adv-x="1873" 
d="M717 -125q0 65 47.5 112t112.5 47t112 -47t47 -112t-47 -112.5t-112 -47.5t-112.5 47.5t-47.5 112.5zM757 -125q0 -50 35.5 -84.5t84.5 -34.5q50 0 84.5 34.5t34.5 84.5t-34.5 85t-84.5 35t-85 -35t-35 -85zM990 806l65 -64l-65 -66l-65 66zM770 806l65 -64l-65 -66
l-65 66zM1547 478l48 6l13 -183q7 -106 68 -172.5t156 -66.5h61v-62h-61q-106 0 -174.5 59.5t-83.5 147.5q-64 -121 -202 -164t-378 -43h-169q-145 0 -271 13t-221.5 53t-149.5 119t-54 210q0 92 31 185l47 -18q-9 -37 -16.5 -75.5t-7.5 -74.5q0 -123 51.5 -193.5t141 -104
t205.5 -43t244 -9.5h167q163 0 289 23t198.5 91t72.5 204q0 29 -1.5 54t-3.5 44z" />
    <glyph glyph-name="uni0681.init" unicode="&#x681;" horiz-adv-x="1342" 
d="M567 1021q-40 20 -71.5 56.5t-31.5 91.5q0 78 56 126t122 48q26 0 42 -3t42 -12l1 -44q-38 13 -81 13q-57 0 -100 -38t-43 -91q0 -55 44.5 -87.5t84.5 -27.5q13 1 28 8l114 43l6 -40l-344 -135l-5 37zM-20 62h170q140 0 269 32.5t249.5 83t236 106.5t227.5 104
q-98 27 -193.5 66.5t-180.5 78t-151.5 64.5t-107.5 26q-82 0 -134.5 -40.5t-93.5 -88.5l-9 -11l-49 24l9 12q59 77 125 119.5t153 42.5q49 0 133 -34.5t187 -82t208 -89t196 -55.5v-68q-82 -25 -160 -58.5t-202 -92.5q-214 -101 -379.5 -151t-335.5 -50h-167v62z" />
    <glyph glyph-name="uni0681.medi" unicode="&#x681;" horiz-adv-x="1396" 
d="M567 1021q-40 20 -71.5 56.5t-31.5 91.5q0 78 56 126t122 48q26 0 42 -3t42 -12l1 -44q-38 13 -81 13q-57 0 -100 -38t-43 -91q0 -55 44.5 -87.5t84.5 -27.5q13 1 28 8l114 43l6 -40l-344 -135l-5 37zM1224 420v-68q-49 -16 -96.5 -32.5t-103.5 -42.5q20 -99 56.5 -144.5
t102.5 -58t172 -12.5h61v-62h-61q-137 0 -213 23.5t-111.5 79.5t-52.5 151q-134 -63 -271.5 -121t-277.5 -95.5t-282 -37.5h-167v62h170q140 0 269 32t249.5 83t236 107t227.5 104q-98 27 -193.5 66.5t-180.5 78t-151.5 64.5t-107.5 26q-82 0 -134.5 -40.5t-93.5 -88.5
l-9 -11l-49 24l9 12q59 77 125 119.5t153 42.5q49 0 133 -35t187 -83t208 -89.5t196 -53.5z" />
    <glyph glyph-name="uni0681.fina" unicode="&#x681;" horiz-adv-x="1379" 
d="M497 1051q-40 20 -71.5 56.5t-31.5 91.5q0 78 56 126t122 48q26 0 42 -3t42 -12l1 -44q-38 13 -81 13q-57 0 -100 -38t-43 -91q0 -55 44.5 -87.5t84.5 -27.5q13 1 28 8l114 43l6 -40l-344 -135l-5 37zM129 -235q0 165 77.5 286.5t207.5 206t290 137.5t325 81
q-125 38 -237.5 86t-201 83.5t-140.5 35.5q-82 0 -134.5 -40.5t-93.5 -88.5l-9 -11l-49 24l9 12q59 77 125 119.5t153 42.5q49 0 130 -32t180 -76t201 -82.5t193 -50.5v-64q-99 -11 -204 -32q0 -136 35.5 -210t116.5 -102t215 -28h81v-62h-78q-153 0 -245.5 34.5t-133.5 120
t-41 236.5q-138 -32 -266.5 -85t-230 -129t-161 -176t-59.5 -226q0 -156 75 -245.5t203.5 -126.5t288.5 -37q101 0 209.5 18t203.5 55l14 -56q-91 -37 -207.5 -55.5t-234.5 -18.5q-170 0 -308 44t-218.5 144.5t-80.5 267.5z" />
    <glyph glyph-name="uni0685.init" unicode="&#x685;" horiz-adv-x="1342" 
d="M616 1287l63 -63l-63 -63l-63 63zM737 1089l63 -63l-63 -63l-64 63zM495 1089l64 -63l-64 -63l-63 63zM-20 62h170q140 0 269 32.5t249.5 83t236 106.5t227.5 104q-98 27 -193.5 66.5t-180.5 78t-151.5 64.5t-107.5 26q-82 0 -134.5 -40.5t-93.5 -88.5l-9 -11l-49 24
l9 12q59 77 125 119.5t153 42.5q49 0 133 -34.5t187 -82t208 -89t196 -55.5v-68q-82 -25 -160 -58.5t-202 -92.5q-214 -101 -379.5 -151t-335.5 -50h-167v62z" />
    <glyph glyph-name="uni0685.medi" unicode="&#x685;" horiz-adv-x="1396" 
d="M616 1287l63 -63l-63 -63l-63 63zM737 1089l63 -63l-63 -63l-64 63zM495 1089l64 -63l-64 -63l-63 63zM1224 420v-68q-49 -16 -96.5 -32.5t-103.5 -42.5q20 -99 56.5 -144.5t102.5 -58t172 -12.5h61v-62h-61q-137 0 -213 23.5t-111.5 79.5t-52.5 151
q-134 -63 -271.5 -121t-277.5 -95.5t-282 -37.5h-167v62h170q140 0 269 32t249.5 83t236 107t227.5 104q-98 27 -193.5 66.5t-180.5 78t-151.5 64.5t-107.5 26q-82 0 -134.5 -40.5t-93.5 -88.5l-9 -11l-49 24l9 12q59 77 125 119.5t153 42.5q49 0 133 -35t187 -83t208 -89.5
t196 -53.5z" />
    <glyph glyph-name="uni0685.fina" unicode="&#x685;" horiz-adv-x="1379" 
d="M551 1288l63 -63l-63 -63l-63 63zM672 1090l63 -63l-63 -63l-64 63zM430 1090l64 -63l-64 -63l-63 63zM129 -235q0 165 77.5 286.5t207.5 206t290 137.5t325 81q-125 38 -237.5 86t-201 83.5t-140.5 35.5q-82 0 -134.5 -40.5t-93.5 -88.5l-9 -11l-49 24l9 12
q59 77 125 119.5t153 42.5q49 0 130 -32t180 -76t201 -82.5t193 -50.5v-64q-99 -11 -204 -32q0 -136 35.5 -210t116.5 -102t215 -28h81v-62h-78q-153 0 -245.5 34.5t-133.5 120t-41 236.5q-138 -32 -266.5 -85t-230 -129t-161 -176t-59.5 -226q0 -156 75 -245.5
t203.5 -126.5t288.5 -37q101 0 209.5 18t203.5 55l14 -56q-91 -37 -207.5 -55.5t-234.5 -18.5q-170 0 -308 44t-218.5 144.5t-80.5 267.5z" />
    <glyph glyph-name="uni0689.fina" unicode="&#x689;" horiz-adv-x="1059" 
d="M256 -121q0 65 47.5 112t112.5 47t112 -47t47 -112t-47 -112.5t-112 -47.5t-112.5 47.5t-47.5 112.5zM296 -121q0 -50 35.5 -84.5t84.5 -34.5q50 0 84.5 34.5t34.5 84.5t-34.5 85t-84.5 35t-85 -35t-35 -85zM713 289q0 44 -18.5 89.5t-40.5 93.5l-152 348l51 23l204 -475
q34 -78 63 -148t74 -114t125 -44h60v-62h-60q-82 0 -130.5 32.5t-77.5 84.5t-55 108q-20 -85 -90.5 -134t-167.5 -69.5t-197 -20.5q-51 0 -93 4t-79 11v61q81 -15 157 -15q104 0 202 21t161.5 70.5t63.5 135.5z" />
    <glyph glyph-name="uni0693.fina" unicode="&#x693;" horiz-adv-x="761" 
d="M183 -540q0 65 47.5 112t112.5 47t112 -47t47 -112t-47 -112.5t-112 -47.5t-112.5 47.5t-47.5 112.5zM223 -540q0 -50 35.5 -84.5t84.5 -34.5q50 0 84.5 34.5t34.5 84.5t-34.5 85t-84.5 35t-85 -35t-35 -85zM720 0q-81 0 -132 33t-75 82q10 -187 -51 -318t-169 -211
t-238 -114l-17 49q204 61 313 199.5t109 344.5q0 149 -55 326l52 17l41 -147q22 -83 74 -141t148 -58h61v-62h-61z" />
    <glyph glyph-name="uni0695.fina" unicode="&#x695;" horiz-adv-x="761" 
d="M205 -936l-137 278l40 20l135 -275l135 275l40 -20l-137 -278h-76zM720 0q-81 0 -132 33t-75 82q10 -187 -51 -318t-169 -211t-238 -114l-17 49q204 61 313 199.5t109 344.5q0 149 -55 326l52 17l41 -147q22 -83 74 -141t148 -58h61v-62h-61z" />
    <glyph glyph-name="uni0696.fina" unicode="&#x696;" horiz-adv-x="761" 
d="M387 -597l70 -70l-70 -70l-70 70zM132 98l70 -70l-70 -70l-70 70zM720 0q-81 0 -132 33t-75 82q10 -187 -51 -318t-169 -211t-238 -114l-17 49q204 61 313 199.5t109 344.5q0 149 -55 326l52 17l41 -147q22 -83 74 -141t148 -58h61v-62h-61z" />
    <glyph glyph-name="uni069A.init" unicode="&#x69a;" horiz-adv-x="1585" 
d="M973 -233l70 -70l-70 -70l-70 70zM910 962l70 -70l-70 -70l-70 70zM677 0q-123 0 -184 55.5t-84 139.5q-39 -104 -115 -149.5t-222 -45.5h-92v62h94q149 0 227.5 65t78.5 216q0 22 -1.5 51t-4.5 58l47 6l12 -146q8 -105 68.5 -177.5t176.5 -72.5q134 0 188.5 75.5
t54.5 205.5q0 22 -2 51t-5 58l48 6l12 -146q7 -101 59.5 -175.5t164.5 -74.5q76 0 121.5 37.5t65.5 99t20 132.5q0 59 -8 118.5t-21 110.5l56 15q30 -120 30 -242q0 -88 -25.5 -163.5t-83 -122t-153.5 -47.5q-120 0 -176 58t-72 132q-26 -84 -89.5 -137t-185.5 -53z" />
    <glyph glyph-name="uni069A.medi" unicode="&#x69a;" horiz-adv-x="1729" 
d="M973 -233l70 -70l-70 -70l-70 70zM910 962l70 -70l-70 -70l-70 70zM1200 0q-120 0 -176 58t-72 132q-26 -84 -89.5 -137t-185.5 -53q-123 0 -184 55.5t-84 139.5q-39 -104 -115 -149.5t-222 -45.5h-92v62h94q149 0 227.5 65t78.5 216q0 22 -1.5 51t-4.5 58l47 6l12 -146
q8 -105 68.5 -177.5t176.5 -72.5q134 0 188.5 75.5t54.5 205.5q0 22 -2 51t-5 58l48 6l12 -146q7 -101 59.5 -175.5t164.5 -74.5q77 0 123 38.5t66.5 102.5t20.5 140q0 58 -6 125l47 6l12 -162q7 -106 69.5 -178t156.5 -72h62v-62h-62q-203 0 -249 197q-18 -91 -74 -144
t-164 -53z" />
    <glyph glyph-name="uni069A.fina" unicode="&#x69a;" horiz-adv-x="2503" 
d="M1742 -233l70 -70l-70 -70l-70 70zM1679 962l70 -70l-70 -70l-70 70zM659 -455q176 0 281.5 59.5t153 161.5t47.5 231q0 89 -20 187.5t-55 198.5l59 24l39 -136q30 -97 96 -153t193 -56q134 0 188.5 75.5t54.5 205.5q0 22 -2 51t-5 58l48 6l12 -146q7 -101 59.5 -175.5
t164.5 -74.5q77 0 123 38.5t66.5 102.5t20.5 140q0 58 -6 125l47 6l12 -162q7 -106 69.5 -178t156.5 -72h61v-62h-61q-203 0 -249 197q-18 -91 -74 -144t-164 -53q-120 0 -176 58t-72 132q-26 -84 -89.5 -137t-185.5 -53q-89 0 -158.5 29.5t-100.5 66.5q16 -176 -30.5 -314
t-169 -217.5t-334.5 -79.5q-261 0 -395.5 133.5t-134.5 384.5q0 85 15.5 176t43.5 180l53 -20q-24 -83 -40 -170t-16 -172q0 -217 122.5 -334.5t351.5 -117.5z" />
    <glyph glyph-name="uni06A0.init" unicode="&#x6a0;" horiz-adv-x="1048" 
d="M560 1333l63 -63l-63 -63l-63 63zM681 1135l63 -63l-63 -63l-64 63zM439 1135l64 -63l-64 -63l-63 63zM428 62q-39 30 -83 80t-75 120.5t-31 160.5q0 87 46.5 160.5t124 118t168.5 44.5q59 0 125.5 -20.5t139.5 -65.5l-19 -43q-50 26 -109 47t-126 21q-77 0 -144.5 -33.5
t-108.5 -94t-41 -141.5q0 -78 28.5 -137.5t62.5 -97t50 -52.5q28 -25 48.5 -37.5t37.5 -8.5l397 107v-56q-131 -40 -223 -66t-168.5 -41t-157.5 -21t-191 -6h-199v62h448z" />
    <glyph glyph-name="uni06A0.medi" unicode="&#x6a0;" horiz-adv-x="1172" 
d="M621 1249l63 -63l-63 -63l-63 63zM742 1051l63 -63l-63 -63l-64 63zM500 1051l64 -63l-64 -63l-63 63zM622 663q47 0 118.5 -7t143 -22.5t120 -39.5t48.5 -59q0 -21 -31 -63t-79.5 -94t-102 -104t-99.5 -93.5t-70 -61.5q89 -37 168.5 -47t192.5 -10h161v-62h-161
q-124 0 -224.5 16t-184.5 71q-52 -35 -130.5 -54t-168.5 -26t-175 -7h-168v62h169q120 0 227 9t198 48q-25 21 -71 63.5t-99.5 94.5t-101.5 104t-79 93.5t-31 60.5q0 35 48.5 59.5t120 39.5t143 22t118.5 7zM622 606q-101 0 -203.5 -19.5t-182.5 -45.5q72 -91 154 -175.5
t147 -144t85 -76.5q15 12 56.5 49.5t98.5 93t118.5 121t114.5 132.5q-79 26 -182.5 45.5t-205.5 19.5z" />
    <glyph glyph-name="uni06A0.fina" unicode="&#x6a0;" horiz-adv-x="1200" 
d="M606 1303l63 -63l-63 -63l-63 63zM727 1105l63 -63l-63 -63l-64 63zM485 1105l64 -63l-64 -63l-63 63zM552 201q-24 21 -69.5 63.5t-98 94t-100.5 103t-78.5 93t-30.5 60.5q0 35 48 59.5t119 39.5t142.5 22t118.5 7t118.5 -7t143 -22.5t120 -39.5t48.5 -59
q0 -21 -31.5 -63t-80.5 -94.5t-103 -104.5t-100 -93.5t-70 -61.5q117 -77 232 -106.5t280 -29.5h60v-62h-60q-100 0 -189.5 12.5t-178.5 48.5t-190 106q-69 -42 -142.5 -85.5t-136.5 -95t-101.5 -114.5t-38.5 -143q0 -131 70.5 -211t186.5 -116t253 -36q77 0 159 10t161 37
l10 -57q-72 -25 -157.5 -36t-177.5 -11q-155 0 -282 43t-202 136t-75 241q0 94 43.5 165.5t110 126.5t139 99t130.5 81zM603 686q-101 0 -203.5 -19.5t-182.5 -45.5q72 -91 154 -175.5t147 -144t85 -76.5q15 12 56.5 49.5t98.5 93t118.5 121t114.5 132.5q-79 26 -182.5 45.5
t-205.5 19.5z" />
    <glyph glyph-name="uni06A1.init" unicode="&#x6a1;" horiz-adv-x="906" 
d="M360 62q141 0 221.5 22.5t114 94.5t33.5 220q-61 -19 -121 -32t-140 -13q-137 0 -210 53.5t-73 174.5q0 96 32.5 179t94.5 133.5t151 50.5q94 0 155.5 -52.5t97 -135t50.5 -175.5t15 -175q0 -125 -18.5 -205t-65.5 -124t-132 -61t-217 -17h-368v62h380zM481 413
q66 0 127 14t119 30q-9 65 -22.5 139t-40.5 140.5t-75.5 108.5t-126.5 42q-76 0 -126.5 -45t-75.5 -114t-25 -143q0 -104 71 -138t175 -34z" />
    <glyph glyph-name="uni06A1.medi" unicode="&#x6a1;" horiz-adv-x="1019" 
d="M838 410q0 -78 -38.5 -143.5t-94 -114.5t-106.5 -80q43 -2 110 -4.5t132 -4t101 -1.5h97v-62h-94q-60 0 -135 3.5t-147 13t-125 28.5q-52 -21 -126.5 -30.5t-151.5 -12t-140 -2.5h-140v62h140q40 0 107 1.5t137 4t117 5.5q-49 31 -104 80.5t-93 115t-38 143.5
q0 75 44.5 145t112 115.5t136.5 45.5q72 0 141 -45.5t113.5 -116t44.5 -146.5zM539 660q-62 0 -117.5 -41t-89.5 -99.5t-34 -111.5q0 -68 43 -130t100 -109t98 -72q48 26 106 72.5t100 108.5t42 132q0 54 -36 112t-92.5 98t-119.5 40z" />
    <glyph glyph-name="uni06A1.fina" unicode="&#x6a1;" horiz-adv-x="1873" 
d="M825 62h71q30 0 88 1t126 2.5t128.5 3.5t96.5 4q-49 31 -104 80.5t-93 115t-38 143.5q0 75 44.5 145t112 115.5t136.5 45.5q72 0 141 -45.5t113.5 -116t44.5 -146.5q0 -78 -38.5 -143.5t-94 -114.5t-106.5 -80q43 -2 110 -4.5t132 -4t101 -1.5h97v-62h-94q-60 0 -135 3.5
t-147 13t-125 28.5q-39 -16 -103 -25t-137.5 -13.5t-141 -5.5t-114.5 -1h-71q-145 0 -271 13t-221.5 53t-149.5 119t-54 210q0 92 31 185l47 -18q-9 -37 -16.5 -75.5t-7.5 -74.5q0 -123 51.5 -193.5t141 -104t205.5 -43t244 -9.5zM1393 660q-62 0 -117.5 -41t-89.5 -99.5
t-34 -111.5q0 -68 43 -130t100 -109t98 -72q48 26 106 72.5t100 108.5t42 132q0 54 -36 112t-92.5 98t-119.5 40z" />
    <glyph glyph-name="uni06AA.init" unicode="&#x6aa;" horiz-adv-x="1589" 
d="M780 481h-446q-106 0 -166.5 5.5t-60.5 34.5q0 32 30.5 56t92.5 64q206 133 394 213.5t363 145.5v-55q-139 -53 -284 -116.5t-280.5 -135.5t-248.5 -153h611q103 0 220 -9t220.5 -36.5t169 -80.5t65.5 -140q0 -76 -45 -126t-120 -79.5t-166.5 -44.5t-185.5 -19.5
t-176 -4.5h-787v62h786q72 0 158 4.5t170 17t154 36t112.5 62t42.5 95.5q0 65 -62 105t-159 61.5t-204 29.5t-198 8z" />
    <glyph glyph-name="uni06AA.medi" unicode="&#x6aa;" horiz-adv-x="1701" 
d="M1661 0q-106 0 -172.5 32.5t-123.5 78.5q-69 -48 -172.5 -71.5t-216 -31.5t-209.5 -8h-787v62h786q72 0 158 4.5t170 17t154 36t112.5 62t42.5 95.5q0 65 -62 105t-159 61.5t-204 29.5t-198 8h-446q-106 0 -166.5 5.5t-60.5 34.5q0 32 30.5 56t92.5 64q206 133 394 213.5
t363 145.5v-55q-139 -53 -284 -116.5t-280.5 -135.5t-248.5 -153h611q103 0 220 -9t220.5 -36.5t169 -80.5t65.5 -140q0 -37 -14 -68t-39 -57q112 -87 254 -87h60v-62h-60z" />
    <glyph glyph-name="uni06AA.fina" unicode="&#x6aa;" horiz-adv-x="2062" 
d="M1128 0h-369q-41 0 -122.5 3t-178.5 8.5t-186 13t-144 17.5l6 56q201 -24 357 -30t258 -6h378q72 0 158 4.5t170 17t154 36t112.5 62t42.5 95.5q0 65 -62 105t-159 61.5t-204 29.5t-198 8h-446q-106 0 -166.5 5.5t-60.5 34.5q0 32 31 56t92 64q204 134 393 214t364 145
v-55q-139 -53 -284 -116.5t-280.5 -135.5t-248.5 -153h611q103 0 220 -9t220.5 -36.5t169 -80.5t65.5 -140q0 -37 -14 -68t-39 -57q112 -87 254 -87h60v-62h-60q-106 0 -172.5 32t-123.5 78q-69 -48 -172.5 -71.5t-216 -31t-209.5 -7.5z" />
    <glyph glyph-name="uni06AB.init" unicode="&#x6ab;" horiz-adv-x="879" 
d="M475 1067q0 65 47.5 112t112.5 47t112 -47t47 -112t-47 -112.5t-112 -47.5t-112.5 47.5t-47.5 112.5zM515 1067q0 -50 35.5 -84.5t84.5 -34.5q50 0 84.5 34.5t34.5 84.5t-34.5 85t-84.5 35t-85 -35t-35 -85zM95 984q57 -40 137 -96.5t164.5 -125t158 -146.5t119 -160.5
t45.5 -165.5q0 -116 -67.5 -179t-180 -87t-247.5 -24h-244v62h243q109 0 210.5 17.5t166.5 67.5t65 147q0 66 -38.5 134.5t-100.5 134.5t-134 127t-140 112.5t-117 90.5q-25 20 -56 41.5t-31 45.5q0 33 30.5 49.5t74.5 34.5l666 271v-57z" />
    <glyph glyph-name="uni06AB.medi" unicode="&#x6ab;" horiz-adv-x="1046" 
d="M475 1067q0 65 47.5 112t112.5 47t112 -47t47 -112t-47 -112.5t-112 -47.5t-112.5 47.5t-47.5 112.5zM515 1067q0 -50 35.5 -84.5t84.5 -34.5q50 0 84.5 34.5t34.5 84.5t-34.5 85t-84.5 35t-85 -35t-35 -85zM95 984q54 -37 127.5 -89t153 -114.5t151 -133.5t122 -147.5
t65.5 -154.5q12 -62 52 -127.5t101.5 -110.5t136.5 -45h62v-62h-62q-100 0 -176.5 61.5t-121.5 154.5q-18 -85 -86.5 -132t-171 -65.5t-224.5 -18.5h-244v62h243q109 0 210.5 17.5t166.5 67.5t65 147q0 66 -38.5 134.5t-100.5 134.5t-134 127t-140 112.5t-117 90.5
q-25 20 -56 41.5t-31 45.5q0 33 30.5 49.5t74.5 34.5l666 271v-57z" />
    <glyph glyph-name="uni06AB.fina" unicode="&#x6ab;" horiz-adv-x="1899" 
d="M1335 1067q0 65 47.5 112t112.5 47t112 -47t47 -112t-47 -112.5t-112 -47.5t-112.5 47.5t-47.5 112.5zM1375 1067q0 -50 35.5 -84.5t84.5 -34.5q50 0 84.5 34.5t34.5 84.5t-34.5 85t-84.5 35t-85 -35t-35 -85zM1078 0h-253q-145 0 -271 13.5t-221.5 53.5t-149.5 118.5
t-54 209.5q0 92 31 185l47 -18q-9 -37 -16.5 -75.5t-7.5 -74.5q0 -123 51.5 -193.5t141 -104t205.5 -43t244 -9.5h252q109 0 210.5 17.5t166.5 67.5t65 147q0 66 -38.5 134.5t-100.5 134.5t-134 127t-140 112.5t-117 90.5q-25 20 -56 41.5t-31 45.5q0 33 30.5 49.5
t74.5 34.5l666 271v-57l-724 -294q54 -37 127.5 -89t153 -114.5t151 -133.5t122 -147.5t65.5 -154.5q12 -62 52 -127.5t101.5 -110.5t136.5 -45h61v-62h-61q-100 0 -176.5 62t-121.5 155q-18 -85 -86.5 -132t-171 -66t-224.5 -19z" />
    <glyph glyph-name="uni06AC.init" unicode="&#x6ac;" horiz-adv-x="879" 
d="M347 1567l70 -70l-70 -70l-70 70zM95 984q57 -40 137 -96.5t164.5 -125t158 -146.5t119 -160.5t45.5 -165.5q0 -116 -67.5 -179t-180 -87t-247.5 -24h-244v62h243q109 0 210.5 17.5t166.5 67.5t65 147q0 66 -38.5 134.5t-100.5 134.5t-134 127t-140 112.5t-117 90.5
q-25 20 -56 41.5t-31 45.5q0 33 30.5 49.5t74.5 34.5l666 271v-57z" />
    <glyph glyph-name="uni06AC.medi" unicode="&#x6ac;" horiz-adv-x="1046" 
d="M347 1567l70 -70l-70 -70l-70 70zM95 984q54 -37 127.5 -89t153 -114.5t151 -133.5t122 -147.5t65.5 -154.5q12 -62 52 -127.5t101.5 -110.5t136.5 -45h62v-62h-62q-100 0 -176.5 61.5t-121.5 154.5q-18 -85 -86.5 -132t-171 -65.5t-224.5 -18.5h-244v62h243
q109 0 210.5 17.5t166.5 67.5t65 147q0 66 -38.5 134.5t-100.5 134.5t-134 127t-140 112.5t-117 90.5q-25 20 -56 41.5t-31 45.5q0 33 30.5 49.5t74.5 34.5l666 271v-57z" />
    <glyph glyph-name="uni06AC.fina" unicode="&#x6ac;" horiz-adv-x="1853" 
d="M866 1357l70 -70l-70 -70l-70 70zM825 62h158q120 0 220 9.5t173.5 45t114 110.5t40.5 206v884h51v-881q0 -111 17.5 -195.5t67.5 -131.5t145 -47h61v-62h-61q-133 0 -188.5 65t-74.5 166q-37 -94 -100.5 -144t-172.5 -68.5t-286 -18.5h-165q-145 0 -271 13.5
t-221.5 53.5t-149.5 118.5t-54 209.5q0 92 31 185l47 -18q-9 -38 -16.5 -75.5t-7.5 -73.5q0 -123 51.5 -193.5t141 -104.5t205.5 -43.5t244 -9.5zM708 512q26 -2 59.5 -4.5t67.5 -2.5q67 0 123 16.5t56 68.5q0 33 -27.5 48.5t-68 24t-81 19.5t-67.5 33.5t-27 66.5
q0 64 46 106.5t111.5 66t123.5 29.5l3 -56q-41 -4 -97 -22t-98 -47.5t-42 -69.5q0 -29 25.5 -43.5t63 -22.5t76.5 -18t67 -32q16 -13 26 -32.5t10 -46.5q0 -56 -32 -86t-84 -42t-110 -12q-62 0 -124 9v49z" />
    <glyph glyph-name="uni06B5.init" unicode="&#x6b5;" horiz-adv-x="560" 
d="M312 1462l-137 278l40 20l135 -275l135 275l40 -20l-137 -278h-76zM-20 62h71q153 0 214.5 80.5t61.5 217.5v957h51v-956q0 -182 -75 -271.5t-253 -89.5h-70v62z" />
    <glyph glyph-name="uni06B5.medi" unicode="&#x6b5;" horiz-adv-x="651" 
d="M312 1462l-137 278l40 20l135 -275l135 275l40 -20l-137 -278h-76zM327 375v942h51v-942q0 -84 24 -155.5t75.5 -114.5t132.5 -43h61v-62h-61q-75 0 -126 29.5t-82 75.5t-46 95q-40 -110 -110 -155t-196 -45h-70v62h70q150 0 213.5 78t63.5 235z" />
    <glyph glyph-name="uni06B5.fina" unicode="&#x6b5;" horiz-adv-x="1352" 
d="M553 1034l-137 278l40 20l135 -275l135 275l40 -20l-137 -278h-76zM599 -496q-174 0 -277 60t-148 166t-45 243q0 85 15.5 176t43.5 180l53 -20q-24 -83 -40 -170t-16 -172q0 -115 40 -206t131 -144t243 -53q219 0 320 115t101 359v1279h50v-968q0 -129 60 -208t181 -79
h61v-62h-61q-79 0 -142.5 28t-97.5 107q2 -129 -12 -243t-61 -201.5t-142.5 -137t-256.5 -49.5z" />
    <glyph glyph-name="uni06BA.init" unicode="&#x6ba;" horiz-adv-x="558" 
d="M142 0h-162v62h160q130 0 179.5 70t49.5 195q0 51 -7 117.5t-18 126.5l58 15q11 -55 17 -123t6 -120q0 -163 -63 -253t-220 -90z" />
    <glyph glyph-name="uni06BA.medi" unicode="&#x6ba;" horiz-adv-x="690" 
d="M366 478l48 6l12 -171q5 -80 39.5 -136t84.5 -85.5t101 -29.5h59v-62h-59q-74 0 -129 35.5t-86 81t-34 74.5q-29 -97 -116 -144t-215 -47h-91v62h93q134 0 215.5 64.5t82.5 226.5q0 73 -5 125z" />
    <glyph glyph-name="uni06BC.init" unicode="&#x6bc;" horiz-adv-x="558" 
d="M88 -112q0 65 47.5 112t112.5 47t112 -47t47 -112t-47 -112.5t-112 -47.5t-112.5 47.5t-47.5 112.5zM128 -112q0 -50 35.5 -84.5t84.5 -34.5q50 0 84.5 34.5t34.5 84.5t-34.5 85t-84.5 35t-85 -35t-35 -85zM142 0h-162v62h160q130 0 179.5 70t49.5 195q0 51 -7 117.5
t-18 126.5l58 15q11 -55 17 -123t6 -120q0 -163 -63 -253t-220 -90zM265 1005l70 -70l-70 -70l-70 70z" />
    <glyph glyph-name="uni06BC.medi" unicode="&#x6bc;" horiz-adv-x="690" 
d="M88 -104q0 65 47.5 112t112.5 47t112 -47t47 -112t-47 -112.5t-112 -47.5t-112.5 47.5t-47.5 112.5zM128 -104q0 -50 35.5 -84.5t84.5 -34.5q50 0 84.5 34.5t34.5 84.5t-34.5 85t-84.5 35t-85 -35t-35 -85zM366 478l48 6l12 -171q5 -80 39.5 -136t84.5 -85.5t101 -29.5
h59v-62h-59q-74 0 -129 35.5t-86 81t-34 74.5q-29 -97 -116 -144t-215 -47h-91v62h93q134 0 215.5 64.5t82.5 226.5q0 73 -5 125zM322 911l70 -70l-70 -70l-70 70z" />
    <glyph glyph-name="uni06BC.fina" unicode="&#x6bc;" horiz-adv-x="1447" 
d="M537 -640q0 65 47.5 112t112.5 47t112 -47t47 -112t-47 -112.5t-112 -47.5t-112.5 47.5t-47.5 112.5zM577 -640q0 -50 35.5 -84.5t84.5 -34.5q50 0 84.5 34.5t34.5 84.5t-34.5 85t-84.5 35t-85 -35t-35 -85zM648 618l70 -70l-70 -70l-70 70zM659 -455q176 0 281.5 59.5
t153 161.5t47.5 231q0 89 -20 187.5t-55 198.5l59 24l50 -173q23 -73 80.5 -122.5t150.5 -49.5h61v-62h-61q-64 0 -118.5 21.5t-94.5 74.5q16 -176 -30.5 -314t-169 -217.5t-334.5 -79.5q-261 0 -395.5 133.5t-134.5 384.5q0 85 15.5 176t43.5 180l53 -20q-24 -83 -40 -170
t-16 -172q0 -217 122.5 -334.5t351.5 -117.5z" />
    <glyph glyph-name="uni06BD.fina" unicode="&#x6bd;" horiz-adv-x="1447" 
d="M636 914l63 -63l-63 -63l-63 63zM757 716l63 -63l-63 -63l-64 63zM515 716l64 -63l-64 -63l-63 63zM659 -455q176 0 281.5 59.5t153 161.5t47.5 231q0 89 -20 187.5t-55 198.5l59 24l50 -173q23 -73 80.5 -122.5t150.5 -49.5h61v-62h-61q-64 0 -118.5 21.5t-94.5 74.5
q16 -176 -30.5 -314t-169 -217.5t-334.5 -79.5q-261 0 -395.5 133.5t-134.5 384.5q0 85 15.5 176t43.5 180l53 -20q-24 -83 -40 -170t-16 -172q0 -217 122.5 -334.5t351.5 -117.5z" />
    <glyph glyph-name="uni06C2.init" unicode="&#x6c2;" horiz-adv-x="558" 
d="M242 860q-40 20 -71.5 56.5t-31.5 91.5q0 78 56 126t122 48q26 0 42 -3t42 -12l1 -44q-38 13 -81 13q-57 0 -100 -38t-43 -91q0 -55 44.5 -87.5t84.5 -27.5q13 1 28 8l114 43l6 -40l-344 -135l-5 37zM142 0h-162v62h160q130 0 179.5 70t49.5 195q0 51 -7 117.5t-18 126.5
l58 15q11 -55 17 -123t6 -120q0 -163 -63 -253t-220 -90zM317 -304q-34 -34 -64 -85.5t-30 -125.5q35 7 55 -6.5t20 -42.5q0 -54 -49 -54q-40 0 -53.5 18.5t-13.5 58.5q0 92 39 158t73 97z" />
    <glyph glyph-name="uni06C2.medi" unicode="&#x6c2;" horiz-adv-x="1020" 
d="M498 532q-40 20 -71.5 56.5t-31.5 91.5q0 78 56 126t122 48q26 0 42 -3t42 -12l1 -44q-38 13 -81 13q-57 0 -100 -38t-43 -91q0 -55 44.5 -87.5t84.5 -27.5q13 1 28 8l114 43l6 -40l-344 -135l-5 37zM669 -385q0 -16 0.5 -41t3.5 -55l-54 -45q-112 62 -179.5 141.5
t-97 193.5t-29.5 278q-116 -87 -267 -87h-66v62h68q126 0 203 51.5t141 113.5l41 -45q-26 -29 -40.5 -44.5t-20.5 -40.5t-6 -85q0 -354 253 -477q-9 159 32 277.5t124.5 184t202.5 65.5h62v-62h-62q-108 0 -176.5 -52.5t-100.5 -140t-32 -192.5z" />
    <glyph glyph-name="uni06C2.fina" unicode="&#x6c2;" horiz-adv-x="927" 
d="M388 764q-40 20 -71.5 56.5t-31.5 91.5q0 78 56 126t122 48q26 0 42 -3t42 -12l1 -44q-38 13 -81 13q-57 0 -100 -38t-43 -91q0 -55 44.5 -87.5t84.5 -27.5q13 1 28 8l114 43l6 -40l-344 -135l-5 37zM470 422q-69 0 -117 -45.5t-80 -114t-52.5 -141t-32.5 -127.5l-53 8
q11 70 36 155t66 163t98.5 128t131.5 50q68 0 104 -46t76 -138q24 -53 53.5 -112t74 -99.5t111.5 -40.5h60v-62h-60q-74 0 -125 40t-85.5 100.5t-60.5 119.5q-14 33 -32 70.5t-44.5 64.5t-68.5 27z" />
    <glyph glyph-name="uni06C3.fina" unicode="&#x6c3;" horiz-adv-x="927" 
d="M530 883l65 -64l-65 -66l-65 66zM310 883l65 -64l-65 -66l-65 66zM470 422q-69 0 -117 -45.5t-80 -114t-52.5 -141t-32.5 -127.5l-53 8q11 70 36 155t66 163t98.5 128t131.5 50q68 0 104 -46t76 -138q24 -53 53.5 -112t74 -99.5t111.5 -40.5h60v-62h-60q-74 0 -125 40
t-85.5 100.5t-60.5 119.5q-14 33 -32 70.5t-44.5 64.5t-68.5 27z" />
    <glyph glyph-name="uni06CA.fina" unicode="&#x6ca;" horiz-adv-x="881" 
d="M511 1005l65 -64l-65 -66l-65 66zM291 1005l65 -64l-65 -66l-65 66zM405 621q102 0 165 -51.5t96.5 -135t45.5 -181.5t12 -191h177v-62h-182q-36 -227 -167 -347t-372 -179l-20 50q218 56 348 165t159 311h-219q-151 0 -235 54t-84 193q0 94 30.5 179.5t91.5 140
t154 54.5zM438 62h233q-1 79 -11.5 165.5t-38 162.5t-80 123.5t-138.5 47.5q-78 0 -126.5 -48t-71 -119t-22.5 -141q0 -110 72 -150.5t183 -40.5z" />
    <glyph glyph-name="uni06CD.fina" unicode="&#x6cd;" horiz-adv-x="1432" 
d="M792 -515q-266 0 -400.5 140.5t-134.5 375.5q0 112 29 237l-201 -91l11 52l204 92l53 -20q-36 -142 -36 -265q0 -211 115.5 -336t359.5 -125q136 0 257.5 35.5t197.5 98.5t76 145q0 89 -67 132.5t-160 43.5h-111q-6 0 -13 1.5t-9 9.5l-12 39q-3 12 16 12h485v-62h-166
q52 -33 70.5 -80t18.5 -93q0 -101 -79.5 -178t-211.5 -120.5t-292 -43.5z" />
    <glyph glyph-name="uni06CE.init" unicode="&#x6ce;" horiz-adv-x="608" 
d="M-22 62h216q130 0 179.5 70t49.5 195q0 51 -7 117.5t-18 126.5l58 15q11 -55 17 -123t6 -120q0 -163 -63 -253t-220 -90h-218v62zM283 -234l65 -64l-65 -66l-65 66zM63 -234l65 -64l-65 -66l-65 66zM337 874l-137 278l40 20l135 -275l135 275l40 -20l-137 -278h-76z" />
    <glyph glyph-name="uni06CE.medi" unicode="&#x6ce;" horiz-adv-x="743" 
d="M-22 62h148q134 0 215.5 64.5t82.5 226.5q0 73 -5 125l48 6l12 -171q5 -80 39.5 -136t84.5 -85.5t101 -29.5h59v-62h-59q-74 0 -129 35.5t-86 81t-34 74.5q-29 -97 -116 -144t-215 -47h-146v62zM283 -234l65 -64l-65 -66l-65 66zM63 -234l65 -64l-65 -66l-65 66zM378 760
l-137 278l40 20l135 -275l135 275l40 -20l-137 -278h-76z" />
    <glyph glyph-name="uni06CE.fina" unicode="&#x6ce;" horiz-adv-x="1299" 
d="M347 572l-137 278l40 20l135 -275l135 275l40 -20l-137 -278h-76zM659 -515q-266 0 -400.5 140.5t-134.5 375.5q0 136 43 290l53 -20q-36 -142 -36 -265q0 -211 115.5 -336t359.5 -125q136 0 257.5 35.5t197.5 98.5t76 145q0 89 -67 132.5t-160 43.5h-111q-6 0 -13 1.5
t-9 9.5l-12 39q-3 12 16 12h485v-62h-166q52 -33 70.5 -80t18.5 -93q0 -101 -79.5 -178t-211.5 -120.5t-292 -43.5z" />
    <glyph glyph-name="uni06CF.fina" unicode="&#x6cf;" horiz-adv-x="881" 
d="M405 621q102 0 165 -51.5t96.5 -135t45.5 -181.5t12 -191h177v-62h-182q-36 -227 -167 -347t-372 -179l-20 50q218 56 348 165t159 311h-219q-151 0 -235 54t-84 193q0 94 30.5 179.5t91.5 140t154 54.5zM438 62h233q-1 79 -11.5 165.5t-38 162.5t-80 123.5t-138.5 47.5
q-78 0 -126.5 -48t-71 -119t-22.5 -141q0 -110 72 -150.5t183 -40.5zM399 1057l70 -70l-70 -70l-70 70z" />
    <glyph glyph-name="uni06D0.init" unicode="&#x6d0;" horiz-adv-x="628" arabic-form="initial" 
d="M-22 62h206q130 0 179.5 70t49.5 195q0 51 -7 117.5t-18 126.5l58 15q11 -55 17 -123t6 -120q0 -163 -63 -253t-220 -90h-208v62zM214 -228l66 -65l-66 -65l-64 65zM214 -448l66 -65l-66 -65l-64 65z" />
    <glyph glyph-name="uni06D0.medi" unicode="&#x6d0;" horiz-adv-x="734" arabic-form="medial" 
d="M-22 62h139q134 0 215.5 64.5t82.5 226.5q0 73 -5 125l48 6l12 -171q5 -80 39.5 -136t84.5 -85.5t101 -29.5h59v-62h-59q-74 0 -129 35.5t-86 81t-34 74.5q-29 -97 -116 -144t-215 -47h-137v62zM214 -228l66 -65l-66 -65l-64 65zM214 -448l66 -65l-66 -65l-64 65z" />
    <glyph glyph-name="uni06D0.fina" unicode="&#x6d0;" horiz-adv-x="1299" arabic-form="final" 
d="M659 -515q-266 0 -400.5 140.5t-134.5 375.5q0 136 43 290l53 -20q-36 -142 -36 -265q0 -211 115.5 -336t359.5 -125q136 0 257.5 35.5t197.5 98.5t76 145q0 89 -67 132.5t-160 43.5h-111q-6 0 -13 1.5t-9 9.5l-12 39q-3 12 16 12h485v-62h-166q52 -33 70.5 -80t18.5 -93
q0 -101 -79.5 -178t-211.5 -120.5t-292 -43.5zM694 -677l66 -65l-66 -65l-64 65zM694 -897l66 -65l-66 -65l-64 65z" />
    <glyph glyph-name="uni06D5.fina" unicode="&#x6d5;" horiz-adv-x="1032" 
d="M991 0q-93 0 -146 42.5t-79 117t-39 170.5q-37 -88 -124.5 -137.5t-186.5 -49.5q-124 0 -205.5 65t-81.5 181q0 85 49.5 151t129 116.5t171.5 87.5t178 64l-5 33l54 10l79 -551q17 -113 66 -175.5t140 -62.5h61v-62h-61zM708 453q0 17 -1.5 33.5t-3.5 34.5l-37 234
q-70 -25 -153 -58t-158 -76t-123.5 -99.5t-48.5 -129.5q0 -97 66 -145.5t161 -48.5q79 0 147 32.5t109.5 90t41.5 132.5z" />
    <glyph glyph-name="uniFB50" unicode="&#x671;" horiz-adv-x="415" arabic-form="isolated" 
d="M233 1193v-1193h-51v1193h51zM-55 1350l7 32q32 -24 69 -38q80 135 144 198.5t136 63.5q69 0 113 -42t44 -108q0 -68 -37 -101t-101.5 -43.5t-148.5 -10.5h-25q-67 0 -121 9t-80 40zM169 1337q66 0 124 6.5t94.5 31t36.5 77.5q0 50 -33 83t-85 33q-73 0 -132 -67.5
t-121 -163.5h116z" />
    <glyph glyph-name="uniFB51" unicode="&#x671;" horiz-adv-x="506" arabic-form="final" 
d="M-25 1350l7 32q32 -24 69 -38q80 135 144 198.5t136 63.5q69 0 113 -42t44 -108q0 -68 -37 -101t-101.5 -43.5t-148.5 -10.5h-25q-67 0 -121 9t-80 40zM199 1337q66 0 124 6.5t94.5 31t36.5 77.5q0 50 -33 83t-85 33q-73 0 -132 -67.5t-121 -163.5h116zM182 1193h51v-832
q0 -163 60 -231t171 -68h62v-62h-62q-157 0 -219.5 91t-62.5 270v832z" />
    <glyph glyph-name="uniFB56" unicode="&#x67e;" horiz-adv-x="1731" arabic-form="isolated" 
d="M1009 -198l63 -63l-63 -63l-64 63zM767 -198l64 -63l-64 -63l-63 63zM888 -396l63 -63l-63 -63l-63 63zM1057 0h-232q-145 0 -271 13t-221.5 53t-149.5 119t-54 210q0 92 31 185l47 -18q-9 -37 -16.5 -75.5t-7.5 -74.5q0 -123 51.5 -193.5t141 -104t205.5 -43t244 -9.5
h233q84 0 170 5t158.5 29t116.5 79.5t44 155.5q0 44 -4.5 105.5t-20.5 134.5l59 15q12 -55 16.5 -124t4.5 -113q0 -125 -43.5 -196t-119 -103.5t-174 -41t-208.5 -8.5z" />
    <glyph glyph-name="uniFB57" unicode="&#x67e;" horiz-adv-x="1873" arabic-form="final" 
d="M1009 -198l63 -63l-63 -63l-64 63zM767 -198l64 -63l-64 -63l-63 63zM888 -396l63 -63l-63 -63l-63 63zM1547 478l48 6l13 -183q7 -106 68 -172.5t156 -66.5h61v-62h-61q-106 0 -174.5 59.5t-83.5 147.5q-64 -121 -202 -164t-378 -43h-169q-145 0 -271 13t-221.5 53
t-149.5 119t-54 210q0 92 31 185l47 -18q-9 -37 -16.5 -75.5t-7.5 -74.5q0 -123 51.5 -193.5t141 -104t205.5 -43t244 -9.5h167q163 0 289 23t198.5 91t72.5 204q0 29 -1.5 54t-3.5 44z" />
    <glyph glyph-name="uniFB58" unicode="&#x67e;" horiz-adv-x="608" arabic-form="initial" 
d="M-22 62h216q130 0 179.5 70t49.5 195q0 51 -7 117.5t-18 126.5l58 15q11 -55 17 -123t6 -120q0 -163 -63 -253t-220 -90h-218v62zM290 -198l63 -63l-63 -63l-64 63zM48 -198l64 -63l-64 -63l-63 63zM169 -396l63 -63l-63 -63l-63 63z" />
    <glyph glyph-name="uniFB59" unicode="&#x67e;" horiz-adv-x="743" arabic-form="medial" 
d="M-22 62h148q134 0 215.5 64.5t82.5 226.5q0 73 -5 125l48 6l12 -171q5 -80 39.5 -136t84.5 -85.5t101 -29.5h59v-62h-59q-74 0 -129 35.5t-86 81t-34 74.5q-29 -97 -116 -144t-215 -47h-146v62zM290 -198l63 -63l-63 -63l-64 63zM48 -198l64 -63l-64 -63l-63 63z
M169 -396l63 -63l-63 -63l-63 63z" />
    <glyph glyph-name="uniFB66" unicode="&#x679;" horiz-adv-x="1731" arabic-form="isolated" 
d="M696 674q11 16 25 37t26 38v411h39v-351q44 46 95.5 94t119.5 48t111.5 -40.5t43.5 -105.5q0 -69 -42.5 -107t-113 -53t-153.5 -15h-234v44h83zM846 675q61 1 122.5 10.5t103 36t41.5 78.5q0 47 -30 76.5t-77 29.5q-53 0 -103 -40t-91.5 -94.5t-71.5 -98.5zM1057 0h-232
q-145 0 -271 13t-221.5 53t-149.5 119t-54 210q0 92 31 185l47 -18q-9 -37 -16.5 -75.5t-7.5 -74.5q0 -123 51.5 -193.5t141 -104t205.5 -43t244 -9.5h233q84 0 170 5t158.5 29t116.5 79.5t44 155.5q0 44 -4.5 105.5t-20.5 134.5l59 15q12 -55 16.5 -124t4.5 -113
q0 -125 -43.5 -196t-119 -103.5t-174 -41t-208.5 -8.5z" />
    <glyph glyph-name="uniFB67" unicode="&#x679;" horiz-adv-x="1873" arabic-form="final" 
d="M702 677q11 16 25 37t26 38v411h39v-351q44 46 95.5 94t119.5 48t111.5 -40.5t43.5 -105.5q0 -69 -42.5 -107t-113 -53t-153.5 -15h-234v44h83zM852 678q61 1 122.5 10.5t103 36t41.5 78.5q0 47 -30 76.5t-77 29.5q-53 0 -103 -40t-91.5 -94.5t-71.5 -98.5zM1547 478
l48 6l13 -183q7 -106 68 -172.5t156 -66.5h61v-62h-61q-106 0 -174.5 59.5t-83.5 147.5q-64 -121 -202 -164t-378 -43h-169q-145 0 -271 13t-221.5 53t-149.5 119t-54 210q0 92 31 185l47 -18q-9 -37 -16.5 -75.5t-7.5 -74.5q0 -123 51.5 -193.5t141 -104t205.5 -43
t244 -9.5h167q163 0 289 23t198.5 91t72.5 204q0 29 -1.5 54t-3.5 44z" />
    <glyph glyph-name="uniFB68" unicode="&#x679;" horiz-adv-x="574" arabic-form="initial" 
d="M95 846q11 16 25 37t26 38v411h39v-351q44 46 95.5 94t119.5 48t111.5 -40.5t43.5 -105.5q0 -69 -42.5 -107t-113 -53t-153.5 -15h-234v44h83zM245 847q61 1 122.5 10.5t103 36t41.5 78.5q0 47 -30 76.5t-77 29.5q-53 0 -103 -40t-91.5 -94.5t-71.5 -98.5zM-21 62h181
q130 0 179.5 70t49.5 195q0 51 -7 117.5t-18 126.5l58 15q11 -55 17 -123t6 -120q0 -163 -63 -253t-220 -90h-183v62z" />
    <glyph glyph-name="uniFB69" unicode="&#x679;" horiz-adv-x="710" arabic-form="medial" 
d="M97 754q11 16 25 37t26 38v411h39v-351q44 46 95.5 94t119.5 48t111.5 -40.5t43.5 -105.5q0 -69 -42.5 -107t-113 -53t-153.5 -15h-234v44h83zM247 755q61 1 122.5 10.5t103 36t41.5 78.5q0 47 -30 76.5t-77 29.5q-53 0 -103 -40t-91.5 -94.5t-71.5 -98.5zM-21 62h114
q134 0 215.5 64.5t82.5 226.5q0 73 -5 125l48 6l12 -171q5 -80 39.5 -136t84.5 -85.5t101 -29.5h59v-62h-59q-74 0 -129 35.5t-86 81t-34 74.5q-29 -97 -116 -144t-215 -47h-112v62z" />
    <glyph glyph-name="uniFB6A" unicode="&#x6a4;" horiz-adv-x="1715" arabic-form="isolated" 
d="M1248 1491l63 -63l-63 -63l-63 63zM1369 1293l63 -63l-63 -63l-64 63zM1127 1293l64 -63l-64 -63l-63 63zM1537 399q-61 -19 -121 -32t-140 -13q-137 0 -210 53.5t-73 174.5q0 96 32.5 179t94.5 133.5t151 50.5q94 0 155.5 -52.5t97 -135t50.5 -175.5t15 -175
q0 -125 -18.5 -205t-65.5 -124t-132 -61t-217 -17h-332q-144 0 -270 13t-221.5 53t-149.5 119t-54 210q0 92 31 185l47 -18q-9 -38 -16.5 -75.5t-7.5 -74.5q0 -123 51.5 -193.5t141 -104t205 -43t243.5 -9.5h344q141 0 221.5 22.5t114 94.5t33.5 220zM1289 413q66 0 127 14
t119 30q-9 65 -22.5 139t-40.5 140.5t-75.5 108.5t-126.5 42q-76 0 -126.5 -45t-75.5 -114t-25 -143q0 -104 71 -138t175 -34z" />
    <glyph glyph-name="uniFB6B" unicode="&#x6a4;" horiz-adv-x="1873" arabic-form="final" 
d="M1380 1270l63 -63l-63 -63l-63 63zM1501 1072l63 -63l-63 -63l-64 63zM1259 1072l64 -63l-64 -63l-63 63zM825 62h71q30 0 88 1t126 2.5t128.5 3.5t96.5 4q-49 31 -104 80.5t-93 115t-38 143.5q0 75 44.5 145t112 115.5t136.5 45.5q72 0 141 -45.5t113.5 -116
t44.5 -146.5q0 -78 -38.5 -143.5t-94 -114.5t-106.5 -80q43 -2 110 -4.5t132 -4t101 -1.5h97v-62h-94q-60 0 -135 3.5t-147 13t-125 28.5q-39 -16 -103 -25t-137.5 -13.5t-141 -5.5t-114.5 -1h-71q-145 0 -271 13t-221.5 53t-149.5 119t-54 210q0 92 31 185l47 -18
q-9 -37 -16.5 -75.5t-7.5 -74.5q0 -123 51.5 -193.5t141 -104t205.5 -43t244 -9.5zM1393 660q-62 0 -117.5 -41t-89.5 -99.5t-34 -111.5q0 -68 43 -130t100 -109t98 -72q48 26 106 72.5t100 108.5t42 132q0 54 -36 112t-92.5 98t-119.5 40z" />
    <glyph glyph-name="uniFB6C" unicode="&#x6a4;" horiz-adv-x="906" arabic-form="initial" 
d="M360 62q141 0 221.5 22.5t114 94.5t33.5 220q-61 -19 -121 -32t-140 -13q-137 0 -210 53.5t-73 174.5q0 96 32.5 179t94.5 133.5t151 50.5q94 0 155.5 -52.5t97 -135t50.5 -175.5t15 -175q0 -125 -18.5 -205t-65.5 -124t-132 -61t-217 -17h-368v62h380zM481 413
q66 0 127 14t119 30q-9 65 -22.5 139t-40.5 140.5t-75.5 108.5t-126.5 42q-76 0 -126.5 -45t-75.5 -114t-25 -143q0 -104 71 -138t175 -34zM420 1491l63 -63l-63 -63l-63 63zM541 1293l63 -63l-63 -63l-64 63zM299 1293l64 -63l-64 -63l-63 63z" />
    <glyph glyph-name="uniFB6D" unicode="&#x6a4;" horiz-adv-x="1019" arabic-form="medial" 
d="M529 1270l63 -63l-63 -63l-63 63zM650 1072l63 -63l-63 -63l-64 63zM408 1072l64 -63l-64 -63l-63 63zM838 410q0 -78 -38.5 -143.5t-94 -114.5t-106.5 -80q43 -2 110 -4.5t132 -4t101 -1.5h97v-62h-94q-60 0 -135 3.5t-147 13t-125 28.5q-52 -21 -126.5 -30.5
t-151.5 -12t-140 -2.5h-140v62h140q40 0 107 1.5t137 4t117 5.5q-49 31 -104 80.5t-93 115t-38 143.5q0 75 44.5 145t112 115.5t136.5 45.5q72 0 141 -45.5t113.5 -116t44.5 -146.5zM539 660q-62 0 -117.5 -41t-89.5 -99.5t-34 -111.5q0 -68 43 -130t100 -109t98 -72
q48 26 106 72.5t100 108.5t42 132q0 54 -36 112t-92.5 98t-119.5 40z" />
    <glyph glyph-name="uniFB7A" unicode="&#x686;" horiz-adv-x="1310" arabic-form="isolated" 
d="M1155 498v-64q-130 -13 -266 -46t-262 -86.5t-226 -129t-158.5 -174.5t-58.5 -223q0 -156 75 -245.5t203.5 -126.5t288.5 -37q101 0 209.5 18t203.5 55l14 -56q-91 -37 -207.5 -55.5t-234.5 -18.5q-170 0 -308 44t-218.5 144.5t-80.5 267.5q0 165 77.5 286.5t207.5 206
t290 137.5t325 81q-125 38 -237.5 86t-201 83.5t-140.5 35.5q-82 0 -134.5 -40.5t-93.5 -88.5l-9 -11l-49 24l9 12q59 77 125 119.5t153 42.5q49 0 130 -32t180 -76t201 -82.5t193 -50.5zM895 7l63 -63l-63 -63l-64 63zM653 7l64 -63l-64 -63l-63 63zM774 -191l63 -63
l-63 -63l-63 63z" />
    <glyph glyph-name="uniFB7B" unicode="&#x686;" horiz-adv-x="1379" arabic-form="final" 
d="M129 -235q0 165 77.5 286.5t207.5 206t290 137.5t325 81q-125 38 -237.5 86t-201 83.5t-140.5 35.5q-82 0 -134.5 -40.5t-93.5 -88.5l-9 -11l-49 24l9 12q59 77 125 119.5t153 42.5q49 0 130 -32t180 -76t201 -82.5t193 -50.5v-64q-99 -11 -204 -32q0 -136 35.5 -210
t116.5 -102t215 -28h81v-62h-78q-153 0 -245.5 34.5t-133.5 120t-41 236.5q-138 -32 -266.5 -85t-230 -129t-161 -176t-59.5 -226q0 -156 75 -245.5t203.5 -126.5t288.5 -37q101 0 209.5 18t203.5 55l14 -56q-91 -37 -207.5 -55.5t-234.5 -18.5q-170 0 -308 44t-218.5 144.5
t-80.5 267.5zM768 -31l63 -63l-63 -63l-64 63zM526 -31l64 -63l-64 -63l-63 63zM647 -229l63 -63l-63 -63l-63 63z" />
    <glyph glyph-name="uniFB7C" unicode="&#x686;" horiz-adv-x="1342" arabic-form="initial" 
d="M787 -198l63 -63l-63 -63l-64 63zM545 -198l64 -63l-64 -63l-63 63zM666 -396l63 -63l-63 -63l-63 63zM-20 62h170q140 0 269 32.5t249.5 83t236 106.5t227.5 104q-98 27 -193.5 66.5t-180.5 78t-151.5 64.5t-107.5 26q-82 0 -134.5 -40.5t-93.5 -88.5l-9 -11l-49 24
l9 12q59 77 125 119.5t153 42.5q49 0 133 -34.5t187 -82t208 -89t196 -55.5v-68q-82 -25 -160 -58.5t-202 -92.5q-214 -101 -379.5 -151t-335.5 -50h-167v62z" />
    <glyph glyph-name="uniFB7D" unicode="&#x686;" horiz-adv-x="1396" arabic-form="medial" 
d="M787 -198l63 -63l-63 -63l-64 63zM545 -198l64 -63l-64 -63l-63 63zM666 -396l63 -63l-63 -63l-63 63zM1224 420v-68q-49 -16 -96.5 -32.5t-103.5 -42.5q20 -99 56.5 -144.5t102.5 -58t172 -12.5h61v-62h-61q-137 0 -213 23.5t-111.5 79.5t-52.5 151
q-134 -63 -271.5 -121t-277.5 -95.5t-282 -37.5h-167v62h170q140 0 269 32t249.5 83t236 107t227.5 104q-98 27 -193.5 66.5t-180.5 78t-151.5 64.5t-107.5 26q-82 0 -134.5 -40.5t-93.5 -88.5l-9 -11l-49 24l9 12q59 77 125 119.5t153 42.5q49 0 133 -35t187 -83t208 -89.5
t196 -53.5z" />
    <glyph glyph-name="uniFB88" unicode="&#x688;" horiz-adv-x="920" arabic-form="isolated" 
d="M214 1101q11 16 25 37t26 38v411h39v-351q44 46 95.5 94t119.5 48t111.5 -40.5t43.5 -105.5q0 -69 -42.5 -107t-113 -53t-153.5 -15h-234v44h83zM364 1102q61 1 122.5 10.5t103 36t41.5 78.5q0 47 -30 76.5t-77 29.5q-53 0 -103 -40t-91.5 -94.5t-71.5 -98.5zM296 60
q111 0 212 20t165 75.5t64 163.5q0 91 -58 174.5t-148 154.5t-186 124l27 49q115 -60 210 -139t152 -170.5t57 -189.5q0 -125 -60.5 -195t-168.5 -97.5t-251 -27.5q-95 0 -182 14v59q92 -15 167 -15z" />
    <glyph glyph-name="uniFB89" unicode="&#x688;" horiz-adv-x="1059" arabic-form="final" 
d="M262 1121q11 16 25 37t26 38v411h39v-351q44 46 95.5 94t119.5 48t111.5 -40.5t43.5 -105.5q0 -69 -42.5 -107t-113 -53t-153.5 -15h-234v44h83zM412 1122q61 1 122.5 10.5t103 36t41.5 78.5q0 47 -30 76.5t-77 29.5q-53 0 -103 -40t-91.5 -94.5t-71.5 -98.5zM713 289
q0 44 -18.5 89.5t-40.5 93.5l-152 348l51 23l204 -475q34 -78 63 -148t74 -114t125 -44h60v-62h-60q-82 0 -130.5 32.5t-77.5 84.5t-55 108q-20 -85 -90.5 -134t-167.5 -69.5t-197 -20.5q-51 0 -93 4t-79 11v61q81 -15 157 -15q104 0 202 21t161.5 70.5t63.5 135.5z" />
    <glyph glyph-name="uniFB8A" unicode="&#x698;" horiz-adv-x="641" arabic-form="isolated" 
d="M359 994l63 -63l-63 -63l-63 63zM480 796l63 -63l-63 -63l-64 63zM238 796l64 -63l-64 -63l-63 63zM55 -528l-17 49q204 61 313 199.5t109 344.5q0 149 -55 326l55 18q55 -180 55 -338q0 -229 -120.5 -385.5t-339.5 -213.5z" />
    <glyph glyph-name="uniFB8B" unicode="&#x698;" horiz-adv-x="761" arabic-form="final" 
d="M359 994l63 -63l-63 -63l-63 63zM480 796l63 -63l-63 -63l-64 63zM238 796l64 -63l-64 -63l-63 63zM720 0q-81 0 -132 33t-75 82q10 -187 -51 -318t-169 -211t-238 -114l-17 49q204 61 313 199.5t109 344.5q0 149 -55 326l52 17l41 -147q22 -83 74 -141t148 -58h61v-62
h-61z" />
    <glyph glyph-name="uniFB8C" unicode="&#x691;" horiz-adv-x="641" arabic-form="isolated" 
d="M166 693q11 16 25 37t26 38v411h39v-351q44 46 95.5 94t119.5 48t111.5 -40.5t43.5 -105.5q0 -69 -42.5 -107t-113 -53t-153.5 -15h-234v44h83zM316 694q61 1 122.5 10.5t103 36t41.5 78.5q0 47 -30 76.5t-77 29.5q-53 0 -103 -40t-91.5 -94.5t-71.5 -98.5zM55 -528
l-17 49q204 61 313 199.5t109 344.5q0 149 -55 326l55 18q55 -180 55 -338q0 -229 -120.5 -385.5t-339.5 -213.5z" />
    <glyph glyph-name="uniFB8D" unicode="&#x691;" horiz-adv-x="761" arabic-form="final" 
d="M166 713q11 16 25 37t26 38v411h39v-351q44 46 95.5 94t119.5 48t111.5 -40.5t43.5 -105.5q0 -69 -42.5 -107t-113 -53t-153.5 -15h-234v44h83zM316 714q61 1 122.5 10.5t103 36t41.5 78.5q0 47 -30 76.5t-77 29.5q-53 0 -103 -40t-91.5 -94.5t-71.5 -98.5zM720 0
q-81 0 -132 33t-75 82q10 -187 -51 -318t-169 -211t-238 -114l-17 49q204 61 313 199.5t109 344.5q0 149 -55 326l52 17l41 -147q22 -83 74 -141t148 -58h61v-62h-61z" />
    <glyph glyph-name="uniFB8E" unicode="&#x6a9;" horiz-adv-x="1754" arabic-form="isolated" 
d="M1078 0h-253q-145 0 -271 13.5t-221.5 53.5t-149.5 118.5t-54 209.5q0 92 31 185l47 -18q-9 -37 -16.5 -75.5t-7.5 -74.5q0 -123 51.5 -193.5t141 -104t205.5 -43t244 -9.5h252q109 0 210.5 17.5t166.5 67.5t65 147q0 66 -38.5 134.5t-100.5 134.5t-134 127t-140 112.5
t-117 90.5q-25 20 -56 41.5t-31 45.5q0 33 30.5 49.5t74.5 34.5l666 271v-57l-724 -294q57 -40 137 -96.5t164.5 -125t158 -146.5t119 -160.5t45.5 -165.5q0 -116 -67.5 -179t-180 -87t-247.5 -24z" />
    <glyph glyph-name="uniFB8F" unicode="&#x6a9;" horiz-adv-x="1899" arabic-form="final" 
d="M1078 0h-253q-145 0 -271 13.5t-221.5 53.5t-149.5 118.5t-54 209.5q0 92 31 185l47 -18q-9 -37 -16.5 -75.5t-7.5 -74.5q0 -123 51.5 -193.5t141 -104t205.5 -43t244 -9.5h252q109 0 210.5 17.5t166.5 67.5t65 147q0 66 -38.5 134.5t-100.5 134.5t-134 127t-140 112.5
t-117 90.5q-25 20 -56 41.5t-31 45.5q0 33 30.5 49.5t74.5 34.5l666 271v-57l-724 -294q54 -37 127.5 -89t153 -114.5t151 -133.5t122 -147.5t65.5 -154.5q12 -62 52 -127.5t101.5 -110.5t136.5 -45h61v-62h-61q-100 0 -176.5 62t-121.5 155q-18 -85 -86.5 -132t-171 -66
t-224.5 -19z" />
    <glyph glyph-name="uniFB90" unicode="&#x6a9;" horiz-adv-x="879" arabic-form="initial" 
d="M95 984q57 -40 137 -96.5t164.5 -125t158 -146.5t119 -160.5t45.5 -165.5q0 -116 -67.5 -179t-180 -87t-247.5 -24h-244v62h243q109 0 210.5 17.5t166.5 67.5t65 147q0 66 -38.5 134.5t-100.5 134.5t-134 127t-140 112.5t-117 90.5q-25 20 -56 41.5t-31 45.5
q0 33 30.5 49.5t74.5 34.5l666 271v-57z" />
    <glyph glyph-name="uniFB91" unicode="&#x6a9;" horiz-adv-x="1046" arabic-form="medial" 
d="M95 984q54 -37 127.5 -89t153 -114.5t151 -133.5t122 -147.5t65.5 -154.5q12 -62 52 -127.5t101.5 -110.5t136.5 -45h62v-62h-62q-100 0 -176.5 61.5t-121.5 154.5q-18 -85 -86.5 -132t-171 -65.5t-224.5 -18.5h-244v62h243q109 0 210.5 17.5t166.5 67.5t65 147
q0 66 -38.5 134.5t-100.5 134.5t-134 127t-140 112.5t-117 90.5q-25 20 -56 41.5t-31 45.5q0 33 30.5 49.5t74.5 34.5l666 271v-57z" />
    <glyph glyph-name="uniFB92" unicode="&#x6af;" horiz-adv-x="1754" arabic-form="isolated" 
d="M938 1193v49l730 297v-49zM1078 0h-253q-145 0 -271 13.5t-221.5 53.5t-149.5 118.5t-54 209.5q0 92 31 185l47 -18q-9 -37 -16.5 -75.5t-7.5 -74.5q0 -123 51.5 -193.5t141 -104t205.5 -43t244 -9.5h252q109 0 210.5 17.5t166.5 67.5t65 147q0 66 -38.5 134.5
t-100.5 134.5t-134 127t-140 112.5t-117 90.5q-25 20 -56 41.5t-31 45.5q0 33 30.5 49.5t74.5 34.5l666 271v-57l-724 -294q57 -40 137 -96.5t164.5 -125t158 -146.5t119 -160.5t45.5 -165.5q0 -116 -67.5 -179t-180 -87t-247.5 -24z" />
    <glyph glyph-name="uniFB93" unicode="&#x6af;" horiz-adv-x="1899" arabic-form="final" 
d="M938 1193v49l730 297v-49zM1078 0h-253q-145 0 -271 13.5t-221.5 53.5t-149.5 118.5t-54 209.5q0 92 31 185l47 -18q-9 -37 -16.5 -75.5t-7.5 -74.5q0 -123 51.5 -193.5t141 -104t205.5 -43t244 -9.5h252q109 0 210.5 17.5t166.5 67.5t65 147q0 66 -38.5 134.5
t-100.5 134.5t-134 127t-140 112.5t-117 90.5q-25 20 -56 41.5t-31 45.5q0 33 30.5 49.5t74.5 34.5l666 271v-57l-724 -294q54 -37 127.5 -89t153 -114.5t151 -133.5t122 -147.5t65.5 -154.5q12 -62 52 -127.5t101.5 -110.5t136.5 -45h61v-62h-61q-100 0 -176.5 62
t-121.5 155q-18 -85 -86.5 -132t-171 -66t-224.5 -19z" />
    <glyph glyph-name="uniFB94" unicode="&#x6af;" horiz-adv-x="879" arabic-form="initial" 
d="M84 1193v49l730 297v-49zM95 984q57 -40 137 -96.5t164.5 -125t158 -146.5t119 -160.5t45.5 -165.5q0 -116 -67.5 -179t-180 -87t-247.5 -24h-244v62h243q109 0 210.5 17.5t166.5 67.5t65 147q0 66 -38.5 134.5t-100.5 134.5t-134 127t-140 112.5t-117 90.5
q-25 20 -56 41.5t-31 45.5q0 33 30.5 49.5t74.5 34.5l666 271v-57z" />
    <glyph glyph-name="uniFB95" unicode="&#x6af;" horiz-adv-x="1046" arabic-form="medial" 
d="M84 1193v49l730 297v-49zM95 984q54 -37 127.5 -89t153 -114.5t151 -133.5t122 -147.5t65.5 -154.5q12 -62 52 -127.5t101.5 -110.5t136.5 -45h62v-62h-62q-100 0 -176.5 61.5t-121.5 154.5q-18 -85 -86.5 -132t-171 -65.5t-224.5 -18.5h-244v62h243q109 0 210.5 17.5
t166.5 67.5t65 147q0 66 -38.5 134.5t-100.5 134.5t-134 127t-140 112.5t-117 90.5q-25 20 -56 41.5t-31 45.5q0 33 30.5 49.5t74.5 34.5l666 271v-57z" />
    <glyph glyph-name="uniFB9E" unicode="&#x6ba;" horiz-adv-x="1326" arabic-form="isolated" 
d="M659 -382q176 0 281.5 59.5t153 161.5t47.5 231q0 89 -20 187.5t-55 198.5l59 24q35 -104 53.5 -206.5t18.5 -196.5q0 -147 -53 -264.5t-171.5 -186t-313.5 -68.5q-261 0 -395.5 133.5t-134.5 384.5q0 85 15.5 176t43.5 180l53 -20q-24 -83 -40 -170t-16 -172
q0 -217 122.5 -334.5t351.5 -117.5z" />
    <glyph glyph-name="uniFB9F" unicode="&#x6ba;" horiz-adv-x="1447" arabic-form="final" 
d="M659 -455q176 0 281.5 59.5t153 161.5t47.5 231q0 89 -20 187.5t-55 198.5l59 24l50 -173q23 -73 80.5 -122.5t150.5 -49.5h61v-62h-61q-64 0 -118.5 21.5t-94.5 74.5q16 -176 -30.5 -314t-169 -217.5t-334.5 -79.5q-261 0 -395.5 133.5t-134.5 384.5q0 85 15.5 176
t43.5 180l53 -20q-24 -83 -40 -170t-16 -172q0 -217 122.5 -334.5t351.5 -117.5z" />
    <glyph glyph-name="uniFBA7" unicode="&#x6c1;" horiz-adv-x="927" arabic-form="final" 
d="M470 422q-69 0 -117 -45.5t-80 -114t-52.5 -141t-32.5 -127.5l-53 8q11 70 36 155t66 163t98.5 128t131.5 50q68 0 104 -46t76 -138q24 -53 53.5 -112t74 -99.5t111.5 -40.5h60v-62h-60q-74 0 -125 40t-85.5 100.5t-60.5 119.5q-14 33 -32 70.5t-44.5 64.5t-68.5 27z" />
    <glyph glyph-name="uniFBA8" unicode="&#x6c1;" horiz-adv-x="558" arabic-form="initial" 
d="M142 0h-162v62h160q130 0 179.5 70t49.5 195q0 51 -7 117.5t-18 126.5l58 15q11 -55 17 -123t6 -120q0 -163 -63 -253t-220 -90zM317 -304q-34 -34 -64 -85.5t-30 -125.5q35 7 55 -6.5t20 -42.5q0 -54 -49 -54q-40 0 -53.5 18.5t-13.5 58.5q0 92 39 158t73 97z" />
    <glyph glyph-name="uniFBA9" unicode="&#x6c1;" horiz-adv-x="1020" arabic-form="medial" 
d="M669 -385q0 -16 0.5 -41t3.5 -55l-54 -45q-112 62 -179.5 141.5t-97 193.5t-29.5 278q-116 -87 -267 -87h-66v62h68q126 0 203 51.5t141 113.5l41 -45q-26 -29 -40.5 -44.5t-20.5 -40.5t-6 -85q0 -354 253 -477q-9 159 32 277.5t124.5 184t202.5 65.5h62v-62h-62
q-108 0 -176.5 -52.5t-100.5 -140t-32 -192.5z" />
    <glyph glyph-name="uniFBAA" unicode="&#x6be;" horiz-adv-x="1485" arabic-form="isolated" 
d="M54 62h104q110 0 199 8t189 21q-52 22 -105.5 66t-90 109t-36.5 149q0 126 85 205.5t212 79.5q34 0 67 -8q-27 9 -52 16l25 50q111 -39 233.5 -90.5t230 -113.5t174.5 -131t67 -144q0 -148 -92 -211t-250 -63q-105 0 -210.5 17t-192.5 42q-85 -28 -208 -46t-232 -18h-99
v3zM678 92q94 -17 163.5 -26t154.5 -9q133 0 220.5 45.5t87.5 171.5q0 57 -55 114.5t-142.5 110.5t-187 98t-189.5 77q77 -34 127 -103.5t50 -153.5q0 -89 -33 -152.5t-85 -105.5t-111 -67zM367 417q0 -80 38 -139t96 -98t117 -63q92 34 165 107t73 187q0 71 -35 124.5
t-89 83.5t-112 30q-109 0 -181 -63.5t-72 -168.5z" />
    <glyph glyph-name="uniFBAB" unicode="&#x6be;" horiz-adv-x="1114" arabic-form="final" 
d="M50 62h287v46q0 158 29.5 294.5t96 220.5t176.5 84q102 0 158.5 -73.5t56.5 -186.5q0 -135 -61 -236t-165.5 -156.5t-235.5 -55.5q10 -60 45.5 -146.5t103 -172.5t172.5 -145q-9 159 15 277.5t104.5 184t239.5 65.5h62v-62h-62q-111 0 -174 -30.5t-92 -84t-36 -123
t-7 -147.5q0 -16 1.5 -46.5t2.5 -49.5l-54 -45q-117 64 -194 152.5t-119.5 186t-57.5 187.5h-273zM637 651q-88 0 -142 -76.5t-78.5 -200t-24.5 -266.5v-47q195 0 303 104t108 282q0 84 -40 144t-126 60z" />
    <glyph glyph-name="uniFBAC" unicode="&#x6be;" horiz-adv-x="1393" arabic-form="initial" 
d="M534 708l25 50q111 -39 233.5 -90.5t230 -113.5t174.5 -131t67 -144q0 -148 -92 -211t-250 -63q-105 0 -210.5 17t-192.5 42q-85 -28 -208 -46t-232 -18h-99v62h86q110 0 199 8t189 21q-52 22 -105.5 66t-90 109t-36.5 149q0 126 85 205.5t212 79.5q34 0 67 -8
q-27 9 -52 16zM586 92q94 -17 163.5 -26t154.5 -9q133 0 220.5 45.5t87.5 171.5q0 57 -55 114.5t-142.5 110.5t-187 98t-189.5 77q77 -34 127 -103.5t50 -153.5q0 -89 -33 -152.5t-85 -105.5t-111 -67zM275 417q0 -80 38 -139t96 -98t117 -63q92 34 165 107t73 187
q0 71 -35 124.5t-89 83.5t-112 30q-109 0 -181 -63.5t-72 -168.5z" />
    <glyph glyph-name="uniFBAD" unicode="&#x6be;" horiz-adv-x="1020" arabic-form="medial" 
d="M-20 0v62h263v46q0 158 29.5 294.5t96 220.5t176.5 84q102 0 158.5 -73.5t56.5 -186.5q0 -135 -61 -236t-165.5 -156.5t-235.5 -55.5q10 -60 45.5 -146.5t103 -172.5t172.5 -145q-9 159 15 277.5t104.5 184t239.5 65.5h62v-62h-62q-111 0 -174 -30.5t-92 -84t-36 -123
t-7 -147.5q0 -16 1.5 -46.5t2.5 -49.5l-54 -45q-118 64 -194.5 152.5t-119 186t-57.5 187.5h-268zM543 651q-88 0 -142 -76.5t-78.5 -200t-24.5 -266.5v-47q195 0 303 104t108 282q0 84 -40 144t-126 60z" />
    <glyph glyph-name="uniFBAE" unicode="&#x6d2;" horiz-adv-x="1757" arabic-form="isolated" 
d="M811 52q263 0 468.5 20.5t344.5 40.5l2 -59q-131 -16 -340.5 -34.5t-472.5 -18.5q-72 0 -163 6.5t-183.5 22t-170.5 42.5t-126 69t-48 101q0 53 41 101t95 94.5t93 94.5q62 77 95.5 141.5t59.5 104t65 39.5q22 0 59.5 -35t79 -84.5t76 -95.5t49.5 -69l-39 -37
q-52 71 -105 143t-123 126q-46 -85 -86.5 -146.5t-100.5 -134.5q-43 -52 -88.5 -91.5t-76.5 -73t-31 -69.5q0 -48 43.5 -82t114.5 -56.5t155 -35.5t166 -18.5t147 -5.5z" />
    <glyph glyph-name="uniFBAF" unicode="&#x6d2;" horiz-adv-x="1618" arabic-form="final" 
d="M811 -440q201 0 330.5 18t202.5 37l11 -49q-99 -22 -229 -40t-313 -18q-72 0 -162 3.5t-181.5 15.5t-169 37.5t-124.5 68t-47 107.5q0 62 54 119.5t137.5 103.5t173.5 72.5t162 26.5h982v-62h-986q-60 0 -139.5 -22.5t-154 -59t-124 -81t-49.5 -89.5q0 -52 46.5 -86
t121 -54.5t159.5 -30.5t164.5 -13.5t134.5 -3.5z" />
    <glyph glyph-name="uniFBB0" unicode="&#x6d3;" horiz-adv-x="1757" arabic-form="isolated" 
d="M574 1068q-40 20 -71.5 56.5t-31.5 91.5q0 78 56 126t122 48q26 0 42 -3t42 -12l1 -44q-38 13 -81 13q-57 0 -100 -38t-43 -91q0 -55 44.5 -87.5t84.5 -27.5q13 1 28 8l114 43l6 -40l-344 -135l-5 37zM811 52q263 0 468.5 20.5t344.5 40.5l2 -59q-131 -16 -340.5 -34.5
t-472.5 -18.5q-72 0 -163 6.5t-183.5 22t-170.5 42.5t-126 69t-48 101q0 53 41 101t95 94.5t93 94.5q62 77 95.5 141.5t59.5 104t65 39.5q22 0 59.5 -35t79 -84.5t76 -95.5t49.5 -69l-39 -37q-52 71 -105 143t-123 126q-46 -85 -86.5 -146.5t-100.5 -134.5
q-43 -52 -88.5 -91.5t-76.5 -73t-31 -69.5q0 -48 43.5 -82t114.5 -56.5t155 -35.5t166 -18.5t147 -5.5z" />
    <glyph glyph-name="uniFBB1" unicode="&#x6d3;" horiz-adv-x="1614" arabic-form="final" 
d="M600 372q-40 20 -71.5 56.5t-31.5 91.5q0 78 56 126t122 48q26 0 42 -3t42 -12l1 -44q-38 13 -81 13q-57 0 -100 -38t-43 -91q0 -55 44.5 -87.5t84.5 -27.5q13 1 28 8l114 43l6 -40l-344 -135l-5 37zM811 -440q201 0 330.5 18t202.5 37l11 -49q-99 -22 -229 -40t-313 -18
q-72 0 -162 3.5t-181.5 15.5t-169 37.5t-124.5 68t-47 107.5q0 62 54 119.5t137.5 103.5t173.5 72.5t162 26.5h978v-62h-982q-60 0 -139.5 -22.5t-154 -59t-124 -81t-49.5 -89.5q0 -52 46.5 -86t121 -54.5t159.5 -30.5t164.5 -13.5t134.5 -3.5z" />
    <glyph glyph-name="uniFBD3" unicode="&#x6ad;" horiz-adv-x="1764" arabic-form="isolated" 
d="M825 62h158q120 0 220 9.5t173.5 45t114 110.5t40.5 206v884h51v-881q0 -148 -40.5 -235.5t-118 -130.5t-188.5 -56.5t-252 -13.5h-158q-145 0 -271 13.5t-221.5 53.5t-149.5 118.5t-54 209.5q0 92 31 185l47 -18q-9 -38 -16.5 -75.5t-7.5 -74.5q0 -123 51.5 -194
t141 -104.5t205.5 -42.5t244 -9zM708 512q26 -2 59.5 -4.5t67.5 -2.5q67 0 123 16.5t56 68.5q0 33 -27.5 48.5t-68 24t-81 19.5t-67.5 33.5t-27 66.5q0 64 46 106.5t111.5 66t123.5 29.5l3 -56q-41 -4 -97 -22t-98 -47.5t-42 -69.5q0 -29 25.5 -43.5t63 -22.5t76.5 -18
t67 -32q16 -13 26 -32.5t10 -46.5q0 -56 -32 -86t-84 -42t-110 -12q-62 0 -124 9v49zM888 1492l63 -63l-63 -63l-63 63zM1009 1294l63 -63l-63 -63l-64 63zM767 1294l64 -63l-64 -63l-63 63z" />
    <glyph glyph-name="uniFBD4" unicode="&#x6ad;" horiz-adv-x="1853" arabic-form="final" 
d="M892 1492l63 -63l-63 -63l-63 63zM1013 1294l63 -63l-63 -63l-64 63zM771 1294l64 -63l-64 -63l-63 63zM825 62h158q120 0 220 9.5t173.5 45t114 110.5t40.5 206v884h51v-881q0 -111 17.5 -195.5t67.5 -131.5t145 -47h61v-62h-61q-133 0 -188.5 65t-74.5 166
q-37 -94 -100.5 -144t-172.5 -68.5t-286 -18.5h-165q-145 0 -271 13.5t-221.5 53.5t-149.5 118.5t-54 209.5q0 92 31 185l47 -18q-9 -38 -16.5 -75.5t-7.5 -73.5q0 -123 51.5 -193.5t141 -104.5t205.5 -43.5t244 -9.5zM708 512q26 -2 59.5 -4.5t67.5 -2.5q67 0 123 16.5
t56 68.5q0 33 -27.5 48.5t-68 24t-81 19.5t-67.5 33.5t-27 66.5q0 64 46 106.5t111.5 66t123.5 29.5l3 -56q-41 -4 -97 -22t-98 -47.5t-42 -69.5q0 -29 25.5 -43.5t63 -22.5t76.5 -18t67 -32q16 -13 26 -32.5t10 -46.5q0 -56 -32 -86t-84 -42t-110 -12q-62 0 -124 9v49z" />
    <glyph glyph-name="uniFBD5" unicode="&#x6ad;" horiz-adv-x="879" arabic-form="initial" 
d="M409 1739l63 -63l-63 -63l-63 63zM530 1541l63 -63l-63 -63l-64 63zM288 1541l64 -63l-64 -63l-63 63zM95 984q57 -40 137 -96.5t164.5 -125t158 -146.5t119 -160.5t45.5 -165.5q0 -116 -67.5 -179t-180 -87t-247.5 -24h-244v62h243q109 0 210.5 17.5t166.5 67.5t65 147
q0 66 -38.5 134.5t-100.5 134.5t-134 127t-140 112.5t-117 90.5q-25 20 -56 41.5t-31 45.5q0 33 30.5 49.5t74.5 34.5l666 271v-57z" />
    <glyph glyph-name="uniFBD6" unicode="&#x6ad;" horiz-adv-x="1046" arabic-form="medial" 
d="M409 1739l63 -63l-63 -63l-63 63zM530 1541l63 -63l-63 -63l-64 63zM288 1541l64 -63l-64 -63l-63 63zM95 984q54 -37 127.5 -89t153 -114.5t151 -133.5t122 -147.5t65.5 -154.5q12 -62 52 -127.5t101.5 -110.5t136.5 -45h62v-62h-62q-100 0 -176.5 61.5t-121.5 154.5
q-18 -85 -86.5 -132t-171 -65.5t-224.5 -18.5h-244v62h243q109 0 210.5 17.5t166.5 67.5t65 147q0 66 -38.5 134.5t-100.5 134.5t-134 127t-140 112.5t-117 90.5q-25 20 -56 41.5t-31 45.5q0 33 30.5 49.5t74.5 34.5l666 271v-57z" />
    <glyph glyph-name="uniFBD7" unicode="&#x6c7;" horiz-adv-x="850" arabic-form="isolated" 
d="M599 955q-19 2 -33 4t-31 4q-47 -64 -127.5 -102t-202.5 -49l-6 34q108 12 175 39t122 85q-46 4 -91 21t-74.5 52t-29.5 92q0 50 39.5 96t103.5 46q65 0 104 -39t39 -104q0 -34 -11 -71t-24 -69q13 -2 26 -3.5t26 -3.5zM515 1001q12 23 24 61t12 71q0 46 -30 76t-73 30
q-48 0 -79 -34t-31 -74q0 -45 29 -72t70.5 -40t77.5 -18zM722 111q0 -190 -65 -317.5t-186.5 -204t-290.5 -115.5l-20 50q171 44 275.5 109t159.5 161.5t74 236.5q-52 -16 -111 -27.5t-124 -11.5q-139 0 -222 58t-83 197q0 94 30 179.5t91.5 140t155.5 54.5
q98 0 159.5 -49.5t96 -127.5t47.5 -166.5t13 -166.5zM439 53q59 0 118.5 11.5t112.5 27.5q-1 67 -11.5 147.5t-38 154t-79.5 120.5t-136 47q-79 0 -128 -47.5t-71.5 -118.5t-22.5 -142q0 -111 72.5 -155.5t183.5 -44.5z" />
    <glyph glyph-name="uniFBD8" unicode="&#x6c7;" horiz-adv-x="881" arabic-form="final" 
d="M599 955q-19 2 -33 4t-31 4q-47 -64 -127.5 -102t-202.5 -49l-6 34q108 12 175 39t122 85q-46 4 -91 21t-74.5 52t-29.5 92q0 50 39.5 96t103.5 46q65 0 104 -39t39 -104q0 -34 -11 -71t-24 -69q13 -2 26 -3.5t26 -3.5zM515 1001q12 23 24 61t12 71q0 46 -30 76t-73 30
q-48 0 -79 -34t-31 -74q0 -45 29 -72t70.5 -40t77.5 -18zM405 626q102 0 165 -51.5t96.5 -135t45.5 -181.5t12 -191h177v-62h-182q-36 -227 -167 -347t-372 -179l-20 50q218 56 348 165t159 311h-219q-151 0 -235 54t-84 193q0 94 30.5 179.5t91.5 140t154 54.5zM438 67h233
q-1 79 -11.5 165.5t-38 162.5t-80 123.5t-138.5 47.5q-78 0 -126.5 -48t-71 -119t-22.5 -141q0 -110 72 -150.5t183 -40.5z" />
    <glyph glyph-name="uniFBD9" unicode="&#x6c6;" horiz-adv-x="850" arabic-form="isolated" 
d="M370 861l-137 278l40 20l135 -275l135 275l40 -20l-137 -278h-76zM722 111q0 -190 -65 -317.5t-186.5 -204t-290.5 -115.5l-20 50q171 44 275.5 109t159.5 161.5t74 236.5q-52 -16 -111 -27.5t-124 -11.5q-139 0 -222 58t-83 197q0 94 30 179.5t91.5 140t155.5 54.5
q98 0 159.5 -49.5t96 -127.5t47.5 -166.5t13 -166.5zM439 53q59 0 118.5 11.5t112.5 27.5q-1 67 -11.5 147.5t-38 154t-79.5 120.5t-136 47q-79 0 -128 -47.5t-71.5 -118.5t-22.5 -142q0 -111 72.5 -155.5t183.5 -44.5z" />
    <glyph glyph-name="uniFBDA" unicode="&#x6c6;" horiz-adv-x="881" arabic-form="final" 
d="M370 861l-137 278l40 20l135 -275l135 275l40 -20l-137 -278h-76zM405 621q102 0 165 -51.5t96.5 -135t45.5 -181.5t12 -191h177v-62h-182q-36 -227 -167 -347t-372 -179l-20 50q218 56 348 165t159 311h-219q-151 0 -235 54t-84 193q0 94 30.5 179.5t91.5 140t154 54.5z
M438 62h233q-1 79 -11.5 165.5t-38 162.5t-80 123.5t-138.5 47.5q-78 0 -126.5 -48t-71 -119t-22.5 -141q0 -110 72 -150.5t183 -40.5z" />
    <glyph glyph-name="uniFBDB" unicode="&#x6c8;" horiz-adv-x="850" arabic-form="isolated" 
d="M381 885v313h35v-313h-35zM722 111q0 -190 -65 -317.5t-186.5 -204t-290.5 -115.5l-20 50q171 44 275.5 109t159.5 161.5t74 236.5q-52 -16 -111 -27.5t-124 -11.5q-139 0 -222 58t-83 197q0 94 30 179.5t91.5 140t155.5 54.5q98 0 159.5 -49.5t96 -127.5t47.5 -166.5
t13 -166.5zM439 53q59 0 118.5 11.5t112.5 27.5q-1 67 -11.5 147.5t-38 154t-79.5 120.5t-136 47q-79 0 -128 -47.5t-71.5 -118.5t-22.5 -142q0 -111 72.5 -155.5t183.5 -44.5z" />
    <glyph glyph-name="uniFBDC" unicode="&#x6c8;" horiz-adv-x="881" arabic-form="final" 
d="M405 621q102 0 165 -51.5t96.5 -135t45.5 -181.5t12 -191h177v-62h-182q-36 -227 -167 -347t-372 -179l-20 50q218 56 348 165t159 311h-219q-151 0 -235 54t-84 193q0 94 30.5 179.5t91.5 140t154 54.5zM438 62h233q-1 79 -11.5 165.5t-38 162.5t-80 123.5t-138.5 47.5
q-78 0 -126.5 -48t-71 -119t-22.5 -141q0 -110 72 -150.5t183 -40.5zM381 885v313h35v-313h-35z" />
    <glyph glyph-name="uniFBDE" unicode="&#x6cb;" horiz-adv-x="850" arabic-form="isolated" 
d="M399 1181l63 -63l-63 -63l-63 63zM520 983l63 -63l-63 -63l-64 63zM278 983l64 -63l-64 -63l-63 63zM722 111q0 -190 -65 -317.5t-186.5 -204t-290.5 -115.5l-20 50q171 44 275.5 109t159.5 161.5t74 236.5q-52 -16 -111 -27.5t-124 -11.5q-139 0 -222 58t-83 197
q0 94 30 179.5t91.5 140t155.5 54.5q98 0 159.5 -49.5t96 -127.5t47.5 -166.5t13 -166.5zM439 53q59 0 118.5 11.5t112.5 27.5q-1 67 -11.5 147.5t-38 154t-79.5 120.5t-136 47q-79 0 -128 -47.5t-71.5 -118.5t-22.5 -142q0 -111 72.5 -155.5t183.5 -44.5z" />
    <glyph glyph-name="uniFBDF" unicode="&#x6cb;" horiz-adv-x="881" arabic-form="final" 
d="M401 1201l63 -63l-63 -63l-63 63zM522 1003l63 -63l-63 -63l-64 63zM280 1003l64 -63l-64 -63l-63 63zM405 621q102 0 165 -51.5t96.5 -135t45.5 -181.5t12 -191h177v-62h-182q-36 -227 -167 -347t-372 -179l-20 50q218 56 348 165t159 311h-219q-151 0 -235 54t-84 193
q0 94 30.5 179.5t91.5 140t154 54.5zM438 62h233q-1 79 -11.5 165.5t-38 162.5t-80 123.5t-138.5 47.5q-78 0 -126.5 -48t-71 -119t-22.5 -141q0 -110 72 -150.5t183 -40.5z" />
    <glyph glyph-name="uniFBE2" unicode="&#x6c9;" horiz-adv-x="850" arabic-form="isolated" 
d="M586 858l-40 -20l-135 275l-135 -275l-40 20l137 278h76zM722 111q0 -190 -65 -317.5t-186.5 -204t-290.5 -115.5l-20 50q171 44 275.5 109t159.5 161.5t74 236.5q-52 -16 -111 -27.5t-124 -11.5q-139 0 -222 58t-83 197q0 94 30 179.5t91.5 140t155.5 54.5
q98 0 159.5 -49.5t96 -127.5t47.5 -166.5t13 -166.5zM439 53q59 0 118.5 11.5t112.5 27.5q-1 67 -11.5 147.5t-38 154t-79.5 120.5t-136 47q-79 0 -128 -47.5t-71.5 -118.5t-22.5 -142q0 -111 72.5 -155.5t183.5 -44.5z" />
    <glyph glyph-name="uniFBE3" unicode="&#x6c9;" horiz-adv-x="881" arabic-form="final" 
d="M586 858l-40 -20l-135 275l-135 -275l-40 20l137 278h76zM405 621q102 0 165 -51.5t96.5 -135t45.5 -181.5t12 -191h177v-62h-182q-36 -227 -167 -347t-372 -179l-20 50q218 56 348 165t159 311h-219q-151 0 -235 54t-84 193q0 94 30.5 179.5t91.5 140t154 54.5zM438 62
h233q-1 79 -11.5 165.5t-38 162.5t-80 123.5t-138.5 47.5q-78 0 -126.5 -48t-71 -119t-22.5 -141q0 -110 72 -150.5t183 -40.5z" />
    <glyph glyph-name="uniFBE8" unicode="&#x649;" horiz-adv-x="558" arabic-form="initial" 
d="M142 0h-162v62h160q130 0 179.5 70t49.5 195q0 51 -7 117.5t-18 126.5l58 15q11 -55 17 -123t6 -120q0 -163 -63 -253t-220 -90z" />
    <glyph glyph-name="uniFBE9" unicode="&#x649;" horiz-adv-x="690" arabic-form="medial" 
d="M366 478l48 6l12 -171q5 -80 39.5 -136t84.5 -85.5t101 -29.5h59v-62h-59q-74 0 -129 35.5t-86 81t-34 74.5q-29 -97 -116 -144t-215 -47h-91v62h93q134 0 215.5 64.5t82.5 226.5q0 73 -5 125z" />
    <glyph glyph-name="uniFBFC" unicode="&#x6cc;" horiz-adv-x="1386" arabic-form="isolated" 
d="M659 -504q-261 0 -395.5 133.5t-134.5 384.5q0 85 15.5 176t43.5 180l53 -20q-24 -83 -40 -170t-16 -172q0 -217 122.5 -334.5t351.5 -117.5q97 0 193 19.5t175 59t126.5 99t47.5 138.5q0 59 -27.5 99t-106.5 40h-162q-81 0 -127 30t-65 78t-19 102q0 111 41.5 207.5
t123 156.5t202.5 60q103 0 174 -38l-18 -49q-34 12 -72 19t-82 7q-103 0 -172 -48.5t-103.5 -131t-34.5 -184.5q0 -86 42 -117t110 -31h162q106 0 148 -52t42 -144q0 -95 -49.5 -166.5t-134.5 -118.5t-192 -71t-222 -24z" />
    <glyph glyph-name="uniFBFD" unicode="&#x6cc;" horiz-adv-x="1299" arabic-form="final" 
d="M659 -515q-266 0 -400.5 140.5t-134.5 375.5q0 136 43 290l53 -20q-36 -142 -36 -265q0 -211 115.5 -336t359.5 -125q136 0 257.5 35.5t197.5 98.5t76 145q0 89 -67 132.5t-160 43.5h-111q-6 0 -13 1.5t-9 9.5l-12 39q-3 12 16 12h485v-62h-166q52 -33 70.5 -80t18.5 -93
q0 -101 -79.5 -178t-211.5 -120.5t-292 -43.5z" />
    <glyph glyph-name="uniFBFE" unicode="&#x6cc;" horiz-adv-x="608" arabic-form="initial" 
d="M-22 62h216q130 0 179.5 70t49.5 195q0 51 -7 117.5t-18 126.5l58 15q11 -55 17 -123t6 -120q0 -163 -63 -253t-220 -90h-218v62zM283 -234l65 -64l-65 -66l-65 66zM63 -234l65 -64l-65 -66l-65 66z" />
    <glyph glyph-name="uniFBFF" unicode="&#x6cc;" horiz-adv-x="743" arabic-form="medial" 
d="M-22 62h148q134 0 215.5 64.5t82.5 226.5q0 73 -5 125l48 6l12 -171q5 -80 39.5 -136t84.5 -85.5t101 -29.5h59v-62h-59q-74 0 -129 35.5t-86 81t-34 74.5q-29 -97 -116 -144t-215 -47h-146v62zM283 -234l65 -64l-65 -66l-65 66zM63 -234l65 -64l-65 -66l-65 66z" />
    <glyph glyph-name="uniFDFC" unicode="&#xfdfc;" horiz-adv-x="2744" arabic-form="isolated" 
d="M2148 -590l-17 49q204 61 313 199.5t109 344.5q0 149 -55 326l55 18q55 -180 55 -338q0 -229 -120.5 -385.5t-339.5 -213.5zM1946 -224l65 -64l-65 -66l-65 66zM1726 -224l65 -64l-65 -66l-65 66zM1893 0h-162v62h160q130 0 179.5 70t49.5 195q0 51 -7 117.5t-18 126.5
l58 15q11 -55 17 -123t6 -120q0 -163 -63 -253t-220 -90zM1412 1317h51v-956q0 -157 56.5 -228t175.5 -71h61v-62h-61q-156 0 -219.5 92t-63.5 265v960zM1070 56q0 -272 -105 -412t-366 -140q-174 0 -277 60t-148 166t-45 243q0 85 15.5 176t43.5 180l53 -20
q-24 -83 -40 -170t-16 -172q0 -115 40 -206t131 -144t243 -53q221 0 321 115t100 359v1279h50v-1261z" />
    <glyph glyph-name="uniFE80" unicode="&#x621;" horiz-adv-x="769" arabic-form="isolated" 
d="M223 373q0 -91 59 -150t129 -98q59 20 130.5 42.5t129.5 35.5v-53q-110 -28 -247.5 -76.5t-287.5 -124.5l-7 46q55 33 112.5 58t115.5 50q-70 43 -127 109t-57 160q0 71 34.5 128.5t93.5 91.5t130 34q52 0 100 -13t79 -31l-12 -42q-31 14 -75 25t-79 11q-87 0 -154 -57
t-67 -146z" />
    <glyph glyph-name="uniFE81" unicode="&#x622;" horiz-adv-x="415" arabic-form="isolated" 
d="M291 1428q22 -11 45 -11q38 0 68.5 25.5t56.5 49.5l26 23l35 -32l-26 -24q-48 -46 -83.5 -67t-70.5 -21q-32 0 -70 18l-129 59q-36 16 -66 16q-43 0 -77.5 -27.5t-69.5 -62.5l-31 -32l-35 32l30 32q54 56 93.5 81t79.5 25t95 -26zM233 1193v-1193h-51v1193h51z" />
    <glyph glyph-name="uniFE82" unicode="&#x622;" horiz-adv-x="506" arabic-form="final" 
d="M181 1413q-27 0 -59.5 -21t-61 -47.5t-45.5 -43.5l-31 27q18 18 52 50t72.5 57.5t68.5 25.5q31 0 70 -22t78.5 -44.5t71.5 -22.5q24 0 52 17t52.5 38.5t38.5 33.5l30 -27q-15 -14 -47 -40.5t-66 -48t-56 -21.5q-28 0 -68.5 22.5t-81 44.5t-70.5 22zM182 1193h51v-832
q0 -163 60 -231t171 -68h62v-62h-62q-157 0 -219.5 91t-62.5 270v832z" />
    <glyph glyph-name="uniFE83" unicode="&#x623;" horiz-adv-x="415" arabic-form="isolated" 
d="M162 1382q-40 20 -71.5 56.5t-31.5 91.5q0 78 56 126t122 48q26 0 42 -3t42 -12l1 -44q-38 13 -81 13q-57 0 -100 -38t-43 -91q0 -55 44.5 -87.5t84.5 -27.5q13 1 28 8l114 43l6 -40l-344 -135l-5 37zM233 1193v-1193h-51v1193h51z" />
    <glyph glyph-name="uniFE84" unicode="&#x623;" horiz-adv-x="506" arabic-form="final" 
d="M162 1382q-40 20 -71.5 56.5t-31.5 91.5q0 78 56 126t122 48q26 0 42 -3t42 -12l1 -44q-38 13 -81 13q-57 0 -100 -38t-43 -91q0 -55 44.5 -87.5t84.5 -27.5q13 1 28 8l114 43l6 -40l-344 -135l-5 37zM182 1193h51v-832q0 -163 60 -231t171 -68h62v-62h-62
q-157 0 -219.5 91t-62.5 270v832z" />
    <glyph glyph-name="uniFE85" unicode="&#x624;" horiz-adv-x="850" arabic-form="isolated" 
d="M368 906q-40 20 -71.5 56.5t-31.5 91.5q0 78 56 126t122 48q26 0 42 -3t42 -12l1 -44q-38 13 -81 13q-57 0 -100 -38t-43 -91q0 -55 44.5 -87.5t84.5 -27.5q13 1 28 8l114 43l6 -40l-344 -135l-5 37zM722 111q0 -190 -65 -317.5t-186.5 -204t-290.5 -115.5l-20 50
q171 44 275.5 109t159.5 161.5t74 236.5q-52 -16 -111 -27.5t-124 -11.5q-139 0 -222 58t-83 197q0 94 30 179.5t91.5 140t155.5 54.5q98 0 159.5 -49.5t96 -127.5t47.5 -166.5t13 -166.5zM439 53q59 0 118.5 11.5t112.5 27.5q-1 67 -11.5 147.5t-38 154t-79.5 120.5
t-136 47q-79 0 -128 -47.5t-71.5 -118.5t-22.5 -142q0 -111 72.5 -155.5t183.5 -44.5z" />
    <glyph glyph-name="uniFE86" unicode="&#x624;" horiz-adv-x="881" arabic-form="final" 
d="M368 906q-40 20 -71.5 56.5t-31.5 91.5q0 78 56 126t122 48q26 0 42 -3t42 -12l1 -44q-38 13 -81 13q-57 0 -100 -38t-43 -91q0 -55 44.5 -87.5t84.5 -27.5q13 1 28 8l114 43l6 -40l-344 -135l-5 37zM405 621q102 0 165 -51.5t96.5 -135t45.5 -181.5t12 -191h177v-62
h-182q-36 -227 -167 -347t-372 -179l-20 50q218 56 348 165t159 311h-219q-151 0 -235 54t-84 193q0 94 30.5 179.5t91.5 140t154 54.5zM438 62h233q-1 79 -11.5 165.5t-38 162.5t-80 123.5t-138.5 47.5q-78 0 -126.5 -48t-71 -119t-22.5 -141q0 -110 72 -150.5t183 -40.5z
" />
    <glyph glyph-name="uniFE87" unicode="&#x625;" horiz-adv-x="415" arabic-form="isolated" 
d="M156 -465q-40 20 -71.5 56.5t-31.5 91.5q0 78 56 126t122 48q26 0 42 -3t42 -12l1 -44q-38 13 -81 13q-57 0 -100 -38t-43 -91q0 -55 44.5 -87.5t84.5 -27.5q13 1 28 8l114 43l6 -40l-344 -135l-5 37zM234 1317v-1317h-51v1317h51z" />
    <glyph glyph-name="uniFE88" unicode="&#x625;" horiz-adv-x="506" arabic-form="final" 
d="M256 -465q-40 20 -71.5 56.5t-31.5 91.5q0 78 56 126t122 48q26 0 42 -3t42 -12l1 -44q-38 13 -81 13q-57 0 -100 -38t-43 -91q0 -55 44.5 -87.5t84.5 -27.5q13 1 28 8l114 43l6 -40l-344 -135l-5 37zM182 1317h51v-956q0 -157 56.5 -228t175.5 -71h61v-62h-61
q-156 0 -219.5 92t-63.5 265v960z" />
    <glyph glyph-name="uniFE89" unicode="&#x626;" horiz-adv-x="1386" arabic-form="isolated" 
d="M420 690q-40 20 -71.5 56.5t-31.5 91.5q0 78 56 126t122 48q26 0 42 -3t42 -12l1 -44q-38 13 -81 13q-57 0 -100 -38t-43 -91q0 -55 44.5 -87.5t84.5 -27.5q13 1 28 8l114 43l6 -40l-344 -135l-5 37zM659 -504q-261 0 -395.5 133.5t-134.5 384.5q0 85 15.5 176t43.5 180
l53 -20q-24 -83 -40 -170t-16 -172q0 -217 122.5 -334.5t351.5 -117.5q97 0 193 19.5t175 59t126.5 99t47.5 138.5q0 59 -27.5 99t-106.5 40h-162q-81 0 -127 30t-65 78t-19 102q0 111 41.5 207.5t123 156.5t202.5 60q103 0 174 -38l-18 -49q-34 12 -72 19t-82 7
q-103 0 -172 -48.5t-103.5 -131t-34.5 -184.5q0 -86 42 -117t110 -31h162q106 0 148 -52t42 -144q0 -95 -49.5 -166.5t-134.5 -118.5t-192 -71t-222 -24z" />
    <glyph glyph-name="uniFE8A" unicode="&#x626;" horiz-adv-x="1299" arabic-form="final" 
d="M422 582q-40 20 -71.5 56.5t-31.5 91.5q0 78 56 126t122 48q26 0 42 -3t42 -12l1 -44q-38 13 -81 13q-57 0 -100 -38t-43 -91q0 -55 44.5 -87.5t84.5 -27.5q13 1 28 8l114 43l6 -40l-344 -135l-5 37zM659 -515q-266 0 -400.5 140.5t-134.5 375.5q0 136 43 290l53 -20
q-36 -142 -36 -265q0 -211 115.5 -336t359.5 -125q136 0 257.5 35.5t197.5 98.5t76 145q0 89 -67 132.5t-160 43.5h-111q-6 0 -13 1.5t-9 9.5l-12 39q-3 12 16 12h485v-62h-166q52 -33 70.5 -80t18.5 -93q0 -101 -79.5 -178t-211.5 -120.5t-292 -43.5z" />
    <glyph glyph-name="uniFE8B" unicode="&#x626;" horiz-adv-x="598" arabic-form="initial" 
d="M270 838q-40 20 -71.5 56.5t-31.5 91.5q0 78 56 126t122 48q26 0 42 -3t42 -12l1 -44q-38 13 -81 13q-57 0 -100 -38t-43 -91q0 -55 44.5 -87.5t84.5 -27.5q13 1 28 8l114 43l6 -40l-344 -135l-5 37zM-22 62h206q130 0 179.5 70t49.5 195q0 51 -7 117.5t-18 126.5l58 15
q11 -55 17 -123t6 -120q0 -163 -63 -253t-220 -90h-208v62z" />
    <glyph glyph-name="uniFE8C" unicode="&#x626;" horiz-adv-x="734" arabic-form="medial" 
d="M302 722q-40 20 -71.5 56.5t-31.5 91.5q0 78 56 126t122 48q26 0 42 -3t42 -12l1 -44q-38 13 -81 13q-57 0 -100 -38t-43 -91q0 -55 44.5 -87.5t84.5 -27.5q13 1 28 8l114 43l6 -40l-344 -135l-5 37zM-22 62h139q134 0 215.5 64.5t82.5 226.5q0 73 -5 125l48 6l12 -171
q5 -80 39.5 -136t84.5 -85.5t101 -29.5h59v-62h-59q-74 0 -129 35.5t-86 81t-34 74.5q-29 -97 -116 -144t-215 -47h-137v62z" />
    <glyph glyph-name="uniFE8D" unicode="&#x627;" horiz-adv-x="415" arabic-form="isolated" 
d="M233 1317v-1317h-51v1317h51z" />
    <glyph glyph-name="uniFE8E" unicode="&#x627;" horiz-adv-x="506" arabic-form="final" 
d="M182 1317h51v-956q0 -157 56.5 -228t175.5 -71h61v-62h-61q-156 0 -219.5 92t-63.5 265v960z" />
    <glyph glyph-name="uniFE8F" unicode="&#x628;" horiz-adv-x="1731" arabic-form="isolated" 
d="M888 -228l70 -70l-70 -70l-70 70zM1057 0h-232q-145 0 -271 13t-221.5 53t-149.5 119t-54 210q0 92 31 185l47 -18q-9 -37 -16.5 -75.5t-7.5 -74.5q0 -123 51.5 -193.5t141 -104t205.5 -43t244 -9.5h233q84 0 170 5t158.5 29t116.5 79.5t44 155.5q0 44 -4.5 105.5
t-20.5 134.5l59 15q12 -55 16.5 -124t4.5 -113q0 -125 -43.5 -196t-119 -103.5t-174 -41t-208.5 -8.5z" />
    <glyph glyph-name="uniFE90" unicode="&#x628;" horiz-adv-x="1873" arabic-form="final" 
d="M888 -228l70 -70l-70 -70l-70 70zM1547 478l48 6l13 -183q7 -106 68 -172.5t156 -66.5h61v-62h-61q-106 0 -174.5 59.5t-83.5 147.5q-64 -121 -202 -164t-378 -43h-169q-145 0 -271 13t-221.5 53t-149.5 119t-54 210q0 92 31 185l47 -18q-9 -37 -16.5 -75.5t-7.5 -74.5
q0 -123 51.5 -193.5t141 -104t205.5 -43t244 -9.5h167q163 0 289 23t198.5 91t72.5 204q0 29 -1.5 54t-3.5 44z" />
    <glyph glyph-name="uniFE91" unicode="&#x628;" horiz-adv-x="574" arabic-form="initial" 
d="M-21 62h181q130 0 179.5 70t49.5 195q0 51 -7 117.5t-18 126.5l58 15q11 -55 17 -123t6 -120q0 -163 -63 -253t-220 -90h-183v62zM185 -228l70 -70l-70 -70l-70 70z" />
    <glyph glyph-name="uniFE92" unicode="&#x628;" horiz-adv-x="710" arabic-form="medial" 
d="M-21 62h114q134 0 215.5 64.5t82.5 226.5q0 73 -5 125l48 6l12 -171q5 -80 39.5 -136t84.5 -85.5t101 -29.5h59v-62h-59q-74 0 -129 35.5t-86 81t-34 74.5q-29 -97 -116 -144t-215 -47h-112v62zM185 -228l70 -70l-70 -70l-70 70z" />
    <glyph glyph-name="uniFE93" unicode="&#x629;" horiz-adv-x="894" arabic-form="isolated" 
d="M390 687l-30 26l35 45q91 -74 176 -151.5t139.5 -159.5t54.5 -171q0 -137 -89 -204.5t-229 -67.5q-146 0 -232 64t-86 188q0 188 261 431zM713 284q0 62 -43 126.5t-107.5 126t-128.5 112.5q-56 -50 -114 -113t-97 -132.5t-39 -140.5q0 -107 73.5 -154t188.5 -47
q119 0 193 51.5t74 170.5zM530 1100l65 -64l-65 -66l-65 66zM310 1100l65 -64l-65 -66l-65 66z" />
    <glyph glyph-name="uniFE94" unicode="&#x629;" horiz-adv-x="1032" arabic-form="final" 
d="M662 1234l65 -64l-65 -66l-65 66zM442 1234l65 -64l-65 -66l-65 66zM991 0q-93 0 -146 42.5t-79 117t-39 170.5q-37 -88 -124.5 -137.5t-186.5 -49.5q-124 0 -205.5 65t-81.5 181q0 85 49.5 151t129 116.5t171.5 87.5t178 64l-5 33l54 10l79 -551q17 -113 66 -175.5
t140 -62.5h61v-62h-61zM708 453q0 17 -1.5 33.5t-3.5 34.5l-37 234q-70 -25 -153 -58t-158 -76t-123.5 -99.5t-48.5 -129.5q0 -97 66 -145.5t161 -48.5q79 0 147 32.5t109.5 90t41.5 132.5z" />
    <glyph glyph-name="uniFE95" unicode="&#x62a;" horiz-adv-x="1731" arabic-form="isolated" 
d="M1057 0h-232q-145 0 -271 13t-221.5 53t-149.5 119t-54 210q0 92 31 185l47 -18q-9 -37 -16.5 -75.5t-7.5 -74.5q0 -123 51.5 -193.5t141 -104t205.5 -43t244 -9.5h233q84 0 170 5t158.5 29t116.5 79.5t44 155.5q0 44 -4.5 105.5t-20.5 134.5l59 15q12 -55 16.5 -124
t4.5 -113q0 -125 -43.5 -196t-119 -103.5t-174 -41t-208.5 -8.5zM983 806l65 -64l-65 -66l-65 66zM763 806l65 -64l-65 -66l-65 66z" />
    <glyph glyph-name="uniFE96" unicode="&#x62a;" horiz-adv-x="1873" arabic-form="final" 
d="M990 806l65 -64l-65 -66l-65 66zM770 806l65 -64l-65 -66l-65 66zM1547 478l48 6l13 -183q7 -106 68 -172.5t156 -66.5h61v-62h-61q-106 0 -174.5 59.5t-83.5 147.5q-64 -121 -202 -164t-378 -43h-169q-145 0 -271 13t-221.5 53t-149.5 119t-54 210q0 92 31 185l47 -18
q-9 -37 -16.5 -75.5t-7.5 -74.5q0 -123 51.5 -193.5t141 -104t205.5 -43t244 -9.5h167q163 0 289 23t198.5 91t72.5 204q0 29 -1.5 54t-3.5 44z" />
    <glyph glyph-name="uniFE97" unicode="&#x62a;" horiz-adv-x="598" arabic-form="initial" 
d="M364 999l65 -64l-65 -66l-65 66zM144 999l65 -64l-65 -66l-65 66zM-20 62h204q130 0 179.5 70t49.5 195q0 51 -7 117.5t-18 126.5l58 15q11 -55 17 -123t6 -120q0 -163 -63 -253t-220 -90h-206v62z" />
    <glyph glyph-name="uniFE98" unicode="&#x62a;" horiz-adv-x="733" arabic-form="medial" 
d="M365 907l65 -64l-65 -66l-65 66zM145 907l65 -64l-65 -66l-65 66zM-20 62h137q134 0 215.5 64.5t82.5 226.5q0 73 -5 125l48 6l12 -171q5 -80 39.5 -136t84.5 -85.5t101 -29.5h59v-62h-59q-74 0 -129 35.5t-86 81t-34 74.5q-29 -97 -116 -144t-215 -47h-135v62z" />
    <glyph glyph-name="uniFE99" unicode="&#x62b;" horiz-adv-x="1731" arabic-form="isolated" 
d="M1057 0h-232q-145 0 -271 13t-221.5 53t-149.5 119t-54 210q0 92 31 185l47 -18q-9 -37 -16.5 -75.5t-7.5 -74.5q0 -123 51.5 -193.5t141 -104t205.5 -43t244 -9.5h233q84 0 170 5t158.5 29t116.5 79.5t44 155.5q0 44 -4.5 105.5t-20.5 134.5l59 15q12 -55 16.5 -124
t4.5 -113q0 -125 -43.5 -196t-119 -103.5t-174 -41t-208.5 -8.5zM873 914l63 -63l-63 -63l-63 63zM994 716l63 -63l-63 -63l-64 63zM752 716l64 -63l-64 -63l-63 63z" />
    <glyph glyph-name="uniFE9A" unicode="&#x62b;" horiz-adv-x="1873" arabic-form="final" 
d="M878 915l63 -63l-63 -63l-63 63zM999 717l63 -63l-63 -63l-64 63zM757 717l64 -63l-64 -63l-63 63zM1547 478l48 6l13 -183q7 -106 68 -172.5t156 -66.5h61v-62h-61q-106 0 -174.5 59.5t-83.5 147.5q-64 -121 -202 -164t-378 -43h-169q-145 0 -271 13t-221.5 53
t-149.5 119t-54 210q0 92 31 185l47 -18q-9 -37 -16.5 -75.5t-7.5 -74.5q0 -123 51.5 -193.5t141 -104t205.5 -43t244 -9.5h167q163 0 289 23t198.5 91t72.5 204q0 29 -1.5 54t-3.5 44z" />
    <glyph glyph-name="uniFE9B" unicode="&#x62b;" horiz-adv-x="598" arabic-form="initial" 
d="M251 1170l63 -63l-63 -63l-63 63zM372 972l63 -63l-63 -63l-64 63zM130 972l64 -63l-64 -63l-63 63zM-20 62h204q130 0 179.5 70t49.5 195q0 51 -7 117.5t-18 126.5l58 15q11 -55 17 -123t6 -120q0 -163 -63 -253t-220 -90h-206v62z" />
    <glyph glyph-name="uniFE9C" unicode="&#x62b;" horiz-adv-x="734" arabic-form="medial" 
d="M251 1088l63 -63l-63 -63l-63 63zM372 890l63 -63l-63 -63l-64 63zM130 890l64 -63l-64 -63l-63 63zM-20 62h137q134 0 215.5 64.5t82.5 226.5q0 73 -5 125l48 6l12 -171q5 -80 39.5 -136t84.5 -85.5t101 -29.5h59v-62h-59q-74 0 -129 35.5t-86 81t-34 74.5
q-29 -97 -116 -144t-215 -47h-135v62z" />
    <glyph glyph-name="uniFE9D" unicode="&#x62c;" horiz-adv-x="1310" arabic-form="isolated" 
d="M1155 498v-64q-130 -13 -266 -46t-262 -86.5t-226 -129t-158.5 -174.5t-58.5 -223q0 -156 75 -245.5t203.5 -126.5t288.5 -37q101 0 209.5 18t203.5 55l14 -56q-91 -37 -207.5 -55.5t-234.5 -18.5q-170 0 -308 44t-218.5 144.5t-80.5 267.5q0 165 77.5 286.5t207.5 206
t290 137.5t325 81q-125 38 -237.5 86t-201 83.5t-140.5 35.5q-82 0 -134.5 -40.5t-93.5 -88.5l-9 -11l-49 24l9 12q59 77 125 119.5t153 42.5q49 0 130 -32t180 -76t201 -82.5t193 -50.5zM777 -82l70 -70l-70 -70l-70 70z" />
    <glyph glyph-name="uniFE9E" unicode="&#x62c;" horiz-adv-x="1379" arabic-form="final" 
d="M668 -116l70 -70l-70 -70l-70 70zM129 -235q0 165 77.5 286.5t207.5 206t290 137.5t325 81q-125 38 -237.5 86t-201 83.5t-140.5 35.5q-82 0 -134.5 -40.5t-93.5 -88.5l-9 -11l-49 24l9 12q59 77 125 119.5t153 42.5q49 0 130 -32t180 -76t201 -82.5t193 -50.5v-64
q-99 -11 -204 -32q0 -136 35.5 -210t116.5 -102t215 -28h81v-62h-78q-153 0 -245.5 34.5t-133.5 120t-41 236.5q-138 -32 -266.5 -85t-230 -129t-161 -176t-59.5 -226q0 -156 75 -245.5t203.5 -126.5t288.5 -37q101 0 209.5 18t203.5 55l14 -56q-91 -37 -207.5 -55.5
t-234.5 -18.5q-170 0 -308 44t-218.5 144.5t-80.5 267.5z" />
    <glyph glyph-name="uniFE9F" unicode="&#x62c;" horiz-adv-x="1342" arabic-form="initial" 
d="M666 -228l70 -70l-70 -70l-70 70zM-20 62h170q140 0 269 32.5t249.5 83t236 106.5t227.5 104q-98 27 -193.5 66.5t-180.5 78t-151.5 64.5t-107.5 26q-82 0 -134.5 -40.5t-93.5 -88.5l-9 -11l-49 24l9 12q59 77 125 119.5t153 42.5q49 0 133 -34.5t187 -82t208 -89
t196 -55.5v-68q-82 -25 -160 -58.5t-202 -92.5q-214 -101 -379.5 -151t-335.5 -50h-167v62z" />
    <glyph glyph-name="uniFEA0" unicode="&#x62c;" horiz-adv-x="1396" arabic-form="medial" 
d="M666 -228l70 -70l-70 -70l-70 70zM1224 420v-68q-49 -16 -96.5 -32.5t-103.5 -42.5q20 -99 56.5 -144.5t102.5 -58t172 -12.5h61v-62h-61q-137 0 -213 23.5t-111.5 79.5t-52.5 151q-134 -63 -271.5 -121t-277.5 -95.5t-282 -37.5h-167v62h170q140 0 269 32t249.5 83
t236 107t227.5 104q-98 27 -193.5 66.5t-180.5 78t-151.5 64.5t-107.5 26q-82 0 -134.5 -40.5t-93.5 -88.5l-9 -11l-49 24l9 12q59 77 125 119.5t153 42.5q49 0 133 -35t187 -83t208 -89.5t196 -53.5z" />
    <glyph glyph-name="uniFEA1" unicode="&#x62d;" horiz-adv-x="1310" arabic-form="isolated" 
d="M1155 498v-64q-130 -13 -266 -46t-262 -86.5t-226 -129t-158.5 -174.5t-58.5 -223q0 -156 75 -245.5t203.5 -126.5t288.5 -37q101 0 209.5 18t203.5 55l14 -56q-91 -37 -207.5 -55.5t-234.5 -18.5q-170 0 -308 44t-218.5 144.5t-80.5 267.5q0 165 77.5 286.5t207.5 206
t290 137.5t325 81q-125 38 -237.5 86t-201 83.5t-140.5 35.5q-82 0 -134.5 -40.5t-93.5 -88.5l-9 -11l-49 24l9 12q59 77 125 119.5t153 42.5q49 0 130 -32t180 -76t201 -82.5t193 -50.5z" />
    <glyph glyph-name="uniFEA2" unicode="&#x62d;" horiz-adv-x="1379" arabic-form="final" 
d="M129 -235q0 165 77.5 286.5t207.5 206t290 137.5t325 81q-125 38 -237.5 86t-201 83.5t-140.5 35.5q-82 0 -134.5 -40.5t-93.5 -88.5l-9 -11l-49 24l9 12q59 77 125 119.5t153 42.5q49 0 130 -32t180 -76t201 -82.5t193 -50.5v-64q-99 -11 -204 -32q0 -136 35.5 -210
t116.5 -102t215 -28h81v-62h-78q-153 0 -245.5 34.5t-133.5 120t-41 236.5q-138 -32 -266.5 -85t-230 -129t-161 -176t-59.5 -226q0 -156 75 -245.5t203.5 -126.5t288.5 -37q101 0 209.5 18t203.5 55l14 -56q-91 -37 -207.5 -55.5t-234.5 -18.5q-170 0 -308 44t-218.5 144.5
t-80.5 267.5z" />
    <glyph glyph-name="uniFEA3" unicode="&#x62d;" horiz-adv-x="1342" arabic-form="initial" 
d="M-20 62h170q140 0 269 32.5t249.5 83t236 106.5t227.5 104q-98 27 -193.5 66.5t-180.5 78t-151.5 64.5t-107.5 26q-82 0 -134.5 -40.5t-93.5 -88.5l-9 -11l-49 24l9 12q59 77 125 119.5t153 42.5q49 0 133 -34.5t187 -82t208 -89t196 -55.5v-68q-82 -25 -160 -58.5
t-202 -92.5q-214 -101 -379.5 -151t-335.5 -50h-167v62z" />
    <glyph glyph-name="uniFEA4" unicode="&#x62d;" horiz-adv-x="1396" arabic-form="medial" 
d="M1224 420v-68q-49 -16 -96.5 -32.5t-103.5 -42.5q20 -99 56.5 -144.5t102.5 -58t172 -12.5h61v-62h-61q-137 0 -213 23.5t-111.5 79.5t-52.5 151q-134 -63 -271.5 -121t-277.5 -95.5t-282 -37.5h-167v62h170q140 0 269 32t249.5 83t236 107t227.5 104q-98 27 -193.5 66.5
t-180.5 78t-151.5 64.5t-107.5 26q-82 0 -134.5 -40.5t-93.5 -88.5l-9 -11l-49 24l9 12q59 77 125 119.5t153 42.5q49 0 133 -35t187 -83t208 -89.5t196 -53.5z" />
    <glyph glyph-name="uniFEA5" unicode="&#x62e;" horiz-adv-x="1310" arabic-form="isolated" 
d="M548 1160l70 -70l-70 -70l-70 70zM1155 498v-64q-130 -13 -266 -46t-262 -86.5t-226 -129t-158.5 -174.5t-58.5 -223q0 -156 75 -245.5t203.5 -126.5t288.5 -37q101 0 209.5 18t203.5 55l14 -56q-91 -37 -207.5 -55.5t-234.5 -18.5q-170 0 -308 44t-218.5 144.5
t-80.5 267.5q0 165 77.5 286.5t207.5 206t290 137.5t325 81q-125 38 -237.5 86t-201 83.5t-140.5 35.5q-82 0 -134.5 -40.5t-93.5 -88.5l-9 -11l-49 24l9 12q59 77 125 119.5t153 42.5q49 0 130 -32t180 -76t201 -82.5t193 -50.5z" />
    <glyph glyph-name="uniFEA6" unicode="&#x62e;" horiz-adv-x="1379" arabic-form="final" 
d="M548 1160l70 -70l-70 -70l-70 70zM129 -235q0 165 77.5 286.5t207.5 206t290 137.5t325 81q-125 38 -237.5 86t-201 83.5t-140.5 35.5q-82 0 -134.5 -40.5t-93.5 -88.5l-9 -11l-49 24l9 12q59 77 125 119.5t153 42.5q49 0 130 -32t180 -76t201 -82.5t193 -50.5v-64
q-99 -11 -204 -32q0 -136 35.5 -210t116.5 -102t215 -28h81v-62h-78q-153 0 -245.5 34.5t-133.5 120t-41 236.5q-138 -32 -266.5 -85t-230 -129t-161 -176t-59.5 -226q0 -156 75 -245.5t203.5 -126.5t288.5 -37q101 0 209.5 18t203.5 55l14 -56q-91 -37 -207.5 -55.5
t-234.5 -18.5q-170 0 -308 44t-218.5 144.5t-80.5 267.5z" />
    <glyph glyph-name="uniFEA7" unicode="&#x62e;" horiz-adv-x="1342" arabic-form="initial" 
d="M603 1115l70 -70l-70 -70l-70 70zM-20 62h170q140 0 269 32.5t249.5 83t236 106.5t227.5 104q-98 27 -193.5 66.5t-180.5 78t-151.5 64.5t-107.5 26q-82 0 -134.5 -40.5t-93.5 -88.5l-9 -11l-49 24l9 12q59 77 125 119.5t153 42.5q49 0 133 -34.5t187 -82t208 -89
t196 -55.5v-68q-82 -25 -160 -58.5t-202 -92.5q-214 -101 -379.5 -151t-335.5 -50h-167v62z" />
    <glyph glyph-name="uniFEA8" unicode="&#x62e;" horiz-adv-x="1396" arabic-form="medial" 
d="M603 1115l70 -70l-70 -70l-70 70zM1224 420v-68q-49 -16 -96.5 -32.5t-103.5 -42.5q20 -99 56.5 -144.5t102.5 -58t172 -12.5h61v-62h-61q-137 0 -213 23.5t-111.5 79.5t-52.5 151q-134 -63 -271.5 -121t-277.5 -95.5t-282 -37.5h-167v62h170q140 0 269 32t249.5 83
t236 107t227.5 104q-98 27 -193.5 66.5t-180.5 78t-151.5 64.5t-107.5 26q-82 0 -134.5 -40.5t-93.5 -88.5l-9 -11l-49 24l9 12q59 77 125 119.5t153 42.5q49 0 133 -35t187 -83t208 -89.5t196 -53.5z" />
    <glyph glyph-name="uniFEA9" unicode="&#x62f;" horiz-adv-x="920" arabic-form="isolated" 
d="M296 60q111 0 212 20t165 75.5t64 163.5q0 91 -58 174.5t-148 154.5t-186 124l27 49q115 -60 210 -139t152 -170.5t57 -189.5q0 -125 -60.5 -195t-168.5 -97.5t-251 -27.5q-95 0 -182 14v59q92 -15 167 -15z" />
    <glyph glyph-name="uniFEAA" unicode="&#x62f;" horiz-adv-x="1059" arabic-form="final" 
d="M713 289q0 44 -18.5 89.5t-40.5 93.5l-152 348l51 23l204 -475q34 -78 63 -148t74 -114t125 -44h60v-62h-60q-82 0 -130.5 32.5t-77.5 84.5t-55 108q-20 -85 -90.5 -134t-167.5 -69.5t-197 -20.5q-51 0 -93 4t-79 11v61q81 -15 157 -15q104 0 202 21t161.5 70.5
t63.5 135.5z" />
    <glyph glyph-name="uniFEAB" unicode="&#x630;" horiz-adv-x="920" arabic-form="isolated" 
d="M368 1222l70 -70l-70 -70l-70 70zM296 60q111 0 212 20t165 75.5t64 163.5q0 91 -58 174.5t-148 154.5t-186 124l27 49q115 -60 210 -139t152 -170.5t57 -189.5q0 -125 -60.5 -195t-168.5 -97.5t-251 -27.5q-95 0 -182 14v59q92 -15 167 -15z" />
    <glyph glyph-name="uniFEAC" unicode="&#x630;" horiz-adv-x="1059" arabic-form="final" 
d="M485 1245l70 -70l-70 -70l-70 70zM713 289q0 44 -18.5 89.5t-40.5 93.5l-152 348l51 23l204 -475q34 -78 63 -148t74 -114t125 -44h60v-62h-60q-82 0 -130.5 32.5t-77.5 84.5t-55 108q-20 -85 -90.5 -134t-167.5 -69.5t-197 -20.5q-51 0 -93 4t-79 11v61q81 -15 157 -15
q104 0 202 21t161.5 70.5t63.5 135.5z" />
    <glyph glyph-name="uniFEAD" unicode="&#x631;" horiz-adv-x="641" arabic-form="isolated" 
d="M55 -528l-17 49q204 61 313 199.5t109 344.5q0 149 -55 326l55 18q55 -180 55 -338q0 -229 -120.5 -385.5t-339.5 -213.5z" />
    <glyph glyph-name="uniFEAE" unicode="&#x631;" horiz-adv-x="761" arabic-form="final" 
d="M720 0q-81 0 -132 33t-75 82q10 -187 -51 -318t-169 -211t-238 -114l-17 49q204 61 313 199.5t109 344.5q0 149 -55 326l52 17l41 -147q22 -83 74 -141t148 -58h61v-62h-61z" />
    <glyph glyph-name="uniFEAF" unicode="&#x632;" horiz-adv-x="641" arabic-form="isolated" 
d="M383 844l70 -70l-70 -70l-70 70zM55 -528l-17 49q204 61 313 199.5t109 344.5q0 149 -55 326l55 18q55 -180 55 -338q0 -229 -120.5 -385.5t-339.5 -213.5z" />
    <glyph glyph-name="uniFEB0" unicode="&#x632;" horiz-adv-x="761" arabic-form="final" 
d="M373 854l70 -70l-70 -70l-70 70zM720 0q-81 0 -132 33t-75 82q10 -187 -51 -318t-169 -211t-238 -114l-17 49q204 61 313 199.5t109 344.5q0 149 -55 326l52 17l41 -147q22 -83 74 -141t148 -58h61v-62h-61z" />
    <glyph glyph-name="uniFEB1" unicode="&#x633;" horiz-adv-x="2364" arabic-form="isolated" 
d="M1452 0q-89 0 -158.5 29.5t-100.5 66.5q17 -180 -31 -318t-171 -215.5t-332 -77.5q-261 0 -395.5 133.5t-134.5 384.5q0 85 15.5 176t43.5 180l53 -20q-24 -83 -40 -170t-16 -172q0 -217 122.5 -334.5t351.5 -117.5q176 0 281.5 59.5t153 161.5t47.5 231q0 89 -20 187.5
t-55 198.5l59 24l39 -136q30 -97 96 -153t193 -56q134 0 188.5 75.5t54.5 205.5q0 22 -2 51t-5 58l48 6l12 -146q7 -101 59.5 -175.5t164.5 -74.5q76 0 121.5 37.5t65.5 99t20 132.5q0 59 -8 118.5t-21 110.5l56 15q30 -120 30 -242q0 -88 -25.5 -163.5t-83 -122
t-153.5 -47.5q-120 0 -176 58t-72 132q-26 -84 -89.5 -137t-185.5 -53z" />
    <glyph glyph-name="uniFEB2" unicode="&#x633;" horiz-adv-x="2503" arabic-form="final" 
d="M659 -455q176 0 281.5 59.5t153 161.5t47.5 231q0 89 -20 187.5t-55 198.5l59 24l39 -136q30 -97 96 -153t193 -56q134 0 188.5 75.5t54.5 205.5q0 22 -2 51t-5 58l48 6l12 -146q7 -101 59.5 -175.5t164.5 -74.5q77 0 123 38.5t66.5 102.5t20.5 140q0 58 -6 125l47 6
l12 -162q7 -106 69.5 -178t156.5 -72h61v-62h-61q-203 0 -249 197q-18 -91 -74 -144t-164 -53q-120 0 -176 58t-72 132q-26 -84 -89.5 -137t-185.5 -53q-89 0 -158.5 29.5t-100.5 66.5q16 -176 -30.5 -314t-169 -217.5t-334.5 -79.5q-261 0 -395.5 133.5t-134.5 384.5
q0 85 15.5 176t43.5 180l53 -20q-24 -83 -40 -170t-16 -172q0 -217 122.5 -334.5t351.5 -117.5z" />
    <glyph glyph-name="uniFEB3" unicode="&#x633;" horiz-adv-x="1585" arabic-form="initial" 
d="M677 0q-123 0 -184 55.5t-84 139.5q-39 -104 -115 -149.5t-222 -45.5h-92v62h94q149 0 227.5 65t78.5 216q0 22 -1.5 51t-4.5 58l47 6l12 -146q8 -105 68.5 -177.5t176.5 -72.5q134 0 188.5 75.5t54.5 205.5q0 22 -2 51t-5 58l48 6l12 -146q7 -101 59.5 -175.5
t164.5 -74.5q76 0 121.5 37.5t65.5 99t20 132.5q0 59 -8 118.5t-21 110.5l56 15q30 -120 30 -242q0 -88 -25.5 -163.5t-83 -122t-153.5 -47.5q-120 0 -176 58t-72 132q-26 -84 -89.5 -137t-185.5 -53z" />
    <glyph glyph-name="uniFEB4" unicode="&#x633;" horiz-adv-x="1729" arabic-form="medial" 
d="M1200 0q-120 0 -176 58t-72 132q-26 -84 -89.5 -137t-185.5 -53q-123 0 -184 55.5t-84 139.5q-39 -104 -115 -149.5t-222 -45.5h-92v62h94q149 0 227.5 65t78.5 216q0 22 -1.5 51t-4.5 58l47 6l12 -146q8 -105 68.5 -177.5t176.5 -72.5q134 0 188.5 75.5t54.5 205.5
q0 22 -2 51t-5 58l48 6l12 -146q7 -101 59.5 -175.5t164.5 -74.5q77 0 123 38.5t66.5 102.5t20.5 140q0 58 -6 125l47 6l12 -162q7 -106 69.5 -178t156.5 -72h62v-62h-62q-203 0 -249 197q-18 -91 -74 -144t-164 -53z" />
    <glyph glyph-name="uniFEB5" unicode="&#x634;" horiz-adv-x="2364" arabic-form="isolated" 
d="M1666 1088l63 -63l-63 -63l-63 63zM1787 890l63 -63l-63 -63l-64 63zM1545 890l64 -63l-64 -63l-63 63zM1452 0q-89 0 -158.5 29.5t-100.5 66.5q17 -180 -31 -318t-171 -215.5t-332 -77.5q-261 0 -395.5 133.5t-134.5 384.5q0 85 15.5 176t43.5 180l53 -20
q-24 -83 -40 -170t-16 -172q0 -217 122.5 -334.5t351.5 -117.5q176 0 281.5 59.5t153 161.5t47.5 231q0 89 -20 187.5t-55 198.5l59 24l39 -136q30 -97 96 -153t193 -56q134 0 188.5 75.5t54.5 205.5q0 22 -2 51t-5 58l48 6l12 -146q7 -101 59.5 -175.5t164.5 -74.5
q76 0 121.5 37.5t65.5 99t20 132.5q0 59 -8 118.5t-21 110.5l56 15q30 -120 30 -242q0 -88 -25.5 -163.5t-83 -122t-153.5 -47.5q-120 0 -176 58t-72 132q-26 -84 -89.5 -137t-185.5 -53z" />
    <glyph glyph-name="uniFEB6" unicode="&#x634;" horiz-adv-x="2503" arabic-form="final" 
d="M1666 1088l63 -63l-63 -63l-63 63zM1787 890l63 -63l-63 -63l-64 63zM1545 890l64 -63l-64 -63l-63 63zM659 -455q176 0 281.5 59.5t153 161.5t47.5 231q0 89 -20 187.5t-55 198.5l59 24l39 -136q30 -97 96 -153t193 -56q134 0 188.5 75.5t54.5 205.5q0 22 -2 51t-5 58
l48 6l12 -146q7 -101 59.5 -175.5t164.5 -74.5q77 0 123 38.5t66.5 102.5t20.5 140q0 58 -6 125l47 6l12 -162q7 -106 69.5 -178t156.5 -72h61v-62h-61q-203 0 -249 197q-18 -91 -74 -144t-164 -53q-120 0 -176 58t-72 132q-26 -84 -89.5 -137t-185.5 -53q-89 0 -158.5 29.5
t-100.5 66.5q16 -176 -30.5 -314t-169 -217.5t-334.5 -79.5q-261 0 -395.5 133.5t-134.5 384.5q0 85 15.5 176t43.5 180l53 -20q-24 -83 -40 -170t-16 -172q0 -217 122.5 -334.5t351.5 -117.5z" />
    <glyph glyph-name="uniFEB7" unicode="&#x634;" horiz-adv-x="1585" arabic-form="initial" 
d="M891 1088l63 -63l-63 -63l-63 63zM1012 890l63 -63l-63 -63l-64 63zM770 890l64 -63l-64 -63l-63 63zM677 0q-123 0 -184 55.5t-84 139.5q-39 -104 -115 -149.5t-222 -45.5h-92v62h94q149 0 227.5 65t78.5 216q0 22 -1.5 51t-4.5 58l47 6l12 -146q8 -105 68.5 -177.5
t176.5 -72.5q134 0 188.5 75.5t54.5 205.5q0 22 -2 51t-5 58l48 6l12 -146q7 -101 59.5 -175.5t164.5 -74.5q76 0 121.5 37.5t65.5 99t20 132.5q0 59 -8 118.5t-21 110.5l56 15q30 -120 30 -242q0 -88 -25.5 -163.5t-83 -122t-153.5 -47.5q-120 0 -176 58t-72 132
q-26 -84 -89.5 -137t-185.5 -53z" />
    <glyph glyph-name="uniFEB8" unicode="&#x634;" horiz-adv-x="1729" arabic-form="medial" 
d="M891 1088l63 -63l-63 -63l-63 63zM1012 890l63 -63l-63 -63l-64 63zM770 890l64 -63l-64 -63l-63 63zM1200 0q-120 0 -176 58t-72 132q-26 -84 -89.5 -137t-185.5 -53q-123 0 -184 55.5t-84 139.5q-39 -104 -115 -149.5t-222 -45.5h-92v62h94q149 0 227.5 65t78.5 216
q0 22 -1.5 51t-4.5 58l47 6l12 -146q8 -105 68.5 -177.5t176.5 -72.5q134 0 188.5 75.5t54.5 205.5q0 22 -2 51t-5 58l48 6l12 -146q7 -101 59.5 -175.5t164.5 -74.5q77 0 123 38.5t66.5 102.5t20.5 140q0 58 -6 125l47 6l12 -162q7 -106 69.5 -178t156.5 -72h62v-62h-62
q-203 0 -249 197q-18 -91 -74 -144t-164 -53z" />
    <glyph glyph-name="uniFEB9" unicode="&#x635;" horiz-adv-x="2495" arabic-form="isolated" 
d="M659 -515q-261 0 -395.5 133.5t-134.5 384.5q0 85 15.5 176t43.5 180l53 -20q-24 -83 -40 -170t-16 -172q0 -217 122.5 -334.5t351.5 -117.5q176 0 281.5 59.5t153 161.5t47.5 231q0 89 -20 187.5t-55 198.5l59 24l38 -129q24 -76 68.5 -130t125.5 -74q62 106 136 213.5
t159.5 198t181.5 145.5t202 55q96 0 170.5 -45t117 -117t42.5 -153q0 -117 -55 -190.5t-150 -112.5t-217 -53.5t-256 -14.5h-123q-100 0 -166 6.5t-113.5 27t-92.5 62.5q16 -176 -30.5 -314t-169 -217.5t-334.5 -79.5zM2043 624q-102 0 -192.5 -54t-169 -139.5t-145 -183.5
t-122.5 -185h270q111 0 221.5 10t202.5 40t147 89.5t55 158.5q0 116 -77 190t-190 74z" />
    <glyph glyph-name="uniFEBA" unicode="&#x635;" horiz-adv-x="2572" arabic-form="final" 
d="M659 -455q176 0 281.5 59.5t153 161.5t47.5 231q0 89 -20 187.5t-55 198.5l59 24l38 -129q24 -76 68.5 -130t125.5 -74q62 106 136 213.5t159.5 198t181.5 145.5t202 55q95 0 169.5 -42t117.5 -113.5t43 -158.5q0 -93 -33.5 -151.5t-89.5 -102.5q50 -24 86.5 -36t82 -16
t119.5 -4h61v-62h-61q-129 0 -200.5 24t-130.5 69q-97 -56 -229.5 -74.5t-282.5 -18.5h-123q-100 0 -166 6.5t-113.5 27t-92.5 62.5q16 -176 -30.5 -314t-169 -217.5t-334.5 -79.5q-261 0 -395.5 133.5t-134.5 384.5q0 85 15.5 176t43.5 180l53 -20q-24 -83 -40 -170
t-16 -172q0 -217 122.5 -334.5t351.5 -117.5zM2043 624q-102 0 -192.5 -54t-169 -139.5t-145 -183.5t-122.5 -185h270q111 0 221.5 10t202 40t147 89.5t55.5 158.5q0 116 -77.5 190t-189.5 74z" />
    <glyph glyph-name="uniFEBB" unicode="&#x635;" horiz-adv-x="1683" arabic-form="initial" 
d="M546 74q62 106 135 213.5t157 198t180.5 145.5t206.5 55q96 0 170.5 -42t117 -113.5t42.5 -158.5q0 -117 -55 -190.5t-150 -113t-217 -54t-256 -14.5h-123q-100 0 -181.5 8.5t-138.5 46t-86 123.5q-40 -91 -110.5 -134.5t-195.5 -43.5h-62v62h63q144 5 209.5 74t65.5 208
q0 36 -2 66t-4 68l49 6l14 -173q8 -96 49.5 -156.5t121.5 -80.5zM1232 624q-102 0 -192.5 -54t-169 -139.5t-145 -183.5t-122.5 -185h270q111 0 221.5 10t202.5 40t147 89.5t55 158.5q0 116 -77 190t-190 74z" />
    <glyph glyph-name="uniFEBC" unicode="&#x635;" horiz-adv-x="1761" arabic-form="medial" 
d="M877 0h-123q-100 0 -181.5 8.5t-138.5 46t-86 123.5q-40 -91 -110.5 -134.5t-195.5 -43.5h-62v62h63q144 5 209.5 74t65.5 208q0 36 -2 66t-4 68l49 6l14 -173q8 -96 49.5 -157t121.5 -81q62 106 135 214t157 198.5t180.5 145.5t206.5 55q95 0 169.5 -42t117.5 -113.5
t43 -158.5q0 -93 -33.5 -151.5t-89.5 -102.5q50 -24 86.5 -36t82 -16t119.5 -4h61v-62h-61q-129 0 -200.5 24t-130.5 69q-97 -56 -229.5 -74.5t-282.5 -18.5zM1232 624q-102 0 -192.5 -54t-169 -139.5t-145 -183.5t-122.5 -185h270q111 0 221.5 10t202 40t147 89.5
t55.5 158.5q0 116 -77.5 190t-189.5 74z" />
    <glyph glyph-name="uniFEBD" unicode="&#x636;" horiz-adv-x="2495" arabic-form="isolated" 
d="M2005 1118l70 -70l-70 -70l-70 70zM659 -515q-261 0 -395.5 133.5t-134.5 384.5q0 85 15.5 176t43.5 180l53 -20q-24 -83 -40 -170t-16 -172q0 -217 122.5 -334.5t351.5 -117.5q176 0 281.5 59.5t153 161.5t47.5 231q0 89 -20 187.5t-55 198.5l59 24l38 -129
q24 -76 68.5 -130t125.5 -74q62 106 136 213.5t159.5 198t181.5 145.5t202 55q96 0 170.5 -45t117 -117t42.5 -153q0 -117 -55 -190.5t-150 -112.5t-217 -53.5t-256 -14.5h-123q-100 0 -166 6.5t-113.5 27t-92.5 62.5q16 -176 -30.5 -314t-169 -217.5t-334.5 -79.5z
M2043 624q-102 0 -192.5 -54t-169 -139.5t-145 -183.5t-122.5 -185h270q111 0 221.5 10t202.5 40t147 89.5t55 158.5q0 116 -77 190t-190 74z" />
    <glyph glyph-name="uniFEBE" unicode="&#x636;" horiz-adv-x="2572" arabic-form="final" 
d="M2005 1118l70 -70l-70 -70l-70 70zM659 -455q176 0 281.5 59.5t153 161.5t47.5 231q0 89 -20 187.5t-55 198.5l59 24l38 -129q24 -76 68.5 -130t125.5 -74q62 106 136 213.5t159.5 198t181.5 145.5t202 55q95 0 169.5 -42t117.5 -113.5t43 -158.5q0 -93 -33.5 -151.5
t-89.5 -102.5q50 -24 86.5 -36t82 -16t119.5 -4h61v-62h-61q-129 0 -200.5 24t-130.5 69q-97 -56 -229.5 -74.5t-282.5 -18.5h-123q-100 0 -166 6.5t-113.5 27t-92.5 62.5q16 -176 -30.5 -314t-169 -217.5t-334.5 -79.5q-261 0 -395.5 133.5t-134.5 384.5q0 85 15.5 176
t43.5 180l53 -20q-24 -83 -40 -170t-16 -172q0 -217 122.5 -334.5t351.5 -117.5zM2043 624q-102 0 -192.5 -54t-169 -139.5t-145 -183.5t-122.5 -185h270q111 0 221.5 10t202 40t147 89.5t55.5 158.5q0 116 -77.5 190t-189.5 74z" />
    <glyph glyph-name="uniFEBF" unicode="&#x636;" horiz-adv-x="1683" arabic-form="initial" 
d="M1183 1118l70 -70l-70 -70l-70 70zM546 74q62 106 135 213.5t157 198t180.5 145.5t206.5 55q96 0 170.5 -42t117 -113.5t42.5 -158.5q0 -117 -55 -190.5t-150 -113t-217 -54t-256 -14.5h-123q-100 0 -181.5 8.5t-138.5 46t-86 123.5q-40 -91 -110.5 -134.5t-195.5 -43.5
h-62v62h63q144 5 209.5 74t65.5 208q0 36 -2 66t-4 68l49 6l14 -173q8 -96 49.5 -156.5t121.5 -80.5zM1232 624q-102 0 -192.5 -54t-169 -139.5t-145 -183.5t-122.5 -185h270q111 0 221.5 10t202.5 40t147 89.5t55 158.5q0 116 -77 190t-190 74z" />
    <glyph glyph-name="uniFEC0" unicode="&#x636;" horiz-adv-x="1761" arabic-form="medial" 
d="M1183 1118l70 -70l-70 -70l-70 70zM877 0h-123q-100 0 -181.5 8.5t-138.5 46t-86 123.5q-40 -91 -110.5 -134.5t-195.5 -43.5h-62v62h63q144 5 209.5 74t65.5 208q0 36 -2 66t-4 68l49 6l14 -173q8 -96 49.5 -157t121.5 -81q62 106 135 214t157 198.5t180.5 145.5
t206.5 55q95 0 169.5 -42t117.5 -113.5t43 -158.5q0 -93 -33.5 -151.5t-89.5 -102.5q50 -24 86.5 -36t82 -16t119.5 -4h61v-62h-61q-129 0 -200.5 24t-130.5 69q-97 -56 -229.5 -74.5t-282.5 -18.5zM1232 624q-102 0 -192.5 -54t-169 -139.5t-145 -183.5t-122.5 -185h270
q111 0 221.5 10t202 40t147 89.5t55.5 158.5q0 116 -77.5 190t-189.5 74z" />
    <glyph glyph-name="uniFEC1" unicode="&#x637;" horiz-adv-x="1456" arabic-form="isolated" 
d="M310 62q25 42 64.5 98t64.5 98v1059h52v-987q42 56 94 118t115.5 116t137.5 88t159 34q94 0 168.5 -43t118 -114t43.5 -156q0 -118 -55 -191.5t-150 -113t-217 -54t-256 -14.5h-520v62h181zM1004 624q-100 0 -190.5 -54t-169.5 -140t-146.5 -183.5t-122.5 -184.5h270
q111 0 221.5 10t202.5 40t147 89.5t55 158.5q0 116 -77 190t-190 74z" />
    <glyph glyph-name="uniFEC2" unicode="&#x637;" horiz-adv-x="1534" arabic-form="final" 
d="M997 686q96 0 170.5 -42t117 -113.5t42.5 -158.5q0 -93 -34 -151.5t-90 -102.5q50 -24 86.5 -36t82 -16t119.5 -4h63v-62h-63q-129 0 -200.5 24t-130.5 69q-97 -56 -229 -74.5t-283 -18.5h-519v62h181q25 42 64.5 98t64.5 98l-8 1059h52l8 -987q42 56 94 117.5t114.5 116
t137 88.5t160.5 34zM1003 624q-100 0 -189.5 -54t-168.5 -139.5t-146.5 -183.5t-123.5 -185h269q111 0 222 10t202.5 40t147 89.5t55.5 158.5q0 116 -77.5 190t-190.5 74z" />
    <glyph glyph-name="uniFEC3" unicode="&#x637;" horiz-adv-x="1304" arabic-form="initial" 
d="M158 62q25 42 64.5 98t64.5 98v1059h52v-987q42 56 94 118t115.5 116t137.5 88t159 34q94 0 168.5 -43t118 -114t43.5 -156q0 -118 -55 -191.5t-150 -113t-217 -54t-256 -14.5h-517v62h178zM852 624q-100 0 -190.5 -54t-169.5 -140t-146.5 -183.5t-122.5 -184.5h270
q111 0 221.5 10t202.5 40t147 89.5t55 158.5q0 116 -77 190t-190 74z" />
    <glyph glyph-name="uniFEC4" unicode="&#x637;" horiz-adv-x="1382" arabic-form="medial" 
d="M845 686q94 0 168.5 -42t118 -113.5t43.5 -158.5q0 -93 -34.5 -154.5t-89.5 -99.5q50 -24 86.5 -36t82 -16t119.5 -4h63v-62h-63q-129 0 -200.5 24t-130.5 69q-97 -56 -229 -74.5t-283 -18.5h-516v62h178q25 42 64.5 98t64.5 98v1059h52v-987q42 56 94 118t114.5 116
t137 88t160.5 34zM851 624q-102 0 -192 -54t-168.5 -139.5t-145 -183.5t-122.5 -185h269q111 0 222 10t202.5 40t147 89.5t55.5 158.5q0 116 -77.5 190t-190.5 74z" />
    <glyph glyph-name="uniFEC5" unicode="&#x638;" horiz-adv-x="1456" arabic-form="isolated" 
d="M982 1118l70 -70l-70 -70l-70 70zM310 62q25 42 64.5 98t64.5 98v1059h52v-987q42 56 94 118t115.5 116t137.5 88t159 34q94 0 168.5 -43t118 -114t43.5 -156q0 -118 -55 -191.5t-150 -113t-217 -54t-256 -14.5h-520v62h181zM1004 624q-100 0 -190.5 -54t-169.5 -140
t-146.5 -183.5t-122.5 -184.5h270q111 0 221.5 10t202.5 40t147 89.5t55 158.5q0 116 -77 190t-190 74z" />
    <glyph glyph-name="uniFEC6" unicode="&#x638;" horiz-adv-x="1534" arabic-form="final" 
d="M981 1118l70 -70l-70 -70l-70 70zM997 686q96 0 170.5 -42t117 -113.5t42.5 -158.5q0 -93 -34 -151.5t-90 -102.5q50 -24 86.5 -36t82 -16t119.5 -4h63v-62h-63q-129 0 -200.5 24t-130.5 69q-97 -56 -229 -74.5t-283 -18.5h-519v62h181q25 42 64.5 98t64.5 98l-8 1059h52
l8 -987q42 56 94 117.5t114.5 116t137 88.5t160.5 34zM1003 624q-100 0 -189.5 -54t-168.5 -139.5t-146.5 -183.5t-123.5 -185h269q111 0 222 10t202.5 40t147 89.5t55.5 158.5q0 116 -77.5 190t-190.5 74z" />
    <glyph glyph-name="uniFEC7" unicode="&#x638;" horiz-adv-x="1304" arabic-form="initial" 
d="M834 1118l70 -70l-70 -70l-70 70zM158 62q25 42 64.5 98t64.5 98v1059h52v-987q42 56 94 118t115.5 116t137.5 88t159 34q94 0 168.5 -43t118 -114t43.5 -156q0 -118 -55 -191.5t-150 -113t-217 -54t-256 -14.5h-517v62h178zM852 624q-100 0 -190.5 -54t-169.5 -140
t-146.5 -183.5t-122.5 -184.5h270q111 0 221.5 10t202.5 40t147 89.5t55 158.5q0 116 -77 190t-190 74z" />
    <glyph glyph-name="uniFEC8" unicode="&#x638;" horiz-adv-x="1382" arabic-form="medial" 
d="M834 1118l70 -70l-70 -70l-70 70zM845 686q94 0 168.5 -42t118 -113.5t43.5 -158.5q0 -93 -34.5 -154.5t-89.5 -99.5q50 -24 86.5 -36t82 -16t119.5 -4h63v-62h-63q-129 0 -200.5 24t-130.5 69q-97 -56 -229 -74.5t-283 -18.5h-516v62h178q25 42 64.5 98t64.5 98v1059h52
v-987q42 56 94 118t114.5 116t137 88t160.5 34zM851 624q-102 0 -192 -54t-168.5 -139.5t-145 -183.5t-122.5 -185h269q111 0 222 10t202.5 40t147 89.5t55.5 158.5q0 116 -77.5 190t-190.5 74z" />
    <glyph glyph-name="uniFEC9" unicode="&#x639;" horiz-adv-x="1207" arabic-form="isolated" 
d="M969 303l-4 -58h-23q-153 0 -290.5 -26t-243.5 -82t-166.5 -146t-60.5 -218q0 -143 66.5 -232.5t179 -131t249.5 -41.5q98 0 194.5 19t180.5 47l15 -55q-180 -70 -377 -70q-156 0 -283 47.5t-202 148.5t-75 260q0 136 53 228.5t139.5 153t185.5 97.5q-35 25 -73 71.5
t-64 110t-26 136.5q0 88 50 160.5t128 116t162 43.5q59 0 125 -19.5t139 -64.5l-18 -44q-50 26 -109.5 47t-126.5 21q-124 0 -209 -75.5t-85 -198.5q0 -69 28 -126t67 -97.5t72 -61.5q106 23 185 31.5t163 8.5h54z" />
    <glyph glyph-name="uniFECA" unicode="&#x639;" horiz-adv-x="1200" arabic-form="final" 
d="M552 201q-24 21 -69.5 63.5t-98 94t-100.5 103t-78.5 93t-30.5 60.5q0 35 48 59.5t119 39.5t142.5 22t118.5 7t118.5 -7t143 -22.5t120 -39.5t48.5 -59q0 -21 -31.5 -63t-80.5 -94.5t-103 -104.5t-100 -93.5t-70 -61.5q117 -77 232 -106.5t280 -29.5h60v-62h-60
q-100 0 -189.5 12.5t-178.5 48.5t-190 106q-69 -42 -142.5 -85.5t-136.5 -95t-101.5 -114.5t-38.5 -143q0 -131 70.5 -211t186.5 -116t253 -36q77 0 159 10t161 37l10 -57q-72 -25 -157.5 -36t-177.5 -11q-155 0 -282 43t-202 136t-75 241q0 94 43.5 165.5t110 126.5t139 99
t130.5 81zM603 686q-101 0 -203.5 -19.5t-182.5 -45.5q72 -91 154 -175.5t147 -144t85 -76.5q15 12 56.5 49.5t98.5 93t118.5 121t114.5 132.5q-79 26 -182.5 45.5t-205.5 19.5z" />
    <glyph glyph-name="uniFECB" unicode="&#x639;" horiz-adv-x="1048" arabic-form="initial" 
d="M428 62q-39 30 -83 80t-75 120.5t-31 160.5q0 87 46.5 160.5t124 118t168.5 44.5q59 0 125.5 -20.5t139.5 -65.5l-19 -43q-50 26 -109 47t-126 21q-77 0 -144.5 -33.5t-108.5 -94t-41 -141.5q0 -78 28.5 -137.5t62.5 -97t50 -52.5q28 -25 48.5 -37.5t37.5 -8.5l397 107
v-56q-131 -40 -223 -66t-168.5 -41t-157.5 -21t-191 -6h-199v62h448z" />
    <glyph glyph-name="uniFECC" unicode="&#x639;" horiz-adv-x="1172" arabic-form="medial" 
d="M622 663q47 0 118.5 -7t143 -22.5t120 -39.5t48.5 -59q0 -21 -31 -63t-79.5 -94t-102 -104t-99.5 -93.5t-70 -61.5q89 -37 168.5 -47t192.5 -10h161v-62h-161q-124 0 -224.5 16t-184.5 71q-52 -35 -130.5 -54t-168.5 -26t-175 -7h-168v62h169q120 0 227 9t198 48
q-25 21 -71 63.5t-99.5 94.5t-101.5 104t-79 93.5t-31 60.5q0 35 48.5 59.5t120 39.5t143 22t118.5 7zM622 606q-101 0 -203.5 -19.5t-182.5 -45.5q72 -91 154 -175.5t147 -144t85 -76.5q15 12 56.5 49.5t98.5 93t118.5 121t114.5 132.5q-79 26 -182.5 45.5t-205.5 19.5z
" />
    <glyph glyph-name="uniFECD" unicode="&#x63a;" horiz-adv-x="1207" arabic-form="isolated" 
d="M648 1275l70 -70l-70 -70l-70 70zM969 303l-4 -58h-23q-153 0 -290.5 -26t-243.5 -82t-166.5 -146t-60.5 -218q0 -143 66.5 -232.5t179 -131t249.5 -41.5q98 0 194.5 19t180.5 47l15 -55q-180 -70 -377 -70q-156 0 -283 47.5t-202 148.5t-75 260q0 136 53 228.5
t139.5 153t185.5 97.5q-35 25 -73 71.5t-64 110t-26 136.5q0 88 50 160.5t128 116t162 43.5q59 0 125 -19.5t139 -64.5l-18 -44q-50 26 -109.5 47t-126.5 21q-124 0 -209 -75.5t-85 -198.5q0 -69 28 -126t67 -97.5t72 -61.5q106 23 185 31.5t163 8.5h54z" />
    <glyph glyph-name="uniFECE" unicode="&#x63a;" horiz-adv-x="1200" arabic-form="final" 
d="M592 1148l70 -70l-70 -70l-70 70zM552 201q-24 21 -69.5 63.5t-98 94t-100.5 103t-78.5 93t-30.5 60.5q0 35 48 59.5t119 39.5t142.5 22t118.5 7t118.5 -7t143 -22.5t120 -39.5t48.5 -59q0 -21 -31.5 -63t-80.5 -94.5t-103 -104.5t-100 -93.5t-70 -61.5
q117 -77 232 -106.5t280 -29.5h60v-62h-60q-100 0 -189.5 12.5t-178.5 48.5t-190 106q-69 -42 -142.5 -85.5t-136.5 -95t-101.5 -114.5t-38.5 -143q0 -131 70.5 -211t186.5 -116t253 -36q77 0 159 10t161 37l10 -57q-72 -25 -157.5 -36t-177.5 -11q-155 0 -282 43t-202 136
t-75 241q0 94 43.5 165.5t110 126.5t139 99t130.5 81zM603 686q-101 0 -203.5 -19.5t-182.5 -45.5q72 -91 154 -175.5t147 -144t85 -76.5q15 12 56.5 49.5t98.5 93t118.5 121t114.5 132.5q-79 26 -182.5 45.5t-205.5 19.5z" />
    <glyph glyph-name="uniFECF" unicode="&#x63a;" horiz-adv-x="1048" arabic-form="initial" 
d="M560 1166l70 -70l-70 -70l-70 70zM428 62q-39 30 -83 80t-75 120.5t-31 160.5q0 87 46.5 160.5t124 118t168.5 44.5q59 0 125.5 -20.5t139.5 -65.5l-19 -43q-50 26 -109 47t-126 21q-77 0 -144.5 -33.5t-108.5 -94t-41 -141.5q0 -78 28.5 -137.5t62.5 -97t50 -52.5
q28 -25 48.5 -37.5t37.5 -8.5l397 107v-56q-131 -40 -223 -66t-168.5 -41t-157.5 -21t-191 -6h-199v62h448z" />
    <glyph glyph-name="uniFED0" unicode="&#x63a;" horiz-adv-x="1172" arabic-form="medial" 
d="M619 1082l70 -70l-70 -70l-70 70zM622 663q47 0 118.5 -7t143 -22.5t120 -39.5t48.5 -59q0 -21 -31 -63t-79.5 -94t-102 -104t-99.5 -93.5t-70 -61.5q89 -37 168.5 -47t192.5 -10h161v-62h-161q-124 0 -224.5 16t-184.5 71q-52 -35 -130.5 -54t-168.5 -26t-175 -7h-168
v62h169q120 0 227 9t198 48q-25 21 -71 63.5t-99.5 94.5t-101.5 104t-79 93.5t-31 60.5q0 35 48.5 59.5t120 39.5t143 22t118.5 7zM622 606q-101 0 -203.5 -19.5t-182.5 -45.5q72 -91 154 -175.5t147 -144t85 -76.5q15 12 56.5 49.5t98.5 93t118.5 121t114.5 132.5
q-79 26 -182.5 45.5t-205.5 19.5z" />
    <glyph glyph-name="uniFED1" unicode="&#x641;" horiz-adv-x="1715" arabic-form="isolated" 
d="M1250 1338l70 -70l-70 -70l-70 70zM1537 399q-61 -19 -121 -32t-140 -13q-137 0 -210 53.5t-73 174.5q0 96 32.5 179t94.5 133.5t151 50.5q94 0 155.5 -52.5t97 -135t50.5 -175.5t15 -175q0 -125 -18.5 -205t-65.5 -124t-132 -61t-217 -17h-332q-144 0 -270 13t-221.5 53
t-149.5 119t-54 210q0 92 31 185l47 -18q-9 -38 -16.5 -75.5t-7.5 -74.5q0 -123 51.5 -193.5t141 -104t205 -43t243.5 -9.5h344q141 0 221.5 22.5t114 94.5t33.5 220zM1289 413q66 0 127 14t119 30q-9 65 -22.5 139t-40.5 140.5t-75.5 108.5t-126.5 42q-76 0 -126.5 -45
t-75.5 -114t-25 -143q0 -104 71 -138t175 -34z" />
    <glyph glyph-name="uniFED2" unicode="&#x641;" horiz-adv-x="1873" arabic-form="final" 
d="M1384 1110l70 -70l-70 -70l-70 70zM825 62h71q30 0 88 1t126 2.5t128.5 3.5t96.5 4q-49 31 -104 80.5t-93 115t-38 143.5q0 75 44.5 145t112 115.5t136.5 45.5q72 0 141 -45.5t113.5 -116t44.5 -146.5q0 -78 -38.5 -143.5t-94 -114.5t-106.5 -80q43 -2 110 -4.5t132 -4
t101 -1.5h97v-62h-94q-60 0 -135 3.5t-147 13t-125 28.5q-39 -16 -103 -25t-137.5 -13.5t-141 -5.5t-114.5 -1h-71q-145 0 -271 13t-221.5 53t-149.5 119t-54 210q0 92 31 185l47 -18q-9 -37 -16.5 -75.5t-7.5 -74.5q0 -123 51.5 -193.5t141 -104t205.5 -43t244 -9.5z
M1393 660q-62 0 -117.5 -41t-89.5 -99.5t-34 -111.5q0 -68 43 -130t100 -109t98 -72q48 26 106 72.5t100 108.5t42 132q0 54 -36 112t-92.5 98t-119.5 40z" />
    <glyph glyph-name="uniFED3" unicode="&#x641;" horiz-adv-x="906" arabic-form="initial" 
d="M436 1338l70 -70l-70 -70l-70 70zM360 62q141 0 221.5 22.5t114 94.5t33.5 220q-61 -19 -121 -32t-140 -13q-137 0 -210 53.5t-73 174.5q0 96 32.5 179t94.5 133.5t151 50.5q94 0 155.5 -52.5t97 -135t50.5 -175.5t15 -175q0 -125 -18.5 -205t-65.5 -124t-132 -61
t-217 -17h-368v62h380zM481 413q66 0 127 14t119 30q-9 65 -22.5 139t-40.5 140.5t-75.5 108.5t-126.5 42q-76 0 -126.5 -45t-75.5 -114t-25 -143q0 -104 71 -138t175 -34z" />
    <glyph glyph-name="uniFED4" unicode="&#x641;" horiz-adv-x="1019" arabic-form="medial" 
d="M522 1110l70 -70l-70 -70l-70 70zM838 410q0 -78 -38.5 -143.5t-94 -114.5t-106.5 -80q43 -2 110 -4.5t132 -4t101 -1.5h97v-62h-94q-60 0 -135 3.5t-147 13t-125 28.5q-52 -21 -126.5 -30.5t-151.5 -12t-140 -2.5h-140v62h140q40 0 107 1.5t137 4t117 5.5
q-49 31 -104 80.5t-93 115t-38 143.5q0 75 44.5 145t112 115.5t136.5 45.5q72 0 141 -45.5t113.5 -116t44.5 -146.5zM539 660q-62 0 -117.5 -41t-89.5 -99.5t-34 -111.5q0 -68 43 -130t100 -109t98 -72q48 26 106 72.5t100 108.5t42 132q0 54 -36 112t-92.5 98t-119.5 40z
" />
    <glyph glyph-name="uniFED5" unicode="&#x642;" horiz-adv-x="1358" arabic-form="isolated" 
d="M1001 1044l65 -64l-65 -66l-65 66zM781 1044l65 -64l-65 -66l-65 66zM659 -442q-262 0 -396 133.5t-134 384.5q0 85 15.5 176t43.5 180l53 -20q-24 -83 -40 -170t-16 -172q0 -217 122.5 -334.5t351.5 -117.5q196 0 309.5 54.5t162 167.5t48.5 288q-62 -19 -124.5 -32
t-138.5 -13q-136 0 -211.5 50.5t-75.5 169.5q0 90 31.5 174.5t93 139t151.5 54.5q99 0 162.5 -54t98.5 -140.5t49 -186t14 -190.5q0 -266 -134 -404t-436 -138zM923 137q67 0 131 14.5t122 30.5q-8 62 -22.5 136t-43 141t-78 110t-127.5 43q-75 0 -124.5 -45t-73.5 -114
t-24 -143q0 -104 68.5 -138.5t171.5 -34.5z" />
    <glyph glyph-name="uniFED6" unicode="&#x642;" horiz-adv-x="1379" arabic-form="final" 
d="M659 -515q-261 0 -395.5 133.5t-134.5 384.5q0 85 15.5 176t43.5 180l53 -20q-24 -83 -40 -170t-16 -172q0 -217 122.5 -334.5t351.5 -117.5q263 0 389.5 110t126.5 345h-223q-151 0 -235.5 52.5t-84.5 194.5q0 94 30 179.5t91.5 140t154.5 54.5q102 0 165.5 -51.5
t98 -135t47.5 -181.5t13 -191h167v-62h-169q0 -274 -152 -394.5t-419 -120.5zM942 62h235q-1 79 -10.5 165.5t-36.5 162.5t-80.5 123.5t-143.5 47.5q-78 0 -127 -48t-71.5 -119t-22.5 -141q0 -110 73 -150.5t184 -40.5zM1003 993l65 -64l-65 -66l-65 66zM783 993l65 -64
l-65 -66l-65 66z" />
    <glyph glyph-name="uniFED7" unicode="&#x642;" horiz-adv-x="906" arabic-form="initial" 
d="M547 1319l65 -64l-65 -66l-65 66zM327 1319l65 -64l-65 -66l-65 66zM360 62q141 0 221.5 22.5t114 94.5t33.5 220q-61 -19 -121 -32t-140 -13q-137 0 -210 53.5t-73 174.5q0 96 32.5 179t94.5 133.5t151 50.5q94 0 155.5 -52.5t97 -135t50.5 -175.5t15 -175
q0 -125 -18.5 -205t-65.5 -124t-132 -61t-217 -17h-368v62h380zM481 413q66 0 127 14t119 30q-9 65 -22.5 139t-40.5 140.5t-75.5 108.5t-126.5 42q-76 0 -126.5 -45t-75.5 -114t-25 -143q0 -104 71 -138t175 -34z" />
    <glyph glyph-name="uniFED8" unicode="&#x642;" horiz-adv-x="1019" arabic-form="medial" 
d="M636 1096l65 -64l-65 -66l-65 66zM416 1096l65 -64l-65 -66l-65 66zM838 410q0 -78 -38.5 -143.5t-94 -114.5t-106.5 -80q43 -2 110 -4.5t132 -4t101 -1.5h97v-62h-94q-60 0 -135 3.5t-147 13t-125 28.5q-52 -21 -126.5 -30.5t-151.5 -12t-140 -2.5h-140v62h140
q40 0 107 1.5t137 4t117 5.5q-49 31 -104 80.5t-93 115t-38 143.5q0 75 44.5 145t112 115.5t136.5 45.5q72 0 141 -45.5t113.5 -116t44.5 -146.5zM539 660q-62 0 -117.5 -41t-89.5 -99.5t-34 -111.5q0 -68 43 -130t100 -109t98 -72q48 26 106 72.5t100 108.5t42 132
q0 54 -36 112t-92.5 98t-119.5 40z" />
    <glyph glyph-name="uniFED9" unicode="&#x643;" horiz-adv-x="1764" arabic-form="isolated" 
d="M825 62h158q120 0 220 9.5t173.5 45t114 110.5t40.5 206v884h51v-881q0 -148 -40.5 -235.5t-118 -130.5t-188.5 -56.5t-252 -13.5h-158q-145 0 -271 13.5t-221.5 53.5t-149.5 118.5t-54 209.5q0 92 31 185l47 -18q-9 -38 -16.5 -75.5t-7.5 -74.5q0 -123 51.5 -194
t141 -104.5t205.5 -42.5t244 -9zM708 512q26 -2 59.5 -4.5t67.5 -2.5q67 0 123 16.5t56 68.5q0 33 -27.5 48.5t-68 24t-81 19.5t-67.5 33.5t-27 66.5q0 64 46 106.5t111.5 66t123.5 29.5l3 -56q-41 -4 -97 -22t-98 -47.5t-42 -69.5q0 -29 25.5 -43.5t63 -22.5t76.5 -18
t67 -32q16 -13 26 -32.5t10 -46.5q0 -56 -32 -86t-84 -42t-110 -12q-62 0 -124 9v49z" />
    <glyph glyph-name="uniFEDA" unicode="&#x643;" horiz-adv-x="1853" arabic-form="final" 
d="M825 62h158q120 0 220 9.5t173.5 45t114 110.5t40.5 206v884h51v-881q0 -111 17.5 -195.5t67.5 -131.5t145 -47h61v-62h-61q-133 0 -188.5 65t-74.5 166q-37 -94 -100.5 -144t-172.5 -68.5t-286 -18.5h-165q-145 0 -271 13.5t-221.5 53.5t-149.5 118.5t-54 209.5
q0 92 31 185l47 -18q-9 -38 -16.5 -75.5t-7.5 -73.5q0 -123 51.5 -193.5t141 -104.5t205.5 -43.5t244 -9.5zM708 512q26 -2 59.5 -4.5t67.5 -2.5q67 0 123 16.5t56 68.5q0 33 -27.5 48.5t-68 24t-81 19.5t-67.5 33.5t-27 66.5q0 64 46 106.5t111.5 66t123.5 29.5l3 -56
q-41 -4 -97 -22t-98 -47.5t-42 -69.5q0 -29 25.5 -43.5t63 -22.5t76.5 -18t67 -32q16 -13 26 -32.5t10 -46.5q0 -56 -32 -86t-84 -42t-110 -12q-62 0 -124 9v49z" />
    <glyph glyph-name="uniFEDB" unicode="&#x643;" horiz-adv-x="879" arabic-form="initial" 
d="M95 984q57 -40 137 -96.5t164.5 -125t158 -146.5t119 -160.5t45.5 -165.5q0 -116 -67.5 -179t-180 -87t-247.5 -24h-244v62h243q109 0 210.5 17.5t166.5 67.5t65 147q0 66 -38.5 134.5t-100.5 134.5t-134 127t-140 112.5t-117 90.5q-25 20 -56 41.5t-31 45.5
q0 33 30.5 49.5t74.5 34.5l666 271v-57z" />
    <glyph glyph-name="uniFEDC" unicode="&#x643;" horiz-adv-x="1046" arabic-form="medial" 
d="M95 984q54 -37 127.5 -89t153 -114.5t151 -133.5t122 -147.5t65.5 -154.5q12 -62 52 -127.5t101.5 -110.5t136.5 -45h62v-62h-62q-100 0 -176.5 61.5t-121.5 154.5q-18 -85 -86.5 -132t-171 -65.5t-224.5 -18.5h-244v62h243q109 0 210.5 17.5t166.5 67.5t65 147
q0 66 -38.5 134.5t-100.5 134.5t-134 127t-140 112.5t-117 90.5q-25 20 -56 41.5t-31 45.5q0 33 30.5 49.5t74.5 34.5l666 271v-57z" />
    <glyph glyph-name="uniFEDD" unicode="&#x644;" horiz-adv-x="1250" arabic-form="isolated" 
d="M1070 56q0 -272 -105 -412t-366 -140q-174 0 -277 60t-148 166t-45 243q0 85 15.5 176t43.5 180l53 -20q-24 -83 -40 -170t-16 -172q0 -115 40 -206t131 -144t243 -53q221 0 321 115t100 359v1279h50v-1261z" />
    <glyph glyph-name="uniFEDE" unicode="&#x644;" horiz-adv-x="1352" arabic-form="final" 
d="M599 -496q-174 0 -277 60t-148 166t-45 243q0 85 15.5 176t43.5 180l53 -20q-24 -83 -40 -170t-16 -172q0 -115 40 -206t131 -144t243 -53q219 0 320 115t101 359v1279h50v-968q0 -129 60 -208t181 -79h61v-62h-61q-79 0 -142.5 28t-97.5 107q2 -129 -12 -243t-61 -201.5
t-142.5 -137t-256.5 -49.5z" />
    <glyph glyph-name="uniFEDF" unicode="&#x644;" horiz-adv-x="560" arabic-form="initial" 
d="M-20 62h71q153 0 214.5 80.5t61.5 217.5v957h51v-956q0 -182 -75 -271.5t-253 -89.5h-70v62z" />
    <glyph glyph-name="uniFEE0" unicode="&#x644;" horiz-adv-x="651" arabic-form="medial" 
d="M327 375v942h51v-942q0 -84 24 -155.5t75.5 -114.5t132.5 -43h61v-62h-61q-75 0 -126 29.5t-82 75.5t-46 95q-40 -110 -110 -155t-196 -45h-70v62h70q150 0 213.5 78t63.5 235z" />
    <glyph glyph-name="uniFEE1" unicode="&#x645;" horiz-adv-x="1158" arabic-form="isolated" 
d="M369 179q21 74 48.5 147.5t67.5 135t98.5 98.5t140.5 37q94 0 162.5 -48t105.5 -129.5t37 -182.5q0 -121 -64.5 -185t-180.5 -64q-74 0 -149 31.5t-142 63t-118 31.5q-72 0 -111.5 -38.5t-56.5 -104.5t-20.5 -149.5t-3.5 -173.5q0 -85 2.5 -149t6.5 -136h-55
q-4 79 -6 148t-2 137q0 142 11 257.5t61.5 188t167.5 85.5zM979 238q0 82 -32.5 150.5t-89.5 110t-133 41.5q-70 0 -119.5 -35.5t-83.5 -92.5t-56.5 -121.5t-40.5 -122.5q46 -14 113 -44t134.5 -55t114.5 -25q86 0 139.5 53t53.5 141z" />
    <glyph glyph-name="uniFEE2" unicode="&#x645;" horiz-adv-x="1268" arabic-form="final" 
d="M1026 306q7 -44 35 -101.5t72 -100t95 -42.5h60v-62h-60q-68 0 -126.5 52.5t-81.5 109.5q-18 -86 -79 -130t-157 -44q-55 0 -112 19t-110.5 44t-101 44t-85.5 19q-72 0 -111.5 -38.5t-56.5 -104.5t-20.5 -149.5t-3.5 -173.5q0 -85 2.5 -149t6.5 -136h-55q-4 79 -6 148
t-2 137q0 143 11 258t61.5 187.5t167.5 85.5q21 74 48.5 147.5t67.5 135t98.5 98.5t140.5 37q124 0 204 -84.5t98 -206.5zM979 238q0 82 -32.5 150.5t-89.5 110t-133 41.5q-70 0 -119.5 -35.5t-83.5 -92.5t-56.5 -121.5t-40.5 -122.5q46 -14 113 -44t134.5 -55t114.5 -25
q86 0 139.5 53t53.5 141z" />
    <glyph glyph-name="uniFEE3" unicode="&#x645;" horiz-adv-x="1062" arabic-form="initial" 
d="M678 -23q-86 0 -152 34t-118 83.5t-98 93.5q-46 -74 -108 -131t-160 -57h-62v62h62q73 0 122.5 38.5t86.5 99.5t71 129.5t74.5 129.5t98 99.5t141.5 38.5q140 0 219.5 -97t79.5 -241q0 -135 -66.5 -208.5t-190.5 -73.5zM630 540q-78 0 -134 -51t-95 -121t-66 -128
q40 -42 80.5 -78.5t81.5 -63.5q44 -30 88.5 -47t90.5 -17q94 0 151 56t57 153q0 122 -64.5 209.5t-189.5 87.5z" />
    <glyph glyph-name="uniFEE4" unicode="&#x645;" horiz-adv-x="1174" arabic-form="medial" 
d="M42 0h-62v62h62q73 0 122.5 38.5t86.5 99.5t71 129.5t74.5 129.5t98 99.5t141.5 38.5q131 0 208 -84t88 -214q5 -54 33 -109t72.5 -91.5t95.5 -36.5h61v-62h-61q-68 0 -126.5 52.5t-81.5 109.5q-20 -89 -87.5 -137t-159.5 -48q-86 0 -152 34.5t-118.5 83.5t-97.5 93
q-46 -74 -108 -131t-160 -57zM630 540q-78 0 -134 -51t-95 -121t-66 -128q40 -42 80.5 -78.5t81.5 -63.5q44 -30 88.5 -47t90.5 -17q94 0 151 56t57 153q0 122 -64.5 209.5t-189.5 87.5z" />
    <glyph glyph-name="uniFEE5" unicode="&#x646;" horiz-adv-x="1326" arabic-form="isolated" 
d="M647 694l70 -70l-70 -70l-70 70zM659 -382q176 0 281.5 59.5t153 161.5t47.5 231q0 89 -20 187.5t-55 198.5l59 24q35 -104 53.5 -206.5t18.5 -196.5q0 -147 -53 -264.5t-171.5 -186t-313.5 -68.5q-261 0 -395.5 133.5t-134.5 384.5q0 85 15.5 176t43.5 180l53 -20
q-24 -83 -40 -170t-16 -172q0 -217 122.5 -334.5t351.5 -117.5z" />
    <glyph glyph-name="uniFEE6" unicode="&#x646;" horiz-adv-x="1447" arabic-form="final" 
d="M648 618l70 -70l-70 -70l-70 70zM659 -455q176 0 281.5 59.5t153 161.5t47.5 231q0 89 -20 187.5t-55 198.5l59 24l50 -173q23 -73 80.5 -122.5t150.5 -49.5h61v-62h-61q-64 0 -118.5 21.5t-94.5 74.5q16 -176 -30.5 -314t-169 -217.5t-334.5 -79.5q-261 0 -395.5 133.5
t-134.5 384.5q0 85 15.5 176t43.5 180l53 -20q-24 -83 -40 -170t-16 -172q0 -217 122.5 -334.5t351.5 -117.5z" />
    <glyph glyph-name="uniFEE7" unicode="&#x646;" horiz-adv-x="558" arabic-form="initial" 
d="M142 0h-162v62h160q130 0 179.5 70t49.5 195q0 51 -7 117.5t-18 126.5l58 15q11 -55 17 -123t6 -120q0 -163 -63 -253t-220 -90zM265 1005l70 -70l-70 -70l-70 70z" />
    <glyph glyph-name="uniFEE8" unicode="&#x646;" horiz-adv-x="690" arabic-form="medial" 
d="M366 478l48 6l12 -171q5 -80 39.5 -136t84.5 -85.5t101 -29.5h59v-62h-59q-74 0 -129 35.5t-86 81t-34 74.5q-29 -97 -116 -144t-215 -47h-91v62h93q134 0 215.5 64.5t82.5 226.5q0 73 -5 125zM322 911l70 -70l-70 -70l-70 70z" />
    <glyph glyph-name="uniFEE9" unicode="&#x647;" horiz-adv-x="894" arabic-form="isolated" 
d="M390 687l-30 26l35 45q91 -74 176 -151.5t139.5 -159.5t54.5 -171q0 -137 -89 -204.5t-229 -67.5q-146 0 -232 64t-86 188q0 188 261 431zM713 284q0 62 -43 126.5t-107.5 126t-128.5 112.5q-56 -50 -114 -113t-97 -132.5t-39 -140.5q0 -107 73.5 -154t188.5 -47
q119 0 193 51.5t74 170.5z" />
    <glyph glyph-name="uniFEEA" unicode="&#x647;" horiz-adv-x="1032" arabic-form="final" 
d="M991 0q-93 0 -146 42.5t-79 117t-39 170.5q-37 -88 -124.5 -137.5t-186.5 -49.5q-124 0 -205.5 65t-81.5 181q0 85 49.5 151t129 116.5t171.5 87.5t178 64l-5 33l54 10l79 -551q17 -113 66 -175.5t140 -62.5h61v-62h-61zM708 453q0 17 -1.5 33.5t-3.5 34.5l-37 234
q-70 -25 -153 -58t-158 -76t-123.5 -99.5t-48.5 -129.5q0 -97 66 -145.5t161 -48.5q79 0 147 32.5t109.5 90t41.5 132.5z" />
    <glyph glyph-name="uniFEEB" unicode="&#x647;" horiz-adv-x="1393" arabic-form="initial" 
d="M534 708l25 50q111 -39 233.5 -90.5t230 -113.5t174.5 -131t67 -144q0 -148 -92 -211t-250 -63q-105 0 -210.5 17t-192.5 42q-85 -28 -208 -46t-232 -18h-99v62h86q110 0 199 8t189 21q-52 22 -105.5 66t-90 109t-36.5 149q0 126 85 205.5t212 79.5q34 0 67 -8
q-27 9 -52 16zM586 92q94 -17 163.5 -26t154.5 -9q133 0 220.5 45.5t87.5 171.5q0 57 -55 114.5t-142.5 110.5t-187 98t-189.5 77q77 -34 127 -103.5t50 -153.5q0 -89 -33 -152.5t-85 -105.5t-111 -67zM275 417q0 -80 38 -139t96 -98t117 -63q92 34 165 107t73 187
q0 71 -35 124.5t-89 83.5t-112 30q-109 0 -181 -63.5t-72 -168.5z" />
    <glyph glyph-name="uniFEEC" unicode="&#x647;" horiz-adv-x="1020" arabic-form="medial" 
d="M-20 0v62h263v46q0 158 29.5 294.5t96 220.5t176.5 84q102 0 158.5 -73.5t56.5 -186.5q0 -135 -61 -236t-165.5 -156.5t-235.5 -55.5q10 -60 45.5 -146.5t103 -172.5t172.5 -145q-9 159 15 277.5t104.5 184t239.5 65.5h62v-62h-62q-111 0 -174 -30.5t-92 -84t-36 -123
t-7 -147.5q0 -16 1.5 -46.5t2.5 -49.5l-54 -45q-118 64 -194.5 152.5t-119 186t-57.5 187.5h-268zM543 651q-88 0 -142 -76.5t-78.5 -200t-24.5 -266.5v-47q195 0 303 104t108 282q0 84 -40 144t-126 60z" />
    <glyph glyph-name="uniFEED" unicode="&#x648;" horiz-adv-x="850" arabic-form="isolated" 
d="M722 111q0 -190 -65 -317.5t-186.5 -204t-290.5 -115.5l-20 50q171 44 275.5 109t159.5 161.5t74 236.5q-52 -16 -111 -27.5t-124 -11.5q-139 0 -222 58t-83 197q0 94 30 179.5t91.5 140t155.5 54.5q98 0 159.5 -49.5t96 -127.5t47.5 -166.5t13 -166.5zM439 53
q59 0 118.5 11.5t112.5 27.5q-1 67 -11.5 147.5t-38 154t-79.5 120.5t-136 47q-79 0 -128 -47.5t-71.5 -118.5t-22.5 -142q0 -111 72.5 -155.5t183.5 -44.5z" />
    <glyph glyph-name="uniFEEE" unicode="&#x648;" horiz-adv-x="881" arabic-form="final" 
d="M405 621q102 0 165 -51.5t96.5 -135t45.5 -181.5t12 -191h177v-62h-182q-36 -227 -167 -347t-372 -179l-20 50q218 56 348 165t159 311h-219q-151 0 -235 54t-84 193q0 94 30.5 179.5t91.5 140t154 54.5zM438 62h233q-1 79 -11.5 165.5t-38 162.5t-80 123.5t-138.5 47.5
q-78 0 -126.5 -48t-71 -119t-22.5 -141q0 -110 72 -150.5t183 -40.5z" />
    <glyph glyph-name="uniFEEF" unicode="&#x649;" horiz-adv-x="1386" arabic-form="isolated" 
d="M659 -504q-261 0 -395.5 133.5t-134.5 384.5q0 85 15.5 176t43.5 180l53 -20q-24 -83 -40 -170t-16 -172q0 -217 122.5 -334.5t351.5 -117.5q97 0 193 19.5t175 59t126.5 99t47.5 138.5q0 59 -27.5 99t-106.5 40h-162q-81 0 -127 30t-65 78t-19 102q0 111 41.5 207.5
t123 156.5t202.5 60q103 0 174 -38l-18 -49q-34 12 -72 19t-82 7q-103 0 -172 -48.5t-103.5 -131t-34.5 -184.5q0 -86 42 -117t110 -31h162q106 0 148 -52t42 -144q0 -95 -49.5 -166.5t-134.5 -118.5t-192 -71t-222 -24z" />
    <glyph glyph-name="uniFEF0" unicode="&#x649;" horiz-adv-x="1299" arabic-form="final" 
d="M659 -515q-266 0 -400.5 140.5t-134.5 375.5q0 136 43 290l53 -20q-36 -142 -36 -265q0 -211 115.5 -336t359.5 -125q136 0 257.5 35.5t197.5 98.5t76 145q0 89 -67 132.5t-160 43.5h-111q-6 0 -13 1.5t-9 9.5l-12 39q-3 12 16 12h485v-62h-166q52 -33 70.5 -80t18.5 -93
q0 -101 -79.5 -178t-211.5 -120.5t-292 -43.5z" />
    <glyph glyph-name="uniFEF1" unicode="&#x64a;" horiz-adv-x="1386" arabic-form="isolated" 
d="M797 -714l65 -64l-65 -66l-65 66zM577 -714l65 -64l-65 -66l-65 66zM659 -504q-261 0 -395.5 133.5t-134.5 384.5q0 85 15.5 176t43.5 180l53 -20q-24 -83 -40 -170t-16 -172q0 -217 122.5 -334.5t351.5 -117.5q97 0 193 19.5t175 59t126.5 99t47.5 138.5q0 59 -27.5 99
t-106.5 40h-162q-81 0 -127 30t-65 78t-19 102q0 111 41.5 207.5t123 156.5t202.5 60q103 0 174 -38l-18 -49q-34 12 -72 19t-82 7q-103 0 -172 -48.5t-103.5 -131t-34.5 -184.5q0 -86 42 -117t110 -31h162q106 0 148 -52t42 -144q0 -95 -49.5 -166.5t-134.5 -118.5
t-192 -71t-222 -24z" />
    <glyph glyph-name="uniFEF2" unicode="&#x64a;" horiz-adv-x="1299" arabic-form="final" 
d="M659 -515q-266 0 -400.5 140.5t-134.5 375.5q0 136 43 290l53 -20q-36 -142 -36 -265q0 -211 115.5 -336t359.5 -125q136 0 257.5 35.5t197.5 98.5t76 145q0 89 -67 132.5t-160 43.5h-111q-6 0 -13 1.5t-9 9.5l-12 39q-3 12 16 12h485v-62h-166q52 -33 70.5 -80t18.5 -93
q0 -101 -79.5 -178t-211.5 -120.5t-292 -43.5zM796 -726l65 -64l-65 -66l-65 66zM576 -726l65 -64l-65 -66l-65 66z" />
    <glyph glyph-name="uniFEF3" unicode="&#x64a;" horiz-adv-x="608" arabic-form="initial" 
d="M-22 62h216q130 0 179.5 70t49.5 195q0 51 -7 117.5t-18 126.5l58 15q11 -55 17 -123t6 -120q0 -163 -63 -253t-220 -90h-218v62zM283 -234l65 -64l-65 -66l-65 66zM63 -234l65 -64l-65 -66l-65 66z" />
    <glyph glyph-name="uniFEF4" unicode="&#x64a;" horiz-adv-x="743" arabic-form="medial" 
d="M-22 62h148q134 0 215.5 64.5t82.5 226.5q0 73 -5 125l48 6l12 -171q5 -80 39.5 -136t84.5 -85.5t101 -29.5h59v-62h-59q-74 0 -129 35.5t-86 81t-34 74.5q-29 -97 -116 -144t-215 -47h-146v62zM283 -234l65 -64l-65 -66l-65 66zM63 -234l65 -64l-65 -66l-65 66z" />
    <glyph glyph-name=".notdef" horiz-adv-x="908" 
 />
    <glyph glyph-name=".null" horiz-adv-x="0" 
 />
    <glyph glyph-name=".null" horiz-adv-x="0" 
 />
    <glyph glyph-name="nonmarkingreturn" horiz-adv-x="682" 
 />
    <glyph glyph-name="CR" unicode="&#xd;" horiz-adv-x="490" 
 />
    <glyph glyph-name="space" unicode=" " horiz-adv-x="550" 
 />
    <glyph glyph-name="exclam" unicode="!" horiz-adv-x="496" 
d="M218 1321h65l-14 -943h-37zM178 71q0 29 21 50t49 21t49 -21t21 -50q0 -28 -20.5 -49t-49.5 -21q-30 0 -50 19.5t-20 50.5z" />
    <glyph glyph-name="quotedbl" unicode="&#x22;" horiz-adv-x="521" 
d="M210 1536v-143l-10 -271h-50l5 268v146h55zM411 1536v-143l-10 -271h-50l6 268v146h54z" />
    <glyph glyph-name="numbersign" unicode="#" 
d="M248 0l74 410h-271v52h281l95 524h-300v54h310l75 416h56l-75 -416h364l76 416h56l-76 -416h254v-54h-264l-96 -524h285v-52h-294l-75 -410h-56l75 410h-364l-74 -410h-56zM388 462h363l96 524h-364z" />
    <glyph glyph-name="dollar" unicode="$" 
d="M947 344q0 87 -33.5 148t-114.5 110t-223 100q-126 43 -217.5 91t-141 122.5t-49.5 194.5q0 160 104.5 259.5t281.5 107.5v186h55v-187q180 -8 282 -118.5t102 -310.5h-54q0 161 -92 269t-268 108q-122 0 -201.5 -45t-117.5 -116.5t-38 -150.5q0 -82 28 -143t108 -112
t235 -103q123 -42 214.5 -90.5t142.5 -123t51 -194.5q0 -162 -104.5 -259.5t-276.5 -106.5v-188h-55v187q-111 4 -212.5 45.5t-166.5 134.5t-65 250h54q0 -108 37 -181t97.5 -116t133 -61.5t143.5 -18.5q114 0 194.5 44.5t123.5 116t43 151.5z" />
    <glyph glyph-name="percent" unicode="%" horiz-adv-x="1527" 
d="M114 1099v77q0 83 34 151t95.5 109t142.5 41t142 -41t95 -109t34 -151v-77q0 -81 -33.5 -149t-94 -109t-141.5 -41q-82 0 -144 41t-96 109t-34 149zM169 1176v-77q0 -60 23.5 -116t72.5 -92t123 -36q73 0 120 35.5t70.5 91.5t23.5 117v77q0 62 -23.5 118t-71.5 92
t-121 36q-72 0 -120.5 -36t-72.5 -92t-24 -118zM1133 1269l-711 -1138l-45 31l711 1138zM870 279v78q0 82 34 150t95 109t142 41q82 0 143 -41t95 -109t34 -150v-78q0 -82 -33.5 -150t-94.5 -109t-142 -41q-82 0 -143.5 41t-95.5 109t-34 150zM925 357v-78q0 -61 23.5 -117
t72 -92t122.5 -36q73 0 120.5 35.5t71 92t23.5 117.5v78q0 101 -53.5 173t-163.5 72q-107 0 -161.5 -72t-54.5 -173z" />
    <glyph glyph-name="ampersand" unicode="&#x26;" horiz-adv-x="1247" 
d="M371 762l51 41q-79 98 -122 184t-43 180q0 137 82 223.5t223 86.5q134 0 205 -77.5t71 -186.5q0 -61 -32.5 -117t-77 -101.5t-82.5 -76.5l-151 -121l474 -539q53 74 84 168.5t31 205.5h55q0 -130 -36 -232t-97 -184l190 -216h-67l-156 177q-84 -86 -189 -141.5
t-235 -55.5q-202 0 -318 100.5t-116 271.5q0 125 76.5 224t179.5 186zM312 1169q0 -76 36.5 -159.5t113.5 -175.5l159 126q64 50 112.5 115t48.5 138q0 83 -56 146.5t-164 63.5q-122 0 -186 -75t-64 -179zM169 352q0 -82 41 -155t125.5 -118t213.5 -45q110 0 211.5 48
t176.5 135l-449 508q-18 21 -34 40l-52 -42q-99 -86 -149 -153.5t-67 -120.5t-17 -97z" />
    <glyph glyph-name="quotesingle" unicode="'" horiz-adv-x="340" 
d="M200 1536v-169l-14 -245h-50l9 243v171h55z" />
    <glyph glyph-name="parenleft" unicode="(" horiz-adv-x="640" 
d="M217 591q0 -193 41 -374.5t121.5 -330t199.5 -241.5l-12 -38q-127 86 -216 239t-136 346t-47 399q0 207 47 399.5t136 345.5t216 239l12 -38q-119 -93 -199.5 -241.5t-121.5 -330t-41 -374.5z" />
    <glyph glyph-name="parenright" unicode=")" horiz-adv-x="640" 
d="M423 591q0 193 -41 374.5t-121.5 330t-199.5 241.5l12 38q127 -86 216 -239t136 -345.5t47 -399.5q0 -206 -47 -399t-136 -346t-216 -239l-12 38q119 93 199.5 241.5t121.5 330t41 374.5z" />
    <glyph glyph-name="asterisk" unicode="*" horiz-adv-x="856" 
d="M159 693l234 324l-363 124l18 54l362 -133l1 394h56l-7 -395l352 143l20 -53l-360 -137l249 -317l-47 -33l-242 322l-228 -325z" />
    <glyph glyph-name="plus" unicode="+" horiz-adv-x="1044" 
d="M546 496v-372h-48v372h-333v48h333v344h48v-344h333v-48h-333z" />
    <glyph glyph-name="comma" unicode="," horiz-adv-x="383" 
d="M235 159v-132q0 -92 -29.5 -162t-76.5 -120l-37 32q45 59 67 115t22 133v134h54z" />
    <glyph glyph-name="hyphen" unicode="-" horiz-adv-x="901" 
d="M736 495h-571v47h571v-47z" />
    <glyph glyph-name="period" unicode="." horiz-adv-x="496" 
d="M178 70q0 29 21 50t49 21t49 -21t21 -50q0 -28 -20.5 -49t-49.5 -21q-30 0 -50 19.5t-20 50.5z" />
    <glyph glyph-name="slash" unicode="/" horiz-adv-x="782" 
d="M96 -125h-54l608 1581h54z" />
    <glyph glyph-name="zero" unicode="0" horiz-adv-x="804" 
d="M172 478q0 96 67 163t163 67t163 -67t67 -163t-67 -163t-163 -67t-163 67t-67 163zM224 478q0 -74 52 -126t126 -52t126 52t52 126t-52 126t-126 52t-126 -52t-52 -126z" />
    <glyph glyph-name="one" unicode="1" horiz-adv-x="531" 
d="M347 0h-52v227q0 315 -28 565.5t-117 453.5l49 15q92 -220 120 -473.5t28 -563.5v-224z" />
    <glyph glyph-name="two" unicode="2" horiz-adv-x="1012" 
d="M881 1258q1 -19 1.5 -38t0.5 -37q0 -117 -26 -203.5t-90 -134.5t-180 -48q-88 0 -163.5 28t-119.5 84q19 -103 28 -226.5t12 -244t3 -214.5v-224h-52v227q0 315 -28.5 566t-116.5 453l49 15q17 -42 30.5 -78.5t29.5 -83.5q29 -78 67 -133.5t99.5 -84.5t159.5 -29
q95 0 148.5 39t76 106.5t22.5 151.5q0 57 -6 105z" />
    <glyph glyph-name="three" unicode="3" horiz-adv-x="1289" 
d="M935 797q-96 0 -146 52t-71 131q-17 -74 -75.5 -128.5t-146.5 -54.5q-68 0 -115.5 28t-77.5 65q29 -155 36.5 -333.5t7.5 -332.5v-224h-52v227q0 315 -28.5 566t-116.5 453l49 15q21 -55 38.5 -103.5t41.5 -107.5q20 -48 43.5 -93.5t63.5 -74.5t107 -30q83 0 126 43.5
t59 115.5t16 157v41l44 1l1 -27q3 -81 17.5 -157t55 -125t121.5 -49q74 0 112 47t51 115.5t13 134.5q0 57 -6 105l55 4q1 -19 1.5 -38t0.5 -37q0 -96 -17.5 -184.5t-65.5 -145t-142 -56.5z" />
    <glyph glyph-name="four" unicode="4" horiz-adv-x="1110" 
d="M791 1212q-145 0 -221 -109.5t-76 -288.5q0 -6 38.5 -23.5t105 -33t149.5 -15.5q50 0 103.5 8t107.5 27l7 -53q-100 -39 -221 -39q-136 0 -264 51.5t-214 148.5q13 -73 21 -162.5t12.5 -182t6.5 -176t2 -143.5l-1 -221h-52v227q0 315 -28.5 565t-116.5 454l49 15l73 -212
q36 -91 90.5 -143t81.5 -69q0 114 36.5 212.5t111 159t188.5 60.5q59 0 107.5 -17t82.5 -38l-17 -45q-30 14 -73.5 28.5t-88.5 14.5z" />
    <glyph glyph-name="five" unicode="5" horiz-adv-x="1148" 
d="M574 183q-10 -40 -30.5 -82.5t-64 -71.5t-123.5 -29q-115 0 -168 73t-53 204q0 110 34.5 226t91.5 230.5t125.5 219t135.5 191.5l-59 59l35 49q194 -190 306.5 -365t160.5 -328.5t48 -281.5q0 -130 -51.5 -203.5t-165.5 -73.5q-73 0 -117.5 29.5t-68.5 72t-36 81.5z
M184 276q0 -89 41.5 -155.5t129.5 -66.5q70 0 107 29t56.5 80.5t34.5 116.5h41q26 -100 70 -163t132 -63q92 0 129.5 65.5t37.5 156.5q0 158 -59.5 309.5t-151.5 285t-190 236.5q-90 -120 -177 -263t-144 -289.5t-57 -278.5z" />
    <glyph glyph-name="six" unicode="6" horiz-adv-x="937" 
d="M572 631q-60 5 -133.5 18.5t-140.5 43t-110.5 80.5t-43.5 132q0 102 48 184t127 130t171 48q69 0 119 -19.5t85 -39.5l-16 -46q-29 14 -74 31t-103 17q-81 0 -150 -40t-111 -107.5t-42 -150.5q0 -65 37 -107.5t97.5 -67.5t131 -37t136.5 -17q3 0 15 2t24 9
q53 34 94.5 63.5t83.5 51.5l15 -52q-141 -78 -257 -199t-207 -267t-156 -299l-50 20q99 222 199 364.5t211 254.5z" />
    <glyph glyph-name="seven" unicode="7" horiz-adv-x="1146" 
d="M539 0q-62 352 -164.5 670t-239.5 568l49 26q72 -137 145 -322t137 -402t107 -451q44 234 107.5 451t137 402t144.5 322l49 -26q-137 -250 -239.5 -568t-164.5 -670h-68z" />
    <glyph glyph-name="eight" unicode="8" horiz-adv-x="1146" 
d="M539 1244h68q62 -352 164.5 -669.5t239.5 -568.5l-49 -26q-71 137 -144.5 322t-137 402.5t-107.5 450.5q-43 -233 -107 -450.5t-137 -402.5t-145 -322l-49 26q137 251 239.5 568.5t164.5 669.5z" />
    <glyph glyph-name="nine" unicode="9" horiz-adv-x="927" 
d="M450 685q-97 0 -170.5 19t-115 72t-41.5 154q0 92 33.5 172.5t96 130.5t150.5 50q98 0 159.5 -45t94.5 -123.5t47 -180.5t17 -217q2 -49 3 -136.5t1.5 -192t1.5 -207t2 -181.5h-51q0 75 -1 173t-2 200t-2.5 193t-2.5 153q-48 -14 -101 -24t-119 -10zM441 740
q70 0 124.5 9t102.5 27q-3 79 -14.5 158.5t-39 146t-79 106.5t-134.5 40q-73 0 -123 -44.5t-75.5 -112.5t-25.5 -140q0 -82 36 -123t96 -54t132 -13z" />
    <glyph glyph-name="colon" unicode=":" horiz-adv-x="496" 
d="M178 598q0 29 21 50t49 21t49 -21t21 -50q0 -28 -20.5 -49t-49.5 -21q-30 0 -50 19.5t-20 50.5zM178 70q0 29 21 50t49 21t49 -21t21 -50q0 -28 -20.5 -49t-49.5 -21q-30 0 -50 19.5t-20 50.5z" />
    <glyph glyph-name="semicolon" unicode=";" horiz-adv-x="364" 
d="M156 1032q0 29 21 50t49 21t49 -21t21 -50q0 -28 -20.5 -49t-49.5 -21q-30 0 -50 19.5t-20 50.5zM223 159v-132q0 -92 -29.5 -162t-76.5 -120l-37 32q45 59 67 115t22 133v134h54z" />
    <glyph glyph-name="less" unicode="&#x3c;" horiz-adv-x="1053" 
d="M919 1011l-764 -345l764 -345v-59l-837 379v50l837 378v-58z" />
    <glyph glyph-name="equal" unicode="=" horiz-adv-x="1064" 
d="M906 675h-741v47h741v-47zM906 315h-741v47h741v-47z" />
    <glyph glyph-name="greater" unicode="&#x3e;" horiz-adv-x="1053" 
d="M114 324l759 344l-759 345v59l836 -378v-50l-836 -379v59z" />
    <glyph glyph-name="question" unicode="?" horiz-adv-x="893" 
d="M449 400h-54q2 111 36 185t122 155q61 59 104.5 109t66.5 111t23 152q0 134 -72 222.5t-217 88.5t-226.5 -86t-84.5 -221h-54q2 115 52 195.5t132.5 122.5t180.5 42q167 0 255 -105t88 -261q0 -132 -53.5 -221.5t-166.5 -190.5q-74 -58 -103 -135t-29 -163zM371 49
q0 23 16 39.5t39 16.5t39.5 -16.5t16.5 -39.5t-16.5 -39t-39.5 -16t-39 16t-16 39z" />
    <glyph glyph-name="at" unicode="@" horiz-adv-x="1902" 
d="M1767 523q-3 -96 -26.5 -192t-68.5 -175.5t-113 -127.5t-162 -48q-100 0 -162 61.5t-73 168.5q-111 -230 -333 -230q-136 0 -202.5 125.5t-48.5 330.5q16 169 76.5 292.5t154 191.5t206.5 68q94 0 147.5 -33.5t102.5 -76.5l-49 -585q-7 -87 11 -138.5t49.5 -77.5
t65.5 -34t58 -8q97 0 164 63.5t103.5 174t42.5 250.5q14 255 -55.5 441.5t-231 288t-426.5 101.5q-220 0 -399 -106.5t-289.5 -303t-124.5 -466.5q-9 -186 34.5 -345t136.5 -278.5t232.5 -186t322.5 -66.5q88 0 178.5 22t151.5 58l24 -46q-64 -43 -167 -66t-191 -23
q-253 0 -431.5 113t-268 322t-77.5 496q13 286 124.5 495t303.5 323.5t444 114.5q276 0 449 -108.5t251 -308t66 -471.5zM632 436q-12 -111 5 -202.5t64.5 -145.5t125.5 -54q61 0 123 23.5t117.5 90.5t97.5 196l43 507q-32 38 -80.5 60t-115.5 22q-87 0 -167.5 -52.5
t-137 -162.5t-75.5 -282z" />
    <glyph glyph-name="A" unicode="A" horiz-adv-x="1223" 
d="M1130 0l-162 435h-714l-162 -435h-59l545 1456h66l545 -1456h-59zM274 489h674l-337 902z" />
    <glyph glyph-name="B" unicode="B" horiz-adv-x="1235" 
d="M675 0h-475v1456h383q221 0 348.5 -90t127.5 -283q0 -127 -66 -216.5t-190 -112.5q91 -12 164 -62.5t115.5 -126t42.5 -164.5q0 -194 -125.5 -297.5t-324.5 -103.5zM583 1402h-329v-629h349q401 0 401 314q0 315 -421 315zM1071 399q0 84 -42.5 157t-128.5 118t-215 45
h-431v-665h421q184 0 290 91t106 254z" />
    <glyph glyph-name="C" unicode="C" horiz-adv-x="1327" 
d="M1136 446h54q-22 -236 -161 -351t-358 -115q-160 0 -278.5 80.5t-183.5 224.5t-65 334v218q0 190 65 334t183.5 224.5t278.5 80.5q219 0 358 -115.5t161 -348.5h-54q-22 200 -140 305t-325 105q-141 0 -247.5 -72.5t-166 -203.5t-59.5 -307v-220q0 -176 59.5 -308
t166 -204.5t247.5 -72.5q203 0 323 99t142 313z" />
    <glyph glyph-name="D" unicode="D" horiz-adv-x="1340" 
d="M603 0h-403v1456h403q172 0 308 -81t214.5 -224.5t78.5 -333.5v-178q0 -190 -78.5 -333.5t-214.5 -224.5t-308 -81zM603 1402h-349v-1348h349q157 0 280.5 75t195 207t71.5 303v181q0 170 -71.5 301t-195 206t-280.5 75z" />
    <glyph glyph-name="E" unicode="E" horiz-adv-x="1166" 
d="M1086 54v-54h-886v1456h886v-54h-832v-626h730v-54h-730v-668h832z" />
    <glyph glyph-name="F" unicode="F" horiz-adv-x="1172" 
d="M1000 772v-56h-746v-716h-54v1456h902v-54h-848v-630h746z" />
    <glyph glyph-name="G" unicode="G" horiz-adv-x="1406" 
d="M1226 660v-504q-23 -33 -86.5 -74t-166 -71.5t-244.5 -30.5q-166 0 -292.5 81t-197.5 225t-71 334v238q0 184 69 323t192 217t283 78q158 0 267 -55t170.5 -148.5t74.5 -210.5h-54q-15 95 -65 177t-145.5 132.5t-247.5 50.5q-148 0 -258.5 -72t-171 -199t-60.5 -291v-240
q0 -171 62.5 -303.5t176.5 -207.5t268 -75q119 0 210.5 24.5t151 59t81.5 63.5v424h-445v55h499z" />
    <glyph glyph-name="H" unicode="H" horiz-adv-x="1438" 
d="M254 1456v-680h930v680h54v-1456h-54v722h-930v-722h-54v1456h54z" />
    <glyph glyph-name="I" unicode="I" horiz-adv-x="534" 
d="M294 1456v-1456h-54v1456h54z" />
    <glyph glyph-name="J" unicode="J" horiz-adv-x="1125" 
d="M876 442v1014h54v-1014q0 -149 -55.5 -252.5t-150.5 -156.5t-214 -53q-193 0 -306.5 103.5t-113.5 317.5h54q0 -177 92 -272t274 -95q100 0 183 46t133 137t50 225z" />
    <glyph glyph-name="K" unicode="K" horiz-adv-x="1300" 
d="M1156 0l-669 766l-233 -215v-551h-54v1456h54v-841l238 232l606 609h78l-648 -652l698 -804h-70z" />
    <glyph glyph-name="L" unicode="L" horiz-adv-x="1057" 
d="M1002 54v-54h-802v1456h55v-1402h747z" />
    <glyph glyph-name="M" unicode="M" horiz-adv-x="1756" 
d="M200 1456h77l599 -1377l601 1377h79v-1456h-54v1376l-604 -1376h-43l-601 1369v-1369h-54v1456z" />
    <glyph glyph-name="N" unicode="N" horiz-adv-x="1449" 
d="M1249 1456v-1456h-54l-940 1364v-1364h-55v1456h55l940 -1361v1361h54z" />
    <glyph glyph-name="O" unicode="O" horiz-adv-x="1364" 
d="M1231 837v-218q0 -190 -67 -334t-190 -224.5t-291 -80.5q-167 0 -290.5 80.5t-191.5 224.5t-68 334v218q0 190 67.5 334t190.5 224.5t290 80.5q168 0 291.5 -80.5t191 -224.5t67.5 -334zM1177 619v220q0 171 -58.5 302.5t-169.5 206t-268 74.5q-156 0 -266 -74.5
t-168.5 -206t-58.5 -302.5v-220q0 -171 59 -303t169.5 -207t266.5 -75q157 0 267.5 75t168.5 207t58 303z" />
    <glyph glyph-name="P" unicode="P" horiz-adv-x="1230" 
d="M655 615h-401v-615h-54v1456h455q233 0 351.5 -116.5t118.5 -308.5q0 -193 -118.5 -304.5t-351.5 -111.5zM655 1402h-401v-733h401q147 0 239 48.5t134.5 130.5t42.5 181q0 103 -42.5 187.5t-134.5 135t-239 50.5z" />
    <glyph glyph-name="Q" unicode="Q" horiz-adv-x="1364" 
d="M1231 837v-218q0 -209 -81 -362t-226 -224l267 -261l-39 -35l-283 273q-87 -30 -186 -30q-167 0 -290.5 80.5t-191.5 224.5t-68 334v218q0 190 67.5 334t190.5 224.5t290 80.5q168 0 291.5 -80.5t191 -224.5t67.5 -334zM1177 619v220q0 171 -58.5 302.5t-169.5 206
t-268 74.5q-156 0 -266 -74.5t-168.5 -206t-58.5 -302.5v-220q0 -171 59 -303t169.5 -207t266.5 -75q157 0 267.5 75t168.5 207t58 303z" />
    <glyph glyph-name="R" unicode="R" horiz-adv-x="1340" 
d="M1141 0l-387 623h-505v-623h-54v1456h464q139 0 247 -48.5t169.5 -142t61.5 -229.5q0 -104 -44 -188t-118 -139t-166 -72l389 -623v-14h-57zM659 1402h-410v-725h459q125 0 208 52t125 134.5t42 172.5q0 172 -115 269t-309 97z" />
    <glyph glyph-name="S" unicode="S" horiz-adv-x="1211" 
d="M1072 349q0 92 -43.5 158t-142 116t-263.5 95q-148 41 -256 89t-166 122t-58 191q0 111 63.5 190.5t173 122.5t246.5 43q142 0 251 -54t171.5 -150.5t62.5 -225.5h-54q0 108 -54 193t-150.5 134t-226.5 49q-137 0 -233 -42t-146 -110.5t-50 -147.5q0 -77 38 -140
t133.5 -115t269.5 -97q144 -37 254 -88t172.5 -129.5t62.5 -201.5q0 -119 -67 -202t-179 -126t-248 -43q-93 0 -188 22t-174 71.5t-127 132.5t-48 205h54q0 -109 45 -182t117.5 -115.5t157 -61t163.5 -18.5q128 0 227 40t155.5 111t56.5 164z" />
    <glyph glyph-name="T" unicode="T" horiz-adv-x="1224" 
d="M1169 1456v-54h-530v-1402h-54v1402h-530v54h1114z" />
    <glyph glyph-name="U" unicode="U" horiz-adv-x="1365" 
d="M1126 1456h54v-987q0 -163 -65 -272t-177.5 -163t-254.5 -54t-254.5 54t-178 163t-65.5 272v987h54v-987q0 -140 58.5 -237.5t159 -147.5t226.5 -50t226.5 50t158.5 147.5t58 237.5v987z" />
    <glyph glyph-name="V" unicode="V" horiz-adv-x="1223" 
d="M641 142l489 1314h59l-544 -1456h-66l-544 1456h59l489 -1314l29 -88z" />
    <glyph glyph-name="W" unicode="W" horiz-adv-x="1855" 
d="M555 330l344 1126h60l342 -1126l65 -240l68 240l300 1126h59l-392 -1456h-61l-361 1214l-50 154l-50 -154l-364 -1214h-61l-393 1456h60l302 -1126l66 -239z" />
    <glyph glyph-name="X" unicode="X" horiz-adv-x="1223" 
d="M141 1456l470 -671l470 671h68l-504 -713l523 -743h-67l-490 701l-492 -701h-65l523 743l-504 713h68z" />
    <glyph glyph-name="Y" unicode="Y" horiz-adv-x="1223" 
d="M105 1456l504 -854l510 854h66l-549 -903v-553h-54v553l-549 903h72z" />
    <glyph glyph-name="Z" unicode="Z" horiz-adv-x="1224" 
d="M1130 54v-54h-1036v44l929 1359h-889v53h964v-38l-930 -1364h962z" />
    <glyph glyph-name="bracketleft" unicode="[" horiz-adv-x="439" 
d="M464 1610h-229v-1868h229v-49h-278v1966h278v-49z" />
    <glyph glyph-name="backslash" unicode="\" horiz-adv-x="774" 
d="M665 -125l-608 1581h58l608 -1581h-58z" />
    <glyph glyph-name="bracketright" unicode="]" horiz-adv-x="439" 
d="M-8 1659h278v-1966h-278v49h228v1868h-228v49z" />
    <glyph glyph-name="asciicircum" unicode="^" horiz-adv-x="849" 
d="M680 729l-264 653l-266 -653h-59l299 727h52l299 -727h-61z" />
    <glyph glyph-name="underscore" unicode="_" horiz-adv-x="845" 
d="M845 0v-54h-846v54h846z" />
    <glyph glyph-name="grave" unicode="`" horiz-adv-x="537" 
d="M215 1536l188 -266h-59l-195 266h66z" />
    <glyph glyph-name="a" unicode="a" horiz-adv-x="1081" 
d="M871 0q-10 39 -15 93.5t-5 104.5q-54 -88 -159.5 -153t-266.5 -65q-151 0 -242 82.5t-91 211.5q0 145 132.5 237.5t367.5 92.5h259v158q0 135 -86 210.5t-244 75.5q-98 0 -176.5 -34.5t-124 -94.5t-45.5 -135l-54 2q0 85 51.5 156.5t142 115.5t206.5 44
q169 0 276.5 -85.5t107.5 -256.5v-542q0 -58 7.5 -117t20.5 -92v-9h-62zM425 33q157 0 264.5 70t161.5 189v257h-256q-209 0 -329 -78t-120 -201q0 -98 78 -167.5t201 -69.5z" />
    <glyph glyph-name="b" unicode="b" 
d="M999 552v-21q0 -165 -48 -289t-139 -193t-219 -69q-133 0 -225.5 54t-143.5 137v-171h-54v1536h54v-650q52 97 143.5 156.5t223.5 59.5q193 0 300.5 -147t107.5 -403zM943 531v21q0 144 -38 256t-116 176t-197 64q-117 0 -190.5 -43t-115.5 -107.5t-62 -127.5v-496
q37 -103 128 -171.5t242 -68.5q118 0 195.5 64.5t115.5 176.5t38 256z" />
    <glyph glyph-name="c" unicode="c" horiz-adv-x="1039" 
d="M539 34q85 0 161.5 30.5t128 95.5t57.5 168h54q-5 -110 -61 -188t-145 -119t-195 -41q-140 0 -239 69t-151 191t-52 280v42q0 159 52 280.5t150.5 190.5t237.5 69q105 0 194.5 -42.5t146.5 -126.5t62 -208h-54q-5 108 -54.5 179.5t-127.5 107.5t-167 36
q-132 0 -217.5 -65.5t-127 -175.5t-41.5 -245v-42q0 -135 41.5 -245.5t127.5 -175.5t219 -65z" />
    <glyph glyph-name="d" unicode="d" 
d="M122 531v21q0 256 107.5 403t300.5 147q134 0 225 -60.5t142 -158.5v653h54v-1536h-54v174q-50 -84 -142.5 -139t-226.5 -55q-128 0 -219 69t-139 193t-48 289zM178 552v-21q0 -144 38 -256t115.5 -176.5t195.5 -64.5q149 0 240.5 67t129.5 168v506q-21 63 -63.5 126
t-116 105t-188.5 42q-119 0 -197 -64t-116 -176t-38 -256z" />
    <glyph glyph-name="e" unicode="e" horiz-adv-x="1032" 
d="M561 -20q-131 0 -239 69t-171.5 190.5t-63.5 278.5v44q0 158 61.5 280t164.5 191t228 69q120 0 213 -58t145.5 -162t52.5 -242v-63h-811v-15v-44q0 -135 55.5 -245t150.5 -175t214 -65q93 0 173.5 31t147.5 118l38 -27q-54 -77 -141.5 -126t-217.5 -49zM541 1048
q-109 0 -194 -55t-137.5 -149.5t-64.5 -212.5h753v13q0 109 -44 200.5t-124 147.5t-189 56z" />
    <glyph glyph-name="f" unicode="f" horiz-adv-x="645" 
d="M308 0h-54v1027h-188v55h188v154q0 155 75.5 238t207.5 83q31 0 64 -3.5t64 -13.5l-8 -52q-28 8 -53 11.5t-66 3.5q-106 0 -168 -70t-62 -197v-154h286v-55h-286v-1027z" />
    <glyph glyph-name="g" unicode="g" horiz-adv-x="1123" 
d="M121 531v21q0 256 107.5 403t300.5 147q133 0 224 -60t142 -157v197h55v-1067q0 -208 -109 -329.5t-300 -121.5q-118 0 -206.5 51t-147.5 131l38 36q63 -79 138.5 -122t175.5 -43q176 0 266 108t90 290v157q-50 -83 -142.5 -137.5t-225.5 -54.5q-128 0 -219 69t-139 193
t-48 289zM176 552v-21q0 -144 38.5 -256t116 -176.5t195.5 -64.5q152 0 242 69.5t127 172.5v491q-20 64 -61 129t-114.5 108.5t-191.5 43.5q-119 0 -197 -64t-116.5 -176t-38.5 -256z" />
    <glyph glyph-name="h" unicode="h" 
d="M226 1536v-705q49 114 148.5 192.5t235.5 78.5q164 0 254 -93.5t90 -308.5v-700h-54v700q0 138 -37.5 213.5t-103.5 105.5t-152 30q-88 0 -154.5 -35t-112.5 -90t-74 -116.5t-40 -114.5v-693h-54v1536h54z" />
    <glyph glyph-name="i" unicode="i" horiz-adv-x="422" 
d="M157 1420q0 23 16 39.5t39 16.5t39.5 -16.5t16.5 -39.5t-16.5 -39t-39.5 -16t-39 16t-16 39zM239 1082v-1082h-54v1082h54z" />
    <glyph glyph-name="j" unicode="j" horiz-adv-x="445" 
d="M163 1420q0 23 16 39.5t39 16.5t39.5 -16.5t16.5 -39.5t-16.5 -39t-39.5 -16t-39 16t-16 39zM186 1082h54v-1211q0 -149 -75.5 -228.5t-209.5 -79.5q-49 0 -98 20l3 52q16 -6 41.5 -12t53.5 -6q111 0 171 66.5t60 187.5v1211z" />
    <glyph glyph-name="k" unicode="k" horiz-adv-x="969" 
d="M883 0l-498 585l-2 -2l-157 -134v-449h-54v1536h54v-1029l127 120l492 455h77l-497 -460l528 -622h-70z" />
    <glyph glyph-name="l" unicode="l" horiz-adv-x="422" 
d="M239 1536v-1536h-54v1536h54z" />
    <glyph glyph-name="m" unicode="m" horiz-adv-x="1836" 
d="M946 720v-720h-54v720q0 130 -38 201t-105 99.5t-153 28.5q-90 0 -157 -36.5t-112.5 -93.5t-72.5 -119.5t-38 -115.5v-684h-55v1082h55v-255q48 116 146.5 195.5t236.5 79.5q136 0 222.5 -60t113.5 -196q45 107 148.5 181.5t249.5 74.5q164 0 255.5 -93.5t91.5 -308.5
v-700h-54v700q0 138 -38 214t-105 106t-153 29q-96 -1 -166.5 -35.5t-117.5 -86.5t-71.5 -107.5t-28.5 -99.5z" />
    <glyph glyph-name="n" unicode="n" 
d="M607 1049q-88 0 -154.5 -35t-112.5 -90t-74 -116.5t-40 -114.5v-693h-54v1082h54v-251q49 114 148.5 192.5t235.5 78.5q164 0 254 -93.5t90 -308.5v-700h-54v700q0 138 -37.5 213.5t-103.5 105.5t-152 30z" />
    <glyph glyph-name="o" unicode="o" horiz-adv-x="1127" 
d="M90 520v42q0 159 60 280.5t166.5 190.5t246.5 69q142 0 248.5 -69t166 -190.5t59.5 -280.5v-42q0 -158 -59.5 -280t-165.5 -191t-247 -69t-248 69t-167 191t-60 280zM144 562v-42q0 -129 50 -240t144 -178.5t227 -67.5q132 0 225.5 67.5t143 178.5t49.5 240v42
q0 127 -50 237.5t-143.5 179.5t-226.5 69q-132 0 -225.5 -69t-143.5 -179.5t-50 -237.5z" />
    <glyph glyph-name="p" unicode="p" 
d="M999 552v-21q0 -165 -48 -289t-139 -193t-219 -69q-132 0 -225 53.5t-144 135.5v-585h-54v1498h54v-193q53 96 144.5 154.5t222.5 58.5q193 0 300.5 -147t107.5 -403zM944 531v21q0 144 -38.5 256t-116.5 176t-197 64q-115 0 -188.5 -42t-116 -105t-63.5 -126v-506
q38 -101 129.5 -168t240.5 -67q118 0 195.5 64.5t116 176.5t38.5 256z" />
    <glyph glyph-name="q" unicode="q" 
d="M122 531v21q0 256 107.5 403t300.5 147q132 0 223.5 -58.5t143.5 -154.5v193h54v-1498h-54v584q-51 -81 -144 -134.5t-225 -53.5q-128 0 -219 69t-139 193t-48 289zM178 552v-21q0 -144 38 -256t115.5 -176.5t195.5 -64.5q149 0 240.5 67t129.5 168v506q-21 61 -64 124
t-117 106t-187 43q-119 0 -197 -64t-116 -176t-38 -256z" />
    <glyph glyph-name="r" unicode="r" horiz-adv-x="685" 
d="M655 1091l-6 -48q-16 2 -33.5 4t-36.5 2q-151 0 -239 -97.5t-114 -243.5v-708h-54v1082h54v-225q45 113 132.5 179t220.5 66q25 0 44 -3t32 -8z" />
    <glyph glyph-name="s" unicode="s" horiz-adv-x="1019" 
d="M839 265q0 49 -27 99.5t-98 94.5t-205 73q-181 39 -273.5 101.5t-92.5 195.5q0 113 96.5 193t265.5 80q182 0 284.5 -85.5t102.5 -223.5h-55q0 101 -85.5 178t-246.5 77q-109 0 -177 -33t-99.5 -83t-31.5 -101q0 -55 23.5 -100.5t94 -82.5t210.5 -69q194 -44 281 -115.5
t87 -199.5q0 -125 -102.5 -204.5t-277.5 -79.5q-131 0 -221.5 40.5t-137 108t-46.5 146.5h54q7 -93 61.5 -145.5t133 -74t156.5 -21.5q107 0 179.5 34t109.5 87.5t37 109.5z" />
    <glyph glyph-name="t" unicode="t" horiz-adv-x="648" 
d="M539 1082v-55h-246v-768q0 -95 22.5 -143.5t60 -65t80.5 -16.5q31 0 55 2.5t52 6.5l9 -51q-22 -7 -57 -9.5t-56 -2.5q-103 0 -162 58t-59 221v768h-200v55h200v292h55v-292h246z" />
    <glyph glyph-name="u" unicode="u" 
d="M897 0v175q-48 -90 -140 -142.5t-233 -52.5q-159 0 -257.5 94.5t-98.5 320.5v687h54v-689q0 -132 39 -211t107 -113.5t154 -34.5q120 0 198 39t120 104.5t57 143.5v761h55v-1082h-55z" />
    <glyph glyph-name="v" unicode="v" horiz-adv-x="978" 
d="M101 1082l389 -995l389 995h58l-421 -1082h-53l-420 1082h58z" />
    <glyph glyph-name="w" unicode="w" horiz-adv-x="1550" 
d="M499 313l243 769h55l242 -769l74 -233l60 233l220 769h63l-315 -1082h-54l-267 813l-51 194l-55 -194l-263 -813h-54l-314 1082h62l221 -769l59 -233z" />
    <glyph glyph-name="x" unicode="x" horiz-adv-x="978" 
d="M143 1082l346 -480l345 480h68l-380 -527l400 -555h-67l-367 508l-366 -508h-67l400 555l-380 527h68z" />
    <glyph glyph-name="y" unicode="y" horiz-adv-x="978" 
d="M510 104l374 978h60l-481 -1262q-13 -34 -31.5 -78t-49.5 -85t-80.5 -67.5t-123.5 -26.5q-16 0 -42 3t-38 8l-1 51q15 -4 39 -6.5t34 -2.5q101 0 153 60t86 154l65 176l-431 1076h59l401 -998z" />
    <glyph glyph-name="z" unicode="z" horiz-adv-x="978" 
d="M930 54v-54h-843v44l711 983h-680v55h753v-48l-711 -980h770z" />
    <glyph glyph-name="braceleft" unicode="{" horiz-adv-x="660" 
d="M662 -395l-20 -46q-122 39 -191.5 107t-98.5 158.5t-29 195.5v245q0 127 -58.5 202.5t-191.5 75.5v66q133 0 191.5 75t58.5 201v247q0 105 29 196.5t98.5 161t191.5 107.5l15 -45q-148 -47 -214 -159t-66 -261v-247q0 -113 -49.5 -198t-161.5 -111q112 -27 161.5 -112.5
t49.5 -198.5v-245q0 -151 69 -258t216 -157z" />
    <glyph glyph-name="bar" unicode="|" horiz-adv-x="406" 
d="M235 1456v-1726h-54v1726h54z" />
    <glyph glyph-name="braceright" unicode="}" horiz-adv-x="660" 
d="M19 -441l-19 46q146 50 215 157t69 258v245q0 113 49.5 198.5t161.5 112.5q-112 26 -161.5 111t-49.5 198v247q0 149 -65.5 261t-213.5 159l14 45q123 -38 192.5 -107.5t98 -161t28.5 -196.5v-247q0 -126 59 -201t191 -75v-66q-132 0 -191 -75.5t-59 -202.5v-245
q0 -105 -28.5 -195.5t-98 -158.5t-192.5 -107z" />
    <glyph glyph-name="asciitilde" unicode="~" horiz-adv-x="1412" 
d="M1190 753l56 -1q0 -81 -29.5 -151.5t-89 -114t-150.5 -43.5q-90 0 -153.5 38.5t-144.5 111.5q-74 67 -126.5 97t-124.5 30q-100 0 -156.5 -65t-56.5 -193h-55q0 85 28.5 155.5t88 113.5t151.5 43q91 0 156 -40t144 -110q76 -70 130 -99t119 -29q104 0 158.5 69.5
t54.5 187.5z" />
    <glyph glyph-name="nbspace" unicode="&#xa0;" horiz-adv-x="550" 
 />
    <glyph glyph-name="exclamdown" unicode="&#xa1;" horiz-adv-x="406" 
d="M253 1048q0 -23 -16 -39.5t-39 -16.5t-39.5 16.5t-16.5 39.5t16.5 39t39.5 16t39 -16t16 -39zM179 -359v1055h54v-1055h-54z" />
    <glyph glyph-name="cent" unicode="&#xa2;" horiz-adv-x="1110" 
d="M576 34q85 0 161.5 30.5t128 95.5t57.5 168h54q-5 -105 -56.5 -181t-134.5 -118.5t-182 -47.5v-226h-55v226q-132 7 -225 77t-141.5 189.5t-48.5 272.5v42q0 154 49 273t141.5 189.5t224.5 76.5v217h55v-217q98 -6 181 -50.5t135 -126t57 -199.5h-54q-5 108 -54.5 179.5
t-127.5 107.5t-167 36q-132 0 -217.5 -65.5t-127 -175.5t-41.5 -245v-42q0 -135 41.5 -245.5t127.5 -175.5t219 -65z" />
    <glyph glyph-name="sterling" unicode="&#xa3;" horiz-adv-x="1150" 
d="M728 667h-368l10 -331q5 -194 -67 -282h757l1 -54h-962v54h120q36 11 58 55.5t31.5 105.5t7.5 121l-10 331h-211v54h209l-9 318q0 207 100 322t266 115q181 0 277.5 -108t96.5 -279h-54q0 118 -43.5 191.5t-116 107.5t-160.5 34q-144 0 -228 -98.5t-84 -284.5l9 -318h370
v-54z" />
    <glyph glyph-name="currency" unicode="&#xa4;" horiz-adv-x="1502" 
d="M149 608q0 125 41 233t113 191l-189 193l40 39l188 -192q80 76 183 119t220 43t220.5 -43.5t182.5 -119.5l191 194l41 -40l-192 -196q70 -82 110.5 -190t40.5 -231q0 -119 -37.5 -223.5t-103.5 -185.5l182 -186l-41 -40l-179 183q-81 -82 -187.5 -129t-227.5 -47
t-227.5 46.5t-186.5 127.5l-177 -180l-40 39l179 183q-67 82 -105.5 187t-38.5 225zM204 608q0 -119 42.5 -223.5t117 -183.5t172.5 -123.5t209 -44.5t208.5 44.5t172 123.5t117 183.5t42.5 223.5t-42.5 223t-117 182.5t-172 123t-208.5 44.5t-209 -44.5t-172.5 -123
t-117 -182.5t-42.5 -223z" />
    <glyph glyph-name="yen" unicode="&#xa5;" horiz-adv-x="1038" 
d="M547 738l391 718h62l-432 -780h367v-55h-392v-240h392v-55h-392v-326h-54v326h-390v55h390v240h-390v55h365l-431 780h62l392 -718l25 -51h9z" />
    <glyph glyph-name="brokenbar" unicode="&#xa6;" horiz-adv-x="398" 
d="M226 1456v-758h-54v758h54zM226 -270h-54v752h54v-752z" />
    <glyph glyph-name="section" unicode="&#xa7;" horiz-adv-x="1223" 
d="M1050 -149q0 -163 -123 -254.5t-327 -91.5q-90 0 -176 22t-156 72t-111.5 133t-41.5 204l54 2q0 -109 38.5 -182t102 -116.5t139.5 -62t151 -18.5q190 0 292.5 82t102.5 208q0 77 -32 132.5t-115.5 99.5t-240.5 85q-146 35 -255.5 81.5t-170 118.5t-60.5 185
q0 109 76.5 180t210.5 92q-116 46 -179 116.5t-63 189.5q0 158 123 252.5t329 94.5q212 0 333 -111t121 -320h-54q0 104 -46 189.5t-135 136.5t-219 51q-206 0 -302 -85t-96 -205q0 -82 32.5 -138t118 -100t245.5 -90q149 -37 256 -80.5t164.5 -111.5t57.5 -181
q0 -105 -82 -176t-222 -91q125 -47 192.5 -118t67.5 -195zM624 215q37 -10 69 -19q166 2 256.5 70t90.5 162q0 83 -40.5 140.5t-138.5 104t-271 93.5q-61 15 -108 30q-158 -6 -232.5 -76t-74.5 -167q0 -87 37 -143t134.5 -100t277.5 -95z" />
    <glyph glyph-name="dieresis" unicode="&#xa8;" horiz-adv-x="906" 
d="M174 1421q0 23 16 39.5t39 16.5t39.5 -16.5t16.5 -39.5t-16.5 -39t-39.5 -16t-39 16t-16 39zM619 1421q0 23 16 39.5t39 16.5t39.5 -16.5t16.5 -39.5t-16.5 -39t-39.5 -16t-39 16t-16 39z" />
    <glyph glyph-name="copyright" unicode="&#xa9;" horiz-adv-x="1666" 
d="M123 729q0 159 55.5 295t153 237.5t226 158t275.5 56.5t275.5 -56.5t226.5 -158t153 -237.5t55 -295t-55 -295t-153 -238.5t-226.5 -159.5t-275.5 -57t-275.5 57t-226 159.5t-153 238.5t-55.5 295zM179 729q0 -145 51 -271.5t141.5 -221.5t208.5 -148.5t253 -53.5
q134 0 252.5 53.5t209 148.5t141.5 221.5t51 271.5q0 146 -51 271.5t-141.5 220t-209 147.5t-252.5 53q-135 0 -253 -53t-208.5 -147.5t-141.5 -220t-51 -271.5zM1072 616h52q0 -157 -81 -235.5t-217 -78.5q-143 0 -231.5 107.5t-88.5 279.5v79q0 172 88.5 279.5
t231.5 107.5q136 0 217.5 -78t81.5 -235h-52q0 131 -64 195.5t-183 64.5q-84 0 -143.5 -44.5t-90.5 -120t-31 -168.5v-80q0 -140 69 -236t196 -96q119 0 182.5 62.5t63.5 196.5z" />
    <glyph glyph-name="ordfeminine" unicode="&#xaa;" horiz-adv-x="898" 
d="M680 705q-18 55 -22 119q-34 -52 -97 -92.5t-144 -40.5q-121 0 -185 57.5t-64 151.5q0 109 84 170.5t235 61.5h170v69q0 104 -50 162.5t-149 58.5q-109 0 -173 -44t-64 -135h-54q0 101 80 167t211 66q112 0 183 -69.5t71 -206.5v-314q0 -92 26 -181h-58zM418 746
q52 0 102.5 23.5t87.5 58.5t49 72v178h-169q-127 0 -196.5 -42t-69.5 -132q0 -70 45.5 -114t150.5 -44z" />
    <glyph glyph-name="guillemotleft" unicode="&#xab;" horiz-adv-x="858" 
d="M404 7l-30 -28q-101 124 -152 222t-51 191t51 190.5t152 221.5l30 -29q-90 -116 -135 -206.5t-45 -176.5t45 -177t135 -208zM717 7l-30 -28q-101 124 -152 222t-51 191t51 190.5t152 221.5l30 -29q-90 -116 -135 -206.5t-45 -176.5t45 -177t135 -208z" />
    <glyph glyph-name="logicalnot" unicode="&#xac;" horiz-adv-x="1101" 
d="M915 753v-357h-54v304h-739v53h793z" />
    <glyph glyph-name="uni00AD" unicode="&#xad;" horiz-adv-x="607" 
d="M736 495h-571v47h571v-47z" />
    <glyph glyph-name="registered" unicode="&#xae;" horiz-adv-x="1674" 
d="M115 729q0 159 55 295t153 237.5t226.5 158t275.5 56.5t275.5 -56.5t226.5 -158t153 -237.5t55 -295t-55 -295t-153 -238.5t-226.5 -159.5t-275.5 -57t-275.5 57t-226.5 159.5t-153 238.5t-55 295zM170 729q0 -145 51.5 -271.5t141.5 -221.5t208.5 -148.5t253.5 -53.5
q134 0 252.5 53.5t209 148.5t141.5 221.5t51 271.5q0 146 -51 271.5t-141.5 220t-209 147.5t-252.5 53q-135 0 -253.5 -53t-208.5 -147.5t-141.5 -220t-51.5 -271.5zM860 678h-212v-352h-55v830h239q289 0 289 -240q0 -74 -40.5 -125.5t-113.5 -80.5q76 -22 104.5 -78.5
t28.5 -126.5v-36q0 -81 17 -127v-16h-59q-10 26 -12 74t-2 70v34q0 94 -41.5 134t-142.5 40zM832 1101h-184v-367h205q87 0 150 46.5t63 136.5q0 94 -50.5 139t-183.5 45z" />
    <glyph glyph-name="macron" unicode="&#xaf;" horiz-adv-x="811" 
d="M699 1436v-53h-567v53h567z" />
    <glyph glyph-name="degree" unicode="&#xb0;" horiz-adv-x="783" 
d="M156 1236q0 66 32 120.5t85.5 87t118.5 32.5q64 0 116.5 -32.5t84 -87t31.5 -120.5t-31.5 -120t-84 -85.5t-116.5 -31.5q-65 0 -118.5 31.5t-85.5 85.5t-32 120zM211 1236q0 -79 52 -130t129 -51t126.5 51t49.5 130q0 80 -49.5 132.5t-126.5 52.5t-129 -52.5t-52 -132.5z
" />
    <glyph glyph-name="plusminus" unicode="&#xb1;" horiz-adv-x="1077" 
d="M988 805v-54h-419v-462h-54v462h-443v54h443v462h54v-462h419zM957 53v-54h-835v54h835z" />
    <glyph glyph-name="twosuperior" unicode="&#xb2;" horiz-adv-x="728" 
d="M651 713v-49h-543v44l290 295q82 81 117.5 138t35.5 106q0 77 -49 122.5t-146 45.5q-106 0 -161 -53.5t-55 -135.5h-54q0 98 72 168t198 70q112 0 180.5 -57t68.5 -159q0 -73 -55.5 -144.5t-123.5 -142.5l-251 -248h476z" />
    <glyph glyph-name="threesuperior" unicode="&#xb3;" horiz-adv-x="728" 
d="M270 1041v49h71q110 0 166.5 47t56.5 112q0 69 -48.5 117.5t-153.5 48.5q-89 0 -150.5 -45.5t-61.5 -123.5h-53q0 98 77.5 158t187.5 60q116 0 186 -57t70 -161q0 -57 -40.5 -106t-113.5 -72q85 -21 129 -71t44 -122q0 -106 -77 -164t-193 -58q-69 0 -135 24.5t-109 75
t-43 128.5h54q0 -79 66.5 -129.5t166.5 -50.5q103 0 159.5 46t56.5 127q0 89 -67.5 128t-174.5 39h-71z" />
    <glyph glyph-name="acute" unicode="&#xb4;" horiz-adv-x="511" 
d="M126 1270l189 266h66l-195 -266h-60z" />
    <glyph glyph-name="mu" unicode="&#xb5;" 
d="M171 1082h52v-642q0 -161 44 -249t114 -122.5t148 -34.5q136 0 214 49.5t113 135.5t43 194v669h54v-1082h-51l-2 204q-46 -103 -134.5 -163.5t-227.5 -60.5q-93 0 -178.5 42t-136.5 149v-587h-52v1498z" />
    <glyph glyph-name="paragraph" unicode="&#xb6;" horiz-adv-x="946" 
d="M770 0h-54v520h-125q-159 0 -269 60.5t-166.5 166.5t-56.5 241q0 134 56.5 240t166.5 167t269 61h179v-1456z" />
    <glyph glyph-name="periodcentered" unicode="&#xb7;" horiz-adv-x="472" 
d="M179 706q0 23 16 39.5t39 16.5t39.5 -16.5t16.5 -39.5t-16.5 -39t-39.5 -16t-39 16t-16 39z" />
    <glyph glyph-name="cedilla" unicode="&#xb8;" horiz-adv-x="490" 
d="M154 0h53l-11 -76q67 -7 122 -42.5t55 -126.5q0 -85 -76.5 -137.5t-208.5 -52.5l-7 49q54 0 108.5 14.5t91.5 46t37 80.5q0 66 -48 90t-141 34z" />
    <glyph glyph-name="onesuperior" unicode="&#xb9;" horiz-adv-x="728" 
d="M433 1455v-791h-54v722l-248 -81v53l293 97h9z" />
    <glyph glyph-name="ordmasculine" unicode="&#xba;" horiz-adv-x="914" 
d="M148 1024v117q0 146 81.5 240.5t222.5 94.5q143 0 224 -94.5t81 -240.5v-117q0 -146 -81 -240t-222 -94q-142 0 -224 94t-82 240zM202 1141v-117q0 -116 60 -198t192 -82q126 0 188 82t62 198v117q0 116 -62 198.5t-190 82.5q-126 0 -188 -82.5t-62 -198.5z" />
    <glyph glyph-name="guillemotright" unicode="&#xbb;" horiz-adv-x="858" 
d="M454 7q90 117 135 208t45 177t-45 176.5t-135 206.5l30 29q101 -124 152 -221.5t51 -190.5t-51 -191t-153 -222zM141 7q90 117 135 208t45 177t-45 176.5t-135 206.5l30 29q101 -124 152 -221.5t51 -190.5t-51 -191t-153 -222z" />
    <glyph glyph-name="onequarter" unicode="&#xbc;" horiz-adv-x="1467" 
d="M447 1455v-791h-54v722l-248 -81v53l293 97h9zM1097 1277l-711 -1138l-45 31l711 1138zM1372 253v-49h-147v-204h-53v204h-423l-1 32l417 553h60v-536h147zM818 253h354v474l-44 -71z" />
    <glyph glyph-name="onehalf" unicode="&#xbd;" horiz-adv-x="1508" 
d="M1054 1277l-711 -1138l-45 31l711 1138zM423 1455v-791h-54v722l-248 -81v53l293 97h9zM1392 49v-49h-543v44l290 295q82 81 117.5 138t35.5 106q0 77 -49 122.5t-146 45.5q-106 0 -161 -53.5t-55 -135.5h-54q0 98 72 168t198 70q112 0 180.5 -57t68.5 -159
q0 -73 -55.5 -144.5t-123.5 -142.5l-251 -248h476z" />
    <glyph glyph-name="threequarters" unicode="&#xbe;" horiz-adv-x="1586" 
d="M1259 1277l-711 -1138l-45 31l711 1138zM1512 253v-49h-147v-204h-53v204h-423l-1 32l417 553h60v-536h147zM958 253h354v474l-44 -71zM314 1041v49h71q110 0 166.5 47t56.5 112q0 69 -48.5 117.5t-153.5 48.5q-89 0 -150.5 -45.5t-61.5 -123.5h-53q0 98 77.5 158
t187.5 60q116 0 186 -57t70 -161q0 -57 -40.5 -106t-113.5 -72q85 -21 129 -71t44 -122q0 -106 -77 -164t-193 -58q-69 0 -135 24.5t-109 75t-43 128.5h54q0 -79 66.5 -129.5t166.5 -50.5q103 0 159.5 46t56.5 127q0 89 -67.5 128t-174.5 39h-71z" />
    <glyph glyph-name="questiondown" unicode="&#xbf;" horiz-adv-x="912" 
d="M538 1046q0 -23 -16 -39.5t-39 -16.5t-39.5 16.5t-16.5 39.5t16.5 39t39.5 16t39 -16t16 -39zM460 695h54q-1 -74 -7.5 -118.5t-32.5 -82t-85 -91.5q-61 -58 -112.5 -114.5t-83 -128.5t-31.5 -177q0 -145 77 -228t222 -83t221.5 86t79.5 221h54q-1 -121 -49 -201
t-128 -119.5t-178 -39.5q-167 0 -260 101.5t-93 264.5q0 152 70.5 255.5t182.5 204.5q50 39 70.5 74t24.5 77t4 99z" />
    <glyph glyph-name="Agrave" unicode="&#xc0;" horiz-adv-x="1223" 
d="M1130 0l-162 435h-714l-162 -435h-59l545 1456h66l545 -1456h-59zM274 489h674l-337 902zM467 1855l188 -266h-59l-195 266h66z" />
    <glyph glyph-name="Aacute" unicode="&#xc1;" horiz-adv-x="1223" 
d="M1130 0l-162 435h-714l-162 -435h-59l545 1456h66l545 -1456h-59zM274 489h674l-337 902zM572 1589l189 266h66l-195 -266h-60z" />
    <glyph glyph-name="Acircumflex" unicode="&#xc2;" horiz-adv-x="1223" 
d="M1130 0l-162 435h-714l-162 -435h-59l545 1456h66l545 -1456h-59zM274 489h674l-337 902zM632 1836l234 -243v-10h-68l-187 196l-185 -196h-64v14l230 239h40z" />
    <glyph glyph-name="Atilde" unicode="&#xc3;" horiz-adv-x="1223" 
d="M1130 0l-162 435h-714l-162 -435h-59l545 1456h66l545 -1456h-59zM274 489h674l-337 902zM885 1806h55q0 -83 -51 -134.5t-125 -51.5q-54 0 -89.5 19t-63.5 43.5t-59 43.5t-75 19q-50 0 -85.5 -31t-35.5 -94h-55q0 83 51 131t125 48q52 0 88 -18.5t65.5 -43.5t60.5 -43.5
t73 -18.5q50 0 85.5 34t35.5 97z" />
    <glyph glyph-name="Adieresis" unicode="&#xc4;" horiz-adv-x="1223" 
d="M1130 0l-162 435h-714l-162 -435h-59l545 1456h66l545 -1456h-59zM274 489h674l-337 902zM336 1740q0 23 16 39.5t39 16.5t39.5 -16.5t16.5 -39.5t-16.5 -39t-39.5 -16t-39 16t-16 39zM781 1740q0 23 16 39.5t39 16.5t39.5 -16.5t16.5 -39.5t-16.5 -39t-39.5 -16t-39 16
t-16 39z" />
    <glyph glyph-name="Aring" unicode="&#xc5;" horiz-adv-x="1223" 
d="M1130 0l-162 435h-714l-162 -435h-59l545 1456h66l545 -1456h-59zM274 489h674l-337 902zM443 1701q0 74 49.5 124t121.5 50q71 0 121 -50t50 -124q0 -73 -50 -121.5t-121 -48.5q-72 0 -121.5 48.5t-49.5 121.5zM497 1701q0 -52 33 -84t84 -32t84 32t33 84q0 53 -33 86.5
t-84 33.5t-84 -33.5t-33 -86.5z" />
    <glyph glyph-name="AE" unicode="&#xc6;" horiz-adv-x="1816" 
d="M1768 54v-54h-752l-18 425h-627l-256 -425h-65l881 1456h776v-54h-696l26 -616h588v-54h-586l29 -678h700zM403 478h593l-39 921z" />
    <glyph glyph-name="Ccedilla" unicode="&#xc7;" horiz-adv-x="1327" 
d="M1136 446h54q-22 -236 -161 -351t-358 -115q-160 0 -278.5 80.5t-183.5 224.5t-65 334v218q0 190 65 334t183.5 224.5t278.5 80.5q219 0 358 -115.5t161 -348.5h-54q-22 200 -140 305t-325 105q-141 0 -247.5 -72.5t-166 -203.5t-59.5 -307v-220q0 -176 59.5 -308
t166 -204.5t247.5 -72.5q203 0 323 99t142 313zM653 -10h53l-11 -76q67 -7 122 -42.5t55 -126.5q0 -85 -76.5 -137.5t-208.5 -52.5l-7 49q54 0 108.5 14.5t91.5 46t37 80.5q0 66 -48 90t-141 34z" />
    <glyph glyph-name="Egrave" unicode="&#xc8;" horiz-adv-x="1166" 
d="M1086 54v-54h-886v1456h886v-54h-832v-626h730v-54h-730v-668h832zM474 1855l188 -266h-59l-195 266h66z" />
    <glyph glyph-name="Eacute" unicode="&#xc9;" horiz-adv-x="1166" 
d="M1086 54v-54h-886v1456h886v-54h-832v-626h730v-54h-730v-668h832zM579 1589l189 266h66l-195 -266h-60z" />
    <glyph glyph-name="Ecircumflex" unicode="&#xca;" horiz-adv-x="1166" 
d="M1086 54v-54h-886v1456h886v-54h-832v-626h730v-54h-730v-668h832zM639 1836l234 -243v-10h-68l-187 196l-185 -196h-64v14l230 239h40z" />
    <glyph glyph-name="Edieresis" unicode="&#xcb;" horiz-adv-x="1166" 
d="M1086 54v-54h-886v1456h886v-54h-832v-626h730v-54h-730v-668h832zM343 1740q0 23 16 39.5t39 16.5t39.5 -16.5t16.5 -39.5t-16.5 -39t-39.5 -16t-39 16t-16 39zM788 1740q0 23 16 39.5t39 16.5t39.5 -16.5t16.5 -39.5t-16.5 -39t-39.5 -16t-39 16t-16 39z" />
    <glyph glyph-name="Igrave" unicode="&#xcc;" horiz-adv-x="534" 
d="M294 1456v-1456h-54v1456h54zM123 1855l188 -266h-59l-195 266h66z" />
    <glyph glyph-name="Iacute" unicode="&#xcd;" horiz-adv-x="534" 
d="M294 1456v-1456h-54v1456h54zM228 1589l189 266h66l-195 -266h-60z" />
    <glyph glyph-name="Icircumflex" unicode="&#xce;" horiz-adv-x="534" 
d="M294 1456v-1456h-54v1456h54zM288 1836l234 -243v-10h-68l-187 196l-185 -196h-64v14l230 239h40z" />
    <glyph glyph-name="Idieresis" unicode="&#xcf;" horiz-adv-x="534" 
d="M294 1456v-1456h-54v1456h54zM-8 1740q0 23 16 39.5t39 16.5t39.5 -16.5t16.5 -39.5t-16.5 -39t-39.5 -16t-39 16t-16 39zM437 1740q0 23 16 39.5t39 16.5t39.5 -16.5t16.5 -39.5t-16.5 -39t-39.5 -16t-39 16t-16 39z" />
    <glyph glyph-name="Eth" unicode="&#xd0;" horiz-adv-x="1370" 
d="M633 0h-403v713h-140v54h140v689h403q172 0 308 -81t214.5 -224.5t78.5 -333.5v-178q0 -190 -78.5 -333.5t-214.5 -224.5t-308 -81zM677 767v-54h-393v-659h349q157 0 280.5 75t195 207t71.5 303v181q0 170 -71.5 301t-195 206t-280.5 75h-349v-635h393z" />
    <glyph glyph-name="Ntilde" unicode="&#xd1;" horiz-adv-x="1449" 
d="M1249 1456v-1456h-54l-940 1364v-1364h-55v1456h55l940 -1361v1361h54zM999 1806h55q0 -83 -51 -134.5t-125 -51.5q-54 0 -89.5 19t-63.5 43.5t-59 43.5t-75 19q-50 0 -85.5 -31t-35.5 -94h-55q0 83 51 131t125 48q52 0 88 -18.5t65.5 -43.5t60.5 -43.5t73 -18.5
q50 0 85.5 34t35.5 97z" />
    <glyph glyph-name="Ograve" unicode="&#xd2;" horiz-adv-x="1364" 
d="M1231 837v-218q0 -190 -67 -334t-190 -224.5t-291 -80.5q-167 0 -290.5 80.5t-191.5 224.5t-68 334v218q0 190 67.5 334t190.5 224.5t290 80.5q168 0 291.5 -80.5t191 -224.5t67.5 -334zM1177 619v220q0 171 -58.5 302.5t-169.5 206t-268 74.5q-156 0 -266 -74.5
t-168.5 -206t-58.5 -302.5v-220q0 -171 59 -303t169.5 -207t266.5 -75q157 0 267.5 75t168.5 207t58 303zM531 1876l188 -266h-59l-195 266h66z" />
    <glyph glyph-name="Oacute" unicode="&#xd3;" horiz-adv-x="1364" 
d="M1231 837v-218q0 -190 -67 -334t-190 -224.5t-291 -80.5q-167 0 -290.5 80.5t-191.5 224.5t-68 334v218q0 190 67.5 334t190.5 224.5t290 80.5q168 0 291.5 -80.5t191 -224.5t67.5 -334zM1177 619v220q0 171 -58.5 302.5t-169.5 206t-268 74.5q-156 0 -266 -74.5
t-168.5 -206t-58.5 -302.5v-220q0 -171 59 -303t169.5 -207t266.5 -75q157 0 267.5 75t168.5 207t58 303zM636 1610l189 266h66l-195 -266h-60z" />
    <glyph glyph-name="Ocircumflex" unicode="&#xd4;" horiz-adv-x="1364" 
d="M1231 837v-218q0 -190 -67 -334t-190 -224.5t-291 -80.5q-167 0 -290.5 80.5t-191.5 224.5t-68 334v218q0 190 67.5 334t190.5 224.5t290 80.5q168 0 291.5 -80.5t191 -224.5t67.5 -334zM1177 619v220q0 171 -58.5 302.5t-169.5 206t-268 74.5q-156 0 -266 -74.5
t-168.5 -206t-58.5 -302.5v-220q0 -171 59 -303t169.5 -207t266.5 -75q157 0 267.5 75t168.5 207t58 303zM696 1857l234 -243v-10h-68l-187 196l-185 -196h-64v14l230 239h40z" />
    <glyph glyph-name="Otilde" unicode="&#xd5;" horiz-adv-x="1364" 
d="M1231 837v-218q0 -190 -67 -334t-190 -224.5t-291 -80.5q-167 0 -290.5 80.5t-191.5 224.5t-68 334v218q0 190 67.5 334t190.5 224.5t290 80.5q168 0 291.5 -80.5t191 -224.5t67.5 -334zM1177 619v220q0 171 -58.5 302.5t-169.5 206t-268 74.5q-156 0 -266 -74.5
t-168.5 -206t-58.5 -302.5v-220q0 -171 59 -303t169.5 -207t266.5 -75q157 0 267.5 75t168.5 207t58 303zM949 1827h55q0 -83 -51 -134.5t-125 -51.5q-54 0 -89.5 19t-63.5 43.5t-59 43.5t-75 19q-50 0 -85.5 -31t-35.5 -94h-55q0 83 51 131t125 48q52 0 88 -18.5
t65.5 -43.5t60.5 -43.5t73 -18.5q50 0 85.5 34t35.5 97z" />
    <glyph glyph-name="Odieresis" unicode="&#xd6;" horiz-adv-x="1364" 
d="M1231 837v-218q0 -190 -67 -334t-190 -224.5t-291 -80.5q-167 0 -290.5 80.5t-191.5 224.5t-68 334v218q0 190 67.5 334t190.5 224.5t290 80.5q168 0 291.5 -80.5t191 -224.5t67.5 -334zM1177 619v220q0 171 -58.5 302.5t-169.5 206t-268 74.5q-156 0 -266 -74.5
t-168.5 -206t-58.5 -302.5v-220q0 -171 59 -303t169.5 -207t266.5 -75q157 0 267.5 75t168.5 207t58 303zM400 1761q0 23 16 39.5t39 16.5t39.5 -16.5t16.5 -39.5t-16.5 -39t-39.5 -16t-39 16t-16 39zM845 1761q0 23 16 39.5t39 16.5t39.5 -16.5t16.5 -39.5t-16.5 -39
t-39.5 -16t-39 16t-16 39z" />
    <glyph glyph-name="multiply" unicode="&#xd7;" horiz-adv-x="932" 
d="M432 515l-266 271l34 35l266 -271l266 271l34 -35l-266 -271l267 -272l-33 -35l-268 273l-268 -273l-33 35z" />
    <glyph glyph-name="Oslash" unicode="&#xd8;" horiz-adv-x="1364" 
d="M1231 837v-218q0 -190 -67 -334t-190.5 -224.5t-290.5 -80.5q-99 0 -183 29t-151 83l-106 -167h-66l130 205q-83 85 -128.5 210t-45.5 279v218q0 190 67.5 334t190.5 224.5t290 80.5q118 0 214.5 -41t167.5 -115l111 175h66l-139 -220q62 -82 96 -193.5t34 -244.5z
M188 619q0 -282 149 -442l697 1097q-64 70 -152.5 109t-200.5 39q-156 0 -266 -74.5t-168.5 -206t-58.5 -302.5v-220zM1177 619v220q0 234 -107 388l-692 -1089q60 -50 136.5 -77t168.5 -27q157 0 267.5 75t168.5 207t58 303z" />
    <glyph glyph-name="Ugrave" unicode="&#xd9;" horiz-adv-x="1365" 
d="M1126 1456h54v-987q0 -163 -65 -272t-177.5 -163t-254.5 -54t-254.5 54t-178 163t-65.5 272v987h54v-987q0 -140 58.5 -237.5t159 -147.5t226.5 -50t226.5 50t158.5 147.5t58 237.5v987zM552 1855l188 -266h-59l-195 266h66z" />
    <glyph glyph-name="Uacute" unicode="&#xda;" horiz-adv-x="1365" 
d="M1126 1456h54v-987q0 -163 -65 -272t-177.5 -163t-254.5 -54t-254.5 54t-178 163t-65.5 272v987h54v-987q0 -140 58.5 -237.5t159 -147.5t226.5 -50t226.5 50t158.5 147.5t58 237.5v987zM657 1589l189 266h66l-195 -266h-60z" />
    <glyph glyph-name="Ucircumflex" unicode="&#xdb;" horiz-adv-x="1365" 
d="M1126 1456h54v-987q0 -163 -65 -272t-177.5 -163t-254.5 -54t-254.5 54t-178 163t-65.5 272v987h54v-987q0 -140 58.5 -237.5t159 -147.5t226.5 -50t226.5 50t158.5 147.5t58 237.5v987zM717 1836l234 -243v-10h-68l-187 196l-185 -196h-64v14l230 239h40z" />
    <glyph glyph-name="Udieresis" unicode="&#xdc;" horiz-adv-x="1365" 
d="M1126 1456h54v-987q0 -163 -65 -272t-177.5 -163t-254.5 -54t-254.5 54t-178 163t-65.5 272v987h54v-987q0 -140 58.5 -237.5t159 -147.5t226.5 -50t226.5 50t158.5 147.5t58 237.5v987zM421 1740q0 23 16 39.5t39 16.5t39.5 -16.5t16.5 -39.5t-16.5 -39t-39.5 -16
t-39 16t-16 39zM866 1740q0 23 16 39.5t39 16.5t39.5 -16.5t16.5 -39.5t-16.5 -39t-39.5 -16t-39 16t-16 39z" />
    <glyph glyph-name="Yacute" unicode="&#xdd;" horiz-adv-x="1223" 
d="M105 1456l504 -854l510 854h66l-549 -903v-553h-54v553l-549 903h72zM568 1578l189 266h66l-195 -266h-60z" />
    <glyph glyph-name="Thorn" unicode="&#xde;" horiz-adv-x="1219" 
d="M200 1456h54v-313h371q146 0 246 -53t152 -144.5t52 -207.5t-52 -207.5t-152 -144t-246 -52.5h-371v-334h-54v1456zM625 1089h-371v-701h371q141 0 228 52.5t127.5 133t40.5 162.5q0 87 -40.5 168t-127.5 133t-228 52z" />
    <glyph glyph-name="germandbls" unicode="&#xdf;" horiz-adv-x="1183" 
d="M218 1143v-1143h-54v1143q0 190 85 291t244 101q79 0 150 -34.5t116 -97t45 -146.5q0 -71 -18 -118.5t-41.5 -88.5t-41.5 -92t-18 -129q0 -62 38 -109.5t94.5 -89.5t112.5 -88t94 -104.5t38 -140.5q0 -101 -57.5 -172t-142.5 -108.5t-167 -37.5q-58 0 -120 12
t-113.5 32.5t-78.5 44.5l25 49q40 -31 120 -58t159 -27q94 0 166.5 38t113.5 100.5t41 135.5q0 69 -38 120t-94 93.5t-112.5 86.5t-94.5 97.5t-38 127.5q0 77 17 129t39.5 94.5t39.5 90t17 114.5q0 63 -35 113t-90 79.5t-116 29.5q-129 0 -207 -76.5t-78 -261.5z" />
    <glyph glyph-name="agrave" unicode="&#xe0;" horiz-adv-x="1081" 
d="M871 0q-10 39 -15 93.5t-5 104.5q-54 -88 -159.5 -153t-266.5 -65q-151 0 -242 82.5t-91 211.5q0 145 132.5 237.5t367.5 92.5h259v158q0 135 -86 210.5t-244 75.5q-98 0 -176.5 -34.5t-124 -94.5t-45.5 -135l-54 2q0 85 51.5 156.5t142 115.5t206.5 44
q169 0 276.5 -85.5t107.5 -256.5v-542q0 -58 7.5 -117t20.5 -92v-9h-62zM425 33q157 0 264.5 70t161.5 189v257h-256q-209 0 -329 -78t-120 -201q0 -98 78 -167.5t201 -69.5zM432 1535l188 -266h-59l-195 266h66z" />
    <glyph glyph-name="aacute" unicode="&#xe1;" horiz-adv-x="1081" 
d="M871 0q-10 39 -15 93.5t-5 104.5q-54 -88 -159.5 -153t-266.5 -65q-151 0 -242 82.5t-91 211.5q0 145 132.5 237.5t367.5 92.5h259v158q0 135 -86 210.5t-244 75.5q-98 0 -176.5 -34.5t-124 -94.5t-45.5 -135l-54 2q0 85 51.5 156.5t142 115.5t206.5 44
q169 0 276.5 -85.5t107.5 -256.5v-542q0 -58 7.5 -117t20.5 -92v-9h-62zM425 33q157 0 264.5 70t161.5 189v257h-256q-209 0 -329 -78t-120 -201q0 -98 78 -167.5t201 -69.5zM537 1269l189 266h66l-195 -266h-60z" />
    <glyph glyph-name="acircumflex" unicode="&#xe2;" horiz-adv-x="1081" 
d="M871 0q-10 39 -15 93.5t-5 104.5q-54 -88 -159.5 -153t-266.5 -65q-151 0 -242 82.5t-91 211.5q0 145 132.5 237.5t367.5 92.5h259v158q0 135 -86 210.5t-244 75.5q-98 0 -176.5 -34.5t-124 -94.5t-45.5 -135l-54 2q0 85 51.5 156.5t142 115.5t206.5 44
q169 0 276.5 -85.5t107.5 -256.5v-542q0 -58 7.5 -117t20.5 -92v-9h-62zM425 33q157 0 264.5 70t161.5 189v257h-256q-209 0 -329 -78t-120 -201q0 -98 78 -167.5t201 -69.5zM597 1516l234 -243v-10h-68l-187 196l-185 -196h-64v14l230 239h40z" />
    <glyph glyph-name="atilde" unicode="&#xe3;" horiz-adv-x="1081" 
d="M871 0q-10 39 -15 93.5t-5 104.5q-54 -88 -159.5 -153t-266.5 -65q-151 0 -242 82.5t-91 211.5q0 145 132.5 237.5t367.5 92.5h259v158q0 135 -86 210.5t-244 75.5q-98 0 -176.5 -34.5t-124 -94.5t-45.5 -135l-54 2q0 85 51.5 156.5t142 115.5t206.5 44
q169 0 276.5 -85.5t107.5 -256.5v-542q0 -58 7.5 -117t20.5 -92v-9h-62zM425 33q157 0 264.5 70t161.5 189v257h-256q-209 0 -329 -78t-120 -201q0 -98 78 -167.5t201 -69.5zM850 1486h55q0 -83 -51 -134.5t-125 -51.5q-54 0 -89.5 19t-63.5 43.5t-59 43.5t-75 19
q-50 0 -85.5 -31t-35.5 -94h-55q0 83 51 131t125 48q52 0 88 -18.5t65.5 -43.5t60.5 -43.5t73 -18.5q50 0 85.5 34t35.5 97z" />
    <glyph glyph-name="adieresis" unicode="&#xe4;" horiz-adv-x="1081" 
d="M871 0q-10 39 -15 93.5t-5 104.5q-54 -88 -159.5 -153t-266.5 -65q-151 0 -242 82.5t-91 211.5q0 145 132.5 237.5t367.5 92.5h259v158q0 135 -86 210.5t-244 75.5q-98 0 -176.5 -34.5t-124 -94.5t-45.5 -135l-54 2q0 85 51.5 156.5t142 115.5t206.5 44
q169 0 276.5 -85.5t107.5 -256.5v-542q0 -58 7.5 -117t20.5 -92v-9h-62zM425 33q157 0 264.5 70t161.5 189v257h-256q-209 0 -329 -78t-120 -201q0 -98 78 -167.5t201 -69.5zM301 1420q0 23 16 39.5t39 16.5t39.5 -16.5t16.5 -39.5t-16.5 -39t-39.5 -16t-39 16t-16 39z
M746 1420q0 23 16 39.5t39 16.5t39.5 -16.5t16.5 -39.5t-16.5 -39t-39.5 -16t-39 16t-16 39z" />
    <glyph glyph-name="aring" unicode="&#xe5;" horiz-adv-x="1081" 
d="M871 0q-10 39 -15 93.5t-5 104.5q-54 -88 -159.5 -153t-266.5 -65q-151 0 -242 82.5t-91 211.5q0 145 132.5 237.5t367.5 92.5h259v158q0 135 -86 210.5t-244 75.5q-98 0 -176.5 -34.5t-124 -94.5t-45.5 -135l-54 2q0 85 51.5 156.5t142 115.5t206.5 44
q169 0 276.5 -85.5t107.5 -256.5v-542q0 -58 7.5 -117t20.5 -92v-9h-62zM425 33q157 0 264.5 70t161.5 189v257h-256q-209 0 -329 -78t-120 -201q0 -98 78 -167.5t201 -69.5zM408 1381q0 74 49.5 124t121.5 50q71 0 121 -50t50 -124q0 -73 -50 -121.5t-121 -48.5
q-72 0 -121.5 48.5t-49.5 121.5zM462 1381q0 -52 33 -84t84 -32t84 32t33 84q0 53 -33 86.5t-84 33.5t-84 -33.5t-33 -86.5z" />
    <glyph glyph-name="ae" unicode="&#xe6;" horiz-adv-x="1735" 
d="M1268 -20q-146 0 -247 67.5t-153 182.5v-12h1q-24 -53 -79 -108.5t-140 -92.5t-202 -37q-171 0 -263 83t-92 221q0 154 109.5 250t320.5 96h290v90q0 156 -71.5 242t-220.5 86q-166 0 -256.5 -79t-90.5 -198l-53 7q0 140 108 232t292 92q137 0 226.5 -72t113.5 -215
q52 132 156 209.5t236 77.5q189 0 296.5 -118t107.5 -324v-83h-787v-13v-64q0 -129 41.5 -235t129.5 -168.5t227 -62.5q107 0 190.5 36t141.5 94l30 -42q-53 -54 -135.5 -98t-226.5 -44zM1253 1048q-109 0 -190 -55t-130 -149t-60 -212h730v32q0 108 -39.5 195t-117 138
t-193.5 51zM447 32q95 0 173.5 33.5t129.5 79t63 81.5v349h-288q-129 0 -212.5 -41t-124 -108t-40.5 -146q0 -115 77 -181.5t222 -66.5z" />
    <glyph glyph-name="ccedilla" unicode="&#xe7;" horiz-adv-x="1039" 
d="M539 34q85 0 161.5 30.5t128 95.5t57.5 168h54q-5 -110 -61 -188t-145 -119t-195 -41q-140 0 -239 69t-151 191t-52 280v42q0 159 52 280.5t150.5 190.5t237.5 69q105 0 194.5 -42.5t146.5 -126.5t62 -208h-54q-5 108 -54.5 179.5t-127.5 107.5t-167 36
q-132 0 -217.5 -65.5t-127 -175.5t-41.5 -245v-42q0 -135 41.5 -245.5t127.5 -175.5t219 -65zM522 -10h53l-11 -76q67 -7 122 -42.5t55 -126.5q0 -85 -76.5 -137.5t-208.5 -52.5l-7 49q54 0 108.5 14.5t91.5 46t37 80.5q0 66 -48 90t-141 34z" />
    <glyph glyph-name="egrave" unicode="&#xe8;" horiz-adv-x="1032" 
d="M561 -20q-131 0 -239 69t-171.5 190.5t-63.5 278.5v44q0 158 61.5 280t164.5 191t228 69q120 0 213 -58t145.5 -162t52.5 -242v-63h-811v-15v-44q0 -135 55.5 -245t150.5 -175t214 -65q93 0 173.5 31t147.5 118l38 -27q-54 -77 -141.5 -126t-217.5 -49zM541 1048
q-109 0 -194 -55t-137.5 -149.5t-64.5 -212.5h753v13q0 109 -44 200.5t-124 147.5t-189 56zM422 1534l188 -266h-59l-195 266h66z" />
    <glyph glyph-name="eacute" unicode="&#xe9;" horiz-adv-x="1032" 
d="M561 -20q-131 0 -239 69t-171.5 190.5t-63.5 278.5v44q0 158 61.5 280t164.5 191t228 69q120 0 213 -58t145.5 -162t52.5 -242v-63h-811v-15v-44q0 -135 55.5 -245t150.5 -175t214 -65q93 0 173.5 31t147.5 118l38 -27q-54 -77 -141.5 -126t-217.5 -49zM541 1048
q-109 0 -194 -55t-137.5 -149.5t-64.5 -212.5h753v13q0 109 -44 200.5t-124 147.5t-189 56zM527 1268l189 266h66l-195 -266h-60z" />
    <glyph glyph-name="ecircumflex" unicode="&#xea;" horiz-adv-x="1032" 
d="M561 -20q-131 0 -239 69t-171.5 190.5t-63.5 278.5v44q0 158 61.5 280t164.5 191t228 69q120 0 213 -58t145.5 -162t52.5 -242v-63h-811v-15v-44q0 -135 55.5 -245t150.5 -175t214 -65q93 0 173.5 31t147.5 118l38 -27q-54 -77 -141.5 -126t-217.5 -49zM541 1048
q-109 0 -194 -55t-137.5 -149.5t-64.5 -212.5h753v13q0 109 -44 200.5t-124 147.5t-189 56zM587 1515l234 -243v-10h-68l-187 196l-185 -196h-64v14l230 239h40z" />
    <glyph glyph-name="edieresis" unicode="&#xeb;" horiz-adv-x="1032" 
d="M561 -20q-131 0 -239 69t-171.5 190.5t-63.5 278.5v44q0 158 61.5 280t164.5 191t228 69q120 0 213 -58t145.5 -162t52.5 -242v-63h-811v-15v-44q0 -135 55.5 -245t150.5 -175t214 -65q93 0 173.5 31t147.5 118l38 -27q-54 -77 -141.5 -126t-217.5 -49zM541 1048
q-109 0 -194 -55t-137.5 -149.5t-64.5 -212.5h753v13q0 109 -44 200.5t-124 147.5t-189 56zM291 1419q0 23 16 39.5t39 16.5t39.5 -16.5t16.5 -39.5t-16.5 -39t-39.5 -16t-39 16t-16 39zM736 1419q0 23 16 39.5t39 16.5t39.5 -16.5t16.5 -39.5t-16.5 -39t-39.5 -16t-39 16
t-16 39z" />
    <glyph glyph-name="igrave" unicode="&#xec;" horiz-adv-x="406" 
d="M235 1082v-1082h-54v1082h54zM64 1512l188 -266h-59l-195 266h66z" />
    <glyph glyph-name="iacute" unicode="&#xed;" horiz-adv-x="406" 
d="M235 1082v-1082h-54v1082h54zM169 1246l189 266h66l-195 -266h-60z" />
    <glyph glyph-name="icircumflex" unicode="&#xee;" horiz-adv-x="406" 
d="M235 1082v-1082h-54v1082h54zM229 1493l234 -243v-10h-68l-187 196l-185 -196h-64v14l230 239h40z" />
    <glyph glyph-name="idieresis" unicode="&#xef;" horiz-adv-x="406" 
d="M235 1082v-1082h-54v1082h54zM-67 1397q0 23 16 39.5t39 16.5t39.5 -16.5t16.5 -39.5t-16.5 -39t-39.5 -16t-39 16t-16 39zM378 1397q0 23 16 39.5t39 16.5t39.5 -16.5t16.5 -39.5t-16.5 -39t-39.5 -16t-39 16t-16 39z" />
    <glyph glyph-name="eth" unicode="&#xf0;" horiz-adv-x="1183" 
d="M338 1527l20 50q123 -45 223.5 -101.5t178.5 -127.5l202 113l29 -48l-189 -105q120 -125 179.5 -295t59.5 -398v-80q0 -164 -53 -289.5t-146 -195.5t-213 -70q-134 0 -237 65t-161 175t-58 245q0 233 113.5 360.5t314.5 127.5q113 0 215 -44.5t162 -128.5
q-20 167 -79 289t-147 211l-235 -131l-28 48l220 123q-78 68 -172 118t-199 89zM228 465q0 -107 47 -205t137.5 -160t220.5 -62q109 0 188 64t122.5 176.5t43.5 256.5v82q0 28 -1 55q-24 55 -73.5 106t-127 84t-184.5 33q-131 0 -213.5 -57.5t-121 -155t-38.5 -217.5z" />
    <glyph glyph-name="ntilde" unicode="&#xf1;" 
d="M607 1049q-88 0 -154.5 -35t-112.5 -90t-74 -116.5t-40 -114.5v-693h-54v1082h54v-251q49 114 148.5 192.5t235.5 78.5q164 0 254 -93.5t90 -308.5v-700h-54v700q0 138 -37.5 213.5t-103.5 105.5t-152 30zM851 1484h55q0 -83 -51 -134.5t-125 -51.5q-54 0 -89.5 19
t-63.5 43.5t-59 43.5t-75 19q-50 0 -85.5 -31t-35.5 -94h-55q0 83 51 131t125 48q52 0 88 -18.5t65.5 -43.5t60.5 -43.5t73 -18.5q50 0 85.5 34t35.5 97z" />
    <glyph glyph-name="ograve" unicode="&#xf2;" horiz-adv-x="1127" 
d="M90 520v42q0 159 60 280.5t166.5 190.5t246.5 69q142 0 248.5 -69t166 -190.5t59.5 -280.5v-42q0 -158 -59.5 -280t-165.5 -191t-247 -69t-248 69t-167 191t-60 280zM144 562v-42q0 -129 50 -240t144 -178.5t227 -67.5q132 0 225.5 67.5t143 178.5t49.5 240v42
q0 127 -50 237.5t-143.5 179.5t-226.5 69q-132 0 -225.5 -69t-143.5 -179.5t-50 -237.5zM422 1533l188 -266h-59l-195 266h66z" />
    <glyph glyph-name="oacute" unicode="&#xf3;" horiz-adv-x="1127" 
d="M90 520v42q0 159 60 280.5t166.5 190.5t246.5 69q142 0 248.5 -69t166 -190.5t59.5 -280.5v-42q0 -158 -59.5 -280t-165.5 -191t-247 -69t-248 69t-167 191t-60 280zM144 562v-42q0 -129 50 -240t144 -178.5t227 -67.5q132 0 225.5 67.5t143 178.5t49.5 240v42
q0 127 -50 237.5t-143.5 179.5t-226.5 69q-132 0 -225.5 -69t-143.5 -179.5t-50 -237.5zM527 1267l189 266h66l-195 -266h-60z" />
    <glyph glyph-name="ocircumflex" unicode="&#xf4;" horiz-adv-x="1127" 
d="M90 520v42q0 159 60 280.5t166.5 190.5t246.5 69q142 0 248.5 -69t166 -190.5t59.5 -280.5v-42q0 -158 -59.5 -280t-165.5 -191t-247 -69t-248 69t-167 191t-60 280zM144 562v-42q0 -129 50 -240t144 -178.5t227 -67.5q132 0 225.5 67.5t143 178.5t49.5 240v42
q0 127 -50 237.5t-143.5 179.5t-226.5 69q-132 0 -225.5 -69t-143.5 -179.5t-50 -237.5zM587 1514l234 -243v-10h-68l-187 196l-185 -196h-64v14l230 239h40z" />
    <glyph glyph-name="otilde" unicode="&#xf5;" horiz-adv-x="1127" 
d="M90 520v42q0 159 60 280.5t166.5 190.5t246.5 69q142 0 248.5 -69t166 -190.5t59.5 -280.5v-42q0 -158 -59.5 -280t-165.5 -191t-247 -69t-248 69t-167 191t-60 280zM144 562v-42q0 -129 50 -240t144 -178.5t227 -67.5q132 0 225.5 67.5t143 178.5t49.5 240v42
q0 127 -50 237.5t-143.5 179.5t-226.5 69q-132 0 -225.5 -69t-143.5 -179.5t-50 -237.5zM840 1484h55q0 -83 -51 -134.5t-125 -51.5q-54 0 -89.5 19t-63.5 43.5t-59 43.5t-75 19q-50 0 -85.5 -31t-35.5 -94h-55q0 83 51 131t125 48q52 0 88 -18.5t65.5 -43.5t60.5 -43.5
t73 -18.5q50 0 85.5 34t35.5 97z" />
    <glyph glyph-name="odieresis" unicode="&#xf6;" horiz-adv-x="1127" 
d="M90 520v42q0 159 60 280.5t166.5 190.5t246.5 69q142 0 248.5 -69t166 -190.5t59.5 -280.5v-42q0 -158 -59.5 -280t-165.5 -191t-247 -69t-248 69t-167 191t-60 280zM144 562v-42q0 -129 50 -240t144 -178.5t227 -67.5q132 0 225.5 67.5t143 178.5t49.5 240v42
q0 127 -50 237.5t-143.5 179.5t-226.5 69q-132 0 -225.5 -69t-143.5 -179.5t-50 -237.5zM291 1418q0 23 16 39.5t39 16.5t39.5 -16.5t16.5 -39.5t-16.5 -39t-39.5 -16t-39 16t-16 39zM736 1418q0 23 16 39.5t39 16.5t39.5 -16.5t16.5 -39.5t-16.5 -39t-39.5 -16t-39 16
t-16 39z" />
    <glyph glyph-name="divide" unicode="&#xf7;" horiz-adv-x="1110" 
d="M500 801q0 24 18 42t41 18t41 -18t18 -42t-17.5 -41.5t-41.5 -17.5q-25 0 -42 16.5t-17 42.5zM165 499v47h780v-47h-780zM500 239q0 24 18 42t41 18t41 -18t18 -42t-17.5 -41.5t-41.5 -17.5q-25 0 -42 16.5t-17 42.5z" />
    <glyph glyph-name="oslash" unicode="&#xf8;" 
d="M87 520v42q0 159 60 280.5t166.5 190.5t246.5 69q124 0 224 -55l84 172h63l-99 -203q95 -70 148.5 -187.5t53.5 -266.5v-42q0 -158 -59.5 -280t-165.5 -191t-247 -69q-115 0 -210 48l-84 -173h-63l98 202q-101 68 -158.5 188.5t-57.5 274.5zM141 562v-42q0 -127 48 -237
t139 -176l431 889q-42 25 -92 38.5t-107 13.5q-132 0 -225.5 -69t-143.5 -179.5t-50 -237.5zM980 562q0 120 -44.5 226.5t-128.5 174.5l-431 -886q84 -43 186 -43q132 0 225.5 67.5t143 178.5t49.5 240v42z" />
    <glyph glyph-name="ugrave" unicode="&#xf9;" 
d="M897 0v175q-48 -90 -140 -142.5t-233 -52.5q-159 0 -257.5 94.5t-98.5 320.5v687h54v-689q0 -132 39 -211t107 -113.5t154 -34.5q120 0 198 39t120 104.5t57 143.5v761h55v-1082h-55zM435 1536l188 -266h-59l-195 266h66z" />
    <glyph glyph-name="uacute" unicode="&#xfa;" 
d="M897 0v175q-48 -90 -140 -142.5t-233 -52.5q-159 0 -257.5 94.5t-98.5 320.5v687h54v-689q0 -132 39 -211t107 -113.5t154 -34.5q120 0 198 39t120 104.5t57 143.5v761h55v-1082h-55zM540 1270l189 266h66l-195 -266h-60z" />
    <glyph glyph-name="ucircumflex" unicode="&#xfb;" 
d="M897 0v175q-48 -90 -140 -142.5t-233 -52.5q-159 0 -257.5 94.5t-98.5 320.5v687h54v-689q0 -132 39 -211t107 -113.5t154 -34.5q120 0 198 39t120 104.5t57 143.5v761h55v-1082h-55zM600 1517l234 -243v-10h-68l-187 196l-185 -196h-64v14l230 239h40z" />
    <glyph glyph-name="udieresis" unicode="&#xfc;" 
d="M897 0v175q-48 -90 -140 -142.5t-233 -52.5q-159 0 -257.5 94.5t-98.5 320.5v687h54v-689q0 -132 39 -211t107 -113.5t154 -34.5q120 0 198 39t120 104.5t57 143.5v761h55v-1082h-55zM304 1421q0 23 16 39.5t39 16.5t39.5 -16.5t16.5 -39.5t-16.5 -39t-39.5 -16t-39 16
t-16 39zM749 1421q0 23 16 39.5t39 16.5t39.5 -16.5t16.5 -39.5t-16.5 -39t-39.5 -16t-39 16t-16 39z" />
    <glyph glyph-name="yacute" unicode="&#xfd;" horiz-adv-x="978" 
d="M510 104l374 978h60l-481 -1262q-13 -34 -31.5 -78t-49.5 -85t-80.5 -67.5t-123.5 -26.5q-16 0 -42 3t-38 8l-1 51q15 -4 39 -6.5t34 -2.5q101 0 153 60t86 154l65 176l-431 1076h59l401 -998zM479 1270l189 266h66l-195 -266h-60z" />
    <glyph glyph-name="thorn" unicode="&#xfe;" 
d="M999 552v-21q0 -165 -48 -289t-139 -193t-219 -69q-132 0 -225 53.5t-144 135.5v-585h-54v1952h54v-647q53 96 144.5 154.5t222.5 58.5q193 0 300.5 -147t107.5 -403zM944 531v21q0 144 -38.5 256t-116.5 176t-197 64q-115 0 -188.5 -42t-116 -105t-63.5 -126v-506
q38 -101 129.5 -168t240.5 -67q118 0 195.5 64.5t116 176.5t38.5 256z" />
    <glyph glyph-name="ydieresis" unicode="&#xff;" horiz-adv-x="978" 
d="M510 104l374 978h60l-481 -1262q-13 -34 -31.5 -78t-49.5 -85t-80.5 -67.5t-123.5 -26.5q-16 0 -42 3t-38 8l-1 51q15 -4 39 -6.5t34 -2.5q101 0 153 60t86 154l65 176l-431 1076h59l401 -998zM243 1421q0 23 16 39.5t39 16.5t39.5 -16.5t16.5 -39.5t-16.5 -39t-39.5 -16
t-39 16t-16 39zM688 1421q0 23 16 39.5t39 16.5t39.5 -16.5t16.5 -39.5t-16.5 -39t-39.5 -16t-39 16t-16 39z" />
    <glyph glyph-name="Amacron" unicode="&#x100;" horiz-adv-x="1223" 
d="M1130 0l-162 435h-714l-162 -435h-59l545 1456h66l545 -1456h-59zM274 489h674l-337 902zM898 1766v-53h-567v53h567z" />
    <glyph glyph-name="amacron" unicode="&#x101;" horiz-adv-x="1081" 
d="M871 0q-10 39 -15 93.5t-5 104.5q-54 -88 -159.5 -153t-266.5 -65q-151 0 -242 82.5t-91 211.5q0 145 132.5 237.5t367.5 92.5h259v158q0 135 -86 210.5t-244 75.5q-98 0 -176.5 -34.5t-124 -94.5t-45.5 -135l-54 2q0 85 51.5 156.5t142 115.5t206.5 44
q169 0 276.5 -85.5t107.5 -256.5v-542q0 -58 7.5 -117t20.5 -92v-9h-62zM425 33q157 0 264.5 70t161.5 189v257h-256q-209 0 -329 -78t-120 -201q0 -98 78 -167.5t201 -69.5zM863 1446v-53h-567v53h567z" />
    <glyph glyph-name="Abreve" unicode="&#x102;" horiz-adv-x="1223" 
d="M1130 0l-162 435h-714l-162 -435h-59l545 1456h66l545 -1456h-59zM274 489h674l-337 902zM835 1810h54q0 -109 -73.5 -178.5t-204.5 -69.5q-130 0 -204.5 69.5t-74.5 178.5h54q0 -79 50.5 -135.5t174.5 -56.5q119 0 171.5 57.5t52.5 134.5z" />
    <glyph glyph-name="abreve" unicode="&#x103;" horiz-adv-x="1081" 
d="M871 0q-10 39 -15 93.5t-5 104.5q-54 -88 -159.5 -153t-266.5 -65q-151 0 -242 82.5t-91 211.5q0 145 132.5 237.5t367.5 92.5h259v158q0 135 -86 210.5t-244 75.5q-98 0 -176.5 -34.5t-124 -94.5t-45.5 -135l-54 2q0 85 51.5 156.5t142 115.5t206.5 44
q169 0 276.5 -85.5t107.5 -256.5v-542q0 -58 7.5 -117t20.5 -92v-9h-62zM425 33q157 0 264.5 70t161.5 189v257h-256q-209 0 -329 -78t-120 -201q0 -98 78 -167.5t201 -69.5zM800 1490h54q0 -109 -73.5 -178.5t-204.5 -69.5q-130 0 -204.5 69.5t-74.5 178.5h54
q0 -79 50.5 -135.5t174.5 -56.5q119 0 171.5 57.5t52.5 134.5z" />
    <glyph glyph-name="Aogonek" unicode="&#x104;" horiz-adv-x="1223" 
d="M33 0l545 1456h66l545 -1456q-71 -56 -129.5 -115t-58.5 -131q0 -37 19 -66t74 -29q40 0 66 12.5t44 25.5l16 -48q-19 -15 -49.5 -29.5t-76.5 -14.5q-67 0 -107 36.5t-40 112.5q0 66 56 132t125 120l-160 429h-714l-162 -435h-59zM274 489h674l-337 902z" />
    </font>
</defs>
</svg>
