<?xml version="1.0" standalone="no"?>
<!DOCTYPE svg PUBLIC "-//W3C//DTD SVG 1.1//EN" "http://www.w3.org/Graphics/SVG/1.1/DTD/svg11.dtd" >
<svg xmlns="http://www.w3.org/2000/svg" xmlns:xlink="http://www.w3.org/1999/xlink" version="1.1">
<metadata>
Created by FontForge 20170731 at Fri Jun 10 15:59:39 2022
 By Aleksey,,,
Copyright 2015 The Vazirmatn Project Authors (https://github.com/rastikerdar/vazirmatn)
</metadata>
<defs>
<font id="Vazirmatn-FD-ExtraBold" horiz-adv-x="0" >
  <font-face 
    font-family="Vazirmatn FD ExtraBold"
    font-weight="800"
    font-stretch="normal"
    units-per-em="2048"
    panose-1="0 0 0 0 0 0 0 0 0 0"
    ascent="1638"
    descent="-410"
    x-height="1082"
    cap-height="1456"
    bbox="-1055 -1171 3121 2163"
    underline-thickness="100"
    underline-position="-880"
    unicode-range="U+000D-FFFD"
  />
<missing-glyph horiz-adv-x="908" 
 />
    <glyph glyph-name="uni0622" unicode="&#x627;&#x653;" horiz-adv-x="543" 
d="M367 1556q10 -5 22 -5q23 0 42 14.5t44 36.5l59 55l118 -108l-66 -62q-50 -47 -91.5 -73.5t-88.5 -26.5q-45 0 -96 24l-129 59q-25 12 -45 12q-27 0 -52 -20.5t-63 -58.5l-65 -65l-118 107l67 69q62 65 113 99t100 34q50 0 120 -33zM407 1270v-1269h-270v1269h270z" />
    <glyph glyph-name="uni0623" unicode="&#x627;&#x654;" horiz-adv-x="543" 
d="M157 1473q-34 27 -51.5 60t-17.5 86q0 89 62 146.5t141 57.5q43 0 71.5 -9t57.5 -26l1 -118q-59 30 -116 30q-40 0 -74 -24t-34 -70q1 -27 26 -50t78 -16l8 2l144 52l17 -115l-400 -158l-16 112zM407 1270v-1269h-270v1269h270z" />
    <glyph glyph-name="uni0624" unicode="&#x648;&#x654;" horiz-adv-x="960" 
d="M354 1059q-34 27 -51.5 60t-17.5 86q0 89 62 146.5t141 57.5q43 0 71.5 -9t57.5 -26l1 -118q-59 30 -116 30q-40 0 -74 -24t-34 -70q1 -27 26 -50t78 -16l8 2l144 52l17 -115l-400 -158l-16 112zM879 222q0 -234 -86.5 -389t-244.5 -246t-374 -132l-99 267
q204 39 341.5 111t174.5 177q-25 -5 -52 -8.5t-49 -3.5q-190 0 -299 84t-109 276q0 81 24 165.5t71.5 157t119 117t165.5 44.5q111 0 190.5 -53.5t129.5 -142.5t73.5 -199.5t23.5 -224.5zM486 286q43 0 78.5 5t58.5 10q-6 51 -23 111.5t-50.5 104.5t-89.5 44
q-48 0 -75.5 -34.5t-38.5 -80t-11 -77.5q0 -54 43.5 -68.5t107.5 -14.5z" />
    <glyph glyph-name="uni0625" unicode="&#x627;&#x655;" horiz-adv-x="543" 
d="M151 -451q-34 27 -51.5 60t-17.5 86q0 89 62 146.5t141 57.5q43 0 71.5 -9t57.5 -26l1 -118q-59 30 -116 30q-40 0 -74 -24t-34 -70q1 -27 26 -50t78 -16l8 2l144 52l17 -115l-400 -158l-16 112zM408 1402v-1401h-270v1401h270z" />
    <glyph glyph-name="uni0626" unicode="&#x64a;&#x654;" horiz-adv-x="1487" 
d="M381 854q-34 27 -51.5 60t-17.5 86q0 89 62 146.5t141 57.5q43 0 71.5 -9t57.5 -26l1 -118q-59 30 -116 30q-40 0 -74 -24t-34 -70q1 -27 26 -50t78 -16l8 2l144 52l17 -115l-400 -158l-16 112zM713 -504q-215 0 -354.5 82t-206.5 224t-67 320q0 119 26 246.5t75 254.5
l243 -93q-37 -106 -62 -207t-25 -189q0 -96 34 -176t115 -128t222 -48q152 0 253 34.5t151 81.5t50 83q0 29 -36 29h-162q-51 0 -106.5 10t-103.5 43t-77.5 99t-29.5 177q0 104 34 200.5t97.5 172.5t152.5 121t200 45q75 0 147.5 -22.5t133.5 -66.5l-92 -255
q-52 29 -99.5 40.5t-87.5 11.5q-108 0 -169 -70.5t-61 -175.5q0 -27 17.5 -34t43.5 -7h146q115 0 180.5 -36t93 -99.5t27.5 -144.5q0 -143 -82 -262t-239 -190t-382 -71z" />
    <glyph glyph-name="uni06C0" unicode="&#x647;&#x654;" horiz-adv-x="1005" 
d="M586 1795q17 0 50.5 -6t60.5 -17l-23 -117q-19 6 -45 11t-43 5q-61 0 -97 -36.5t-36 -75.5q0 -17 3.5 -21.5t22.5 -4.5h93q60 0 93 -33t33 -83q0 -94 -48 -154t-128 -89t-177 -29q-60 0 -108.5 11.5t-89.5 30.5l55 115q30 -15 63 -24.5t82 -9.5q50 0 104.5 13.5
t92.5 42.5t38 73q0 12 -34 12h-74q-67 0 -104.5 37t-37.5 105q0 75 36 129.5t94.5 84.5t123.5 30zM293 781l-40 35l168 215q90 -71 179 -143t162.5 -149t117.5 -162t44 -181q0 -122 -54 -210t-149 -135t-218 -47q-207 0 -314.5 101.5t-107.5 254.5q0 125 61.5 222.5
t150.5 198.5zM669 394q0 32 -28.5 71.5t-70 77.5t-79.5 67q-35 -31 -70.5 -71t-59.5 -80t-24 -73q0 -46 44.5 -71.5t120.5 -25.5q167 0 167 105z" />
    <glyph glyph-name="fi" unicode="fi" horiz-adv-x="1276" 
d="M492 0h-314v863h-159v219h159v39q0 212 129.5 324t362.5 112q89 0 171.5 -16t170.5 -42l-44 -249q-58 17 -121.5 31t-156.5 14q-198 0 -198 -174v-39h213v-219h-213v-863zM1156 1082v-1082h-313v1082h313z" />
    <glyph glyph-name="f_l" unicode="fl" horiz-adv-x="1277" 
d="M493 0h-314v863h-158v219h158v75q0 194 122.5 297t342.5 103q63 0 156.5 -4t190 -10.5t166.5 -12.5v-1530h-313v1305q-83 8 -154 8q-95 0 -146 -40t-51 -116v-75h214v-219h-214v-863z" />
    <glyph glyph-name="f_f_i" unicode="ffi" horiz-adv-x="1941" 
d="M493 0h-314v863h-158v219h158v92q0 186 109.5 284.5t295.5 98.5q42 0 80.5 -6t73.5 -14v-233q-37 9 -87 9q-158 0 -158 -139v-92h351v39q0 212 129 324t363 112q88 0 170.5 -16t170.5 -42l-44 -249q-57 17 -121 31t-157 14q-198 0 -198 -174v-39h214v-219h-214v-863h-313
v863h-351v-863zM1822 1082v-1082h-314v1082h314z" />
    <glyph glyph-name="f_f_l" unicode="ffl" horiz-adv-x="1941" 
d="M493 0h-314v863h-158v219h158v92q0 186 109.5 284.5t295.5 98.5q42 0 80.5 -6t73.5 -14v-233q-37 9 -87 9q-158 0 -158 -139v-92h351v75q0 194 122 297t342 103q63 0 156.5 -4t190 -10.5t167.5 -12.5v-1530h-314v1305q-83 8 -154 8q-94 0 -145.5 -40t-51.5 -116v-75h214
v-219h-214v-863h-313v863h-351v-863z" />
    <glyph glyph-name="uniFBA5.fina" unicode="&#xfeea;&#x654;" horiz-adv-x="1096" arabic-form="final" 
d="M746 1818q17 0 50.5 -6t60.5 -17l-23 -117q-19 6 -45 11t-43 5q-61 0 -97 -36.5t-36 -75.5q0 -17 3.5 -21.5t22.5 -4.5h93q60 0 93 -33t33 -83q0 -94 -48 -154t-128 -89t-177 -29q-60 0 -108.5 11.5t-89.5 30.5l55 115q30 -15 63 -24.5t82 -9.5q50 0 104.5 13.5
t92.5 42.5t38 73q0 12 -34 12h-74q-67 0 -104.5 37t-37.5 105q0 75 36 129.5t94.5 84.5t123.5 30zM1081 0q-282 0 -360 239q-118 -90 -251 -90q-166 0 -277 90.5t-111 267.5q0 130 75 222.5t193.5 155.5t247.5 102l-7 48l242 49l95 -642q8 -55 47 -104t110 -49h31v-289h-35z
M666 547q0 14 -2.5 31.5t-5.5 36.5l-17 105q-71 -24 -139.5 -55.5t-113 -69t-44.5 -80.5q0 -41 33.5 -66.5t87.5 -25.5q46 0 92.5 13.5t77.5 41t31 69.5z" />
    <glyph glyph-name="uniFDF2" unicode="&#x627;&#xfedf;&#xfee0;&#xfeea;" horiz-adv-x="2712" arabic-form="isolated" 
d="M1309 1625v313h105v-313h-105zM1411 1545q2 -39 6 -82.5t19.5 -74t49.5 -30.5q29 0 39.5 23t10.5 57q0 35 -7 71t-13 65l106 21q21 -67 21 -141q0 -90 -35 -147.5t-115 -57.5q-29 0 -60 8t-56 38q-20 -54 -65 -72.5t-89 -18.5q-79 0 -114 55.5t-35 132.5q0 52 16 111
l98 -15q-4 -19 -8 -41.5t-4 -43.5q0 -34 12.5 -58.5t46.5 -24.5q59 0 69 41t10 136l-1 38zM2577 1402v-1401h-270v1401h270zM1081 0q-282 0 -360 239q-118 -90 -251 -90q-166 0 -277 90.5t-111 267.5q0 130 75 222.5t193.5 155.5t247.5 102l-7 48l242 49l95 -642
q8 -55 47 -104t110 -49h49q52 0 74.5 29t27.5 80.5t5 116.5v605h268v-605q0 -59 5.5 -111t28 -83.5t73.5 -31.5h47q83 0 102.5 57.5t19.5 140.5v793h269v-816q0 -217 -87 -340.5t-305 -123.5h-43q-84 0 -144 30.5t-101 79.5q-43 -50 -98 -80t-144 -30h-51zM666 547
q0 14 -2.5 31.5t-5.5 36.5l-17 105q-71 -24 -139.5 -55.5t-113 -69t-44.5 -80.5q0 -41 33.5 -66.5t87.5 -25.5q46 0 92.5 13.5t77.5 41t31 69.5z" />
    <glyph glyph-name="uniFE70" unicode="&#x20;&#x64b;" horiz-adv-x="592" arabic-form="isolated" 
d="M76 1174v113l443 182v-114zM76 969v113l443 182v-114z" />
    <glyph glyph-name="uniFE71" unicode="&#x640;&#x64b;" horiz-adv-x="606" arabic-form="medial" 
d="M80 1174v113l443 182v-114zM80 969v113l443 182v-114zM-18 289h642v-289h-642v289z" />
    <glyph glyph-name="uniFE72" unicode="&#x20;&#x64c;" horiz-adv-x="743" arabic-form="isolated" 
d="M582 925q-53 -73 -156 -111t-237 -41l-37 80q31 84 31 125q0 44 -42 44q-13 0 -36 -5.5t-44 -11.5l-10 100q61 21 107 21q60 0 87.5 -38.5t27.5 -105.5q0 -22 -2.5 -49t-8.5 -58q52 8 115 23t103 51q-67 8 -122.5 50.5t-55.5 129.5q0 70 50 121t124 51t123.5 -48
t49.5 -125q0 -61 -23 -119q8 -1 18 -2t21 -2l-10 -86q-22 1 -38 2.5t-35 3.5zM528 1031q9 23 16.5 46t7.5 50q0 34 -20.5 54.5t-51.5 20.5q-36 0 -58.5 -24t-22.5 -53q0 -43 40 -62t89 -32z" />
    <glyph glyph-name="uniFE74" unicode="&#x20;&#x64d;" horiz-adv-x="592" arabic-form="isolated" 
d="M75 -417v112l442 182v-114zM75 -622v112l442 182v-114z" />
    <glyph glyph-name="uniFE76" unicode="&#x20;&#x64e;" horiz-adv-x="592" arabic-form="isolated" 
d="M77 988v114l442 181v-114z" />
    <glyph glyph-name="uniFE77" unicode="&#x640;&#x64e;" horiz-adv-x="606" arabic-form="medial" 
d="M80 988v114l442 181v-114zM-18 289h642v-289h-642v289z" />
    <glyph glyph-name="uniFE78" unicode="&#x20;&#x64f;" horiz-adv-x="592" arabic-form="isolated" 
d="M517 986q-19 1 -34 2t-38 4q-54 -71 -146.5 -107.5t-219.5 -43.5l-15 93q93 8 167.5 29t112.5 53q-67 8 -123 50t-56 129q0 70 50 121t124 51t123.5 -48t49.5 -125q0 -57 -22 -118q18 -3 39 -4zM391 1098q10 23 17.5 48.5t7.5 46.5q0 35 -21 55.5t-52 20.5
q-36 0 -58 -24.5t-22 -53.5q0 -43 39.5 -61.5t88.5 -31.5z" />
    <glyph glyph-name="uniFE79" unicode="&#x640;&#x64f;" horiz-adv-x="606" arabic-form="medial" 
d="M518 986q-19 1 -34 2t-38 4q-54 -71 -146.5 -107.5t-219.5 -43.5l-15 93q93 8 167.5 29t112.5 53q-67 8 -123 50t-56 129q0 70 50 121t124 51t123.5 -48t49.5 -125q0 -57 -22 -118q18 -3 39 -4zM392 1098q10 23 17.5 48.5t7.5 46.5q0 35 -21 55.5t-52 20.5
q-36 0 -58 -24.5t-22 -53.5q0 -43 39.5 -61.5t88.5 -31.5zM-18 289h642v-289h-642v289z" />
    <glyph glyph-name="uniFE7A" unicode="&#x20;&#x650;" horiz-adv-x="592" arabic-form="isolated" 
d="M75 -414v114l443 181v-114z" />
    <glyph glyph-name="uniFE7B" unicode="&#x640;&#x650;" horiz-adv-x="606" arabic-form="medial" 
d="M-18 289h642v-289h-642v289zM79 -444v114l443 181v-114z" />
    <glyph glyph-name="uniFE7C" unicode="&#x20;&#x651;" horiz-adv-x="592" arabic-form="isolated" 
d="M349 1168q2 -39 6 -82.5t19.5 -74t49.5 -30.5q29 0 39.5 23t10.5 57q0 35 -7 71t-13 65l106 21q21 -67 21 -141q0 -90 -35 -147.5t-115 -57.5q-29 0 -60 8t-56 38q-20 -54 -65 -72.5t-89 -18.5q-79 0 -114 55.5t-35 132.5q0 52 16 111l98 -15q-4 -19 -8 -41.5t-4 -43.5
q0 -34 12.5 -58.5t46.5 -24.5q59 0 69 41t10 136l-1 38z" />
    <glyph glyph-name="uniFE7D" unicode="&#x640;&#x651;" horiz-adv-x="606" arabic-form="medial" 
d="M356 1168q2 -39 6 -82.5t19.5 -74t49.5 -30.5q29 0 39.5 23t10.5 57q0 35 -7 71t-13 65l106 21q21 -67 21 -141q0 -90 -35 -147.5t-115 -57.5q-29 0 -60 8t-56 38q-20 -54 -65 -72.5t-89 -18.5q-79 0 -114 55.5t-35 132.5q0 52 16 111l98 -15q-4 -19 -8 -41.5t-4 -43.5
q0 -34 12.5 -58.5t46.5 -24.5q59 0 69 41t10 136l-1 38zM-18 289h642v-289h-642v289z" />
    <glyph glyph-name="uniFE7E" unicode="&#x20;&#x652;" horiz-adv-x="592" arabic-form="isolated" 
d="M112 1032q0 76 54 130t130 54t129.5 -54t53.5 -130t-53.5 -129.5t-129.5 -53.5t-130 53.5t-54 129.5zM209 1032q0 -36 25 -61t62 -25t61.5 24.5t24.5 61.5t-25 62.5t-61 25.5t-61.5 -26t-25.5 -62z" />
    <glyph glyph-name="uniFE7F" unicode="&#x640;&#x652;" horiz-adv-x="606" arabic-form="medial" 
d="M119 1032q0 76 54 130t130 54t129.5 -54t53.5 -130t-53.5 -129.5t-129.5 -53.5t-130 53.5t-54 129.5zM216 1032q0 -36 25 -61t62 -25t61.5 24.5t24.5 61.5t-25 62.5t-61 25.5t-61.5 -26t-25.5 -62zM-18 289h642v-289h-642v289z" />
    <glyph glyph-name="uniFEF5" unicode="&#xfedf;&#xfe82;" horiz-adv-x="1223" arabic-form="isolated" 
d="M211 1523q-18 0 -52.5 -26.5t-67 -57t-45.5 -44.5l-93 83q25 27 70.5 69.5t95.5 76t88 33.5q30 0 69 -22t79.5 -44.5t71.5 -22.5q16 0 45 20.5t57 45.5t40 38l92 -83q-23 -23 -64.5 -60t-86 -66t-79.5 -29q-29 0 -71.5 22.5t-83 44.5t-65.5 22zM304 0q-54 0 -106.5 4
t-106.5 8v279q62 -6 124.5 -9.5t108.5 -3.5q18 0 34 0.5t29 0.5l-13.5 63t-39 168.5t-62 235.5t-82.5 266t-100 257l246 107q55 -128 102 -271.5t85.5 -280.5t66 -248.5t42 -178l14.5 -66.5q173 75 173 377v694h268v-706q0 -177 -45 -299.5t-123 -200.5t-178 -121
t-212.5 -59t-224.5 -16z" />
    <glyph glyph-name="uniFEF6" unicode="&#xfee0;&#xfe82;" horiz-adv-x="1259" arabic-form="final" 
d="M211 1523q-18 0 -52.5 -26.5t-67 -57t-45.5 -44.5l-93 83q25 27 70.5 69.5t95.5 76t88 33.5q30 0 69 -22t79.5 -44.5t71.5 -22.5q16 0 45 20.5t57 45.5t40 38l92 -83q-23 -23 -64.5 -60t-86 -66t-79.5 -29q-29 0 -71.5 22.5t-83 44.5t-65.5 22zM646 331q173 73 173 377
v694h268v-747q0 -89 9.5 -173.5t43 -138.5t103.5 -54h37v-289h-40q-124 0 -204.5 57.5t-123.5 148.5q-99 -101 -256.5 -153.5t-351.5 -52.5q-54 0 -106.5 4t-106.5 8v279q62 -4 124.5 -8.5t108.5 -4.5h33.5t29.5 1l-13.5 63t-39 168.5t-62 235.5t-82.5 266t-100 257l246 107
q55 -128 102 -271.5t85.5 -280.5t66 -248.5t42 -178z" />
    <glyph glyph-name="uniFEF7" unicode="&#xfedf;&#xfe84;" horiz-adv-x="1223" arabic-form="isolated" 
d="M76 1516q-34 27 -51.5 60t-17.5 86q0 89 62 146.5t141 57.5q43 0 71.5 -9t57.5 -26l1 -118q-59 30 -116 30q-40 0 -74 -24t-34 -70q1 -27 26 -50t78 -16l8 2l144 52l17 -115l-400 -158l-16 112zM304 0q-54 0 -106.5 4t-106.5 8v279q62 -6 124.5 -9.5t108.5 -3.5
q18 0 34 0.5t29 0.5l-13.5 63t-39 168.5t-62 235.5t-82.5 266t-100 257l246 107q55 -128 102 -271.5t85.5 -280.5t66 -248.5t42 -178l14.5 -66.5q173 75 173 377v694h268v-706q0 -177 -45 -299.5t-123 -200.5t-178 -121t-212.5 -59t-224.5 -16z" />
    <glyph glyph-name="uniFEF8" unicode="&#xfee0;&#xfe84;" horiz-adv-x="1259" arabic-form="final" 
d="M76 1516q-34 27 -51.5 60t-17.5 86q0 89 62 146.5t141 57.5q43 0 71.5 -9t57.5 -26l1 -118q-59 30 -116 30q-40 0 -74 -24t-34 -70q1 -27 26 -50t78 -16l8 2l144 52l17 -115l-400 -158l-16 112zM646 331q173 73 173 377v694h268v-747q0 -89 9.5 -173.5t43 -138.5
t103.5 -54h37v-289h-40q-124 0 -204.5 57.5t-123.5 148.5q-99 -101 -256.5 -153.5t-351.5 -52.5q-54 0 -106.5 4t-106.5 8v279q62 -4 124.5 -8.5t108.5 -4.5h33.5t29.5 1l-13.5 63t-39 168.5t-62 235.5t-82.5 266t-100 257l246 107q55 -128 102 -271.5t85.5 -280.5
t66 -248.5t42 -178z" />
    <glyph glyph-name="uniFEF9" unicode="&#xfedf;&#xfe88;" horiz-adv-x="1223" arabic-form="isolated" 
d="M270 -452q-34 27 -51.5 60t-17.5 86q0 89 62 146.5t141 57.5q43 0 71.5 -9t57.5 -26l1 -118q-59 30 -116 30q-40 0 -74 -24t-34 -70q1 -27 26 -50t78 -16l8 2l144 52l17 -115l-400 -158l-16 112zM304 0q-54 0 -106.5 4t-106.5 8v279q62 -6 124.5 -9.5t108.5 -3.5
q18 0 34 0.5t29 0.5l-13.5 63t-39 168.5t-62 235.5t-82.5 266t-100 257l246 107q55 -128 102 -271.5t85.5 -280.5t66 -248.5t42 -178l14.5 -66.5q173 75 173 377v694h268v-706q0 -177 -45 -299.5t-123 -200.5t-178 -121t-212.5 -59t-224.5 -16z" />
    <glyph glyph-name="uniFEFA" unicode="&#xfee0;&#xfe88;" horiz-adv-x="1259" arabic-form="final" 
d="M270 -452q-34 27 -51.5 60t-17.5 86q0 89 62 146.5t141 57.5q43 0 71.5 -9t57.5 -26l1 -118q-59 30 -116 30q-40 0 -74 -24t-34 -70q1 -27 26 -50t78 -16l8 2l144 52l17 -115l-400 -158l-16 112zM646 331q173 73 173 377v694h268v-747q0 -89 9.5 -173.5t43 -138.5
t103.5 -54h37v-289h-40q-124 0 -204.5 57.5t-123.5 148.5q-99 -101 -256.5 -153.5t-351.5 -52.5q-54 0 -106.5 4t-106.5 8v279q62 -4 124.5 -8.5t108.5 -4.5h33.5t29.5 1l-13.5 63t-39 168.5t-62 235.5t-82.5 266t-100 257l246 107q55 -128 102 -271.5t85.5 -280.5
t66 -248.5t42 -178z" />
    <glyph glyph-name="uniFEFB" unicode="&#xfedf;&#xfe8e;" horiz-adv-x="1223" arabic-form="isolated" 
d="M304 0q-54 0 -106.5 4t-106.5 8v279q62 -6 124.5 -9.5t108.5 -3.5q18 0 34 0.5t29 0.5l-13.5 63t-39 168.5t-62 235.5t-82.5 266t-100 257l246 107q55 -128 102 -271.5t85.5 -280.5t66 -248.5t42 -178l14.5 -66.5q173 75 173 377v694h268v-706q0 -177 -45 -299.5
t-123 -200.5t-178 -121t-212.5 -59t-224.5 -16z" />
    <glyph glyph-name="uniFEFC" unicode="&#xfee0;&#xfe8e;" horiz-adv-x="1259" arabic-form="final" 
d="M646 331q173 73 173 377v694h268v-747q0 -89 9.5 -173.5t43 -138.5t103.5 -54h37v-289h-40q-124 0 -204.5 57.5t-123.5 148.5q-99 -101 -256.5 -153.5t-351.5 -52.5q-54 0 -106.5 4t-106.5 8v279q62 -4 124.5 -8.5t108.5 -4.5h33.5t29.5 1l-13.5 63t-39 168.5t-62 235.5
t-82.5 266t-100 257l246 107q55 -128 102 -271.5t85.5 -280.5t66 -248.5t42 -178z" />
    <glyph glyph-name="LamAlefWasla" unicode="&#xfedf;&#xfb51;" horiz-adv-x="1223" 
d="M-6 1522l22 92q31 -26 76 -48q80 134 146 193.5t148 59.5q83 0 136.5 -52t53.5 -131q0 -106 -74 -147t-246 -41h-25q-92 0 -152 17t-85 57zM254 1550q131 0 176.5 16.5t45.5 65.5q0 36 -23 59.5t-62 23.5q-49 0 -90.5 -36.5t-101.5 -128.5h55zM304 0q-54 0 -106.5 4
t-106.5 8v279q62 -6 124.5 -9.5t108.5 -3.5q18 0 34 0.5t29 0.5l-13.5 63t-39 168.5t-62 235.5t-82.5 266t-100 257l246 107q55 -128 102 -271.5t85.5 -280.5t66 -248.5t42 -178l14.5 -66.5q173 75 173 377v694h268v-706q0 -177 -45 -299.5t-123 -200.5t-178 -121
t-212.5 -59t-224.5 -16z" />
    <glyph glyph-name="LamAlefWasla.fina" unicode="&#xfee0;&#xfb51;" horiz-adv-x="1259" 
d="M-6 1522l22 92q31 -26 76 -48q80 134 146 193.5t148 59.5q83 0 136.5 -52t53.5 -131q0 -106 -74 -147t-246 -41h-25q-92 0 -152 17t-85 57zM254 1550q131 0 176.5 16.5t45.5 65.5q0 36 -23 59.5t-62 23.5q-49 0 -90.5 -36.5t-101.5 -128.5h55zM646 331q173 73 173 377
v694h268v-747q0 -89 9.5 -173.5t43 -138.5t103.5 -54h37v-289h-40q-124 0 -204.5 57.5t-123.5 148.5q-99 -101 -256.5 -153.5t-351.5 -52.5q-54 0 -106.5 4t-106.5 8v279q62 -4 124.5 -8.5t108.5 -4.5h33.5t29.5 1l-13.5 63t-39 168.5t-62 235.5t-82.5 266t-100 257l246 107
q55 -128 102 -271.5t85.5 -280.5t66 -248.5t42 -178z" />
    <glyph glyph-name="uni063D.init" unicode="&#x63d;" horiz-adv-x="663" 
d="M193 0h-215v289h216q76 0 104.5 47.5t28.5 120.5q0 68 -16.5 148.5t-33.5 157.5l262 68q19 -94 30.5 -186.5t11.5 -176.5q0 -133 -35.5 -239t-120.5 -167.5t-232 -61.5zM4 -128l170 -168l168 168l171 -170l-171 -172l-168 170l-170 -170l-170 172zM548 985l-104 -51
l-119 242l-119 -242l-104 51l163 331h120z" />
    <glyph glyph-name="uni063D.medi" unicode="&#x63d;" horiz-adv-x="743" 
d="M-22 289h151q110 0 151.5 37.5t41.5 137.5q0 59 -3 114.5t-7 108.5l250 31l20 -286q5 -76 42 -109.5t118 -33.5h21v-289h-23q-100 0 -171.5 36t-117.5 94q-61 -61 -144.5 -95.5t-177.5 -34.5h-151v289zM4 -128l170 -168l168 168l171 -170l-171 -172l-168 170l-170 -170
l-170 172zM578 906l-104 -51l-119 242l-119 -242l-104 51l163 331h120z" />
    <glyph glyph-name="uni063D.fina" unicode="&#x63d;" horiz-adv-x="1354" 
d="M757 677l-104 -51l-119 242l-119 -242l-104 51l163 331h120zM713 -514q-220 0 -358.5 85t-204 227.5t-65.5 316.5q0 99 19.5 207t61.5 220l243 -88q-30 -87 -48 -173t-18 -162q0 -97 34.5 -175.5t115.5 -125t220 -46.5q159 0 255 33t139.5 74t43.5 64q0 35 -33.5 46
t-106.5 11h-158q-41 0 -52 21t-21 56l-43 155q-7 25 -4.5 41t38.5 16h604v-289h8q9 -35 9 -56q0 -122 -80.5 -226.5t-232 -168t-366.5 -63.5z" />
    <glyph glyph-name="uni066E.init" unicode="&#x66e;" horiz-adv-x="609" 
d="M139 0h-159v289h160q76 0 104.5 47.5t28.5 120.5q0 68 -16.5 148.5t-33.5 157.5l262 68q19 -94 30.5 -186.5t11.5 -176.5q0 -133 -36 -239t-120.5 -167.5t-231.5 -61.5z" />
    <glyph glyph-name="uni066E.medi" unicode="&#x66e;" horiz-adv-x="690" 
d="M259 687l250 31l20 -286q5 -76 42 -109.5t118 -33.5h21v-289h-23q-100 0 -171.5 36t-117.5 94q-61 -61 -144.5 -95.5t-177.5 -34.5h-96v289h96q110 0 151.5 37.5t41.5 137.5q0 59 -3 114.5t-7 108.5z" />
    <glyph glyph-name="uni066E.fina" unicode="&#x66e;" horiz-adv-x="1928" 
d="M1497 687l250 31l20 -286q5 -76 40.5 -109.5t117.5 -33.5h23v-289h-23q-115 0 -191 42.5t-126 115.5q-91 -84 -221.5 -121t-339.5 -37h-167q-173 0 -318.5 21.5t-253 75.5t-167 151.5t-59.5 249.5q0 90 20 175.5t50 158.5l241 -91q-17 -47 -34.5 -109t-17.5 -118
q0 -78 42.5 -123.5t117.5 -67t172.5 -28t206.5 -6.5h167q145 0 248 11.5t157.5 49t54.5 116.5q0 51 -3 112t-7 109z" />
    <glyph glyph-name="uni066F.init" unicode="&#x66f;" horiz-adv-x="962" 
d="M360 289q128 0 195.5 20t68.5 99q-73 -14 -155 -14q-177 0 -280 73.5t-103 239.5q0 81 26 162.5t75.5 149t119 108t156.5 40.5q115 0 195 -57t129 -152t71 -211t22 -235q0 -208 -56.5 -318.5t-174 -152t-301.5 -41.5h-368v289h380zM465 639q38 0 76.5 4t75.5 12
q-7 48 -26 102t-51 92.5t-79 38.5q-62 0 -95.5 -55.5t-33.5 -113.5q0 -53 39 -66.5t94 -13.5z" />
    <glyph glyph-name="uni066F.medi" unicode="&#x66f;" horiz-adv-x="1019" 
d="M943 522q0 -124 -77 -232q23 -1 42 -1h35h96v-289h-136q-83 0 -180 24.5t-184 53.5q-90 -31 -189.5 -54.5t-187.5 -23.5h-182v289h149q23 0 42.5 0.5t47.5 1.5q-75 109 -75 233q0 79 33.5 153t90 133.5t127 94.5t144.5 35q77 0 149 -34.5t129.5 -94t91.5 -134.5t34 -155z
M541 662q-29 0 -62 -23t-56 -56t-23 -63q0 -37 24 -73.5t57.5 -65t61.5 -44.5q31 17 64 45.5t56.5 65t23.5 74.5q0 30 -24.5 62.5t-58.5 55t-63 22.5z" />
    <glyph glyph-name="uni066F.fina" unicode="&#x66f;" horiz-adv-x="1434" 
d="M722 -514q-215 0 -356.5 82t-211 224t-69.5 320q0 119 26 246.5t75 254.5l243 -93q-37 -106 -62 -207t-25 -189q0 -96 36 -176t119 -128t225 -48q182 0 288.5 55t122.5 173h-123q-202 0 -311.5 84.5t-109.5 273.5q0 75 22.5 159.5t69 159t118 122t169.5 47.5
q131 0 218.5 -80t135 -207t57.5 -270h75v-289h-74q-17 -271 -191.5 -392.5t-466.5 -121.5zM1000 289h129q-6 56 -23.5 119.5t-51 108t-89.5 44.5q-46 0 -73.5 -34t-39.5 -79t-12 -79q0 -54 44.5 -67t115.5 -13z" />
    <glyph glyph-name="uni067C.init" unicode="&#x67c;" horiz-adv-x="712" 
d="M135 1313l170 -168l168 168l171 -170l-171 -172l-168 170l-170 -170l-170 172zM146 -82q0 43 19 82h-185v289h254q76 0 104.5 47.5t28.5 120.5q0 68 -16.5 148.5t-33.5 157.5l262 68q19 -94 30.5 -186.5t11.5 -176.5q0 -133 -35 -239.5t-121 -165.5q66 -58 66 -145
q0 -79 -56 -136t-136 -57q-79 0 -136 57t-57 136zM252 -82q0 -36 25 -61t62 -25t61.5 24.5t24.5 61.5t-25 62t-61 25t-61.5 -25.5t-25.5 -61.5z" />
    <glyph glyph-name="uni067C.medi" unicode="&#x67c;" horiz-adv-x="784" 
d="M136 1226l170 -168l168 168l171 -170l-171 -172l-168 170l-170 -170l-170 172zM147 -74q0 39 15 74h-182v289h190q110 0 151.5 37.5t41.5 137.5q0 59 -3 114.5t-7 108.5l250 31l20 -286q5 -76 42 -109.5t118 -33.5h21v-289h-23q-100 0 -171.5 36t-117.5 94
q-23 -23 -49 -42q40 -26 64.5 -68.5t24.5 -93.5q0 -79 -56 -136t-136 -57q-79 0 -136 57t-57 136zM253 -74q0 -36 25 -61t62 -25t61.5 24.5t24.5 61.5t-25 62t-61 25t-61.5 -25.5t-25.5 -61.5z" />
    <glyph glyph-name="uni067C.fina" unicode="&#x67c;" horiz-adv-x="1928" 
d="M748 -95q0 80 57 136t136 56q80 0 136 -56t56 -136q0 -79 -56 -136t-136 -57q-79 0 -136 57t-57 136zM854 -95q0 -36 25 -61t62 -25t61.5 24.5t24.5 61.5t-25 62t-61 25t-61.5 -25.5t-25.5 -61.5zM775 1096l170 -168l168 168l171 -170l-171 -172l-168 170l-170 -170
l-170 172zM1497 687l250 31l20 -286q5 -76 40.5 -109.5t117.5 -33.5h23v-289h-23q-115 0 -191 42.5t-126 115.5q-91 -84 -221.5 -121t-339.5 -37h-167q-173 0 -318.5 21.5t-253 75.5t-167 151.5t-59.5 249.5q0 90 20 175.5t50 158.5l241 -91q-17 -47 -34.5 -109t-17.5 -118
q0 -78 42.5 -123.5t117.5 -67t172.5 -28t206.5 -6.5h167q145 0 248 11.5t157.5 49t54.5 116.5q0 51 -3 112t-7 109z" />
    <glyph glyph-name="uni0681.init" unicode="&#x681;" horiz-adv-x="1397" 
d="M498 1179q-34 27 -51.5 60t-17.5 86q0 89 62 146.5t141 57.5q43 0 71.5 -9t57.5 -26l1 -118q-59 30 -116 30q-40 0 -74 -24t-34 -70q1 -27 26 -50t78 -16l8 2l144 52l17 -115l-400 -158l-16 112zM-20 289h170q129 0 243 24.5t232.5 73.5t260.5 122q-154 56 -249 99.5
t-130 43.5q-54 0 -97.5 -33.5t-71.5 -70.5l-53 -67l-224 110l45 72q71 116 170 192.5t232 76.5q56 0 130.5 -27t160 -67t177 -80t181 -68t171.5 -29v-265q-76 -10 -139 -33t-131 -59.5t-161 -85.5q-128 -68 -243.5 -117t-237 -75t-269.5 -26h-167v289z" />
    <glyph glyph-name="uni0681.medi" unicode="&#x681;" horiz-adv-x="1396" 
d="M498 1179q-34 27 -51.5 60t-17.5 86q0 89 62 146.5t141 57.5q43 0 71.5 -9t57.5 -26l1 -118q-59 30 -116 30q-40 0 -74 -24t-34 -70q1 -27 26 -50t78 -16l8 2l144 52l17 -115l-400 -158l-16 112zM1328 661v-261q-58 -6 -114 -26t-100 -40q18 -28 88.5 -36.5t158.5 -8.5
h55v-289h-59q-183 0 -291 48.5t-149 181.5q-185 -99 -373 -164.5t-397 -65.5h-167v289h170q129 0 242.5 24.5t232 73.5t261.5 122q-154 57 -249 100t-130 43q-54 0 -97.5 -33.5t-71.5 -70.5l-53 -67l-224 110l45 72q71 116 170 192.5t232 76.5q56 0 130.5 -27t160 -67
t177 -80t181 -68t171.5 -29z" />
    <glyph glyph-name="uni0681.fina" unicode="&#x681;" horiz-adv-x="1435" 
d="M483 1210q-34 27 -51.5 60t-17.5 86q0 89 62 146.5t141 57.5q43 0 71.5 -9t57.5 -26l1 -118q-59 30 -116 30q-40 0 -74 -24t-34 -70q1 -27 26 -50t78 -16l8 2l144 52l17 -115l-400 -158l-16 112zM83 -120q0 144 54 261t148 206.5t215 153.5t254 101q-94 40 -160 70
t-93 30q-55 0 -99 -34t-72 -71l-53 -66l-224 109l45 73q70 116 170.5 192t233.5 76q55 0 129.5 -27t160 -67t176.5 -80t181 -68t171 -29l-1 -259q-50 -4 -117.5 -11.5t-110.5 -15.5q4 -78 77.5 -106.5t205.5 -28.5h81v-289h-78q-154 0 -266 31.5t-176.5 111t-76.5 223.5
q-150 -46 -268 -116.5t-185.5 -162t-67.5 -201.5q0 -97 57.5 -163t156 -99.5t222.5 -33.5q141 0 269 26.5t230 66.5l81 -271q-135 -54 -281 -78.5t-288 -24.5q-194 0 -353 57.5t-253.5 183.5t-94.5 330z" />
    <glyph glyph-name="uni0685.init" unicode="&#x685;" horiz-adv-x="1397" 
d="M616 1595l161 -160l-161 -161l-161 161zM791 1340l161 -161l-161 -161l-161 161zM442 1340l160 -161l-160 -161l-161 161zM-20 289h170q129 0 243 24.5t232.5 73.5t260.5 122q-154 56 -249 99.5t-130 43.5q-54 0 -97.5 -33.5t-71.5 -70.5l-53 -67l-224 110l45 72
q71 116 170 192.5t232 76.5q56 0 130.5 -27t160 -67t177 -80t181 -68t171.5 -29v-265q-76 -10 -139 -33t-131 -59.5t-161 -85.5q-128 -68 -243.5 -117t-237 -75t-269.5 -26h-167v289z" />
    <glyph glyph-name="uni0685.medi" unicode="&#x685;" horiz-adv-x="1396" 
d="M616 1595l161 -160l-161 -161l-161 161zM791 1340l161 -161l-161 -161l-161 161zM442 1340l160 -161l-160 -161l-161 161zM1328 661v-261q-58 -6 -114 -26t-100 -40q18 -28 88.5 -36.5t158.5 -8.5h55v-289h-59q-183 0 -291 48.5t-149 181.5q-185 -99 -373 -164.5
t-397 -65.5h-167v289h170q129 0 242.5 24.5t232 73.5t261.5 122q-154 57 -249 100t-130 43q-54 0 -97.5 -33.5t-71.5 -70.5l-53 -67l-224 110l45 72q71 116 170 192.5t232 76.5q56 0 130.5 -27t160 -67t177 -80t181 -68t171.5 -29z" />
    <glyph glyph-name="uni0685.fina" unicode="&#x685;" horiz-adv-x="1435" 
d="M615 1627l161 -160l-161 -161l-161 161zM790 1372l161 -161l-161 -161l-161 161zM441 1372l160 -161l-160 -161l-161 161zM83 -120q0 144 54 261t148 206.5t215 153.5t254 101q-94 40 -160 70t-93 30q-55 0 -99 -34t-72 -71l-53 -66l-224 109l45 73q70 116 170.5 192
t233.5 76q55 0 129.5 -27t160 -67t176.5 -80t181 -68t171 -29l-1 -259q-50 -4 -117.5 -11.5t-110.5 -15.5q4 -78 77.5 -106.5t205.5 -28.5h81v-289h-78q-154 0 -266 31.5t-176.5 111t-76.5 223.5q-150 -46 -268 -116.5t-185.5 -162t-67.5 -201.5q0 -97 57.5 -163t156 -99.5
t222.5 -33.5q141 0 269 26.5t230 66.5l81 -271q-135 -54 -281 -78.5t-288 -24.5q-194 0 -353 57.5t-253.5 183.5t-94.5 330z" />
    <glyph glyph-name="uni0689.fina" unicode="&#x689;" horiz-adv-x="1115" 
d="M278 -91q0 80 57 136t136 56q80 0 136 -56t56 -136q0 -79 -56 -136t-136 -57q-79 0 -136 57t-57 136zM384 -91q0 -36 25 -61t62 -25t61.5 24.5t24.5 61.5t-25 62t-61 25t-61.5 -25.5t-25.5 -61.5zM652 432q0 25 -11 66t-23 67l-198 437l238 116l249 -574
q30 -69 53.5 -127t54 -93t78.5 -35h42v-289h-42q-112 0 -180.5 42.5t-120.5 109.5q-76 -73 -181 -112t-254 -39q-88 0 -149 6t-126 22v289q62 -15 131.5 -23t128.5 -8q74 0 145 12.5t118 44.5t47 88z" />
    <glyph glyph-name="uni0693.fina" unicode="&#x693;" horiz-adv-x="817" 
d="M205 -510q0 80 57 136t136 56q80 0 136 -56t56 -136q0 -79 -56 -136t-136 -57q-79 0 -136 57t-57 136zM311 -510q0 -36 25 -61t62 -25t61.5 24.5t24.5 61.5t-25 62t-61 25t-61.5 -25.5t-25.5 -61.5zM809 0q-91 0 -150 35q-40 -230 -196.5 -380t-417.5 -200l-99 267
q145 31 249.5 82.5t161.5 137.5t57 222q0 91 -29 204.5t-62 211.5l269 87l58 -226q17 -64 50 -108t98 -44h39v-289h-28z" />
    <glyph glyph-name="uni0695.fina" unicode="&#x695;" horiz-adv-x="817" 
d="M255 -972l-163 331l104 51l119 -242l119 242l104 -51l-163 -331h-120zM809 0q-91 0 -150 35q-40 -230 -196.5 -380t-417.5 -200l-99 267q145 31 249.5 82.5t161.5 137.5t57 222q0 91 -29 204.5t-62 211.5l269 87l58 -226q17 -64 50 -108t98 -44h39v-289h-28z" />
    <glyph glyph-name="uni0696.fina" unicode="&#x696;" horiz-adv-x="817" 
d="M425 -487l180 -180l-180 -179l-179 179zM154 276l180 -180l-180 -179l-179 179zM809 0q-91 0 -150 35q-40 -230 -196.5 -380t-417.5 -200l-99 267q145 31 249.5 82.5t161.5 137.5t57 222q0 91 -29 204.5t-62 211.5l269 87l58 -226q17 -64 50 -108t98 -44h39v-289h-28z
" />
    <glyph glyph-name="uni069A.init" unicode="&#x69a;" horiz-adv-x="1640" 
d="M963 -123l180 -180l-180 -179l-179 179zM900 1228l180 -180l-180 -179l-179 179zM677 0q-101 0 -169.5 34.5t-112.5 91.5q-55 -58 -131 -92t-192 -34h-92v289h94q110 0 156.5 27t46.5 130q0 16 -2 53t-5 81.5t-6 80.5l251 31l21 -270q9 -133 143 -133q83 0 111 34.5
t28 122.5q0 14 -2 51.5t-5 82.5t-6 81l251 31l21 -270q4 -61 30.5 -97t90.5 -36q60 0 82.5 47.5t22.5 113.5q0 57 -10.5 117.5t-23 110t-18.5 72.5l259 71q20 -79 33 -168.5t13 -177.5q0 -124 -32.5 -232.5t-110.5 -175.5t-213 -67q-90 0 -151.5 37t-103.5 91
q-51 -54 -115.5 -91t-152.5 -37z" />
    <glyph glyph-name="uni069A.medi" unicode="&#x69a;" horiz-adv-x="1729" 
d="M963 -123l180 -180l-180 -179l-179 179zM900 1228l180 -180l-180 -179l-179 179zM1200 0q-89 0 -151 37t-104 91q-51 -54 -115.5 -91t-152.5 -37q-101 0 -169.5 34.5t-112.5 91.5q-55 -58 -131 -92t-192 -34h-92v289h94q110 0 156.5 27t46.5 130q0 16 -2 53t-5 81.5
t-6 80.5l251 31l21 -270q9 -133 143 -133q83 0 111 34.5t28 122.5q0 14 -2 51.5t-5 82.5t-6 81l251 31l21 -270q4 -62 31 -97.5t90 -35.5q62 0 84.5 41t22.5 116q0 36 -4 104t-9 130l251 31l21 -289q5 -74 41.5 -103.5t113.5 -29.5h30v-289h-28q-92 0 -162.5 32t-111.5 87
q-41 -51 -101 -85t-146 -34z" />
    <glyph glyph-name="uni069A.fina" unicode="&#x69a;" horiz-adv-x="2558" 
d="M1795 -123l180 -180l-180 -179l-179 179zM1732 1228l180 -180l-180 -179l-179 179zM713 -228q144 0 227.5 46t119 125t35.5 179q0 108 -34.5 222.5t-77.5 218.5l267 100l67 -206q23 -70 67 -118.5t125 -49.5q83 0 111 34.5t28 122.5q0 14 -2 51.5t-5 82.5t-6 81l252 31
l20 -270q4 -62 31 -97.5t90 -35.5q60 0 83.5 40.5t23.5 116.5q0 36 -4 104t-9 130l252 31l20 -289q5 -74 41 -103.5t113 -29.5h30v-289h-28q-92 0 -162 32t-111 87q-41 -51 -101.5 -85t-146.5 -34q-89 0 -150.5 37t-103.5 91q-51 -54 -115.5 -91t-152.5 -37q-45 0 -83 13
t-69 35q-28 -259 -191.5 -410.5t-450.5 -151.5q-215 0 -354.5 82t-206.5 224t-67 320q0 119 26 246.5t75 254.5l243 -93q-37 -106 -62 -207t-25 -189q0 -96 34 -176t115 -128t222 -48z" />
    <glyph glyph-name="uni06A0.init" unicode="&#x6a0;" horiz-adv-x="1093" 
d="M560 1645l161 -160l-161 -161l-161 161zM735 1390l161 -161l-161 -161l-161 161zM386 1390l160 -161l-160 -161l-161 161zM197 289q-28 50 -44 119.5t-16 125.5q0 119 59 219.5t159.5 161t222.5 60.5q113 0 206 -40.5t190 -106.5l-104 -238q-65 39 -130 67t-143 28
q-46 0 -93 -19t-78 -54.5t-31 -85.5q0 -42 19.5 -81.5t46.5 -69t48 -42.5q4 -1 16 3l487 116v-290q-252 -76 -482.5 -119t-448.5 -43h-101v289h217z" />
    <glyph glyph-name="uni06A0.medi" unicode="&#x6a0;" horiz-adv-x="1172" 
d="M621 1551l161 -160l-161 -161l-161 161zM796 1296l161 -161l-161 -161l-161 161zM447 1296l160 -161l-160 -161l-161 161zM622 881q79 0 168 -11.5t167 -37t127.5 -66t49.5 -97.5q0 -33 -25.5 -81t-65 -100.5t-82 -100t-75.5 -80.5q41 -12 79 -15t71 -3h156v-289h-155
q-117 0 -220.5 27.5t-194.5 73.5q-96 -48 -230.5 -74.5t-253.5 -26.5h-158v289h159q23 0 62.5 1t82.5 5t74 13q-33 33 -75 80.5t-81 100t-65 100t-26 80.5q0 57 49 97.5t127 66t167 37t168 11.5zM623 619q-49 0 -103.5 -5t-113.5 -17q42 -45 92.5 -93.5t87 -82.5l36.5 -34
l37 34t88.5 82.5t92.5 93.5q-58 12 -112.5 17t-104.5 5z" />
    <glyph glyph-name="uni06A0.fina" unicode="&#x6a0;" horiz-adv-x="1256" 
d="M661 1605l161 -160l-161 -161l-161 161zM836 1350l161 -161l-161 -161l-161 161zM487 1350l160 -161l-160 -161l-161 161zM429 319q-39 42 -87.5 99t-94 116.5t-74.5 111.5t-29 84q0 58 49 98.5t127 66t167 37t168 11.5t168 -11.5t167 -37t127.5 -66t49.5 -98.5
q0 -33 -27 -82.5t-70.5 -106.5t-93 -114t-94.5 -105q74 -21 159.5 -27t166.5 -6h68v-289h-60q-98 0 -185.5 10.5t-178.5 43.5t-202 101q-83 -47 -154.5 -98.5t-115 -105.5t-43.5 -111q0 -118 102 -181t253 -63q104 0 210.5 18.5t183.5 43.5l69 -282q-115 -31 -228.5 -48.5
t-220.5 -17.5q-175 0 -316.5 53t-224.5 170t-83 307q0 96 32.5 168t85 127t113 99.5t116.5 84.5zM656 681q-49 0 -103.5 -5t-113.5 -17q42 -45 92.5 -94t87 -83l36.5 -34l37 34t88 83t92 94q-58 12 -112 17t-104 5z" />
    <glyph glyph-name="uni06A1.init" unicode="&#x6a1;" horiz-adv-x="962" 
d="M360 289q128 0 195.5 20t68.5 99q-73 -14 -155 -14q-177 0 -280 73.5t-103 239.5q0 81 26 162.5t75.5 149t119 108t156.5 40.5q115 0 195 -57t129 -152t71 -211t22 -235q0 -208 -56.5 -318.5t-174 -152t-301.5 -41.5h-368v289h380zM465 639q38 0 76.5 4t75.5 12
q-7 48 -26 102t-51 92.5t-79 38.5q-62 0 -95.5 -55.5t-33.5 -113.5q0 -53 39 -66.5t94 -13.5z" />
    <glyph glyph-name="uni06A1.medi" unicode="&#x6a1;" horiz-adv-x="1019" 
d="M943 522q0 -124 -77 -232q23 -1 42 -1h35h96v-289h-136q-83 0 -180 24.5t-184 53.5q-90 -31 -189.5 -54.5t-187.5 -23.5h-182v289h149q23 0 42.5 0.5t47.5 1.5q-75 109 -75 233q0 79 33.5 153t90 133.5t127 94.5t144.5 35q77 0 149 -34.5t129.5 -94t91.5 -134.5t34 -155z
M541 662q-29 0 -62 -23t-56 -56t-23 -63q0 -37 24 -73.5t57.5 -65t61.5 -44.5q31 17 64 45.5t56.5 65t23.5 74.5q0 30 -24.5 62.5t-58.5 55t-63 22.5z" />
    <glyph glyph-name="uni06A1.fina" unicode="&#x6a1;" horiz-adv-x="1928" 
d="M880 289h80q37 0 82 0.5t86 1.5q-75 111 -75 233q0 79 33.5 153t90 133.5t127 94.5t144.5 35q77 0 149 -34.5t129.5 -94t91.5 -134.5t34 -155q0 -124 -77 -232q23 -1 42 -1h35h96v-289h-136q-83 0 -180 24.5t-184 53.5q-60 -21 -144.5 -38.5t-169 -28.5t-143.5 -11h-111
q-173 0 -318.5 21.5t-253 75.5t-167 151.5t-59.5 249.5q0 90 20 175.5t50 158.5l241 -91q-17 -47 -34.5 -109t-17.5 -118q0 -78 42.5 -123.5t117.5 -67t172.5 -28t206.5 -6.5zM1450 662q-29 0 -62 -23t-56 -56t-23 -63q0 -37 24 -73.5t57.5 -65t61.5 -44.5q47 25 95.5 76
t48.5 109q0 30 -24.5 62.5t-58.5 55t-63 22.5z" />
    <glyph glyph-name="uni06AA.init" unicode="&#x6aa;" horiz-adv-x="1653" 
d="M780 515h-427q-81 0 -155 21t-120.5 68t-46.5 125q0 68 33 119t76 87q78 64 189 123.5t240.5 113.5t265.5 101.5t264 87.5v-282q-111 -36 -241 -79t-252.5 -94t-214.5 -111h386q153 0 295 -16t254.5 -59.5t178.5 -124t66 -210.5q0 -100 -48 -169t-130 -111.5
t-185.5 -65.5t-217 -31t-223.5 -8h-787v289h786q157 0 276 11t186.5 33t67.5 55q0 40 -53.5 65t-135.5 38.5t-170 18.5t-157 5z" />
    <glyph glyph-name="uni06AA.medi" unicode="&#x6aa;" horiz-adv-x="1701" 
d="M1672 0q-106 0 -182 27t-132 68q-115 -53 -267.5 -74t-323.5 -21h-787v289h786q157 0 276 11t186.5 33t67.5 55q0 40 -53.5 65t-135.5 38.5t-170 18.5t-157 5h-427q-81 0 -155 21t-120.5 68t-46.5 125q0 68 33 119t76 87q78 64 189 123.5t240.5 113.5t265.5 101.5
t264 87.5v-282q-111 -36 -241 -79t-253 -94t-214 -111h386q153 0 295 -16t254.5 -59.5t178.5 -124t66 -210.5q0 -10 -2 -41t-5 -39q22 -10 49.5 -13t58.5 -3h49v-289h-49z" />
    <glyph glyph-name="uni06AA.fina" unicode="&#x6aa;" horiz-adv-x="2117" 
d="M1185 0h-369q-66 0 -160 6t-198.5 16.5t-204 25t-176.5 31.5l38 257q134 -17 265 -27.5t242 -15t184 -4.5h378q157 0 276 11t186.5 33t67.5 55q0 40 -53.5 65t-135.5 38.5t-170 18.5t-157 5h-427q-81 0 -155 21t-120.5 68t-46.5 125q0 68 33 119t76 87q78 64 189 123.5
t240.5 113.5t265.5 101.5t264 87.5v-282q-111 -36 -241 -79t-252.5 -94t-214.5 -111h385q153 0 295.5 -16t255 -59.5t178.5 -124t66 -210.5q0 -10 -2 -41.5t-5 -38.5q24 -10 49.5 -13t56.5 -3h49v-289h-49q-106 0 -181 27.5t-131 68.5q-120 -55 -278.5 -75.5t-312.5 -20.5z
" />
    <glyph glyph-name="uni06AB.init" unicode="&#x6ab;" horiz-adv-x="934" 
d="M492 970q0 80 57 136t136 56q80 0 136 -56t56 -136q0 -79 -56 -136t-136 -57q-79 0 -136 57t-57 136zM598 970q0 -36 25 -61t62 -25t61.5 24.5t24.5 61.5t-25 62t-61 25t-61.5 -25.5t-25.5 -61.5zM342 924q134 -80 237.5 -156.5t162.5 -164.5t59 -203q0 -157 -72 -244
t-202 -121.5t-303 -34.5h-244v289h243q160 0 240 22.5t80 92.5q0 33 -49 76.5t-122.5 92t-150 96t-132.5 87.5q-42 30 -63.5 80t-21.5 102q0 56 26 105t81 71l772 315v-286z" />
    <glyph glyph-name="uni06AB.medi" unicode="&#x6ab;" horiz-adv-x="1046" 
d="M492 970q0 80 57 136t136 56q80 0 136 -56t56 -136q0 -79 -56 -136t-136 -57q-79 0 -136 57t-57 136zM598 970q0 -36 25 -61t62 -25t61.5 24.5t24.5 61.5t-25 62t-61 25t-61.5 -25.5t-25.5 -61.5zM342 924q134 -79 220 -142t140.5 -131t93.5 -163q30 -72 57.5 -116
t69.5 -63.5t115 -19.5h28v-289h-28q-121 0 -202.5 35.5t-138.5 118.5q-52 -58 -113.5 -91.5t-147 -48t-212.5 -14.5h-244v289h243q160 0 240 22.5t80 92.5q0 33 -49 76.5t-122.5 92t-150 96t-132.5 87.5q-42 31 -64 81.5t-22 104.5q0 57 26.5 103.5t81.5 68.5l772 315v-286z
" />
    <glyph glyph-name="uni06AB.fina" unicode="&#x6ab;" horiz-adv-x="1954" 
d="M1399 970q0 80 57 136t136 56q80 0 136 -56t56 -136q0 -79 -56 -136t-136 -57q-79 0 -136 57t-57 136zM1505 970q0 -36 25 -61t62 -25t61.5 24.5t24.5 61.5t-25 62t-61 25t-61.5 -25.5t-25.5 -61.5zM1133 0h-253q-172 0 -318 21.5t-253.5 75.5t-167 151.5t-59.5 249.5
q0 90 20 176t50 159l241 -91q-17 -47 -34.5 -109.5t-17.5 -118.5q0 -78 42.5 -123.5t117.5 -67t172.5 -28t206.5 -6.5h252q160 0 240 22.5t80 92.5q0 33 -49 76.5t-122.5 92t-150 96t-132.5 87.5q-42 31 -64 81.5t-22 103.5q0 58 26.5 104.5t81.5 68.5l772 315v-286
l-540 -219q133 -80 219 -143t140.5 -130.5t93.5 -162.5q30 -72 57.5 -116t69.5 -63.5t115 -19.5h27v-289h-27q-121 0 -202.5 35.5t-138.5 118.5q-52 -58 -113.5 -91.5t-147 -48t-212.5 -14.5z" />
    <glyph glyph-name="uni06AC.init" unicode="&#x6ac;" horiz-adv-x="934" 
d="M347 1714l180 -180l-180 -179l-179 179zM342 924q134 -80 237.5 -156.5t162.5 -164.5t59 -203q0 -157 -72 -244t-202 -121.5t-303 -34.5h-244v289h243q160 0 240 22.5t80 92.5q0 33 -49 76.5t-122.5 92t-150 96t-132.5 87.5q-42 30 -63.5 80t-21.5 102q0 56 26 105t81 71
l772 315v-286z" />
    <glyph glyph-name="uni06AC.medi" unicode="&#x6ac;" horiz-adv-x="1046" 
d="M347 1714l180 -180l-180 -179l-179 179zM342 924q134 -79 220 -142t140.5 -131t93.5 -163q30 -72 57.5 -116t69.5 -63.5t115 -19.5h28v-289h-28q-121 0 -202.5 35.5t-138.5 118.5q-52 -58 -113.5 -91.5t-147 -48t-212.5 -14.5h-244v289h243q160 0 240 22.5t80 92.5
q0 33 -49 76.5t-122.5 92t-150 96t-132.5 87.5q-42 31 -64 81.5t-22 104.5q0 57 26.5 103.5t81.5 68.5l772 315v-286z" />
    <glyph glyph-name="uni06AC.fina" unicode="&#x6ac;" horiz-adv-x="1888" 
d="M921 1614l180 -180l-180 -179l-179 179zM880 289h150q141 0 226 10.5t128.5 35.5t58.5 69.5t15 113.5v884h269v-881q0 -77 7.5 -128.5t38 -77.5t98.5 -26h37v-289h-35q-123 0 -189 31.5t-109 107.5q-106 -93 -240.5 -116t-297.5 -23h-157q-171 0 -316.5 21t-253.5 75
t-168 151.5t-60 250.5q0 90 20 175.5t50 158.5l241 -91q-17 -47 -34.5 -109.5t-17.5 -118.5q0 -103 73.5 -150.5t196 -60.5t269.5 -13zM715 706q74 -16 161 -16q60 0 104 9t44 27q0 10 -27.5 17t-68.5 16.5t-82 27.5t-69 49.5t-28 81.5q0 65 35.5 112.5t92.5 78.5
t122.5 46.5t125.5 15.5l9 -153q-25 0 -65.5 -7t-81.5 -19t-68.5 -28.5t-27.5 -36.5q0 -14 37.5 -23t88.5 -23t90 -43q25 -19 40 -45t15 -63q0 -71 -41.5 -111.5t-107.5 -57t-140 -16.5q-40 0 -80.5 4t-77.5 10v147z" />
    <glyph glyph-name="uni06B5.init" unicode="&#x6b5;" horiz-adv-x="624" 
d="M290 1506l-163 331l104 51l119 -242l119 242l104 -51l-163 -331h-120zM-20 289h76q104 0 133 49t29 149v915h269v-939q0 -229 -101.5 -346t-330.5 -117h-75v289z" />
    <glyph glyph-name="uni06B5.medi" unicode="&#x6b5;" horiz-adv-x="651" 
d="M290 1506l-163 331l104 51l119 -242l119 242l104 -51l-163 -331h-120zM218 478v924h269v-924q0 -94 30.5 -141.5t121.5 -47.5h32v-289h-30q-106 0 -172.5 32.5t-116.5 96.5q-53 -61 -123.5 -95t-187.5 -34h-61v289h54q101 0 142.5 45.5t41.5 143.5z" />
    <glyph glyph-name="uni06B5.fina" unicode="&#x6b5;" horiz-adv-x="1398" 
d="M556 1045l-163 331l104 51l119 -242l119 242l104 -51l-163 -331h-120zM672 -496q-294 0 -442 156.5t-148 439.5q0 116 27.5 241t73.5 240l243 -93q-34 -90 -61 -195t-27 -194q0 -150 82.5 -229.5t251.5 -79.5q114 0 177.5 43.5t89 124t25.5 190.5v1254h269v-892
q0 -97 29.5 -159t124.5 -62h31v-289h-29q-55 0 -92.5 12.5t-70.5 35.5q-19 -253 -148.5 -398.5t-405.5 -145.5z" />
    <glyph glyph-name="uni06BA.init" unicode="&#x6ba;" horiz-adv-x="609" 
d="M139 0h-159v289h160q76 0 104.5 47.5t28.5 120.5q0 68 -16.5 148.5t-33.5 157.5l262 68q19 -94 30.5 -186.5t11.5 -176.5q0 -133 -36 -239t-120.5 -167.5t-231.5 -61.5z" />
    <glyph glyph-name="uni06BA.medi" unicode="&#x6ba;" horiz-adv-x="690" 
d="M259 687l250 31l20 -286q5 -76 42 -109.5t118 -33.5h21v-289h-23q-100 0 -171.5 36t-117.5 94q-61 -61 -144.5 -95.5t-177.5 -34.5h-96v289h96q110 0 151.5 37.5t41.5 137.5q0 59 -3 114.5t-7 108.5z" />
    <glyph glyph-name="uni06BC.init" unicode="&#x6bc;" horiz-adv-x="609" 
d="M55 -82q0 80 57 136t136 56q80 0 136 -56t56 -136q0 -79 -56 -136t-136 -57q-79 0 -136 57t-57 136zM161 -82q0 -36 25 -61t62 -25t61.5 24.5t24.5 61.5t-25 62t-61 25t-61.5 -25.5t-25.5 -61.5zM139 0h-159v289h160q76 0 104.5 47.5t28.5 120.5q0 68 -16.5 148.5
t-33.5 157.5l262 68q19 -94 30.5 -186.5t11.5 -176.5q0 -133 -36 -239t-120.5 -167.5t-231.5 -61.5zM257 1304l180 -180l-180 -179l-179 179z" />
    <glyph glyph-name="uni06BC.medi" unicode="&#x6bc;" horiz-adv-x="690" 
d="M55 -74q0 80 57 136t136 56q80 0 136 -56t56 -136q0 -79 -56 -136t-136 -57q-79 0 -136 57t-57 136zM161 -74q0 -36 25 -61t62 -25t61.5 24.5t24.5 61.5t-25 62t-61 25t-61.5 -25.5t-25.5 -61.5zM259 687l250 31l20 -286q5 -76 42 -109.5t118 -33.5h21v-289h-23
q-100 0 -171.5 36t-117.5 94q-61 -61 -144.5 -95.5t-177.5 -34.5h-96v289h96q110 0 151.5 37.5t41.5 137.5q0 59 -3 114.5t-7 108.5zM314 1217l180 -180l-180 -179l-179 179z" />
    <glyph glyph-name="uni06BC.fina" unicode="&#x6bc;" horiz-adv-x="1503" 
d="M556 -610q0 80 57 136t136 56q80 0 136 -56t56 -136q0 -79 -56 -136t-136 -57q-79 0 -136 57t-57 136zM662 -610q0 -36 25 -61t62 -25t61.5 24.5t24.5 61.5t-25 62t-61 25t-61.5 -25.5t-25.5 -61.5zM701 868l180 -180l-180 -179l-179 179zM713 -228q144 0 227.5 46
t119 125t35.5 179q0 108 -34.5 222.5t-77.5 218.5l267 100l80 -243q17 -52 52 -91.5t101 -39.5h40v-289h-36q-43 0 -75 7t-60 27q-32 -253 -194 -400.5t-445 -147.5q-215 0 -354.5 82t-206.5 224t-67 320q0 119 26 246.5t75 254.5l243 -93q-37 -106 -62 -207t-25 -189
q0 -96 34 -176t115 -128t222 -48z" />
    <glyph glyph-name="uni06BD.fina" unicode="&#x6bd;" horiz-adv-x="1503" 
d="M691 1216l161 -160l-161 -161l-161 161zM866 961l161 -161l-161 -161l-161 161zM517 961l160 -161l-160 -161l-161 161zM713 -228q144 0 227.5 46t119 125t35.5 179q0 108 -34.5 222.5t-77.5 218.5l267 100l80 -243q17 -52 52 -91.5t101 -39.5h40v-289h-36q-43 0 -75 7
t-60 27q-32 -253 -194 -400.5t-445 -147.5q-215 0 -354.5 82t-206.5 224t-67 320q0 119 26 246.5t75 254.5l243 -93q-37 -106 -62 -207t-25 -189q0 -96 34 -176t115 -128t222 -48z" />
    <glyph glyph-name="uni06C2.init" unicode="&#x6c2;" horiz-adv-x="609" 
d="M173 1029q-34 27 -51.5 60t-17.5 86q0 89 62 146.5t141 57.5q43 0 71.5 -9t57.5 -26l1 -118q-59 30 -116 30q-40 0 -74 -24t-34 -70q1 -27 26 -50t78 -16l8 2l144 52l17 -115l-400 -158l-16 112zM139 0h-159v289h160q76 0 104.5 47.5t28.5 120.5q0 68 -16.5 148.5
t-33.5 157.5l262 68q19 -94 30.5 -186.5t11.5 -176.5q0 -133 -36 -239t-120.5 -167.5t-231.5 -61.5zM436 -174q-43 -40 -73 -83t-39 -101q45 -9 68.5 -42t23.5 -83q0 -60 -34.5 -97.5t-96.5 -37.5q-73 0 -109.5 43.5t-36.5 113.5q0 119 52.5 212t138.5 160z" />
    <glyph glyph-name="uni06C2.medi" unicode="&#x6c2;" horiz-adv-x="1020" 
d="M429 710q-34 27 -51.5 60t-17.5 86q0 89 62 146.5t141 57.5q43 0 71.5 -9t57.5 -26l1 -118q-59 30 -116 30q-40 0 -74 -24t-34 -70q1 -27 26 -50t78 -16l8 2l144 52l17 -115l-400 -158l-16 112zM779 -260q0 -28 1.5 -57t3.5 -58l-175 -163q-88 48 -175.5 121t-153 182
t-89.5 263q-33 -13 -68.5 -20.5t-76.5 -7.5h-66v289h68q93 0 153.5 32t108 82t99.5 103l182 -202q-48 -43 -96 -95.5t-48 -116.5q0 -51 18.5 -104.5t45.5 -97.5t52 -67q12 119 59.5 225.5t141.5 173.5t243 67h33v-289h-35q-125 0 -175.5 -60.5t-50.5 -199.5z" />
    <glyph glyph-name="uni06C2.fina" unicode="&#x6c2;" horiz-adv-x="991" 
d="M391 933q-34 27 -51.5 60t-17.5 86q0 89 62 146.5t141 57.5q43 0 71.5 -9t57.5 -26l1 -118q-59 30 -116 30q-40 0 -74 -24t-34 -70q1 -27 26 -50t78 -16l8 2l144 52l17 -115l-400 -158l-16 112zM529 421q-28 0 -61 -41t-63.5 -107.5t-52.5 -146.5t-29 -158l-245 60
q11 117 47 240t94.5 228t137 169.5t174.5 64.5q87 0 140.5 -43t86 -103.5t56.5 -115.5q17 -39 36 -80.5t49.5 -70t79.5 -28.5h32v-289h-31q-120 0 -196.5 49.5t-123.5 126t-82 156.5q-13 31 -23.5 60t-25.5 29z" />
    <glyph glyph-name="uni06C3.fina" unicode="&#x6c3;" horiz-adv-x="991" 
d="M315 1184l170 -168l168 168l171 -170l-171 -172l-168 170l-170 -170l-170 172zM529 421q-28 0 -61 -41t-63.5 -107.5t-52.5 -146.5t-29 -158l-245 60q11 117 47 240t94.5 228t137 169.5t174.5 64.5q87 0 140.5 -43t86 -103.5t56.5 -115.5q17 -39 36 -80.5t49.5 -70
t79.5 -28.5h32v-289h-31q-120 0 -196.5 49.5t-123.5 126t-82 156.5q-13 31 -23.5 60t-25.5 29z" />
    <glyph glyph-name="uni06CA.fina" unicode="&#x6ca;" horiz-adv-x="929" 
d="M288 1279l170 -168l168 168l171 -170l-171 -172l-168 170l-170 -170l-170 172zM462 846q131 0 218.5 -80t135.5 -207t58 -270h75v-289h-95q-57 -228 -224 -358.5t-456 -186.5l-99 267q126 24 233.5 64t182 94t99.5 120h-94q-202 0 -308 84.5t-106 273.5q0 75 22.5 159.5
t69.5 159t118.5 122t169.5 47.5zM495 289h128q-6 56 -23.5 119.5t-51 108t-88.5 44.5q-47 0 -74.5 -34t-39 -79t-11.5 -79q0 -53 44.5 -66.5t115.5 -13.5z" />
    <glyph glyph-name="uni06CD.fina" unicode="&#x6cd;" horiz-adv-x="1543" 
d="M901 -514q-220 0 -358.5 85t-204 227.5t-65.5 316.5q0 60 7 122l-253 -146l58 295l268 153q0 2 1 3l243 -88q-30 -87 -48 -173t-18 -162q0 -97 34.5 -175.5t115.5 -125t220 -46.5q159 0 255.5 33t139.5 74t43 64q0 35 -33.5 46t-106.5 11h-158q-41 0 -52 21t-21 56
l-43 155q-7 25 -4.5 41t38.5 16h604v-289h8q9 -35 9 -56q0 -122 -80.5 -226.5t-232 -168t-366.5 -63.5z" />
    <glyph glyph-name="uni06CE.init" unicode="&#x6ce;" horiz-adv-x="663" 
d="M193 0h-215v289h216q76 0 104.5 47.5t28.5 120.5q0 68 -16.5 148.5t-33.5 157.5l262 68q19 -94 30.5 -186.5t11.5 -176.5q0 -133 -35.5 -239t-120.5 -167.5t-232 -61.5zM4 -128l170 -168l168 168l171 -170l-171 -172l-168 170l-170 -170l-170 172zM309 968l-163 331
l104 51l119 -242l119 242l104 -51l-163 -331h-120z" />
    <glyph glyph-name="uni06CE.medi" unicode="&#x6ce;" horiz-adv-x="743" 
d="M-22 289h151q110 0 151.5 37.5t41.5 137.5q0 59 -3 114.5t-7 108.5l250 31l20 -286q5 -76 42 -109.5t118 -33.5h21v-289h-23q-100 0 -171.5 36t-117.5 94q-61 -61 -144.5 -95.5t-177.5 -34.5h-151v289zM4 -128l170 -168l168 168l171 -170l-171 -172l-168 170l-170 -170
l-170 172zM356 854l-163 331l104 51l119 -242l119 242l104 -51l-163 -331h-120z" />
    <glyph glyph-name="uni06CE.fina" unicode="&#x6ce;" horiz-adv-x="1354" 
d="M363 666l-163 331l104 51l119 -242l119 242l104 -51l-163 -331h-120zM713 -514q-220 0 -358.5 85t-204 227.5t-65.5 316.5q0 99 19.5 207t61.5 220l243 -88q-30 -87 -48 -173t-18 -162q0 -97 34.5 -175.5t115.5 -125t220 -46.5q159 0 255 33t139.5 74t43.5 64
q0 35 -33.5 46t-106.5 11h-158q-41 0 -52 21t-21 56l-43 155q-7 25 -4.5 41t38.5 16h604v-289h8q9 -35 9 -56q0 -122 -80.5 -226.5t-232 -168t-366.5 -63.5z" />
    <glyph glyph-name="uni06CF.fina" unicode="&#x6cf;" horiz-adv-x="929" 
d="M462 846q131 0 218.5 -80t135.5 -207t58 -270h75v-289h-95q-57 -228 -224 -358.5t-456 -186.5l-99 267q126 24 233.5 64t182 94t99.5 120h-94q-202 0 -308 84.5t-106 273.5q0 75 22.5 159.5t69.5 159t118.5 122t169.5 47.5zM495 289h128q-6 56 -23.5 119.5t-51 108
t-88.5 44.5q-47 0 -74.5 -34t-39 -79t-11.5 -79q0 -53 44.5 -66.5t115.5 -13.5zM454 1314l180 -180l-180 -179l-179 179z" />
    <glyph glyph-name="uni06D0.init" unicode="&#x6d0;" horiz-adv-x="662" arabic-form="initial" 
d="M183 0h-205v289h206q76 0 104.5 47.5t28.5 120.5q0 68 -16.5 148.5t-33.5 157.5l262 68q19 -94 30.5 -186.5t11.5 -176.5q0 -133 -36 -239t-120.5 -167.5t-231.5 -61.5zM214 -87l173 -172l-142 -145l142 -141l-173 -177l-172 177l141 141l-141 145z" />
    <glyph glyph-name="uni06D0.medi" unicode="&#x6d0;" horiz-adv-x="734" arabic-form="medial" 
d="M-22 289h142q110 0 151.5 37.5t41.5 137.5q0 59 -3 114.5t-7 108.5l250 31l20 -286q5 -76 42 -109.5t118 -33.5h21v-289h-23q-100 0 -171.5 36t-117.5 94q-61 -61 -144.5 -95.5t-177.5 -34.5h-142v289zM214 -87l173 -172l-142 -145l142 -141l-173 -177l-172 177l141 141
l-141 145z" />
    <glyph glyph-name="uni06D0.fina" unicode="&#x6d0;" horiz-adv-x="1354" arabic-form="final" 
d="M713 -514q-220 0 -358.5 85t-204 227.5t-65.5 316.5q0 99 19.5 207t61.5 220l243 -88q-30 -87 -48 -173t-18 -162q0 -97 34.5 -175.5t115.5 -125t220 -46.5q159 0 255 33t139.5 74t43.5 64q0 35 -33.5 46t-106.5 11h-158q-41 0 -52 21t-21 56l-43 155q-7 25 -4.5 41
t38.5 16h604v-289h8q9 -35 9 -56q0 -122 -80.5 -226.5t-232 -168t-366.5 -63.5zM739 -536l173 -172l-142 -145l142 -141l-173 -177l-172 177l141 141l-141 145z" />
    <glyph glyph-name="uni06D5.fina" unicode="&#x6d5;" horiz-adv-x="1096" 
d="M1081 0q-282 0 -360 239q-118 -90 -251 -90q-166 0 -277 90.5t-111 267.5q0 130 75 222.5t193.5 155.5t247.5 102l-7 48l242 49l95 -642q8 -55 47 -104t110 -49h31v-289h-35zM666 547q0 14 -2.5 31.5t-5.5 36.5l-17 105q-71 -24 -139.5 -55.5t-113 -69t-44.5 -80.5
q0 -41 33.5 -66.5t87.5 -25.5q46 0 92.5 13.5t77.5 41t31 69.5z" />
    <glyph glyph-name="uniFB50" unicode="&#x671;" horiz-adv-x="543" arabic-form="isolated" 
d="M407 1270v-1269h-270v1269h270zM-36 1437l22 92q31 -26 76 -48q80 134 146 193.5t148 59.5q83 0 136.5 -52t53.5 -131q0 -106 -74 -147t-246 -41h-25q-92 0 -152 17t-85 57zM224 1465q131 0 176.5 16.5t45.5 65.5q0 36 -23 59.5t-62 23.5q-49 0 -90.5 -36.5
t-101.5 -128.5h55z" />
    <glyph glyph-name="uniFB51" unicode="&#x671;" horiz-adv-x="570" arabic-form="final" 
d="M-6 1437l22 92q31 -26 76 -48q80 134 146 193.5t148 59.5q83 0 136.5 -52t53.5 -131q0 -106 -74 -147t-246 -41h-25q-92 0 -152 17t-85 57zM254 1465q131 0 176.5 16.5t45.5 65.5q0 36 -23 59.5t-62 23.5q-49 0 -90.5 -36.5t-101.5 -128.5h55zM136 1272h270v-784
q0 -106 31 -152.5t128 -46.5h25v-289h-25q-218 0 -323.5 115.5t-105.5 347.5v809z" />
    <glyph glyph-name="uniFB56" unicode="&#x67e;" horiz-adv-x="1842" arabic-form="isolated" 
d="M1121 -99l161 -161l-161 -161l-161 161zM772 -99l160 -161l-160 -161l-161 161zM946 -355l161 -161l-161 -160l-161 160zM1111 0h-231q-173 0 -318.5 21.5t-253 75.5t-167 151.5t-59.5 249.5q0 90 20 175.5t50 158.5l241 -90q-17 -47 -34.5 -109.5t-17.5 -118.5
q0 -78 42.5 -123.5t117.5 -67t172.5 -28t206.5 -6.5h234q115 0 203 13.5t138.5 49.5t50.5 103q0 66 -15.5 150t-34.5 160l263 66q20 -94 31 -186.5t11 -175.5q0 -152 -49 -245t-137.5 -141.5t-207 -65.5t-256.5 -17z" />
    <glyph glyph-name="uniFB57" unicode="&#x67e;" horiz-adv-x="1928" arabic-form="final" 
d="M1122 -99l161 -161l-161 -161l-161 161zM773 -99l160 -161l-160 -161l-161 161zM947 -355l161 -161l-161 -160l-161 160zM1497 687l250 31l20 -286q5 -76 40.5 -109.5t117.5 -33.5h23v-289h-23q-115 0 -191 42.5t-126 115.5q-91 -84 -221.5 -121t-339.5 -37h-167
q-173 0 -318.5 21.5t-253 75.5t-167 151.5t-59.5 249.5q0 90 20 175.5t50 158.5l241 -91q-17 -47 -34.5 -109t-17.5 -118q0 -78 42.5 -123.5t117.5 -67t172.5 -28t206.5 -6.5h167q145 0 248 11.5t157.5 49t54.5 116.5q0 51 -3 112t-7 109z" />
    <glyph glyph-name="uniFB58" unicode="&#x67e;" horiz-adv-x="663" arabic-form="initial" 
d="M193 0h-215v289h216q76 0 104.5 47.5t28.5 120.5q0 68 -16.5 148.5t-33.5 157.5l262 68q19 -94 30.5 -186.5t11.5 -176.5q0 -133 -35.5 -239t-120.5 -167.5t-232 -61.5zM344 -99l161 -161l-161 -161l-161 161zM-5 -99l160 -161l-160 -161l-161 161zM169 -355l161 -161
l-161 -160l-161 160z" />
    <glyph glyph-name="uniFB59" unicode="&#x67e;" horiz-adv-x="743" arabic-form="medial" 
d="M-22 289h151q110 0 151.5 37.5t41.5 137.5q0 59 -3 114.5t-7 108.5l250 31l20 -286q5 -76 42 -109.5t118 -33.5h21v-289h-23q-100 0 -171.5 36t-117.5 94q-61 -61 -144.5 -95.5t-177.5 -34.5h-151v289zM344 -99l161 -161l-161 -161l-161 161zM-5 -99l160 -161l-160 -161
l-161 161zM169 -355l161 -161l-161 -160l-161 160z" />
    <glyph glyph-name="uniFB66" unicode="&#x679;" horiz-adv-x="1842" arabic-form="isolated" 
d="M742 860q6 11 13 21.5t12 20.5v444h112v-294q41 39 85 62t93 23q85 0 138.5 -52t53.5 -132q-1 -108 -91 -158.5t-255 -50.5h-270v116h109zM902 861q126 0 178.5 24.5t52.5 64.5q0 31 -19 50t-52 19q-42 0 -92 -42.5t-103 -116.5zM1111 0h-231q-173 0 -318.5 21.5
t-253 75.5t-167 151.5t-59.5 249.5q0 90 20 175.5t50 158.5l241 -90q-17 -47 -34.5 -109.5t-17.5 -118.5q0 -78 42.5 -123.5t117.5 -67t172.5 -28t206.5 -6.5h234q115 0 203 13.5t138.5 49.5t50.5 103q0 66 -15.5 150t-34.5 160l263 66q20 -94 31 -186.5t11 -175.5
q0 -152 -49 -245t-137.5 -141.5t-207 -65.5t-256.5 -17z" />
    <glyph glyph-name="uniFB67" unicode="&#x679;" horiz-adv-x="1928" arabic-form="final" 
d="M757 863q6 11 13 21.5t12 20.5v444h112v-294q41 39 85 62t93 23q85 0 138.5 -52t53.5 -132q-1 -108 -91 -158.5t-255 -50.5h-270v116h109zM917 864q126 0 178.5 24.5t52.5 64.5q0 31 -19 50t-52 19q-42 0 -92 -42.5t-103 -116.5zM1497 687l250 31l20 -286
q5 -76 40.5 -109.5t117.5 -33.5h23v-289h-23q-115 0 -191 42.5t-126 115.5q-91 -84 -221.5 -121t-339.5 -37h-167q-173 0 -318.5 21.5t-253 75.5t-167 151.5t-59.5 249.5q0 90 20 175.5t50 158.5l241 -91q-17 -47 -34.5 -109t-17.5 -118q0 -78 42.5 -123.5t117.5 -67
t172.5 -28t206.5 -6.5h167q145 0 248 11.5t157.5 49t54.5 116.5q0 51 -3 112t-7 109z" />
    <glyph glyph-name="uniFB68" unicode="&#x679;" horiz-adv-x="620" arabic-form="initial" 
d="M87 1039q6 11 13 21.5t12 20.5v444h112v-294q41 39 85 62t93 23q85 0 138.5 -52t53.5 -132q-1 -108 -91 -158.5t-255 -50.5h-270v116h109zM247 1040q126 0 178.5 24.5t52.5 64.5q0 31 -19 50t-52 19q-42 0 -92 -42.5t-103 -116.5zM159 0h-180v289h181q76 0 104.5 47.5
t28.5 120.5q0 68 -16.5 148.5t-33.5 157.5l262 68q19 -94 30.5 -186.5t11.5 -176.5q0 -133 -36 -239t-120.5 -167.5t-231.5 -61.5z" />
    <glyph glyph-name="uniFB69" unicode="&#x679;" horiz-adv-x="707" arabic-form="medial" 
d="M87 957q6 11 13 21.5t12 20.5v444h112v-294q41 39 85 62t93 23q85 0 138.5 -52t53.5 -132q-1 -108 -91 -158.5t-255 -50.5h-270v116h109zM247 958q126 0 178.5 24.5t52.5 64.5q0 31 -19 50t-52 19q-42 0 -92 -42.5t-103 -116.5zM-21 289h117q110 0 151.5 37.5t41.5 137.5
q0 59 -3 114.5t-7 108.5l250 31l20 -286q5 -76 42 -109.5t118 -33.5h21v-289h-23q-100 0 -171.5 36t-117.5 94q-61 -61 -144.5 -95.5t-177.5 -34.5h-117v289z" />
    <glyph glyph-name="uniFB6A" unicode="&#x6a4;" horiz-adv-x="1826" arabic-form="isolated" 
d="M1312 1806l161 -160l-161 -161l-161 161zM1487 1551l161 -161l-161 -161l-161 161zM1138 1551l160 -161l-160 -161l-161 161zM1489 399q-73 -14 -155 -14q-177 0 -280 78t-103 244q0 81 26.5 162.5t75.5 148.5t118.5 107.5t156.5 40.5q116 0 195.5 -56.5t128.5 -151.5
t71 -211t22 -235q0 -208 -56 -318.5t-173.5 -152t-302.5 -41.5h-333q-173 0 -319 21.5t-253.5 75.5t-166.5 151.5t-59 249.5q0 90 20 175.5t50 158.5l241 -91q-17 -47 -34.5 -109t-17.5 -118q0 -78 43 -123.5t117.5 -67t172 -28t206.5 -6.5h353q129 0 192 16t64 94z
M1329 638q77 0 153 17q-7 48 -26.5 102t-51 92.5t-78.5 38.5q-62 0 -95.5 -55.5t-33.5 -113.5q0 -53 38.5 -67t93.5 -14z" />
    <glyph glyph-name="uniFB6B" unicode="&#x6a4;" horiz-adv-x="1928" arabic-form="final" 
d="M1427 1583l161 -160l-161 -161l-161 161zM1602 1328l161 -161l-161 -161l-161 161zM1253 1328l160 -161l-160 -161l-161 161zM880 289h80q37 0 82 0.5t86 1.5q-75 111 -75 233q0 79 33.5 153t90 133.5t127 94.5t144.5 35q77 0 149 -34.5t129.5 -94t91.5 -134.5t34 -155
q0 -124 -77 -232q23 -1 42 -1h35h96v-289h-136q-83 0 -180 24.5t-184 53.5q-60 -21 -144.5 -38.5t-169 -28.5t-143.5 -11h-111q-173 0 -318.5 21.5t-253 75.5t-167 151.5t-59.5 249.5q0 90 20 175.5t50 158.5l241 -91q-17 -47 -34.5 -109t-17.5 -118q0 -78 42.5 -123.5
t117.5 -67t172.5 -28t206.5 -6.5zM1450 662q-29 0 -62 -23t-56 -56t-23 -63q0 -37 24 -73.5t57.5 -65t61.5 -44.5q47 25 95.5 76t48.5 109q0 30 -24.5 62.5t-58.5 55t-63 22.5z" />
    <glyph glyph-name="uniFB6C" unicode="&#x6a4;" horiz-adv-x="962" arabic-form="initial" 
d="M360 289q128 0 195.5 20t68.5 99q-73 -14 -155 -14q-177 0 -280 73.5t-103 239.5q0 81 26 162.5t75.5 149t119 108t156.5 40.5q115 0 195 -57t129 -152t71 -211t22 -235q0 -208 -56.5 -318.5t-174 -152t-301.5 -41.5h-368v289h380zM465 639q38 0 76.5 4t75.5 12
q-7 48 -26 102t-51 92.5t-79 38.5q-62 0 -95.5 -55.5t-33.5 -113.5q0 -53 39 -66.5t94 -13.5zM440 1814l161 -160l-161 -161l-161 161zM615 1559l161 -161l-161 -161l-161 161zM266 1559l160 -161l-160 -161l-161 161z" />
    <glyph glyph-name="uniFB6D" unicode="&#x6a4;" horiz-adv-x="1019" arabic-form="medial" 
d="M529 1583l161 -160l-161 -161l-161 161zM704 1328l161 -161l-161 -161l-161 161zM355 1328l160 -161l-160 -161l-161 161zM943 522q0 -124 -77 -232q23 -1 42 -1h35h96v-289h-136q-83 0 -180 24.5t-184 53.5q-90 -31 -189.5 -54.5t-187.5 -23.5h-182v289h149
q23 0 42.5 0.5t47.5 1.5q-75 109 -75 233q0 79 33.5 153t90 133.5t127 94.5t144.5 35q77 0 149 -34.5t129.5 -94t91.5 -134.5t34 -155zM541 662q-29 0 -62 -23t-56 -56t-23 -63q0 -37 24 -73.5t57.5 -65t61.5 -44.5q31 17 64 45.5t56.5 65t23.5 74.5q0 30 -24.5 62.5
t-58.5 55t-63 22.5z" />
    <glyph glyph-name="uniFB7A" unicode="&#x686;" horiz-adv-x="1421" arabic-form="isolated" 
d="M1320 710l-1 -259q-127 -11 -263.5 -39.5t-264.5 -75t-230.5 -112t-163 -150t-60.5 -188.5q0 -97 57.5 -163t156 -99.5t222.5 -33.5q141 0 269 26.5t230 66.5l81 -271q-135 -54 -281 -78.5t-288 -24.5q-194 0 -353 57.5t-253.5 183.5t-94.5 330q0 144 54 261t148 206.5
t215 153.5t254 101q-94 40 -160 70t-93 30q-55 0 -98.5 -33.5t-72.5 -71.5l-53 -66l-224 109l45 73q71 116 171 192t233 76q55 0 129.5 -27t160 -67t176.5 -80t181 -68t171 -29zM1041 223l154 -153l-154 -154l-153 154zM707 223l153 -153l-153 -154l-154 154zM874 -21
l153 -154l-153 -154l-154 154z" />
    <glyph glyph-name="uniFB7B" unicode="&#x686;" horiz-adv-x="1435" arabic-form="final" 
d="M83 -120q0 144 54 261t148 206.5t215 153.5t254 101q-94 40 -160 70t-93 30q-55 0 -99 -34t-72 -71l-53 -66l-224 109l45 73q70 116 170.5 192t233.5 76q55 0 129.5 -27t160 -67t176.5 -80t181 -68t171 -29l-1 -259q-50 -4 -117.5 -11.5t-110.5 -15.5q4 -78 77.5 -106.5
t205.5 -28.5h81v-289h-78q-154 0 -266 31.5t-176.5 111t-76.5 223.5q-150 -46 -268 -116.5t-185.5 -162t-67.5 -201.5q0 -97 57.5 -163t156 -99.5t222.5 -33.5q141 0 269 26.5t230 66.5l81 -271q-135 -54 -281 -78.5t-288 -24.5q-194 0 -353 57.5t-253.5 183.5t-94.5 330z
M846 129l131 -131l-131 -131l-131 131zM561 129l131 -131l-131 -131l-131 131zM703 -80l131 -131l-131 -130l-130 130z" />
    <glyph glyph-name="uniFB7C" unicode="&#x686;" horiz-adv-x="1397" arabic-form="initial" 
d="M841 -99l161 -161l-161 -161l-161 161zM492 -99l160 -161l-160 -161l-161 161zM666 -355l161 -161l-161 -160l-161 160zM-20 289h170q129 0 243 24.5t232.5 73.5t260.5 122q-154 56 -249 99.5t-130 43.5q-54 0 -97.5 -33.5t-71.5 -70.5l-53 -67l-224 110l45 72
q71 116 170 192.5t232 76.5q56 0 130.5 -27t160 -67t177 -80t181 -68t171.5 -29v-265q-76 -10 -139 -33t-131 -59.5t-161 -85.5q-128 -68 -243.5 -117t-237 -75t-269.5 -26h-167v289z" />
    <glyph glyph-name="uniFB7D" unicode="&#x686;" horiz-adv-x="1396" arabic-form="medial" 
d="M841 -99l161 -161l-161 -161l-161 161zM492 -99l160 -161l-160 -161l-161 161zM666 -355l161 -161l-161 -160l-161 160zM1328 661v-261q-58 -6 -114 -26t-100 -40q18 -28 88.5 -36.5t158.5 -8.5h55v-289h-59q-183 0 -291 48.5t-149 181.5q-185 -99 -373 -164.5
t-397 -65.5h-167v289h170q129 0 242.5 24.5t232 73.5t261.5 122q-154 57 -249 100t-130 43q-54 0 -97.5 -33.5t-71.5 -70.5l-53 -67l-224 110l45 72q71 116 170 192.5t232 76.5q56 0 130.5 -27t160 -67t177 -80t181 -68t171.5 -29z" />
    <glyph glyph-name="uniFB88" unicode="&#x688;" horiz-adv-x="1030" arabic-form="isolated" 
d="M259 1309q6 11 13 21.5t12 20.5v444h112v-294q41 39 85 62t93 23q85 0 138.5 -52t53.5 -132q-1 -108 -91 -158.5t-255 -50.5h-270v116h109zM419 1310q126 0 178.5 24.5t52.5 64.5q0 31 -19 50t-52 19q-42 0 -92 -42.5t-103 -116.5zM351 286q82 0 160.5 11.5t130 43.5
t51.5 93q0 63 -60.5 134.5t-160 140.5t-216.5 124l123 260q106 -52 207.5 -116.5t183 -143.5t130 -175t48.5 -212q0 -160 -72.5 -258t-203.5 -142t-306 -44q-80 0 -149 5.5t-135 20.5v288q65 -13 139.5 -21.5t129.5 -8.5z" />
    <glyph glyph-name="uniFB89" unicode="&#x688;" horiz-adv-x="1115" arabic-form="final" 
d="M307 1324q6 11 13 21.5t12 20.5v444h112v-294q41 39 85 62t93 23q85 0 138.5 -52t53.5 -132q-1 -108 -91 -158.5t-255 -50.5h-270v116h109zM467 1325q126 0 178.5 24.5t52.5 64.5q0 31 -19 50t-52 19q-42 0 -92 -42.5t-103 -116.5zM652 432q0 25 -11 66t-23 67l-198 437
l238 116l249 -574q30 -69 53.5 -127t54 -93t78.5 -35h42v-289h-42q-112 0 -180.5 42.5t-120.5 109.5q-76 -73 -181 -112t-254 -39q-88 0 -149 6t-126 22v289q62 -15 131.5 -23t128.5 -8q74 0 145 12.5t118 44.5t47 88z" />
    <glyph glyph-name="uniFB8A" unicode="&#x698;" horiz-adv-x="752" arabic-form="isolated" 
d="M414 1342l161 -160l-161 -161l-161 161zM589 1087l161 -161l-161 -161l-161 161zM240 1087l160 -161l-160 -161l-161 161zM48 -546l-102 268q145 31 249.5 82.5t161.5 137.5t57 222q0 91 -29 204.5t-62 211.5l270 87q39 -109 59.5 -235t20.5 -242q0 -210 -77.5 -360.5
t-218 -244t-329.5 -131.5z" />
    <glyph glyph-name="uniFB8B" unicode="&#x698;" horiz-adv-x="817" arabic-form="final" 
d="M413 1342l161 -160l-161 -161l-161 161zM588 1087l161 -161l-161 -161l-161 161zM239 1087l160 -161l-160 -161l-161 161zM809 0q-91 0 -150 35q-40 -230 -196.5 -380t-417.5 -200l-99 267q145 31 249.5 82.5t161.5 137.5t57 222q0 91 -29 204.5t-62 211.5l269 87
l58 -226q17 -64 50 -108t98 -44h39v-289h-28z" />
    <glyph glyph-name="uniFB8C" unicode="&#x691;" horiz-adv-x="752" arabic-form="isolated" 
d="M211 904q6 11 13 21.5t12 20.5v444h112v-294q41 39 85 62t93 23q85 0 138.5 -52t53.5 -132q-1 -108 -91 -158.5t-255 -50.5h-270v116h109zM371 905q126 0 178.5 24.5t52.5 64.5q0 31 -19 50t-52 19q-42 0 -92 -42.5t-103 -116.5zM48 -546l-102 268q145 31 249.5 82.5
t161.5 137.5t57 222q0 91 -29 204.5t-62 211.5l270 87q39 -109 59.5 -235t20.5 -242q0 -210 -77.5 -360.5t-218 -244t-329.5 -131.5z" />
    <glyph glyph-name="uniFB8D" unicode="&#x691;" horiz-adv-x="817" arabic-form="final" 
d="M211 904q6 11 13 21.5t12 20.5v444h112v-294q41 39 85 62t93 23q85 0 138.5 -52t53.5 -132q-1 -108 -91 -158.5t-255 -50.5h-270v116h109zM371 905q126 0 178.5 24.5t52.5 64.5q0 31 -19 50t-52 19q-42 0 -92 -42.5t-103 -116.5zM809 0q-91 0 -150 35
q-40 -230 -196.5 -380t-417.5 -200l-99 267q145 31 249.5 82.5t161.5 137.5t57 222q0 91 -29 204.5t-62 211.5l269 87l58 -226q17 -64 50 -108t98 -44h39v-289h-28z" />
    <glyph glyph-name="uniFB8E" unicode="&#x6a9;" horiz-adv-x="1843" arabic-form="isolated" 
d="M1133 0h-253q-172 0 -318 21.5t-253.5 75.5t-167 151.5t-59.5 249.5q0 90 20 175.5t50 158.5l241 -91q-17 -47 -34.5 -109t-17.5 -118q0 -78 42.5 -123.5t117.5 -67t172.5 -28t206.5 -6.5h252q160 0 240 22.5t80 92.5q0 33 -49 76.5t-122.5 92t-150 96t-132.5 87.5
q-41 30 -63 80t-22 102q0 56 26 105t81 71l772 315v-286l-540 -219q134 -80 237 -156.5t162 -164.5t59 -203q0 -157 -72 -244t-202 -121.5t-303 -34.5z" />
    <glyph glyph-name="uniFB8F" unicode="&#x6a9;" horiz-adv-x="1954" arabic-form="final" 
d="M1133 0h-253q-172 0 -318 21.5t-253.5 75.5t-167 151.5t-59.5 249.5q0 90 20 176t50 159l241 -91q-17 -47 -34.5 -109.5t-17.5 -118.5q0 -78 42.5 -123.5t117.5 -67t172.5 -28t206.5 -6.5h252q160 0 240 22.5t80 92.5q0 33 -49 76.5t-122.5 92t-150 96t-132.5 87.5
q-42 31 -64 81.5t-22 103.5q0 58 26.5 104.5t81.5 68.5l772 315v-286l-540 -219q133 -80 219 -143t140.5 -130.5t93.5 -162.5q30 -72 57.5 -116t69.5 -63.5t115 -19.5h27v-289h-27q-121 0 -202.5 35.5t-138.5 118.5q-52 -58 -113.5 -91.5t-147 -48t-212.5 -14.5z" />
    <glyph glyph-name="uniFB90" unicode="&#x6a9;" horiz-adv-x="934" arabic-form="initial" 
d="M342 924q134 -80 237.5 -156.5t162.5 -164.5t59 -203q0 -157 -72 -244t-202 -121.5t-303 -34.5h-244v289h243q160 0 240 22.5t80 92.5q0 33 -49 76.5t-122.5 92t-150 96t-132.5 87.5q-42 30 -63.5 80t-21.5 102q0 56 26 105t81 71l772 315v-286z" />
    <glyph glyph-name="uniFB91" unicode="&#x6a9;" horiz-adv-x="1046" arabic-form="medial" 
d="M342 924q134 -79 220 -142t140.5 -131t93.5 -163q30 -72 57.5 -116t69.5 -63.5t115 -19.5h28v-289h-28q-121 0 -202.5 35.5t-138.5 118.5q-52 -58 -113.5 -91.5t-147 -48t-212.5 -14.5h-244v289h243q160 0 240 22.5t80 92.5q0 33 -49 76.5t-122.5 92t-150 96t-132.5 87.5
q-42 31 -64 81.5t-22 104.5q0 57 26.5 103.5t81.5 68.5l772 315v-286z" />
    <glyph glyph-name="uniFB92" unicode="&#x6af;" horiz-adv-x="1843" arabic-form="isolated" 
d="M966 1197v152l813 331v-152zM1133 0h-253q-172 0 -318 21.5t-253.5 75.5t-167 151.5t-59.5 249.5q0 90 20 175.5t50 158.5l241 -91q-17 -47 -34.5 -109t-17.5 -118q0 -78 42.5 -123.5t117.5 -67t172.5 -28t206.5 -6.5h252q160 0 240 22.5t80 92.5q0 33 -49 76.5
t-122.5 92t-150 96t-132.5 87.5q-41 30 -63 80t-22 102q0 56 26 105t81 71l772 315v-286l-540 -219q134 -80 237 -156.5t162 -164.5t59 -203q0 -157 -72 -244t-202 -121.5t-303 -34.5z" />
    <glyph glyph-name="uniFB93" unicode="&#x6af;" horiz-adv-x="1954" arabic-form="final" 
d="M966 1197v152l813 331v-152zM1133 0h-253q-172 0 -318 21.5t-253.5 75.5t-167 151.5t-59.5 249.5q0 90 20 176t50 159l241 -91q-17 -47 -34.5 -109.5t-17.5 -118.5q0 -78 42.5 -123.5t117.5 -67t172.5 -28t206.5 -6.5h252q160 0 240 22.5t80 92.5q0 33 -49 76.5
t-122.5 92t-150 96t-132.5 87.5q-42 31 -64 81.5t-22 103.5q0 58 26.5 104.5t81.5 68.5l772 315v-286l-540 -219q133 -80 219 -143t140.5 -130.5t93.5 -162.5q30 -72 57.5 -116t69.5 -63.5t115 -19.5h27v-289h-27q-121 0 -202.5 35.5t-138.5 118.5q-52 -58 -113.5 -91.5
t-147 -48t-212.5 -14.5z" />
    <glyph glyph-name="uniFB94" unicode="&#x6af;" horiz-adv-x="934" arabic-form="initial" 
d="M57 1197v152l813 331v-152zM342 924q134 -80 237.5 -156.5t162.5 -164.5t59 -203q0 -157 -72 -244t-202 -121.5t-303 -34.5h-244v289h243q160 0 240 22.5t80 92.5q0 33 -49 76.5t-122.5 92t-150 96t-132.5 87.5q-42 30 -63.5 80t-21.5 102q0 56 26 105t81 71l772 315
v-286z" />
    <glyph glyph-name="uniFB95" unicode="&#x6af;" horiz-adv-x="1046" arabic-form="medial" 
d="M57 1197v152l813 331v-152zM342 924q134 -79 220 -142t140.5 -131t93.5 -163q30 -72 57.5 -116t69.5 -63.5t115 -19.5h28v-289h-28q-121 0 -202.5 35.5t-138.5 118.5q-52 -58 -113.5 -91.5t-147 -48t-212.5 -14.5h-244v289h243q160 0 240 22.5t80 92.5q0 33 -49 76.5
t-122.5 92t-150 96t-132.5 87.5q-42 31 -64 81.5t-22 104.5q0 57 26.5 103.5t81.5 68.5l772 315v-286z" />
    <glyph glyph-name="uniFB9E" unicode="&#x6ba;" horiz-adv-x="1435" arabic-form="isolated" 
d="M713 -156q145 0 228 46t118.5 125.5t35.5 179.5q0 107 -34.5 221.5t-77.5 219.5l267 100q56 -151 79.5 -277t23.5 -257q0 -298 -163.5 -471t-476.5 -173q-215 0 -354.5 82t-206.5 224t-67 321q0 119 26 246t75 254l243 -93q-37 -106 -62 -207t-25 -189q0 -96 34 -176
t115 -128t222 -48z" />
    <glyph glyph-name="uniFB9F" unicode="&#x6ba;" horiz-adv-x="1503" arabic-form="final" 
d="M713 -228q144 0 227.5 46t119 125t35.5 179q0 108 -34.5 222.5t-77.5 218.5l267 100l80 -243q17 -52 52 -91.5t101 -39.5h40v-289h-36q-43 0 -75 7t-60 27q-32 -253 -194 -400.5t-445 -147.5q-215 0 -354.5 82t-206.5 224t-67 320q0 119 26 246.5t75 254.5l243 -93
q-37 -106 -62 -207t-25 -189q0 -96 34 -176t115 -128t222 -48z" />
    <glyph glyph-name="uniFBA7" unicode="&#x6c1;" horiz-adv-x="991" arabic-form="final" 
d="M529 421q-28 0 -61 -41t-63.5 -107.5t-52.5 -146.5t-29 -158l-245 60q11 117 47 240t94.5 228t137 169.5t174.5 64.5q87 0 140.5 -43t86 -103.5t56.5 -115.5q17 -39 36 -80.5t49.5 -70t79.5 -28.5h32v-289h-31q-120 0 -196.5 49.5t-123.5 126t-82 156.5q-13 31 -23.5 60
t-25.5 29z" />
    <glyph glyph-name="uniFBA8" unicode="&#x6c1;" horiz-adv-x="609" arabic-form="initial" 
d="M139 0h-159v289h160q76 0 104.5 47.5t28.5 120.5q0 68 -16.5 148.5t-33.5 157.5l262 68q19 -94 30.5 -186.5t11.5 -176.5q0 -133 -36 -239t-120.5 -167.5t-231.5 -61.5zM436 -174q-43 -40 -73 -83t-39 -101q45 -9 68.5 -42t23.5 -83q0 -60 -34.5 -97.5t-96.5 -37.5
q-73 0 -109.5 43.5t-36.5 113.5q0 119 52.5 212t138.5 160z" />
    <glyph glyph-name="uniFBA9" unicode="&#x6c1;" horiz-adv-x="1020" arabic-form="medial" 
d="M779 -260q0 -28 1.5 -57t3.5 -58l-175 -163q-88 48 -175.5 121t-153 182t-89.5 263q-33 -13 -68.5 -20.5t-76.5 -7.5h-66v289h68q93 0 153.5 32t108 82t99.5 103l182 -202q-48 -43 -96 -95.5t-48 -116.5q0 -51 18.5 -104.5t45.5 -97.5t52 -67q12 119 59.5 225.5
t141.5 173.5t243 67h33v-289h-35q-125 0 -175.5 -60.5t-50.5 -199.5z" />
    <glyph glyph-name="uniFBAA" unicode="&#x6be;" horiz-adv-x="1604" arabic-form="isolated" 
d="M40 289h182q33 0 62.5 1t60.5 3q-31 40 -50 106.5t-19 123.5q0 85 42 167t126 137t209 59l96 190q186 -88 330.5 -161t243 -144t149.5 -153.5t51 -190.5q0 -204 -122 -310.5t-323 -106.5q-105 0 -220 26t-192 51q-90 -31 -205.5 -59t-225.5 -28h-118zM525 525
q0 -55 50 -102.5t108 -65.5q27 6 62.5 27.5t61.5 53t26 67.5q0 60 -43 108t-105 48q-64 0 -112 -40.5t-48 -95.5zM963 289q47 -8 91 -12t63 -4q59 0 108 30.5t49 115.5q0 21 -15.5 48.5t-66 67.5t-154.5 98q14 -43 14 -89q0 -78 -24.5 -141.5t-64.5 -113.5z" />
    <glyph glyph-name="uniFBAB" unicode="&#x6be;" horiz-adv-x="1186" arabic-form="final" 
d="M50 289h263v23q0 96 20.5 203t67 201.5t123 153.5t187.5 59q96 0 165 -46.5t105.5 -126t36.5 -178.5q0 -93 -35 -183.5t-95 -169t-136.5 -136t-160.5 -84.5q14 -43 48.5 -93t74.5 -85q21 86 67.5 168t109.5 148.5t135.5 106t146.5 39.5h33v-289h-35q-130 0 -177.5 -66.5
t-47.5 -200.5q0 -25 1 -52.5t3 -55.5l-175 -163q-98 47 -190 132t-159.5 191t-92.5 215h-205zM700 650q-37 0 -63.5 -34t-43 -86.5t-24 -111t-7.5 -106.5v-23q61 5 112 43t82.5 97.5t31.5 127.5q0 43 -24 68t-64 25z" />
    <glyph glyph-name="uniFBAC" unicode="&#x6be;" horiz-adv-x="1449" arabic-form="initial" 
d="M510 87q-90 -31 -205.5 -59t-225.5 -28h-99v289h86q33 0 62.5 1t60.5 3q-31 40 -50 106.5t-19 123.5q0 85 42 167t126 137t209 59l96 190q186 -88 330.5 -161t243 -144t149.5 -153.5t51 -190.5q0 -204 -122 -310.5t-323 -106.5q-105 0 -220 26t-192 51zM369 525
q0 -55 50 -102.5t108 -65.5q27 6 62.5 27.5t61.5 53t26 67.5q0 60 -43 108t-105 48q-64 0 -112 -40.5t-48 -95.5zM807 289q47 -8 91 -12t63 -4q59 0 108 30.5t49 115.5q0 21 -15.5 48.5t-66 67.5t-154.5 98q14 -43 14 -89q0 -78 -24.5 -141.5t-64.5 -113.5z" />
    <glyph glyph-name="uniFBAD" unicode="&#x6be;" horiz-adv-x="1020" arabic-form="medial" 
d="M-20 0v289h167v23q0 96 20.5 203t67 201.5t123 153.5t187.5 59q96 0 165 -46.5t105.5 -126t36.5 -178.5q0 -93 -35 -183.5t-95 -169t-136.5 -136t-160.5 -84.5q14 -43 48.5 -93t74.5 -85q21 86 67.5 168t109.5 148.5t135.5 106t146.5 39.5h33v-289h-35
q-130 0 -177.5 -66.5t-47.5 -200.5q0 -25 1 -52.5t3 -55.5l-175 -163q-98 47 -190 132t-159.5 191t-92.5 215h-187zM534 650q-37 0 -63.5 -34t-43 -86.5t-24 -111t-7.5 -106.5v-23q61 5 112 43t82.5 97.5t31.5 127.5q0 43 -24 68t-64 25z" />
    <glyph glyph-name="uniFBAE" unicode="&#x6d2;" horiz-adv-x="1868" arabic-form="isolated" 
d="M867 279q213 0 378 12.5t296.5 31t243.5 34.5l11 -288q-154 -20 -378 -44t-549 -24q-99 0 -208 9t-212 32.5t-186 66t-132 109t-49 161.5q0 70 26.5 120.5t67.5 90t84.5 76.5t77.5 80q29 38 57.5 87t61.5 95.5t75 77t99 30.5q56 0 116 -46t116 -112.5t98.5 -131
t62.5 -100.5l-174 -177q-46 62 -98 128.5t-105 120.5q-34 -52 -59 -90t-66 -87q-35 -40 -75 -67t-68.5 -44t-28.5 -28q0 -19 40 -37t103.5 -33.5t134.5 -27.5t135 -18.5t104 -6.5z" />
    <glyph glyph-name="uniFBAF" unicode="&#x6d2;" horiz-adv-x="1674" arabic-form="final" 
d="M875 -227q142 0 238.5 7.5t163 20t116.5 27t98 29.5l60 -262q-88 -22 -182.5 -42t-212.5 -32.5t-279 -12.5q-99 0 -208.5 7t-214 27.5t-188.5 58.5t-134 99t-50 151q0 84 59.5 162t155.5 140.5t207.5 99t215.5 36.5h973v-289h-977q-52 0 -112 -16t-113.5 -39.5t-87.5 -45
t-34 -32.5q0 -20 55.5 -37t138.5 -30t168 -20t144 -7z" />
    <glyph glyph-name="uniFBB0" unicode="&#x6d3;" horiz-adv-x="1868" arabic-form="isolated" 
d="M560 1246q-34 27 -51.5 60t-17.5 86q0 89 62 146.5t141 57.5q43 0 71.5 -9t57.5 -26l1 -118q-59 30 -116 30q-40 0 -74 -24t-34 -70q1 -27 26 -50t78 -16l8 2l144 52l17 -115l-400 -158l-16 112zM867 279q213 0 378 12.5t296.5 31t243.5 34.5l11 -288q-154 -20 -378 -44
t-549 -24q-99 0 -208 9t-212 32.5t-186 66t-132 109t-49 161.5q0 70 26.5 120.5t67.5 90t84.5 76.5t77.5 80q29 38 57.5 87t61.5 95.5t75 77t99 30.5q56 0 116 -46t116 -112.5t98.5 -131t62.5 -100.5l-174 -177q-46 62 -98 128.5t-105 120.5q-34 -52 -59 -90t-66 -87
q-35 -40 -75 -67t-68.5 -44t-28.5 -28q0 -19 40 -37t103.5 -33.5t134.5 -27.5t135 -18.5t104 -6.5z" />
    <glyph glyph-name="uniFBB1" unicode="&#x6d3;" horiz-adv-x="1673" arabic-form="final" 
d="M586 541q-34 27 -51.5 60t-17.5 86q0 89 62 146.5t141 57.5q43 0 71.5 -9t57.5 -26l1 -118q-59 30 -116 30q-40 0 -74 -24t-34 -70q1 -27 26 -50t78 -16l8 2l144 52l17 -115l-400 -158l-16 112zM874 -227q142 0 238.5 7.5t163 20t116.5 27t98 29.5l60 -262
q-88 -22 -182.5 -42t-212.5 -32.5t-279 -12.5q-99 0 -208.5 7t-214 27.5t-188.5 58.5t-134 99t-50 151q0 84 59.5 162t155.5 140.5t207.5 99t215.5 36.5h974v-289h-978q-52 0 -112 -16t-113.5 -39.5t-87.5 -45t-34 -32.5q0 -20 55.5 -37t138.5 -30t168 -20t144 -7z" />
    <glyph glyph-name="uniFBD3" unicode="&#x6ad;" horiz-adv-x="1864" arabic-form="isolated" 
d="M880 289h150q140 0 224.5 10.5t129 35.5t59.5 69.5t15 113.5v884h269v-881q0 -168 -43 -271t-128.5 -157t-213 -73.5t-297.5 -19.5h-165q-171 0 -316.5 21t-253.5 75t-168 151.5t-60 250.5q0 90 20 175.5t50 158.5l241 -91q-17 -47 -34.5 -109.5t-17.5 -118.5
q0 -103 73.5 -150.5t196 -60.5t269.5 -13zM715 706q74 -16 161 -16q60 0 104 9t44 27q0 10 -27.5 17t-68.5 16.5t-82 27.5t-69 49.5t-28 81.5q0 65 35.5 112.5t92.5 78.5t122.5 46.5t125.5 15.5l9 -153q-25 0 -65.5 -7t-81.5 -19t-68.5 -28.5t-27.5 -36.5q0 -14 37.5 -23
t88.5 -23t90 -43q25 -19 40 -45t15 -63q0 -71 -41.5 -111.5t-107.5 -57t-140 -16.5q-40 0 -80.5 4t-77.5 10v147zM942 1804l161 -160l-161 -161l-161 161zM1117 1549l161 -161l-161 -161l-161 161zM768 1549l160 -161l-160 -161l-161 161z" />
    <glyph glyph-name="uniFBD4" unicode="&#x6ad;" horiz-adv-x="1888" arabic-form="final" 
d="M943 1804l161 -160l-161 -161l-161 161zM1118 1549l161 -161l-161 -161l-161 161zM769 1549l160 -161l-160 -161l-161 161zM880 289h150q141 0 226 10.5t128.5 35.5t58.5 69.5t15 113.5v884h269v-881q0 -77 7.5 -128.5t38 -77.5t98.5 -26h37v-289h-35q-123 0 -189 31.5
t-109 107.5q-106 -93 -240.5 -116t-297.5 -23h-157q-171 0 -316.5 21t-253.5 75t-168 151.5t-60 250.5q0 90 20 175.5t50 158.5l241 -91q-17 -47 -34.5 -109.5t-17.5 -118.5q0 -103 73.5 -150.5t196 -60.5t269.5 -13zM715 706q74 -16 161 -16q60 0 104 9t44 27
q0 10 -27.5 17t-68.5 16.5t-82 27.5t-69 49.5t-28 81.5q0 65 35.5 112.5t92.5 78.5t122.5 46.5t125.5 15.5l9 -153q-25 0 -65.5 -7t-81.5 -19t-68.5 -28.5t-27.5 -36.5q0 -14 37.5 -23t88.5 -23t90 -43q25 -19 40 -45t15 -63q0 -71 -41.5 -111.5t-107.5 -57t-140 -16.5
q-40 0 -80.5 4t-77.5 10v147z" />
    <glyph glyph-name="uniFBD5" unicode="&#x6ad;" horiz-adv-x="934" arabic-form="initial" 
d="M401 1970l161 -160l-161 -161l-161 161zM576 1715l161 -161l-161 -161l-161 161zM227 1715l160 -161l-160 -161l-161 161zM342 924q134 -80 237.5 -156.5t162.5 -164.5t59 -203q0 -157 -72 -244t-202 -121.5t-303 -34.5h-244v289h243q160 0 240 22.5t80 92.5
q0 33 -49 76.5t-122.5 92t-150 96t-132.5 87.5q-42 30 -63.5 80t-21.5 102q0 56 26 105t81 71l772 315v-286z" />
    <glyph glyph-name="uniFBD6" unicode="&#x6ad;" horiz-adv-x="1046" arabic-form="medial" 
d="M401 1970l161 -160l-161 -161l-161 161zM576 1715l161 -161l-161 -161l-161 161zM227 1715l160 -161l-160 -161l-161 161zM342 924q134 -79 220 -142t140.5 -131t93.5 -163q30 -72 57.5 -116t69.5 -63.5t115 -19.5h28v-289h-28q-121 0 -202.5 35.5t-138.5 118.5
q-52 -58 -113.5 -91.5t-147 -48t-212.5 -14.5h-244v289h243q160 0 240 22.5t80 92.5q0 33 -49 76.5t-122.5 92t-150 96t-132.5 87.5q-42 31 -64 81.5t-22 104.5q0 57 26.5 103.5t81.5 68.5l772 315v-286z" />
    <glyph glyph-name="uniFBD7" unicode="&#x6c7;" horiz-adv-x="960" arabic-form="isolated" 
d="M677 1081q-19 1 -34 2t-38 4q-54 -71 -146.5 -107.5t-219.5 -43.5l-15 93q93 8 167.5 29t112.5 53q-67 8 -123 50t-56 129q0 70 50 121t124 51t123.5 -48t49.5 -125q0 -57 -22 -118q18 -3 39 -4zM551 1193q10 23 17.5 48.5t7.5 46.5q0 35 -21 55.5t-52 20.5
q-36 0 -58 -24.5t-22 -53.5q0 -43 39.5 -61.5t88.5 -31.5zM879 222q0 -234 -86.5 -389t-244.5 -246t-374 -132l-99 267q204 39 341.5 111t174.5 177q-25 -5 -52 -8.5t-49 -3.5q-190 0 -299 84t-109 276q0 81 24 165.5t71.5 157t119 117t165.5 44.5q111 0 190.5 -53.5
t129.5 -142.5t73.5 -199.5t23.5 -224.5zM486 286q43 0 78.5 5t58.5 10q-6 51 -23 111.5t-50.5 104.5t-89.5 44q-48 0 -75.5 -34.5t-38.5 -80t-11 -77.5q0 -54 43.5 -68.5t107.5 -14.5z" />
    <glyph glyph-name="uniFBD8" unicode="&#x6c7;" horiz-adv-x="929" arabic-form="final" 
d="M677 1081q-19 1 -34 2t-38 4q-54 -71 -146.5 -107.5t-219.5 -43.5l-15 93q93 8 167.5 29t112.5 53q-67 8 -123 50t-56 129q0 70 50 121t124 51t123.5 -48t49.5 -125q0 -57 -22 -118q18 -3 39 -4zM551 1193q10 23 17.5 48.5t7.5 46.5q0 35 -21 55.5t-52 20.5
q-36 0 -58 -24.5t-22 -53.5q0 -43 39.5 -61.5t88.5 -31.5zM462 846q131 0 218.5 -80t135.5 -207t58 -270h75v-289h-95q-57 -228 -224 -358.5t-456 -186.5l-99 267q126 24 233.5 64t182 94t99.5 120h-94q-202 0 -308 84.5t-106 273.5q0 75 22.5 159.5t69.5 159t118.5 122
t169.5 47.5zM495 289h128q-6 56 -23.5 119.5t-51 108t-88.5 44.5q-47 0 -74.5 -34t-39 -79t-11.5 -79q0 -53 44.5 -66.5t115.5 -13.5z" />
    <glyph glyph-name="uniFBD9" unicode="&#x6c6;" horiz-adv-x="960" arabic-form="isolated" 
d="M403 974l-163 331l104 51l119 -242l119 242l104 -51l-163 -331h-120zM879 222q0 -234 -86.5 -389t-244.5 -246t-374 -132l-99 267q204 39 341.5 111t174.5 177q-25 -5 -52 -8.5t-49 -3.5q-190 0 -299 84t-109 276q0 81 24 165.5t71.5 157t119 117t165.5 44.5
q111 0 190.5 -53.5t129.5 -142.5t73.5 -199.5t23.5 -224.5zM486 286q43 0 78.5 5t58.5 10q-6 51 -23 111.5t-50.5 104.5t-89.5 44q-48 0 -75.5 -34.5t-38.5 -80t-11 -77.5q0 -54 43.5 -68.5t107.5 -14.5z" />
    <glyph glyph-name="uniFBDA" unicode="&#x6c6;" horiz-adv-x="929" arabic-form="final" 
d="M403 974l-163 331l104 51l119 -242l119 242l104 -51l-163 -331h-120zM462 846q131 0 218.5 -80t135.5 -207t58 -270h75v-289h-95q-57 -228 -224 -358.5t-456 -186.5l-99 267q126 24 233.5 64t182 94t99.5 120h-94q-202 0 -308 84.5t-106 273.5q0 75 22.5 159.5t69.5 159
t118.5 122t169.5 47.5zM495 289h128q-6 56 -23.5 119.5t-51 108t-88.5 44.5q-47 0 -74.5 -34t-39 -79t-11.5 -79q0 -53 44.5 -66.5t115.5 -13.5z" />
    <glyph glyph-name="uniFBDB" unicode="&#x6c8;" horiz-adv-x="960" arabic-form="isolated" 
d="M401 991v379h105v-379h-105zM879 222q0 -234 -86.5 -389t-244.5 -246t-374 -132l-99 267q204 39 341.5 111t174.5 177q-25 -5 -52 -8.5t-49 -3.5q-190 0 -299 84t-109 276q0 81 24 165.5t71.5 157t119 117t165.5 44.5q111 0 190.5 -53.5t129.5 -142.5t73.5 -199.5
t23.5 -224.5zM486 286q43 0 78.5 5t58.5 10q-6 51 -23 111.5t-50.5 104.5t-89.5 44q-48 0 -75.5 -34.5t-38.5 -80t-11 -77.5q0 -54 43.5 -68.5t107.5 -14.5z" />
    <glyph glyph-name="uniFBDC" unicode="&#x6c8;" horiz-adv-x="929" arabic-form="final" 
d="M462 846q131 0 218.5 -80t135.5 -207t58 -270h75v-289h-95q-57 -228 -224 -358.5t-456 -186.5l-99 267q126 24 233.5 64t182 94t99.5 120h-94q-202 0 -308 84.5t-106 273.5q0 75 22.5 159.5t69.5 159t118.5 122t169.5 47.5zM495 289h128q-6 56 -23.5 119.5t-51 108
t-88.5 44.5q-47 0 -74.5 -34t-39 -79t-11.5 -79q0 -53 44.5 -66.5t115.5 -13.5zM401 991v379h105v-379h-105z" />
    <glyph glyph-name="uniFBDE" unicode="&#x6cb;" horiz-adv-x="960" arabic-form="isolated" 
d="M455 1496l161 -160l-161 -161l-161 161zM630 1241l161 -161l-161 -161l-161 161zM281 1241l160 -161l-160 -161l-161 161zM879 222q0 -234 -86.5 -389t-244.5 -246t-374 -132l-99 267q204 39 341.5 111t174.5 177q-25 -5 -52 -8.5t-49 -3.5q-190 0 -299 84t-109 276
q0 81 24 165.5t71.5 157t119 117t165.5 44.5q111 0 190.5 -53.5t129.5 -142.5t73.5 -199.5t23.5 -224.5zM486 286q43 0 78.5 5t58.5 10q-6 51 -23 111.5t-50.5 104.5t-89.5 44q-48 0 -75.5 -34.5t-38.5 -80t-11 -77.5q0 -54 43.5 -68.5t107.5 -14.5z" />
    <glyph glyph-name="uniFBDF" unicode="&#x6cb;" horiz-adv-x="929" arabic-form="final" 
d="M456 1496l161 -160l-161 -161l-161 161zM631 1241l161 -161l-161 -161l-161 161zM282 1241l160 -161l-160 -161l-161 161zM462 846q131 0 218.5 -80t135.5 -207t58 -270h75v-289h-95q-57 -228 -224 -358.5t-456 -186.5l-99 267q126 24 233.5 64t182 94t99.5 120h-94
q-202 0 -308 84.5t-106 273.5q0 75 22.5 159.5t69.5 159t118.5 122t169.5 47.5zM495 289h128q-6 56 -23.5 119.5t-51 108t-88.5 44.5q-47 0 -74.5 -34t-39 -79t-11.5 -79q0 -53 44.5 -66.5t115.5 -13.5z" />
    <glyph glyph-name="uniFBE2" unicode="&#x6c9;" horiz-adv-x="960" arabic-form="isolated" 
d="M689 988l-104 -51l-119 242l-119 -242l-104 51l163 331h120zM879 222q0 -234 -86.5 -389t-244.5 -246t-374 -132l-99 267q204 39 341.5 111t174.5 177q-25 -5 -52 -8.5t-49 -3.5q-190 0 -299 84t-109 276q0 81 24 165.5t71.5 157t119 117t165.5 44.5q111 0 190.5 -53.5
t129.5 -142.5t73.5 -199.5t23.5 -224.5zM486 286q43 0 78.5 5t58.5 10q-6 51 -23 111.5t-50.5 104.5t-89.5 44q-48 0 -75.5 -34.5t-38.5 -80t-11 -77.5q0 -54 43.5 -68.5t107.5 -14.5z" />
    <glyph glyph-name="uniFBE3" unicode="&#x6c9;" horiz-adv-x="929" arabic-form="final" 
d="M689 988l-104 -51l-119 242l-119 -242l-104 51l163 331h120zM462 846q131 0 218.5 -80t135.5 -207t58 -270h75v-289h-95q-57 -228 -224 -358.5t-456 -186.5l-99 267q126 24 233.5 64t182 94t99.5 120h-94q-202 0 -308 84.5t-106 273.5q0 75 22.5 159.5t69.5 159
t118.5 122t169.5 47.5zM495 289h128q-6 56 -23.5 119.5t-51 108t-88.5 44.5q-47 0 -74.5 -34t-39 -79t-11.5 -79q0 -53 44.5 -66.5t115.5 -13.5z" />
    <glyph glyph-name="uniFBE8" unicode="&#x649;" horiz-adv-x="609" arabic-form="initial" 
d="M139 0h-159v289h160q76 0 104.5 47.5t28.5 120.5q0 68 -16.5 148.5t-33.5 157.5l262 68q19 -94 30.5 -186.5t11.5 -176.5q0 -133 -36 -239t-120.5 -167.5t-231.5 -61.5z" />
    <glyph glyph-name="uniFBE9" unicode="&#x649;" horiz-adv-x="690" arabic-form="medial" 
d="M259 687l250 31l20 -286q5 -76 42 -109.5t118 -33.5h21v-289h-23q-100 0 -171.5 36t-117.5 94q-61 -61 -144.5 -95.5t-177.5 -34.5h-96v289h96q110 0 151.5 37.5t41.5 137.5q0 59 -3 114.5t-7 108.5z" />
    <glyph glyph-name="uniFBFC" unicode="&#x6cc;" horiz-adv-x="1487" arabic-form="isolated" 
d="M713 -504q-215 0 -354.5 82t-206.5 224t-67 320q0 119 26 246.5t75 254.5l243 -93q-37 -106 -62 -207t-25 -189q0 -96 34 -176t115 -128t222 -48q152 0 253 34.5t151 81.5t50 83q0 29 -36 29h-162q-51 0 -106.5 10t-103.5 43t-77.5 99t-29.5 177q0 104 34 200.5
t97.5 172.5t152.5 121t200 45q75 0 147.5 -22.5t133.5 -66.5l-92 -255q-52 29 -99.5 40.5t-87.5 11.5q-108 0 -169 -70.5t-61 -175.5q0 -27 17.5 -34t43.5 -7h146q115 0 180.5 -36t93 -99.5t27.5 -144.5q0 -143 -82 -262t-239 -190t-382 -71z" />
    <glyph glyph-name="uniFBFD" unicode="&#x6cc;" horiz-adv-x="1354" arabic-form="final" 
d="M713 -514q-220 0 -358.5 85t-204 227.5t-65.5 316.5q0 99 19.5 207t61.5 220l243 -88q-30 -87 -48 -173t-18 -162q0 -97 34.5 -175.5t115.5 -125t220 -46.5q159 0 255 33t139.5 74t43.5 64q0 35 -33.5 46t-106.5 11h-158q-41 0 -52 21t-21 56l-43 155q-7 25 -4.5 41
t38.5 16h604v-289h8q9 -35 9 -56q0 -122 -80.5 -226.5t-232 -168t-366.5 -63.5z" />
    <glyph glyph-name="uniFBFE" unicode="&#x6cc;" horiz-adv-x="663" arabic-form="initial" 
d="M193 0h-215v289h216q76 0 104.5 47.5t28.5 120.5q0 68 -16.5 148.5t-33.5 157.5l262 68q19 -94 30.5 -186.5t11.5 -176.5q0 -133 -35.5 -239t-120.5 -167.5t-232 -61.5zM4 -128l170 -168l168 168l171 -170l-171 -172l-168 170l-170 -170l-170 172z" />
    <glyph glyph-name="uniFBFF" unicode="&#x6cc;" horiz-adv-x="743" arabic-form="medial" 
d="M-22 289h151q110 0 151.5 37.5t41.5 137.5q0 59 -3 114.5t-7 108.5l250 31l20 -286q5 -76 42 -109.5t118 -33.5h21v-289h-23q-100 0 -171.5 36t-117.5 94q-61 -61 -144.5 -95.5t-177.5 -34.5h-151v289zM4 -128l170 -168l168 168l171 -170l-171 -172l-168 170l-170 -170
l-170 172z" />
    <glyph glyph-name="uniFDFC" unicode="&#xfdfc;" horiz-adv-x="3201" arabic-form="isolated" 
d="M2496 -608l-102 268q145 31 249.5 82.5t161.5 137.5t57 222q0 91 -29 204.5t-62 211.5l270 87q39 -109 59.5 -235t20.5 -242q0 -210 -77.5 -360.5t-218 -244t-329.5 -131.5zM1817 -118l170 -168l168 168l171 -170l-171 -172l-168 170l-170 -170l-170 172zM2056 0h-159
v289h160q76 0 104.5 47.5t28.5 120.5q0 68 -16.5 148.5t-33.5 157.5l262 68q19 -94 30.5 -186.5t11.5 -176.5q0 -133 -36 -239t-120.5 -167.5t-231.5 -61.5zM1486 1402h270v-914q0 -106 31 -152.5t128 -46.5h25v-289h-25q-224 0 -326.5 116t-102.5 348v938zM1233 166
q0 -316 -131 -489t-430 -173q-294 0 -442 157t-148 439q0 116 27.5 241t73.5 240l243 -93q-34 -90 -61 -195t-27 -194q0 -148 82.5 -228.5t251.5 -80.5q114 0 177.5 43.5t89 123.5t25.5 191v1254h269v-1236z" />
    <glyph glyph-name="uniFE80" unicode="&#x621;" horiz-adv-x="879" arabic-form="isolated" 
d="M377 487q0 -36 30.5 -77.5t69.5 -65.5q71 23 123.5 37t102 24t111.5 21v-260q-148 -32 -329 -100.5t-371 -166.5l-43 257q38 21 83 40t86 38q-43 48 -67.5 110.5t-24.5 132.5q0 99 44.5 180.5t123 130.5t179.5 49q102 0 166 -27.5t131 -75.5l-84 -210q-48 23 -97 41.5
t-103 18.5q-45 0 -88 -27.5t-43 -69.5z" />
    <glyph glyph-name="uniFE81" unicode="&#x622;" horiz-adv-x="543" arabic-form="isolated" 
d="M367 1556q10 -5 22 -5q23 0 42 14.5t44 36.5l59 55l118 -108l-66 -62q-50 -47 -91.5 -73.5t-88.5 -26.5q-45 0 -96 24l-129 59q-25 12 -45 12q-27 0 -52 -20.5t-63 -58.5l-65 -65l-118 107l67 69q62 65 113 99t100 34q50 0 120 -33zM407 1270v-1269h-270v1269h270z" />
    <glyph glyph-name="uniFE82" unicode="&#x622;" horiz-adv-x="570" arabic-form="final" 
d="M211 1450q-18 0 -52.5 -26.5t-67 -57t-45.5 -44.5l-93 83q25 27 70.5 69.5t95.5 76t88 33.5q30 0 69 -22t79.5 -44.5t71.5 -22.5q16 0 45 20.5t57 45.5t40 38l92 -83q-23 -23 -64.5 -60t-86 -66t-79.5 -29q-29 0 -71.5 22.5t-83 44.5t-65.5 22zM136 1272h270v-784
q0 -106 31 -152.5t128 -46.5h25v-289h-25q-218 0 -323.5 115.5t-105.5 347.5v809z" />
    <glyph glyph-name="uniFE83" unicode="&#x623;" horiz-adv-x="543" arabic-form="isolated" 
d="M157 1473q-34 27 -51.5 60t-17.5 86q0 89 62 146.5t141 57.5q43 0 71.5 -9t57.5 -26l1 -118q-59 30 -116 30q-40 0 -74 -24t-34 -70q1 -27 26 -50t78 -16l8 2l144 52l17 -115l-400 -158l-16 112zM407 1270v-1269h-270v1269h270z" />
    <glyph glyph-name="uniFE84" unicode="&#x623;" horiz-adv-x="570" arabic-form="final" 
d="M157 1473q-34 27 -51.5 60t-17.5 86q0 89 62 146.5t141 57.5q43 0 71.5 -9t57.5 -26l1 -118q-59 30 -116 30q-40 0 -74 -24t-34 -70q1 -27 26 -50t78 -16l8 2l144 52l17 -115l-400 -158l-16 112zM136 1272h270v-784q0 -106 31 -152.5t128 -46.5h25v-289h-25
q-218 0 -323.5 115.5t-105.5 347.5v809z" />
    <glyph glyph-name="uniFE85" unicode="&#x624;" horiz-adv-x="960" arabic-form="isolated" 
d="M354 1059q-34 27 -51.5 60t-17.5 86q0 89 62 146.5t141 57.5q43 0 71.5 -9t57.5 -26l1 -118q-59 30 -116 30q-40 0 -74 -24t-34 -70q1 -27 26 -50t78 -16l8 2l144 52l17 -115l-400 -158l-16 112zM879 222q0 -234 -86.5 -389t-244.5 -246t-374 -132l-99 267
q204 39 341.5 111t174.5 177q-25 -5 -52 -8.5t-49 -3.5q-190 0 -299 84t-109 276q0 81 24 165.5t71.5 157t119 117t165.5 44.5q111 0 190.5 -53.5t129.5 -142.5t73.5 -199.5t23.5 -224.5zM486 286q43 0 78.5 5t58.5 10q-6 51 -23 111.5t-50.5 104.5t-89.5 44
q-48 0 -75.5 -34.5t-38.5 -80t-11 -77.5q0 -54 43.5 -68.5t107.5 -14.5z" />
    <glyph glyph-name="uniFE86" unicode="&#x624;" horiz-adv-x="929" arabic-form="final" 
d="M354 1059q-34 27 -51.5 60t-17.5 86q0 89 62 146.5t141 57.5q43 0 71.5 -9t57.5 -26l1 -118q-59 30 -116 30q-40 0 -74 -24t-34 -70q1 -27 26 -50t78 -16l8 2l144 52l17 -115l-400 -158l-16 112zM462 846q131 0 218.5 -80t135.5 -207t58 -270h75v-289h-95
q-57 -228 -224 -358.5t-456 -186.5l-99 267q126 24 233.5 64t182 94t99.5 120h-94q-202 0 -308 84.5t-106 273.5q0 75 22.5 159.5t69.5 159t118.5 122t169.5 47.5zM495 289h128q-6 56 -23.5 119.5t-51 108t-88.5 44.5q-47 0 -74.5 -34t-39 -79t-11.5 -79q0 -53 44.5 -66.5
t115.5 -13.5z" />
    <glyph glyph-name="uniFE87" unicode="&#x625;" horiz-adv-x="543" arabic-form="isolated" 
d="M151 -451q-34 27 -51.5 60t-17.5 86q0 89 62 146.5t141 57.5q43 0 71.5 -9t57.5 -26l1 -118q-59 30 -116 30q-40 0 -74 -24t-34 -70q1 -27 26 -50t78 -16l8 2l144 52l17 -115l-400 -158l-16 112zM408 1402v-1401h-270v1401h270z" />
    <glyph glyph-name="uniFE88" unicode="&#x625;" horiz-adv-x="570" arabic-form="final" 
d="M195 -451q-34 27 -51.5 60t-17.5 86q0 89 62 146.5t141 57.5q43 0 71.5 -9t57.5 -26l1 -118q-59 30 -116 30q-40 0 -74 -24t-34 -70q1 -27 26 -50t78 -16l8 2l144 52l17 -115l-400 -158l-16 112zM136 1402h270v-914q0 -106 31 -152.5t128 -46.5h25v-289h-25
q-224 0 -326.5 116t-102.5 348v938z" />
    <glyph glyph-name="uniFE89" unicode="&#x626;" horiz-adv-x="1487" arabic-form="isolated" 
d="M381 854q-34 27 -51.5 60t-17.5 86q0 89 62 146.5t141 57.5q43 0 71.5 -9t57.5 -26l1 -118q-59 30 -116 30q-40 0 -74 -24t-34 -70q1 -27 26 -50t78 -16l8 2l144 52l17 -115l-400 -158l-16 112zM713 -504q-215 0 -354.5 82t-206.5 224t-67 320q0 119 26 246.5t75 254.5
l243 -93q-37 -106 -62 -207t-25 -189q0 -96 34 -176t115 -128t222 -48q152 0 253 34.5t151 81.5t50 83q0 29 -36 29h-162q-51 0 -106.5 10t-103.5 43t-77.5 99t-29.5 177q0 104 34 200.5t97.5 172.5t152.5 121t200 45q75 0 147.5 -22.5t133.5 -66.5l-92 -255
q-52 29 -99.5 40.5t-87.5 11.5q-108 0 -169 -70.5t-61 -175.5q0 -27 17.5 -34t43.5 -7h146q115 0 180.5 -36t93 -99.5t27.5 -144.5q0 -143 -82 -262t-239 -190t-382 -71z" />
    <glyph glyph-name="uniFE8A" unicode="&#x626;" horiz-adv-x="1354" arabic-form="final" 
d="M391 781q-34 27 -51.5 60t-17.5 86q0 89 62 146.5t141 57.5q43 0 71.5 -9t57.5 -26l1 -118q-59 30 -116 30q-40 0 -74 -24t-34 -70q1 -27 26 -50t78 -16l8 2l144 52l17 -115l-400 -158l-16 112zM713 -514q-220 0 -358.5 85t-204 227.5t-65.5 316.5q0 99 19.5 207
t61.5 220l243 -88q-30 -87 -48 -173t-18 -162q0 -97 34.5 -175.5t115.5 -125t220 -46.5q159 0 255 33t139.5 74t43.5 64q0 35 -33.5 46t-106.5 11h-158q-41 0 -52 21t-21 56l-43 155q-7 25 -4.5 41t38.5 16h604v-289h8q9 -35 9 -56q0 -122 -80.5 -226.5t-232 -168
t-366.5 -63.5z" />
    <glyph glyph-name="uniFE8B" unicode="&#x626;" horiz-adv-x="653" arabic-form="initial" 
d="M201 1019q-34 27 -51.5 60t-17.5 86q0 89 62 146.5t141 57.5q43 0 71.5 -9t57.5 -26l1 -118q-59 30 -116 30q-40 0 -74 -24t-34 -70q1 -27 26 -50t78 -16l8 2l144 52l17 -115l-400 -158l-16 112zM183 0h-205v289h206q76 0 104.5 47.5t28.5 120.5q0 68 -16.5 148.5
t-33.5 157.5l262 68q19 -94 30.5 -186.5t11.5 -176.5q0 -133 -36 -239t-120.5 -167.5t-231.5 -61.5z" />
    <glyph glyph-name="uniFE8C" unicode="&#x626;" horiz-adv-x="734" arabic-form="medial" 
d="M233 911q-34 27 -51.5 60t-17.5 86q0 89 62 146.5t141 57.5q43 0 71.5 -9t57.5 -26l1 -118q-59 30 -116 30q-40 0 -74 -24t-34 -70q1 -27 26 -50t78 -16l8 2l144 52l17 -115l-400 -158l-16 112zM-22 289h142q110 0 151.5 37.5t41.5 137.5q0 59 -3 114.5t-7 108.5l250 31
l20 -286q5 -76 42 -109.5t118 -33.5h21v-289h-23q-100 0 -171.5 36t-117.5 94q-61 -61 -144.5 -95.5t-177.5 -34.5h-142v289z" />
    <glyph glyph-name="uniFE8D" unicode="&#x627;" horiz-adv-x="543" arabic-form="isolated" 
d="M407 1402v-1401h-270v1401h270z" />
    <glyph glyph-name="uniFE8E" unicode="&#x627;" horiz-adv-x="570" arabic-form="final" 
d="M136 1402h270v-914q0 -106 31 -152.5t128 -46.5h25v-289h-25q-224 0 -326.5 116t-102.5 348v938z" />
    <glyph glyph-name="uniFE8F" unicode="&#x628;" horiz-adv-x="1842" arabic-form="isolated" 
d="M947 -118l180 -180l-180 -179l-179 179zM1111 0h-231q-173 0 -318.5 21.5t-253 75.5t-167 151.5t-59.5 249.5q0 90 20 175.5t50 158.5l241 -90q-17 -47 -34.5 -109.5t-17.5 -118.5q0 -78 42.5 -123.5t117.5 -67t172.5 -28t206.5 -6.5h234q115 0 203 13.5t138.5 49.5
t50.5 103q0 66 -15.5 150t-34.5 160l263 66q20 -94 31 -186.5t11 -175.5q0 -152 -49 -245t-137.5 -141.5t-207 -65.5t-256.5 -17z" />
    <glyph glyph-name="uniFE90" unicode="&#x628;" horiz-adv-x="1928" arabic-form="final" 
d="M950 -118l180 -180l-180 -179l-179 179zM1497 687l250 31l20 -286q5 -76 40.5 -109.5t117.5 -33.5h23v-289h-23q-115 0 -191 42.5t-126 115.5q-91 -84 -221.5 -121t-339.5 -37h-167q-173 0 -318.5 21.5t-253 75.5t-167 151.5t-59.5 249.5q0 90 20 175.5t50 158.5l241 -91
q-17 -47 -34.5 -109t-17.5 -118q0 -78 42.5 -123.5t117.5 -67t172.5 -28t206.5 -6.5h167q145 0 248 11.5t157.5 49t54.5 116.5q0 51 -3 112t-7 109z" />
    <glyph glyph-name="uniFE91" unicode="&#x628;" horiz-adv-x="629" arabic-form="initial" 
d="M159 0h-180v289h181q76 0 104.5 47.5t28.5 120.5q0 68 -16.5 148.5t-33.5 157.5l262 68q19 -94 30.5 -186.5t11.5 -176.5q0 -133 -36 -239t-120.5 -167.5t-231.5 -61.5zM185 -118l180 -180l-180 -179l-179 179z" />
    <glyph glyph-name="uniFE92" unicode="&#x628;" horiz-adv-x="710" arabic-form="medial" 
d="M-21 289h117q110 0 151.5 37.5t41.5 137.5q0 59 -3 114.5t-7 108.5l250 31l20 -286q5 -76 42 -109.5t118 -33.5h21v-289h-23q-100 0 -171.5 36t-117.5 94q-61 -61 -144.5 -95.5t-177.5 -34.5h-117v289zM185 -118l180 -180l-180 -179l-179 179z" />
    <glyph glyph-name="uniFE93" unicode="&#x629;" horiz-adv-x="1005" arabic-form="isolated" 
d="M293 781l-40 35l168 215q90 -71 179 -143t162.5 -149t117.5 -162t44 -181q0 -122 -54 -210t-149 -135t-218 -47q-207 0 -314.5 101.5t-107.5 254.5q0 125 61.5 222.5t150.5 198.5zM669 394q0 32 -28.5 71.5t-70 77.5t-79.5 67q-35 -31 -70.5 -71t-59.5 -80t-24 -73
q0 -46 44.5 -71.5t120.5 -25.5q167 0 167 105zM306 1447l170 -168l168 168l171 -170l-171 -172l-168 170l-170 -170l-170 172z" />
    <glyph glyph-name="uniFE94" unicode="&#x629;" horiz-adv-x="1096" arabic-form="final" 
d="M438 1531l170 -168l168 168l171 -170l-171 -172l-168 170l-170 -170l-170 172zM1081 0q-282 0 -360 239q-118 -90 -251 -90q-166 0 -277 90.5t-111 267.5q0 130 75 222.5t193.5 155.5t247.5 102l-7 48l242 49l95 -642q8 -55 47 -104t110 -49h31v-289h-35zM666 547
q0 14 -2.5 31.5t-5.5 36.5l-17 105q-71 -24 -139.5 -55.5t-113 -69t-44.5 -80.5q0 -41 33.5 -66.5t87.5 -25.5q46 0 92.5 13.5t77.5 41t31 69.5z" />
    <glyph glyph-name="uniFE95" unicode="&#x62a;" horiz-adv-x="1842" arabic-form="isolated" 
d="M1111 0h-231q-173 0 -318.5 21.5t-253 75.5t-167 151.5t-59.5 249.5q0 90 20 175.5t50 158.5l241 -90q-17 -47 -34.5 -109.5t-17.5 -118.5q0 -78 42.5 -123.5t117.5 -67t172.5 -28t206.5 -6.5h234q115 0 203 13.5t138.5 49.5t50.5 103q0 66 -15.5 150t-34.5 160l263 66
q20 -94 31 -186.5t11 -175.5q0 -152 -49 -245t-137.5 -141.5t-207 -65.5t-256.5 -17zM759 1097l170 -168l168 168l171 -170l-171 -172l-168 170l-170 -170l-170 172z" />
    <glyph glyph-name="uniFE96" unicode="&#x62a;" horiz-adv-x="1928" arabic-form="final" 
d="M775 1096l170 -168l168 168l171 -170l-171 -172l-168 170l-170 -170l-170 172zM1497 687l250 31l20 -286q5 -76 40.5 -109.5t117.5 -33.5h23v-289h-23q-115 0 -191 42.5t-126 115.5q-91 -84 -221.5 -121t-339.5 -37h-167q-173 0 -318.5 21.5t-253 75.5t-167 151.5
t-59.5 249.5q0 90 20 175.5t50 158.5l241 -91q-17 -47 -34.5 -109t-17.5 -118q0 -78 42.5 -123.5t117.5 -67t172.5 -28t206.5 -6.5h167q145 0 248 11.5t157.5 49t54.5 116.5q0 51 -3 112t-7 109z" />
    <glyph glyph-name="uniFE97" unicode="&#x62a;" horiz-adv-x="653" arabic-form="initial" 
d="M85 1294l170 -168l168 168l171 -170l-171 -172l-168 170l-170 -170l-170 172zM183 0h-203v289h204q76 0 104.5 47.5t28.5 120.5q0 68 -16.5 148.5t-33.5 157.5l262 68q19 -94 30.5 -186.5t11.5 -176.5q0 -133 -36 -239t-120.5 -167.5t-231.5 -61.5z" />
    <glyph glyph-name="uniFE98" unicode="&#x62a;" horiz-adv-x="734" arabic-form="medial" 
d="M85 1206l170 -168l168 168l171 -170l-171 -172l-168 170l-170 -170l-170 172zM-20 289h140q110 0 151.5 37.5t41.5 137.5q0 59 -3 114.5t-7 108.5l250 31l20 -286q5 -76 42 -109.5t118 -33.5h21v-289h-23q-100 0 -171.5 36t-117.5 94q-61 -61 -144.5 -95.5t-177.5 -34.5
h-140v289z" />
    <glyph glyph-name="uniFE99" unicode="&#x62b;" horiz-adv-x="1842" arabic-form="isolated" 
d="M1111 0h-231q-173 0 -318.5 21.5t-253 75.5t-167 151.5t-59.5 249.5q0 90 20 175.5t50 158.5l241 -90q-17 -47 -34.5 -109.5t-17.5 -118.5q0 -78 42.5 -123.5t117.5 -67t172.5 -28t206.5 -6.5h234q115 0 203 13.5t138.5 49.5t50.5 103q0 66 -15.5 150t-34.5 160l263 66
q20 -94 31 -186.5t11 -175.5q0 -152 -49 -245t-137.5 -141.5t-207 -65.5t-256.5 -17zM928 1289l161 -160l-161 -161l-161 161zM1103 1034l161 -161l-161 -161l-161 161zM754 1034l160 -161l-160 -161l-161 161z" />
    <glyph glyph-name="uniFE9A" unicode="&#x62b;" horiz-adv-x="1928" arabic-form="final" 
d="M940 1290l161 -160l-161 -161l-161 161zM1115 1035l161 -161l-161 -161l-161 161zM766 1035l160 -161l-160 -161l-161 161zM1497 687l250 31l20 -286q5 -76 40.5 -109.5t117.5 -33.5h23v-289h-23q-115 0 -191 42.5t-126 115.5q-91 -84 -221.5 -121t-339.5 -37h-167
q-173 0 -318.5 21.5t-253 75.5t-167 151.5t-59.5 249.5q0 90 20 175.5t50 158.5l241 -91q-17 -47 -34.5 -109t-17.5 -118q0 -78 42.5 -123.5t117.5 -67t172.5 -28t206.5 -6.5h167q145 0 248 11.5t157.5 49t54.5 116.5q0 51 -3 112t-7 109z" />
    <glyph glyph-name="uniFE9B" unicode="&#x62b;" horiz-adv-x="653" arabic-form="initial" 
d="M254 1518l161 -160l-161 -161l-161 161zM429 1263l161 -161l-161 -161l-161 161zM80 1263l160 -161l-160 -161l-161 161zM183 0h-205v289h206q76 0 104.5 47.5t28.5 120.5q0 68 -16.5 148.5t-33.5 157.5l262 68q19 -94 30.5 -186.5t11.5 -176.5q0 -133 -36 -239
t-120.5 -167.5t-231.5 -61.5z" />
    <glyph glyph-name="uniFE9C" unicode="&#x62b;" horiz-adv-x="734" arabic-form="medial" 
d="M254 1428l161 -160l-161 -161l-161 161zM429 1173l161 -161l-161 -161l-161 161zM80 1173l160 -161l-160 -161l-161 161zM-22 289h142q110 0 151.5 37.5t41.5 137.5q0 59 -3 114.5t-7 108.5l250 31l20 -286q5 -76 42 -109.5t118 -33.5h21v-289h-23q-100 0 -171.5 36
t-117.5 94q-61 -61 -144.5 -95.5t-177.5 -34.5h-142v289z" />
    <glyph glyph-name="uniFE9D" unicode="&#x62c;" horiz-adv-x="1421" arabic-form="isolated" 
d="M1320 710l-1 -259q-127 -11 -263.5 -39.5t-264.5 -75t-230.5 -112t-163 -150t-60.5 -188.5q0 -97 57.5 -163t156 -99.5t222.5 -33.5q141 0 269 26.5t230 66.5l81 -271q-135 -54 -281 -78.5t-288 -24.5q-194 0 -353 57.5t-253.5 183.5t-94.5 330q0 144 54 261t148 206.5
t215 153.5t254 101q-94 40 -160 70t-93 30q-55 0 -98.5 -33.5t-72.5 -71.5l-53 -66l-224 109l45 73q71 116 171 192t233 76q55 0 129.5 -27t160 -67t176.5 -80t181 -68t171 -29zM851 165l180 -180l-180 -179l-179 179z" />
    <glyph glyph-name="uniFE9E" unicode="&#x62c;" horiz-adv-x="1435" arabic-form="final" 
d="M723 122l180 -180l-180 -179l-179 179zM83 -120q0 144 54 261t148 206.5t215 153.5t254 101q-94 40 -160 70t-93 30q-55 0 -99 -34t-72 -71l-53 -66l-224 109l45 73q70 116 170.5 192t233.5 76q55 0 129.5 -27t160 -67t176.5 -80t181 -68t171 -29l-1 -259
q-50 -4 -117.5 -11.5t-110.5 -15.5q4 -78 77.5 -106.5t205.5 -28.5h81v-289h-78q-154 0 -266 31.5t-176.5 111t-76.5 223.5q-150 -46 -268 -116.5t-185.5 -162t-67.5 -201.5q0 -97 57.5 -163t156 -99.5t222.5 -33.5q141 0 269 26.5t230 66.5l81 -271q-135 -54 -281 -78.5
t-288 -24.5q-194 0 -353 57.5t-253.5 183.5t-94.5 330z" />
    <glyph glyph-name="uniFE9F" unicode="&#x62c;" horiz-adv-x="1397" arabic-form="initial" 
d="M666 -118l180 -180l-180 -179l-179 179zM-20 289h170q129 0 243 24.5t232.5 73.5t260.5 122q-154 56 -249 99.5t-130 43.5q-54 0 -97.5 -33.5t-71.5 -70.5l-53 -67l-224 110l45 72q71 116 170 192.5t232 76.5q56 0 130.5 -27t160 -67t177 -80t181 -68t171.5 -29v-265
q-76 -10 -139 -33t-131 -59.5t-161 -85.5q-128 -68 -243.5 -117t-237 -75t-269.5 -26h-167v289z" />
    <glyph glyph-name="uniFEA0" unicode="&#x62c;" horiz-adv-x="1396" arabic-form="medial" 
d="M666 -118l180 -180l-180 -179l-179 179zM1328 661v-261q-58 -6 -114 -26t-100 -40q18 -28 88.5 -36.5t158.5 -8.5h55v-289h-59q-183 0 -291 48.5t-149 181.5q-185 -99 -373 -164.5t-397 -65.5h-167v289h170q129 0 242.5 24.5t232 73.5t261.5 122q-154 57 -249 100
t-130 43q-54 0 -97.5 -33.5t-71.5 -70.5l-53 -67l-224 110l45 72q71 116 170 192.5t232 76.5q56 0 130.5 -27t160 -67t177 -80t181 -68t171.5 -29z" />
    <glyph glyph-name="uniFEA1" unicode="&#x62d;" horiz-adv-x="1421" arabic-form="isolated" 
d="M1320 710l-1 -259q-127 -11 -263.5 -39.5t-264.5 -75t-230.5 -112t-163 -150t-60.5 -188.5q0 -97 57.5 -163t156 -99.5t222.5 -33.5q141 0 269 26.5t230 66.5l81 -271q-135 -54 -281 -78.5t-288 -24.5q-194 0 -353 57.5t-253.5 183.5t-94.5 330q0 144 54 261t148 206.5
t215 153.5t254 101q-94 40 -160 70t-93 30q-55 0 -98.5 -33.5t-72.5 -71.5l-53 -66l-224 109l45 73q71 116 171 192t233 76q55 0 129.5 -27t160 -67t176.5 -80t181 -68t171 -29z" />
    <glyph glyph-name="uniFEA2" unicode="&#x62d;" horiz-adv-x="1435" arabic-form="final" 
d="M83 -120q0 144 54 261t148 206.5t215 153.5t254 101q-94 40 -160 70t-93 30q-55 0 -99 -34t-72 -71l-53 -66l-224 109l45 73q70 116 170.5 192t233.5 76q55 0 129.5 -27t160 -67t176.5 -80t181 -68t171 -29l-1 -259q-50 -4 -117.5 -11.5t-110.5 -15.5q4 -78 77.5 -106.5
t205.5 -28.5h81v-289h-78q-154 0 -266 31.5t-176.5 111t-76.5 223.5q-150 -46 -268 -116.5t-185.5 -162t-67.5 -201.5q0 -97 57.5 -163t156 -99.5t222.5 -33.5q141 0 269 26.5t230 66.5l81 -271q-135 -54 -281 -78.5t-288 -24.5q-194 0 -353 57.5t-253.5 183.5t-94.5 330z
" />
    <glyph glyph-name="uniFEA3" unicode="&#x62d;" horiz-adv-x="1397" arabic-form="initial" 
d="M-20 289h170q129 0 243 24.5t232.5 73.5t260.5 122q-154 56 -249 99.5t-130 43.5q-54 0 -97.5 -33.5t-71.5 -70.5l-53 -67l-224 110l45 72q71 116 170 192.5t232 76.5q56 0 130.5 -27t160 -67t177 -80t181 -68t171.5 -29v-265q-76 -10 -139 -33t-131 -59.5t-161 -85.5
q-128 -68 -243.5 -117t-237 -75t-269.5 -26h-167v289z" />
    <glyph glyph-name="uniFEA4" unicode="&#x62d;" horiz-adv-x="1396" arabic-form="medial" 
d="M1328 661v-261q-58 -6 -114 -26t-100 -40q18 -28 88.5 -36.5t158.5 -8.5h55v-289h-59q-183 0 -291 48.5t-149 181.5q-185 -99 -373 -164.5t-397 -65.5h-167v289h170q129 0 242.5 24.5t232 73.5t261.5 122q-154 57 -249 100t-130 43q-54 0 -97.5 -33.5t-71.5 -70.5
l-53 -67l-224 110l45 72q71 116 170 192.5t232 76.5q56 0 130.5 -27t160 -67t177 -80t181 -68t171.5 -29z" />
    <glyph glyph-name="uniFEA5" unicode="&#x62e;" horiz-adv-x="1421" arabic-form="isolated" 
d="M603 1446l180 -180l-180 -179l-179 179zM1320 710l-1 -259q-127 -11 -263.5 -39.5t-264.5 -75t-230.5 -112t-163 -150t-60.5 -188.5q0 -97 57.5 -163t156 -99.5t222.5 -33.5q141 0 269 26.5t230 66.5l81 -271q-135 -54 -281 -78.5t-288 -24.5q-194 0 -353 57.5
t-253.5 183.5t-94.5 330q0 144 54 261t148 206.5t215 153.5t254 101q-94 40 -160 70t-93 30q-55 0 -98.5 -33.5t-72.5 -71.5l-53 -66l-224 109l45 73q71 116 171 192t233 76q55 0 129.5 -27t160 -67t176.5 -80t181 -68t171 -29z" />
    <glyph glyph-name="uniFEA6" unicode="&#x62e;" horiz-adv-x="1435" arabic-form="final" 
d="M603 1446l180 -180l-180 -179l-179 179zM83 -120q0 144 54 261t148 206.5t215 153.5t254 101q-94 40 -160 70t-93 30q-55 0 -99 -34t-72 -71l-53 -66l-224 109l45 73q70 116 170.5 192t233.5 76q55 0 129.5 -27t160 -67t176.5 -80t181 -68t171 -29l-1 -259
q-50 -4 -117.5 -11.5t-110.5 -15.5q4 -78 77.5 -106.5t205.5 -28.5h81v-289h-78q-154 0 -266 31.5t-176.5 111t-76.5 223.5q-150 -46 -268 -116.5t-185.5 -162t-67.5 -201.5q0 -97 57.5 -163t156 -99.5t222.5 -33.5q141 0 269 26.5t230 66.5l81 -271q-135 -54 -281 -78.5
t-288 -24.5q-194 0 -353 57.5t-253.5 183.5t-94.5 330z" />
    <glyph glyph-name="uniFEA7" unicode="&#x62e;" horiz-adv-x="1397" arabic-form="initial" 
d="M603 1410l180 -180l-180 -179l-179 179zM-20 289h170q129 0 243 24.5t232.5 73.5t260.5 122q-154 56 -249 99.5t-130 43.5q-54 0 -97.5 -33.5t-71.5 -70.5l-53 -67l-224 110l45 72q71 116 170 192.5t232 76.5q56 0 130.5 -27t160 -67t177 -80t181 -68t171.5 -29v-265
q-76 -10 -139 -33t-131 -59.5t-161 -85.5q-128 -68 -243.5 -117t-237 -75t-269.5 -26h-167v289z" />
    <glyph glyph-name="uniFEA8" unicode="&#x62e;" horiz-adv-x="1396" arabic-form="medial" 
d="M603 1410l180 -180l-180 -179l-179 179zM1328 661v-261q-58 -6 -114 -26t-100 -40q18 -28 88.5 -36.5t158.5 -8.5h55v-289h-59q-183 0 -291 48.5t-149 181.5q-185 -99 -373 -164.5t-397 -65.5h-167v289h170q129 0 242.5 24.5t232 73.5t261.5 122q-154 57 -249 100
t-130 43q-54 0 -97.5 -33.5t-71.5 -70.5l-53 -67l-224 110l45 72q71 116 170 192.5t232 76.5q56 0 130.5 -27t160 -67t177 -80t181 -68t171.5 -29z" />
    <glyph glyph-name="uniFEA9" unicode="&#x62f;" horiz-adv-x="1030" arabic-form="isolated" 
d="M351 286q82 0 160.5 11.5t130 43.5t51.5 93q0 63 -60.5 134.5t-160 140.5t-216.5 124l123 260q106 -52 207.5 -116.5t183 -143.5t130 -175t48.5 -212q0 -160 -72.5 -258t-203.5 -142t-306 -44q-80 0 -149 5.5t-135 20.5v288q65 -13 139.5 -21.5t129.5 -8.5z" />
    <glyph glyph-name="uniFEAA" unicode="&#x62f;" horiz-adv-x="1115" arabic-form="final" 
d="M652 432q0 25 -11 66t-23 67l-198 437l238 116l249 -574q30 -69 53.5 -127t54 -93t78.5 -35h42v-289h-42q-112 0 -180.5 42.5t-120.5 109.5q-76 -73 -181 -112t-254 -39q-88 0 -149 6t-126 22v289q62 -15 131.5 -23t128.5 -8q74 0 145 12.5t118 44.5t47 88z" />
    <glyph glyph-name="uniFEAB" unicode="&#x630;" horiz-adv-x="1030" arabic-form="isolated" 
d="M377 1552l180 -180l-180 -179l-179 179zM351 286q82 0 160.5 11.5t130 43.5t51.5 93q0 63 -60.5 134.5t-160 140.5t-216.5 124l123 260q106 -52 207.5 -116.5t183 -143.5t130 -175t48.5 -212q0 -160 -72.5 -258t-203.5 -142t-306 -44q-80 0 -149 5.5t-135 20.5v288
q65 -13 139.5 -21.5t129.5 -8.5z" />
    <glyph glyph-name="uniFEAC" unicode="&#x630;" horiz-adv-x="1115" arabic-form="final" 
d="M530 1566l180 -180l-180 -179l-179 179zM652 432q0 25 -11 66t-23 67l-198 437l238 116l249 -574q30 -69 53.5 -127t54 -93t78.5 -35h42v-289h-42q-112 0 -180.5 42.5t-120.5 109.5q-76 -73 -181 -112t-254 -39q-88 0 -149 6t-126 22v289q62 -15 131.5 -23t128.5 -8
q74 0 145 12.5t118 44.5t47 88z" />
    <glyph glyph-name="uniFEAD" unicode="&#x631;" horiz-adv-x="752" arabic-form="isolated" 
d="M48 -546l-102 268q145 31 249.5 82.5t161.5 137.5t57 222q0 91 -29 204.5t-62 211.5l270 87q39 -109 59.5 -235t20.5 -242q0 -210 -77.5 -360.5t-218 -244t-329.5 -131.5z" />
    <glyph glyph-name="uniFEAE" unicode="&#x631;" horiz-adv-x="817" arabic-form="final" 
d="M809 0q-91 0 -150 35q-40 -230 -196.5 -380t-417.5 -200l-99 267q145 31 249.5 82.5t161.5 137.5t57 222q0 91 -29 204.5t-62 211.5l269 87l58 -226q17 -64 50 -108t98 -44h39v-289h-28z" />
    <glyph glyph-name="uniFEAF" unicode="&#x632;" horiz-adv-x="752" arabic-form="isolated" 
d="M439 1165l180 -180l-180 -179l-179 179zM48 -546l-102 268q145 31 249.5 82.5t161.5 137.5t57 222q0 91 -29 204.5t-62 211.5l270 87q39 -109 59.5 -235t20.5 -242q0 -210 -77.5 -360.5t-218 -244t-329.5 -131.5z" />
    <glyph glyph-name="uniFEB0" unicode="&#x632;" horiz-adv-x="817" arabic-form="final" 
d="M439 1165l180 -180l-180 -179l-179 179zM809 0q-91 0 -150 35q-40 -230 -196.5 -380t-417.5 -200l-99 267q145 31 249.5 82.5t161.5 137.5t57 222q0 91 -29 204.5t-62 211.5l269 87l58 -226q17 -64 50 -108t98 -44h39v-289h-28z" />
    <glyph glyph-name="uniFEB1" unicode="&#x633;" horiz-adv-x="2470" arabic-form="isolated" 
d="M1508 0q-46 0 -83.5 14.5t-69.5 33.5q-28 -258 -191.5 -410t-450.5 -152q-215 0 -354.5 82t-206.5 224t-67 320q0 119 26 246.5t75 254.5l243 -93q-37 -106 -62 -207t-25 -189q0 -96 34 -176t115 -128t222 -48q144 0 227.5 46t119 125t35.5 179q0 108 -34.5 222.5
t-77.5 218.5l267 100l67 -206q23 -70 67.5 -118.5t125.5 -49.5q83 0 110.5 38.5t27.5 126.5q0 14 -2 49.5t-5 78.5t-6 79l252 31l21 -270q5 -61 31 -97t90 -36q60 0 82.5 47.5t22.5 113.5q0 57 -10.5 117.5t-23 110t-18.5 72.5l259 71q20 -79 33 -168.5t13 -177.5
q0 -124 -32.5 -232.5t-110.5 -175.5t-213 -67q-91 0 -152 37t-103 91q-51 -54 -115.5 -91t-152.5 -37z" />
    <glyph glyph-name="uniFEB2" unicode="&#x633;" horiz-adv-x="2558" arabic-form="final" 
d="M713 -228q144 0 227.5 46t119 125t35.5 179q0 108 -34.5 222.5t-77.5 218.5l267 100l67 -206q23 -70 67 -118.5t125 -49.5q83 0 111 34.5t28 122.5q0 14 -2 51.5t-5 82.5t-6 81l252 31l20 -270q4 -62 31 -97.5t90 -35.5q60 0 83.5 40.5t23.5 116.5q0 36 -4 104t-9 130
l252 31l20 -289q5 -74 41 -103.5t113 -29.5h30v-289h-28q-92 0 -162 32t-111 87q-41 -51 -101.5 -85t-146.5 -34q-89 0 -150.5 37t-103.5 91q-51 -54 -115.5 -91t-152.5 -37q-45 0 -83 13t-69 35q-28 -259 -191.5 -410.5t-450.5 -151.5q-215 0 -354.5 82t-206.5 224t-67 320
q0 119 26 246.5t75 254.5l243 -93q-37 -106 -62 -207t-25 -189q0 -96 34 -176t115 -128t222 -48z" />
    <glyph glyph-name="uniFEB3" unicode="&#x633;" horiz-adv-x="1640" arabic-form="initial" 
d="M677 0q-101 0 -169.5 34.5t-112.5 91.5q-55 -58 -131 -92t-192 -34h-92v289h94q110 0 156.5 27t46.5 130q0 16 -2 53t-5 81.5t-6 80.5l251 31l21 -270q9 -133 143 -133q83 0 111 34.5t28 122.5q0 14 -2 51.5t-5 82.5t-6 81l251 31l21 -270q4 -61 30.5 -97t90.5 -36
q60 0 82.5 47.5t22.5 113.5q0 57 -10.5 117.5t-23 110t-18.5 72.5l259 71q20 -79 33 -168.5t13 -177.5q0 -124 -32.5 -232.5t-110.5 -175.5t-213 -67q-90 0 -151.5 37t-103.5 91q-51 -54 -115.5 -91t-152.5 -37z" />
    <glyph glyph-name="uniFEB4" unicode="&#x633;" horiz-adv-x="1729" arabic-form="medial" 
d="M1200 0q-89 0 -151 37t-104 91q-51 -54 -115.5 -91t-152.5 -37q-101 0 -169.5 34.5t-112.5 91.5q-55 -58 -131 -92t-192 -34h-92v289h94q110 0 156.5 27t46.5 130q0 16 -2 53t-5 81.5t-6 80.5l251 31l21 -270q9 -133 143 -133q83 0 111 34.5t28 122.5q0 14 -2 51.5
t-5 82.5t-6 81l251 31l21 -270q4 -62 31 -97.5t90 -35.5q62 0 84.5 41t22.5 116q0 36 -4 104t-9 130l251 31l21 -289q5 -74 41.5 -103.5t113.5 -29.5h30v-289h-28q-92 0 -162.5 32t-111.5 87q-41 -51 -101 -85t-146 -34z" />
    <glyph glyph-name="uniFEB5" unicode="&#x634;" horiz-adv-x="2470" arabic-form="isolated" 
d="M1721 1428l161 -160l-161 -161l-161 161zM1896 1173l161 -161l-161 -161l-161 161zM1547 1173l160 -161l-160 -161l-161 161zM1508 0q-46 0 -83.5 14.5t-69.5 33.5q-28 -258 -191.5 -410t-450.5 -152q-215 0 -354.5 82t-206.5 224t-67 320q0 119 26 246.5t75 254.5
l243 -93q-37 -106 -62 -207t-25 -189q0 -96 34 -176t115 -128t222 -48q144 0 227.5 46t119 125t35.5 179q0 108 -34.5 222.5t-77.5 218.5l267 100l67 -206q23 -70 67.5 -118.5t125.5 -49.5q83 0 110.5 38.5t27.5 126.5q0 14 -2 49.5t-5 78.5t-6 79l252 31l21 -270
q5 -61 31 -97t90 -36q60 0 82.5 47.5t22.5 113.5q0 57 -10.5 117.5t-23 110t-18.5 72.5l259 71q20 -79 33 -168.5t13 -177.5q0 -124 -32.5 -232.5t-110.5 -175.5t-213 -67q-91 0 -152 37t-103 91q-51 -54 -115.5 -91t-152.5 -37z" />
    <glyph glyph-name="uniFEB6" unicode="&#x634;" horiz-adv-x="2558" arabic-form="final" 
d="M1721 1428l161 -160l-161 -161l-161 161zM1896 1173l161 -161l-161 -161l-161 161zM1547 1173l160 -161l-160 -161l-161 161zM713 -228q144 0 227.5 46t119 125t35.5 179q0 108 -34.5 222.5t-77.5 218.5l267 100l67 -206q23 -70 67 -118.5t125 -49.5q83 0 111 34.5
t28 122.5q0 14 -2 51.5t-5 82.5t-6 81l252 31l20 -270q4 -62 31 -97.5t90 -35.5q60 0 83.5 40.5t23.5 116.5q0 36 -4 104t-9 130l252 31l20 -289q5 -74 41 -103.5t113 -29.5h30v-289h-28q-92 0 -162 32t-111 87q-41 -51 -101.5 -85t-146.5 -34q-89 0 -150.5 37t-103.5 91
q-51 -54 -115.5 -91t-152.5 -37q-45 0 -83 13t-69 35q-28 -259 -191.5 -410.5t-450.5 -151.5q-215 0 -354.5 82t-206.5 224t-67 320q0 119 26 246.5t75 254.5l243 -93q-37 -106 -62 -207t-25 -189q0 -96 34 -176t115 -128t222 -48z" />
    <glyph glyph-name="uniFEB7" unicode="&#x634;" horiz-adv-x="1640" arabic-form="initial" 
d="M891 1428l161 -160l-161 -161l-161 161zM1066 1173l161 -161l-161 -161l-161 161zM717 1173l160 -161l-160 -161l-161 161zM677 0q-101 0 -169.5 34.5t-112.5 91.5q-55 -58 -131 -92t-192 -34h-92v289h94q110 0 156.5 27t46.5 130q0 16 -2 53t-5 81.5t-6 80.5l251 31
l21 -270q9 -133 143 -133q83 0 111 34.5t28 122.5q0 14 -2 51.5t-5 82.5t-6 81l251 31l21 -270q4 -61 30.5 -97t90.5 -36q60 0 82.5 47.5t22.5 113.5q0 57 -10.5 117.5t-23 110t-18.5 72.5l259 71q20 -79 33 -168.5t13 -177.5q0 -124 -32.5 -232.5t-110.5 -175.5t-213 -67
q-90 0 -151.5 37t-103.5 91q-51 -54 -115.5 -91t-152.5 -37z" />
    <glyph glyph-name="uniFEB8" unicode="&#x634;" horiz-adv-x="1729" arabic-form="medial" 
d="M891 1428l161 -160l-161 -161l-161 161zM1066 1173l161 -161l-161 -161l-161 161zM717 1173l160 -161l-160 -161l-161 161zM1200 0q-89 0 -151 37t-104 91q-51 -54 -115.5 -91t-152.5 -37q-101 0 -169.5 34.5t-112.5 91.5q-55 -58 -131 -92t-192 -34h-92v289h94
q110 0 156.5 27t46.5 130q0 16 -2 53t-5 81.5t-6 80.5l251 31l21 -270q9 -133 143 -133q83 0 111 34.5t28 122.5q0 14 -2 51.5t-5 82.5t-6 81l251 31l21 -270q4 -62 31 -97.5t90 -35.5q62 0 84.5 41t22.5 116q0 36 -4 104t-9 130l251 31l21 -289q5 -74 41.5 -103.5
t113.5 -29.5h30v-289h-28q-92 0 -162.5 32t-111.5 87q-41 -51 -101 -85t-146 -34z" />
    <glyph glyph-name="uniFEB9" unicode="&#x635;" horiz-adv-x="2606" arabic-form="isolated" 
d="M713 -514q-215 0 -354.5 82t-206.5 224t-67 320q0 119 26 246.5t75 254.5l243 -93q-37 -106 -62 -207t-25 -189q0 -96 34 -176t115 -128t222 -48q145 0 228 46t118.5 125t35.5 179q0 108 -34.5 222.5t-77.5 218.5l267 100l66 -205q17 -49 35.5 -89.5t43.5 -40.5
q68 112 144 216t162 186t183 129.5t207 47.5q127 0 224.5 -54t153 -148t55.5 -215q0 -141 -60 -235.5t-167 -150.5t-249 -80t-305 -24h-52q-106 0 -186.5 14t-149.5 34q-28 -259 -191.5 -410.5t-450.5 -151.5zM2098 623q-77 0 -155 -48.5t-149 -125t-129 -160.5h91
q135 0 250.5 13.5t185.5 52.5t70 116q0 69 -46.5 110.5t-117.5 41.5z" />
    <glyph glyph-name="uniFEBA" unicode="&#x635;" horiz-adv-x="2628" arabic-form="final" 
d="M713 -228q144 0 227.5 46t119 125t35.5 179q0 108 -34.5 222.5t-77.5 218.5l267 100l67 -205q16 -49 35 -88.5t43 -41.5q68 112 144 216t162 186t183 129.5t207 47.5q127 0 224.5 -54t153 -148t55.5 -215q0 -44 -9.5 -101t-31.5 -93q23 -3 56 -5t79 -2h30v-289h-29
q-119 0 -200.5 31.5t-144.5 74.5q-105 -46 -242.5 -76t-288.5 -30h-52q-106 0 -187 13.5t-149 34.5q-28 -259 -191.5 -410.5t-450.5 -151.5q-215 0 -354.5 82t-206.5 224t-67 320q0 119 26 246.5t75 254.5l243 -93q-37 -106 -62 -207t-25 -189q0 -96 34 -176t115 -128
t222 -48zM2098 623q-77 0 -155 -48.5t-149 -125t-129 -160.5h91q135 0 250.5 13.5t185.5 52.5t70 116q0 69 -46.5 110.5t-117.5 41.5z" />
    <glyph glyph-name="uniFEBB" unicode="&#x635;" horiz-adv-x="1739" arabic-form="initial" 
d="M528 328q68 112 144 216t162 186t183 129.5t207 47.5q127 0 224.5 -54t153 -148t55.5 -215q0 -141 -60 -235.5t-167 -150.5t-248.5 -80t-304.5 -24h-53q-166 0 -286 29.5t-194 100.5q-56 -61 -133 -95.5t-190 -34.5h-41l1 289h40q119 0 158.5 37.5t39.5 138.5
q0 57 -3.5 112.5t-7.5 108.5l250 31l19 -285q4 -40 16.5 -69.5t34.5 -34.5zM1231 623q-77 0 -155 -48.5t-149 -125t-129 -160.5h91q135 0 250.5 13.5t185.5 52.5t70 116q0 69 -46.5 110.5t-117.5 41.5z" />
    <glyph glyph-name="uniFEBC" unicode="&#x635;" horiz-adv-x="1761" arabic-form="medial" 
d="M877 0h-53q-166 0 -286 29.5t-194 100.5q-56 -61 -133 -95.5t-190 -34.5h-41l1 289h40q119 0 158.5 37.5t39.5 138.5q0 57 -3.5 112.5t-7.5 108.5l250 31l19 -285q4 -40 16.5 -69.5t34.5 -34.5q68 112 144 216t161.5 186t183 129.5t207.5 47.5q127 0 224.5 -54t153 -148
t55.5 -215q0 -44 -9.5 -101t-31.5 -93q23 -3 56 -5t79 -2h30v-289h-29q-119 0 -200 31.5t-145 74.5q-104 -46 -241.5 -76t-288.5 -30zM1231 623q-77 0 -155 -48.5t-149 -125t-129 -160.5h91q135 0 250.5 13.5t185.5 52.5t70 116q0 69 -46.5 110.5t-117.5 41.5z" />
    <glyph glyph-name="uniFEBD" unicode="&#x636;" horiz-adv-x="2606" arabic-form="isolated" 
d="M2049 1405l180 -180l-180 -179l-179 179zM713 -514q-215 0 -354.5 82t-206.5 224t-67 320q0 119 26 246.5t75 254.5l243 -93q-37 -106 -62 -207t-25 -189q0 -96 34 -176t115 -128t222 -48q145 0 228 46t118.5 125t35.5 179q0 108 -34.5 222.5t-77.5 218.5l267 100
l66 -205q17 -49 35.5 -89.5t43.5 -40.5q68 112 144 216t162 186t183 129.5t207 47.5q127 0 224.5 -54t153 -148t55.5 -215q0 -141 -60 -235.5t-167 -150.5t-249 -80t-305 -24h-52q-106 0 -186.5 14t-149.5 34q-28 -259 -191.5 -410.5t-450.5 -151.5zM2098 623
q-77 0 -155 -48.5t-149 -125t-129 -160.5h91q135 0 250.5 13.5t185.5 52.5t70 116q0 69 -46.5 110.5t-117.5 41.5z" />
    <glyph glyph-name="uniFEBE" unicode="&#x636;" horiz-adv-x="2628" arabic-form="final" 
d="M2049 1405l180 -180l-180 -179l-179 179zM713 -228q144 0 227.5 46t119 125t35.5 179q0 108 -34.5 222.5t-77.5 218.5l267 100l67 -205q16 -49 35 -88.5t43 -41.5q68 112 144 216t162 186t183 129.5t207 47.5q127 0 224.5 -54t153 -148t55.5 -215q0 -44 -9.5 -101
t-31.5 -93q23 -3 56 -5t79 -2h30v-289h-29q-119 0 -200.5 31.5t-144.5 74.5q-105 -46 -242.5 -76t-288.5 -30h-52q-106 0 -187 13.5t-149 34.5q-28 -259 -191.5 -410.5t-450.5 -151.5q-215 0 -354.5 82t-206.5 224t-67 320q0 119 26 246.5t75 254.5l243 -93
q-37 -106 -62 -207t-25 -189q0 -96 34 -176t115 -128t222 -48zM2098 623q-77 0 -155 -48.5t-149 -125t-129 -160.5h91q135 0 250.5 13.5t185.5 52.5t70 116q0 69 -46.5 110.5t-117.5 41.5z" />
    <glyph glyph-name="uniFEBF" unicode="&#x636;" horiz-adv-x="1739" arabic-form="initial" 
d="M1183 1405l180 -180l-180 -179l-179 179zM528 328q68 112 144 216t162 186t183 129.5t207 47.5q127 0 224.5 -54t153 -148t55.5 -215q0 -141 -60 -235.5t-167 -150.5t-248.5 -80t-304.5 -24h-53q-166 0 -286 29.5t-194 100.5q-56 -61 -133 -95.5t-190 -34.5h-41l1 289h40
q119 0 158.5 37.5t39.5 138.5q0 57 -3.5 112.5t-7.5 108.5l250 31l19 -285q4 -40 16.5 -69.5t34.5 -34.5zM1231 623q-77 0 -155 -48.5t-149 -125t-129 -160.5h91q135 0 250.5 13.5t185.5 52.5t70 116q0 69 -46.5 110.5t-117.5 41.5z" />
    <glyph glyph-name="uniFEC0" unicode="&#x636;" horiz-adv-x="1761" arabic-form="medial" 
d="M1183 1405l180 -180l-180 -179l-179 179zM877 0h-53q-166 0 -286 29.5t-194 100.5q-56 -61 -133 -95.5t-190 -34.5h-41l1 289h40q119 0 158.5 37.5t39.5 138.5q0 57 -3.5 112.5t-7.5 108.5l250 31l19 -285q4 -40 16.5 -69.5t34.5 -34.5q68 112 144 216t161.5 186
t183 129.5t207.5 47.5q127 0 224.5 -54t153 -148t55.5 -215q0 -44 -9.5 -101t-31.5 -93q23 -3 56 -5t79 -2h30v-289h-29q-119 0 -200 31.5t-145 74.5q-104 -46 -241.5 -76t-288.5 -30zM1231 623q-77 0 -155 -48.5t-149 -125t-129 -160.5h91q135 0 250.5 13.5t185.5 52.5
t70 116q0 69 -46.5 110.5t-117.5 41.5z" />
    <glyph glyph-name="uniFEC1" unicode="&#x637;" horiz-adv-x="1567" arabic-form="isolated" 
d="M328 289q14 23 29 43.5t30 41.5v1028h269v-689q92 89 187 141t209 52q127 0 224.5 -53.5t153 -147t55.5 -215.5q0 -141 -60 -235.5t-167 -150.5t-249 -80t-305 -24h-630v289h254zM1059 623q-77 0 -155 -48.5t-149 -124.5t-129 -160l91 -1q135 0 250.5 13.5t185.5 52.5
t70 116q0 69 -46.5 110.5t-117.5 41.5z" />
    <glyph glyph-name="uniFEC2" unicode="&#x637;" horiz-adv-x="1589" arabic-form="final" 
d="M1053 907q126 0 223.5 -54t153 -148t55.5 -215q0 -44 -9.5 -101t-31.5 -93q23 -3 56 -5t79 -2h30v-289h-29q-119 0 -204.5 31.5t-149.5 74.5q-104 -46 -237.5 -76t-284.5 -30h-630v289h254q14 23 29 43.5t30 41.5v1028h269v-689q93 89 187.5 141t209.5 53zM1059 623
q-77 0 -155 -48.5t-149 -125t-129 -160.5h91q135 0 250.5 13.5t185.5 52.5t70 116q0 69 -46.5 110.5t-117.5 41.5z" />
    <glyph glyph-name="uniFEC3" unicode="&#x637;" horiz-adv-x="1360" arabic-form="initial" 
d="M122 289q14 23 28.5 43.5t29.5 41.5v1028h269v-689q92 89 187.5 141t208.5 52q127 0 224.5 -53.5t153 -147t55.5 -215.5q0 -141 -60 -235.5t-167 -150.5t-248.5 -80t-304.5 -24h-518v289h142zM852 623q-77 0 -155 -48.5t-149 -125t-129 -160.5h91q135 0 250.5 13.5
t185.5 52.5t70 116q0 69 -46.5 110.5t-117.5 41.5z" />
    <glyph glyph-name="uniFEC4" unicode="&#x637;" horiz-adv-x="1382" arabic-form="medial" 
d="M845 907q127 0 224.5 -54t153 -148t55.5 -215q0 -44 -9.5 -101t-31.5 -93q23 -3 56 -5t79 -2h30v-289h-29q-119 0 -204 31.5t-149 74.5q-104 -46 -237.5 -76t-284.5 -30h-518v289h142q14 23 28.5 43.5t29.5 41.5v1028h269v-689q92 89 187 141t209 53zM852 623
q-77 0 -155 -48.5t-149 -125t-129 -160.5h91q135 0 250.5 13.5t185.5 52.5t70 116q0 69 -46.5 110.5t-117.5 41.5z" />
    <glyph glyph-name="uniFEC5" unicode="&#x638;" horiz-adv-x="1567" arabic-form="isolated" 
d="M1038 1405l180 -180l-180 -179l-179 179zM328 289q14 23 29 43.5t30 41.5v1028h269v-689q92 89 187 141t209 52q127 0 224.5 -53.5t153 -147t55.5 -215.5q0 -141 -60 -235.5t-167 -150.5t-249 -80t-305 -24h-630v289h254zM1059 623q-77 0 -155 -48.5t-149 -124.5
t-129 -160l91 -1q135 0 250.5 13.5t185.5 52.5t70 116q0 69 -46.5 110.5t-117.5 41.5z" />
    <glyph glyph-name="uniFEC6" unicode="&#x638;" horiz-adv-x="1589" arabic-form="final" 
d="M1037 1405l180 -180l-180 -179l-179 179zM1053 907q126 0 223.5 -54t153 -148t55.5 -215q0 -44 -9.5 -101t-31.5 -93q23 -3 56 -5t79 -2h30v-289h-29q-119 0 -204.5 31.5t-149.5 74.5q-104 -46 -237.5 -76t-284.5 -30h-630v289h254q14 23 29 43.5t30 41.5v1028h269v-689
q93 89 187.5 141t209.5 53zM1059 623q-77 0 -155 -48.5t-149 -125t-129 -160.5h91q135 0 250.5 13.5t185.5 52.5t70 116q0 69 -46.5 110.5t-117.5 41.5z" />
    <glyph glyph-name="uniFEC7" unicode="&#x638;" horiz-adv-x="1360" arabic-form="initial" 
d="M834 1405l180 -180l-180 -179l-179 179zM122 289q14 23 28.5 43.5t29.5 41.5v1028h269v-689q92 89 187.5 141t208.5 52q127 0 224.5 -53.5t153 -147t55.5 -215.5q0 -141 -60 -235.5t-167 -150.5t-248.5 -80t-304.5 -24h-518v289h142zM852 623q-77 0 -155 -48.5t-149 -125
t-129 -160.5h91q135 0 250.5 13.5t185.5 52.5t70 116q0 69 -46.5 110.5t-117.5 41.5z" />
    <glyph glyph-name="uniFEC8" unicode="&#x638;" horiz-adv-x="1382" arabic-form="medial" 
d="M834 1405l180 -180l-180 -179l-179 179zM845 907q127 0 224.5 -54t153 -148t55.5 -215q0 -44 -9.5 -101t-31.5 -93q23 -3 56 -5t79 -2h30v-289h-29q-119 0 -204 31.5t-149 74.5q-104 -46 -237.5 -76t-284.5 -30h-518v289h142q14 23 28.5 43.5t29.5 41.5v1028h269v-689
q92 89 187 141t209 53zM852 623q-77 0 -155 -48.5t-149 -125t-129 -160.5h91q135 0 250.5 13.5t185.5 52.5t70 116q0 69 -46.5 110.5t-117.5 41.5z" />
    <glyph glyph-name="uniFEC9" unicode="&#x639;" horiz-adv-x="1317" arabic-form="isolated" 
d="M1135 520l-16 -273q-43 2 -74.5 2h-63.5q-182 0 -328 -37t-231.5 -117.5t-85.5 -210.5q0 -99 55.5 -164.5t145.5 -98t193 -32.5q121 0 227 24.5t209 65.5l77 -269q-116 -47 -246 -74t-255 -27q-131 0 -250 32t-211.5 99.5t-145.5 175.5t-53 259q0 180 77 312.5t228 226.5
q-38 49 -64 118t-26 150q0 119 62 218.5t163 160t217 60.5q101 0 200 -40t196 -109l-104 -236q-67 39 -130.5 66.5t-142.5 27.5q-76 0 -138 -43t-62 -119q0 -57 28.5 -99t56.5 -63q92 11 166.5 17t150.5 6q42 0 83.5 -2t91.5 -7z" />
    <glyph glyph-name="uniFECA" unicode="&#x639;" horiz-adv-x="1256" arabic-form="final" 
d="M429 319q-39 42 -87.5 99t-94 116.5t-74.5 111.5t-29 84q0 58 49 98.5t127 66t167 37t168 11.5t168 -11.5t167 -37t127.5 -66t49.5 -98.5q0 -33 -27 -82.5t-70.5 -106.5t-93 -114t-94.5 -105q74 -21 159.5 -27t166.5 -6h68v-289h-60q-98 0 -185.5 10.5t-178.5 43.5
t-202 101q-83 -47 -154.5 -98.5t-115 -105.5t-43.5 -111q0 -118 102 -181t253 -63q104 0 210.5 18.5t183.5 43.5l69 -282q-115 -31 -228.5 -48.5t-220.5 -17.5q-175 0 -316.5 53t-224.5 170t-83 307q0 96 32.5 168t85 127t113 99.5t116.5 84.5zM656 681q-49 0 -103.5 -5
t-113.5 -17q42 -45 92.5 -94t87 -83l36.5 -34l37 34t88 83t92 94q-58 12 -112 17t-104 5z" />
    <glyph glyph-name="uniFECB" unicode="&#x639;" horiz-adv-x="1093" arabic-form="initial" 
d="M197 289q-28 50 -44 119.5t-16 125.5q0 119 59 219.5t159.5 161t222.5 60.5q113 0 206 -40.5t190 -106.5l-104 -238q-65 39 -130 67t-143 28q-46 0 -93 -19t-78 -54.5t-31 -85.5q0 -42 19.5 -81.5t46.5 -69t48 -42.5q4 -1 16 3l487 116v-290q-252 -76 -482.5 -119
t-448.5 -43h-101v289h217z" />
    <glyph glyph-name="uniFECC" unicode="&#x639;" horiz-adv-x="1172" arabic-form="medial" 
d="M622 881q79 0 168 -11.5t167 -37t127.5 -66t49.5 -97.5q0 -33 -25.5 -81t-65 -100.5t-82 -100t-75.5 -80.5q41 -12 79 -15t71 -3h156v-289h-155q-117 0 -220.5 27.5t-194.5 73.5q-96 -48 -230.5 -74.5t-253.5 -26.5h-158v289h159q23 0 62.5 1t82.5 5t74 13
q-33 33 -75 80.5t-81 100t-65 100t-26 80.5q0 57 49 97.5t127 66t167 37t168 11.5zM623 619q-49 0 -103.5 -5t-113.5 -17q42 -45 92.5 -93.5t87 -82.5l36.5 -34l37 34t88.5 82.5t92.5 93.5q-58 12 -112.5 17t-104.5 5z" />
    <glyph glyph-name="uniFECD" unicode="&#x63a;" horiz-adv-x="1317" arabic-form="isolated" 
d="M721 1603l180 -180l-180 -179l-179 179zM1135 520l-16 -273q-43 2 -74.5 2h-63.5q-182 0 -328 -37t-231.5 -117.5t-85.5 -210.5q0 -99 55.5 -164.5t145.5 -98t193 -32.5q121 0 227 24.5t209 65.5l77 -269q-116 -47 -246 -74t-255 -27q-131 0 -250 32t-211.5 99.5
t-145.5 175.5t-53 259q0 180 77 312.5t228 226.5q-38 49 -64 118t-26 150q0 119 62 218.5t163 160t217 60.5q101 0 200 -40t196 -109l-104 -236q-67 39 -130.5 66.5t-142.5 27.5q-76 0 -138 -43t-62 -119q0 -57 28.5 -99t56.5 -63q92 11 166.5 17t150.5 6q42 0 83.5 -2
t91.5 -7z" />
    <glyph glyph-name="uniFECE" unicode="&#x63a;" horiz-adv-x="1256" arabic-form="final" 
d="M659 1434l180 -180l-180 -179l-179 179zM429 319q-39 42 -87.5 99t-94 116.5t-74.5 111.5t-29 84q0 58 49 98.5t127 66t167 37t168 11.5t168 -11.5t167 -37t127.5 -66t49.5 -98.5q0 -33 -27 -82.5t-70.5 -106.5t-93 -114t-94.5 -105q74 -21 159.5 -27t166.5 -6h68v-289
h-60q-98 0 -185.5 10.5t-178.5 43.5t-202 101q-83 -47 -154.5 -98.5t-115 -105.5t-43.5 -111q0 -118 102 -181t253 -63q104 0 210.5 18.5t183.5 43.5l69 -282q-115 -31 -228.5 -48.5t-220.5 -17.5q-175 0 -316.5 53t-224.5 170t-83 307q0 96 32.5 168t85 127t113 99.5
t116.5 84.5zM656 681q-49 0 -103.5 -5t-113.5 -17q42 -45 92.5 -94t87 -83l36.5 -34l37 34t88 83t92 94q-58 12 -112 17t-104 5z" />
    <glyph glyph-name="uniFECF" unicode="&#x63a;" horiz-adv-x="1093" arabic-form="initial" 
d="M560 1459l180 -180l-180 -179l-179 179zM197 289q-28 50 -44 119.5t-16 125.5q0 119 59 219.5t159.5 161t222.5 60.5q113 0 206 -40.5t190 -106.5l-104 -238q-65 39 -130 67t-143 28q-46 0 -93 -19t-78 -54.5t-31 -85.5q0 -42 19.5 -81.5t46.5 -69t48 -42.5q4 -1 16 3
l487 116v-290q-252 -76 -482.5 -119t-448.5 -43h-101v289h217z" />
    <glyph glyph-name="uniFED0" unicode="&#x63a;" horiz-adv-x="1172" arabic-form="medial" 
d="M619 1377l180 -180l-180 -179l-179 179zM622 881q79 0 168 -11.5t167 -37t127.5 -66t49.5 -97.5q0 -33 -25.5 -81t-65 -100.5t-82 -100t-75.5 -80.5q41 -12 79 -15t71 -3h156v-289h-155q-117 0 -220.5 27.5t-194.5 73.5q-96 -48 -230.5 -74.5t-253.5 -26.5h-158v289h159
q23 0 62.5 1t82.5 5t74 13q-33 33 -75 80.5t-81 100t-65 100t-26 80.5q0 57 49 97.5t127 66t167 37t168 11.5zM623 619q-49 0 -103.5 -5t-113.5 -17q42 -45 92.5 -93.5t87 -82.5l36.5 -34l37 34t88.5 82.5t92.5 93.5q-58 12 -112.5 17t-104.5 5z" />
    <glyph glyph-name="uniFED1" unicode="&#x641;" horiz-adv-x="1826" arabic-form="isolated" 
d="M1305 1641l180 -180l-180 -179l-179 179zM1489 399q-73 -14 -155 -14q-177 0 -280 78t-103 244q0 81 26.5 162.5t75.5 148.5t118.5 107.5t156.5 40.5q116 0 195.5 -56.5t128.5 -151.5t71 -211t22 -235q0 -208 -56 -318.5t-173.5 -152t-302.5 -41.5h-333q-173 0 -319 21.5
t-253.5 75.5t-166.5 151.5t-59 249.5q0 90 20 175.5t50 158.5l241 -91q-17 -47 -34.5 -109t-17.5 -118q0 -78 43 -123.5t117.5 -67t172 -28t206.5 -6.5h353q129 0 192 16t64 94zM1329 638q77 0 153 17q-7 48 -26.5 102t-51 92.5t-78.5 38.5q-62 0 -95.5 -55.5t-33.5 -113.5
q0 -53 38.5 -67t93.5 -14z" />
    <glyph glyph-name="uniFED2" unicode="&#x641;" horiz-adv-x="1928" arabic-form="final" 
d="M1439 1413l180 -180l-180 -179l-179 179zM880 289h80q37 0 82 0.5t86 1.5q-75 111 -75 233q0 79 33.5 153t90 133.5t127 94.5t144.5 35q77 0 149 -34.5t129.5 -94t91.5 -134.5t34 -155q0 -124 -77 -232q23 -1 42 -1h35h96v-289h-136q-83 0 -180 24.5t-184 53.5
q-60 -21 -144.5 -38.5t-169 -28.5t-143.5 -11h-111q-173 0 -318.5 21.5t-253 75.5t-167 151.5t-59.5 249.5q0 90 20 175.5t50 158.5l241 -91q-17 -47 -34.5 -109t-17.5 -118q0 -78 42.5 -123.5t117.5 -67t172.5 -28t206.5 -6.5zM1450 662q-29 0 -62 -23t-56 -56t-23 -63
q0 -37 24 -73.5t57.5 -65t61.5 -44.5q47 25 95.5 76t48.5 109q0 30 -24.5 62.5t-58.5 55t-63 22.5z" />
    <glyph glyph-name="uniFED3" unicode="&#x641;" horiz-adv-x="962" arabic-form="initial" 
d="M436 1641l180 -180l-180 -179l-179 179zM360 289q128 0 195.5 20t68.5 99q-73 -14 -155 -14q-177 0 -280 73.5t-103 239.5q0 81 26 162.5t75.5 149t119 108t156.5 40.5q115 0 195 -57t129 -152t71 -211t22 -235q0 -208 -56.5 -318.5t-174 -152t-301.5 -41.5h-368v289h380
zM465 639q38 0 76.5 4t75.5 12q-7 48 -26 102t-51 92.5t-79 38.5q-62 0 -95.5 -55.5t-33.5 -113.5q0 -53 39 -66.5t94 -13.5z" />
    <glyph glyph-name="uniFED4" unicode="&#x641;" horiz-adv-x="1019" arabic-form="medial" 
d="M522 1413l180 -180l-180 -179l-179 179zM943 522q0 -124 -77 -232q23 -1 42 -1h35h96v-289h-136q-83 0 -180 24.5t-184 53.5q-90 -31 -189.5 -54.5t-187.5 -23.5h-182v289h149q23 0 42.5 0.5t47.5 1.5q-75 109 -75 233q0 79 33.5 153t90 133.5t127 94.5t144.5 35
q77 0 149 -34.5t129.5 -94t91.5 -134.5t34 -155zM541 662q-29 0 -62 -23t-56 -56t-23 -63q0 -37 24 -73.5t57.5 -65t61.5 -44.5q31 17 64 45.5t56.5 65t23.5 74.5q0 30 -24.5 62.5t-58.5 55t-63 22.5z" />
    <glyph glyph-name="uniFED5" unicode="&#x642;" horiz-adv-x="1467" arabic-form="isolated" 
d="M775 1335l170 -168l168 168l171 -170l-171 -172l-168 170l-170 -170l-170 172zM722 -441q-215 0 -356.5 82t-211 224t-69.5 320q0 119 26 246.5t75 254.5l243 -93q-37 -106 -62 -207t-25 -189q0 -96 36 -176t119 -128t225 -48q199 0 297 64t114 191q-74 -17 -163 -17
q-178 0 -282 84.5t-104 264.5q0 75 24.5 155t72 149t118 112t163.5 43q117 0 198 -59t131 -157.5t72.5 -219.5t22.5 -244q0 -335 -162 -493.5t-502 -158.5zM963 362q77 0 154 17q-8 48 -27 102t-51 92.5t-79 38.5q-62 0 -95.5 -55.5t-33.5 -113.5q0 -53 38.5 -67t93.5 -14z
" />
    <glyph glyph-name="uniFED6" unicode="&#x642;" horiz-adv-x="1434" arabic-form="final" 
d="M722 -514q-215 0 -356.5 82t-211 224t-69.5 320q0 119 26 246.5t75 254.5l243 -93q-37 -106 -62 -207t-25 -189q0 -96 36 -176t119 -128t225 -48q182 0 288.5 55t122.5 173h-123q-202 0 -311.5 84.5t-109.5 273.5q0 75 22.5 159.5t69 159t118 122t169.5 47.5
q131 0 218.5 -80t135 -207t57.5 -270h75v-289h-74q-17 -271 -191.5 -392.5t-466.5 -121.5zM1000 289h129q-6 56 -23.5 119.5t-51 108t-89.5 44.5q-46 0 -73.5 -34t-39.5 -79t-12 -79q0 -54 44.5 -67t115.5 -13zM777 1285l170 -168l168 168l171 -170l-171 -172l-168 170
l-170 -170l-170 172z" />
    <glyph glyph-name="uniFED7" unicode="&#x642;" horiz-adv-x="962" arabic-form="initial" 
d="M268 1610l170 -168l168 168l171 -170l-171 -172l-168 170l-170 -170l-170 172zM360 289q128 0 195.5 20t68.5 99q-73 -14 -155 -14q-177 0 -280 73.5t-103 239.5q0 81 26 162.5t75.5 149t119 108t156.5 40.5q115 0 195 -57t129 -152t71 -211t22 -235q0 -208 -56.5 -318.5
t-174 -152t-301.5 -41.5h-368v289h380zM465 639q38 0 76.5 4t75.5 12q-7 48 -26 102t-51 92.5t-79 38.5q-62 0 -95.5 -55.5t-33.5 -113.5q0 -53 39 -66.5t94 -13.5z" />
    <glyph glyph-name="uniFED8" unicode="&#x642;" horiz-adv-x="1019" arabic-form="medial" 
d="M357 1387l170 -168l168 168l171 -170l-171 -172l-168 170l-170 -170l-170 172zM943 522q0 -124 -77 -232q23 -1 42 -1h35h96v-289h-136q-83 0 -180 24.5t-184 53.5q-90 -31 -189.5 -54.5t-187.5 -23.5h-182v289h149q23 0 42.5 0.5t47.5 1.5q-75 109 -75 233
q0 79 33.5 153t90 133.5t127 94.5t144.5 35q77 0 149 -34.5t129.5 -94t91.5 -134.5t34 -155zM541 662q-29 0 -62 -23t-56 -56t-23 -63q0 -37 24 -73.5t57.5 -65t61.5 -44.5q31 17 64 45.5t56.5 65t23.5 74.5q0 30 -24.5 62.5t-58.5 55t-63 22.5z" />
    <glyph glyph-name="uniFED9" unicode="&#x643;" horiz-adv-x="1864" arabic-form="isolated" 
d="M880 289h150q140 0 224.5 10.5t129 35.5t59.5 69.5t15 113.5v884h269v-881q0 -168 -43 -271t-128.5 -157t-213 -73.5t-297.5 -19.5h-165q-171 0 -316.5 21t-253.5 75t-168 151.5t-60 250.5q0 90 20 175.5t50 158.5l241 -91q-17 -47 -34.5 -109.5t-17.5 -118.5
q0 -103 73.5 -150.5t196 -60.5t269.5 -13zM715 706q74 -16 161 -16q60 0 104 9t44 27q0 10 -27.5 17t-68.5 16.5t-82 27.5t-69 49.5t-28 81.5q0 65 35.5 112.5t92.5 78.5t122.5 46.5t125.5 15.5l9 -153q-25 0 -65.5 -7t-81.5 -19t-68.5 -28.5t-27.5 -36.5q0 -14 37.5 -23
t88.5 -23t90 -43q25 -19 40 -45t15 -63q0 -71 -41.5 -111.5t-107.5 -57t-140 -16.5q-40 0 -80.5 4t-77.5 10v147z" />
    <glyph glyph-name="uniFEDA" unicode="&#x643;" horiz-adv-x="1888" arabic-form="final" 
d="M880 289h150q141 0 226 10.5t128.5 35.5t58.5 69.5t15 113.5v884h269v-881q0 -77 7.5 -128.5t38 -77.5t98.5 -26h37v-289h-35q-123 0 -189 31.5t-109 107.5q-106 -93 -240.5 -116t-297.5 -23h-157q-171 0 -316.5 21t-253.5 75t-168 151.5t-60 250.5q0 90 20 175.5
t50 158.5l241 -91q-17 -47 -34.5 -109.5t-17.5 -118.5q0 -103 73.5 -150.5t196 -60.5t269.5 -13zM715 706q74 -16 161 -16q60 0 104 9t44 27q0 10 -27.5 17t-68.5 16.5t-82 27.5t-69 49.5t-28 81.5q0 65 35.5 112.5t92.5 78.5t122.5 46.5t125.5 15.5l9 -153q-25 0 -65.5 -7
t-81.5 -19t-68.5 -28.5t-27.5 -36.5q0 -14 37.5 -23t88.5 -23t90 -43q25 -19 40 -45t15 -63q0 -71 -41.5 -111.5t-107.5 -57t-140 -16.5q-40 0 -80.5 4t-77.5 10v147z" />
    <glyph glyph-name="uniFEDB" unicode="&#x643;" horiz-adv-x="934" arabic-form="initial" 
d="M342 924q134 -80 237.5 -156.5t162.5 -164.5t59 -203q0 -157 -72 -244t-202 -121.5t-303 -34.5h-244v289h243q160 0 240 22.5t80 92.5q0 33 -49 76.5t-122.5 92t-150 96t-132.5 87.5q-42 30 -63.5 80t-21.5 102q0 56 26 105t81 71l772 315v-286z" />
    <glyph glyph-name="uniFEDC" unicode="&#x643;" horiz-adv-x="1046" arabic-form="medial" 
d="M342 924q134 -79 220 -142t140.5 -131t93.5 -163q30 -72 57.5 -116t69.5 -63.5t115 -19.5h28v-289h-28q-121 0 -202.5 35.5t-138.5 118.5q-52 -58 -113.5 -91.5t-147 -48t-212.5 -14.5h-244v289h243q160 0 240 22.5t80 92.5q0 33 -49 76.5t-122.5 92t-150 96t-132.5 87.5
q-42 31 -64 81.5t-22 104.5q0 57 26.5 103.5t81.5 68.5l772 315v-286z" />
    <glyph glyph-name="uniFEDD" unicode="&#x644;" horiz-adv-x="1370" arabic-form="isolated" 
d="M1233 166q0 -316 -131 -489t-430 -173q-294 0 -442 157t-148 439q0 116 27.5 241t73.5 240l243 -93q-34 -90 -61 -195t-27 -194q0 -148 82.5 -228.5t251.5 -80.5q114 0 177.5 43.5t89 123.5t25.5 191v1254h269v-1236z" />
    <glyph glyph-name="uniFEDE" unicode="&#x644;" horiz-adv-x="1398" arabic-form="final" 
d="M672 -496q-294 0 -442 156.5t-148 439.5q0 116 27.5 241t73.5 240l243 -93q-34 -90 -61 -195t-27 -194q0 -150 82.5 -229.5t251.5 -79.5q114 0 177.5 43.5t89 124t25.5 190.5v1254h269v-892q0 -97 29.5 -159t124.5 -62h31v-289h-29q-55 0 -92.5 12.5t-70.5 35.5
q-19 -253 -148.5 -398.5t-405.5 -145.5z" />
    <glyph glyph-name="uniFEDF" unicode="&#x644;" horiz-adv-x="624" arabic-form="initial" 
d="M-20 289h76q104 0 133 49t29 149v915h269v-939q0 -229 -101.5 -346t-330.5 -117h-75v289z" />
    <glyph glyph-name="uniFEE0" unicode="&#x644;" horiz-adv-x="651" arabic-form="medial" 
d="M218 478v924h269v-924q0 -94 30.5 -141.5t121.5 -47.5h32v-289h-30q-106 0 -172.5 32.5t-116.5 96.5q-53 -61 -123.5 -95t-187.5 -34h-61v289h54q101 0 142.5 45.5t41.5 143.5z" />
    <glyph glyph-name="uniFEE1" unicode="&#x645;" horiz-adv-x="1268" arabic-form="isolated" 
d="M353 392q35 111 93.5 208.5t141 157.5t187.5 60q123 0 215.5 -54.5t144 -152.5t51.5 -230q0 -108 -39 -198t-116.5 -144.5t-191.5 -54.5q-54 0 -115 19t-120.5 43.5t-108 43.5t-77.5 19q-45 0 -60 -98t-15 -243q0 -85 3.5 -167t8 -145t7.5 -93h-275q-5 108 -9.5 209.5
t-4.5 195.5q0 176 18.5 308t78 213t183.5 103zM932 383q0 61 -41.5 109t-111.5 48q-44 0 -78 -30t-57.5 -74t-38.5 -87q67 -30 131.5 -55.5t107.5 -25.5q49 0 68.5 35t19.5 80z" />
    <glyph glyph-name="uniFEE2" unicode="&#x645;" horiz-adv-x="1323" arabic-form="final" 
d="M1177 479q8 -41 26 -85.5t46.5 -74.5t66.5 -30h27v-289h-28q-64 0 -125.5 30t-99.5 71q-43 -58 -102 -87.5t-149 -29.5q-54 0 -115.5 19t-120.5 43.5t-107.5 43.5t-77.5 19q-45 0 -60 -98t-15 -243q0 -85 3.5 -167t8 -145t7.5 -93h-275q-5 108 -9.5 209.5t-4.5 195.5
q0 176 18.5 308t78 213t183.5 103q34 111 92.5 208.5t141.5 157.5t188 60q161 0 268.5 -90.5t133.5 -248.5zM932 383q0 61 -42 109t-111 48q-44 0 -78 -30t-57.5 -74t-38.5 -87q67 -30 131.5 -55.5t107.5 -25.5q49 0 68.5 35t19.5 80z" />
    <glyph glyph-name="uniFEE3" unicode="&#x645;" horiz-adv-x="1117" arabic-form="initial" 
d="M683 -23q-104 0 -194.5 44.5t-176.5 110.5q-55 -55 -114.5 -93.5t-173.5 -38.5h-44v289h39q49 0 88.5 38t76 98.5t77 128t91 128t117.5 98.5t157 38q126 0 218 -59.5t142 -157t50 -212.5q0 -118 -39 -211t-117.5 -147t-196.5 -54zM635 543q-41 0 -74 -27.5t-58 -66.5
t-42 -74q29 -26 55 -45t50 -33q36 -20 66 -28t52 -8q53 0 76 38.5t23 87.5q0 63 -39 109.5t-109 46.5z" />
    <glyph glyph-name="uniFEE4" unicode="&#x645;" horiz-adv-x="1174" arabic-form="medial" 
d="M24 0h-44l1 289h38q49 0 88.5 38t76 98.5t77 128t91 128t117.5 98.5t157 38q113 0 197.5 -47t136.5 -127t69 -179q17 -100 56 -138t83 -38h26v-289h-27q-64 0 -126 29.5t-100 69.5q-50 -63 -111 -92.5t-147 -29.5q-104 0 -194.5 44.5t-176.5 110.5q-55 -55 -114.5 -93.5
t-173.5 -38.5zM635 543q-41 0 -74 -27.5t-58 -66.5t-42 -74q31 -28 59 -48t53 -34q34 -17 62 -24.5t49 -7.5q53 0 76 38.5t23 87.5q0 63 -39 109.5t-109 46.5z" />
    <glyph glyph-name="uniFEE5" unicode="&#x646;" horiz-adv-x="1435" arabic-form="isolated" 
d="M700 944l180 -180l-180 -179l-179 179zM713 -156q145 0 228 46t118.5 125.5t35.5 179.5q0 107 -34.5 221.5t-77.5 219.5l267 100q56 -151 79.5 -277t23.5 -257q0 -298 -163.5 -471t-476.5 -173q-215 0 -354.5 82t-206.5 224t-67 321q0 119 26 246t75 254l243 -93
q-37 -106 -62 -207t-25 -189q0 -96 34 -176t115 -128t222 -48z" />
    <glyph glyph-name="uniFEE6" unicode="&#x646;" horiz-adv-x="1503" arabic-form="final" 
d="M701 868l180 -180l-180 -179l-179 179zM713 -228q144 0 227.5 46t119 125t35.5 179q0 108 -34.5 222.5t-77.5 218.5l267 100l80 -243q17 -52 52 -91.5t101 -39.5h40v-289h-36q-43 0 -75 7t-60 27q-32 -253 -194 -400.5t-445 -147.5q-215 0 -354.5 82t-206.5 224t-67 320
q0 119 26 246.5t75 254.5l243 -93q-37 -106 -62 -207t-25 -189q0 -96 34 -176t115 -128t222 -48z" />
    <glyph glyph-name="uniFEE7" unicode="&#x646;" horiz-adv-x="609" arabic-form="initial" 
d="M139 0h-159v289h160q76 0 104.5 47.5t28.5 120.5q0 68 -16.5 148.5t-33.5 157.5l262 68q19 -94 30.5 -186.5t11.5 -176.5q0 -133 -36 -239t-120.5 -167.5t-231.5 -61.5zM257 1304l180 -180l-180 -179l-179 179z" />
    <glyph glyph-name="uniFEE8" unicode="&#x646;" horiz-adv-x="690" arabic-form="medial" 
d="M259 687l250 31l20 -286q5 -76 42 -109.5t118 -33.5h21v-289h-23q-100 0 -171.5 36t-117.5 94q-61 -61 -144.5 -95.5t-177.5 -34.5h-96v289h96q110 0 151.5 37.5t41.5 137.5q0 59 -3 114.5t-7 108.5zM314 1217l180 -180l-180 -179l-179 179z" />
    <glyph glyph-name="uniFEE9" unicode="&#x647;" horiz-adv-x="1005" arabic-form="isolated" 
d="M293 781l-40 35l168 215q90 -71 179 -143t162.5 -149t117.5 -162t44 -181q0 -122 -54 -210t-149 -135t-218 -47q-207 0 -314.5 101.5t-107.5 254.5q0 125 61.5 222.5t150.5 198.5zM669 394q0 32 -28.5 71.5t-70 77.5t-79.5 67q-35 -31 -70.5 -71t-59.5 -80t-24 -73
q0 -46 44.5 -71.5t120.5 -25.5q167 0 167 105z" />
    <glyph glyph-name="uniFEEA" unicode="&#x647;" horiz-adv-x="1096" arabic-form="final" 
d="M1081 0q-282 0 -360 239q-118 -90 -251 -90q-166 0 -277 90.5t-111 267.5q0 130 75 222.5t193.5 155.5t247.5 102l-7 48l242 49l95 -642q8 -55 47 -104t110 -49h31v-289h-35zM666 547q0 14 -2.5 31.5t-5.5 36.5l-17 105q-71 -24 -139.5 -55.5t-113 -69t-44.5 -80.5
q0 -41 33.5 -66.5t87.5 -25.5q46 0 92.5 13.5t77.5 41t31 69.5z" />
    <glyph glyph-name="uniFEEB" unicode="&#x647;" horiz-adv-x="1449" arabic-form="initial" 
d="M510 87q-90 -31 -205.5 -59t-225.5 -28h-99v289h86q33 0 62.5 1t60.5 3q-31 40 -50 106.5t-19 123.5q0 85 42 167t126 137t209 59l96 190q186 -88 330.5 -161t243 -144t149.5 -153.5t51 -190.5q0 -204 -122 -310.5t-323 -106.5q-105 0 -220 26t-192 51zM369 525
q0 -55 50 -102.5t108 -65.5q27 6 62.5 27.5t61.5 53t26 67.5q0 60 -43 108t-105 48q-64 0 -112 -40.5t-48 -95.5zM807 289q47 -8 91 -12t63 -4q59 0 108 30.5t49 115.5q0 21 -15.5 48.5t-66 67.5t-154.5 98q14 -43 14 -89q0 -78 -24.5 -141.5t-64.5 -113.5z" />
    <glyph glyph-name="uniFEEC" unicode="&#x647;" horiz-adv-x="1020" arabic-form="medial" 
d="M-20 0v289h167v23q0 96 20.5 203t67 201.5t123 153.5t187.5 59q96 0 165 -46.5t105.5 -126t36.5 -178.5q0 -93 -35 -183.5t-95 -169t-136.5 -136t-160.5 -84.5q14 -43 48.5 -93t74.5 -85q21 86 67.5 168t109.5 148.5t135.5 106t146.5 39.5h33v-289h-35
q-130 0 -177.5 -66.5t-47.5 -200.5q0 -25 1 -52.5t3 -55.5l-175 -163q-98 47 -190 132t-159.5 191t-92.5 215h-187zM534 650q-37 0 -63.5 -34t-43 -86.5t-24 -111t-7.5 -106.5v-23q61 5 112 43t82.5 97.5t31.5 127.5q0 43 -24 68t-64 25z" />
    <glyph glyph-name="uniFEED" unicode="&#x648;" horiz-adv-x="960" arabic-form="isolated" 
d="M879 222q0 -234 -86.5 -389t-244.5 -246t-374 -132l-99 267q204 39 341.5 111t174.5 177q-25 -5 -52 -8.5t-49 -3.5q-190 0 -299 84t-109 276q0 81 24 165.5t71.5 157t119 117t165.5 44.5q111 0 190.5 -53.5t129.5 -142.5t73.5 -199.5t23.5 -224.5zM486 286q43 0 78.5 5
t58.5 10q-6 51 -23 111.5t-50.5 104.5t-89.5 44q-48 0 -75.5 -34.5t-38.5 -80t-11 -77.5q0 -54 43.5 -68.5t107.5 -14.5z" />
    <glyph glyph-name="uniFEEE" unicode="&#x648;" horiz-adv-x="929" arabic-form="final" 
d="M462 846q131 0 218.5 -80t135.5 -207t58 -270h75v-289h-95q-57 -228 -224 -358.5t-456 -186.5l-99 267q126 24 233.5 64t182 94t99.5 120h-94q-202 0 -308 84.5t-106 273.5q0 75 22.5 159.5t69.5 159t118.5 122t169.5 47.5zM495 289h128q-6 56 -23.5 119.5t-51 108
t-88.5 44.5q-47 0 -74.5 -34t-39 -79t-11.5 -79q0 -53 44.5 -66.5t115.5 -13.5z" />
    <glyph glyph-name="uniFEEF" unicode="&#x649;" horiz-adv-x="1487" arabic-form="isolated" 
d="M713 -504q-215 0 -354.5 82t-206.5 224t-67 320q0 119 26 246.5t75 254.5l243 -93q-37 -106 -62 -207t-25 -189q0 -96 34 -176t115 -128t222 -48q152 0 253 34.5t151 81.5t50 83q0 29 -36 29h-162q-51 0 -106.5 10t-103.5 43t-77.5 99t-29.5 177q0 104 34 200.5
t97.5 172.5t152.5 121t200 45q75 0 147.5 -22.5t133.5 -66.5l-92 -255q-52 29 -99.5 40.5t-87.5 11.5q-108 0 -169 -70.5t-61 -175.5q0 -27 17.5 -34t43.5 -7h146q115 0 180.5 -36t93 -99.5t27.5 -144.5q0 -143 -82 -262t-239 -190t-382 -71z" />
    <glyph glyph-name="uniFEF0" unicode="&#x649;" horiz-adv-x="1354" arabic-form="final" 
d="M713 -514q-220 0 -358.5 85t-204 227.5t-65.5 316.5q0 99 19.5 207t61.5 220l243 -88q-30 -87 -48 -173t-18 -162q0 -97 34.5 -175.5t115.5 -125t220 -46.5q159 0 255 33t139.5 74t43.5 64q0 35 -33.5 46t-106.5 11h-158q-41 0 -52 21t-21 56l-43 155q-7 25 -4.5 41
t38.5 16h604v-289h8q9 -35 9 -56q0 -122 -80.5 -226.5t-232 -168t-366.5 -63.5z" />
    <glyph glyph-name="uniFEF1" unicode="&#x64a;" horiz-adv-x="1487" arabic-form="isolated" 
d="M566 -616l170 -168l168 168l171 -170l-171 -172l-168 170l-170 -170l-170 172zM713 -504q-215 0 -354.5 82t-206.5 224t-67 320q0 119 26 246.5t75 254.5l243 -93q-37 -106 -62 -207t-25 -189q0 -96 34 -176t115 -128t222 -48q152 0 253 34.5t151 81.5t50 83q0 29 -36 29
h-162q-51 0 -106.5 10t-103.5 43t-77.5 99t-29.5 177q0 104 34 200.5t97.5 172.5t152.5 121t200 45q75 0 147.5 -22.5t133.5 -66.5l-92 -255q-52 29 -99.5 40.5t-87.5 11.5q-108 0 -169 -70.5t-61 -175.5q0 -27 17.5 -34t43.5 -7h146q115 0 180.5 -36t93 -99.5t27.5 -144.5
q0 -143 -82 -262t-239 -190t-382 -71z" />
    <glyph glyph-name="uniFEF2" unicode="&#x64a;" horiz-adv-x="1354" arabic-form="final" 
d="M713 -514q-220 0 -358.5 85t-204 227.5t-65.5 316.5q0 99 19.5 207t61.5 220l243 -88q-30 -87 -48 -173t-18 -162q0 -97 34.5 -175.5t115.5 -125t220 -46.5q159 0 255 33t139.5 74t43.5 64q0 35 -33.5 46t-106.5 11h-158q-41 0 -52 21t-21 56l-43 155q-7 25 -4.5 41
t38.5 16h604v-289h8q9 -35 9 -56q0 -122 -80.5 -226.5t-232 -168t-366.5 -63.5zM572 -628l170 -168l168 168l171 -170l-171 -172l-168 170l-170 -170l-170 172z" />
    <glyph glyph-name="uniFEF3" unicode="&#x64a;" horiz-adv-x="663" arabic-form="initial" 
d="M193 0h-215v289h216q76 0 104.5 47.5t28.5 120.5q0 68 -16.5 148.5t-33.5 157.5l262 68q19 -94 30.5 -186.5t11.5 -176.5q0 -133 -35.5 -239t-120.5 -167.5t-232 -61.5zM4 -128l170 -168l168 168l171 -170l-171 -172l-168 170l-170 -170l-170 172z" />
    <glyph glyph-name="uniFEF4" unicode="&#x64a;" horiz-adv-x="743" arabic-form="medial" 
d="M-22 289h151q110 0 151.5 37.5t41.5 137.5q0 59 -3 114.5t-7 108.5l250 31l20 -286q5 -76 42 -109.5t118 -33.5h21v-289h-23q-100 0 -171.5 36t-117.5 94q-61 -61 -144.5 -95.5t-177.5 -34.5h-151v289zM4 -128l170 -168l168 168l171 -170l-171 -172l-168 170l-170 -170
l-170 172z" />
    <glyph glyph-name=".notdef" horiz-adv-x="908" 
 />
    <glyph glyph-name=".null" 
 />
    <glyph glyph-name=".null" 
 />
    <glyph glyph-name="nonmarkingreturn" horiz-adv-x="682" 
 />
    <glyph glyph-name="CR" unicode="&#xd;" horiz-adv-x="510" 
 />
    <glyph glyph-name="space" unicode=" " horiz-adv-x="508" 
 />
    <glyph glyph-name="exclam" unicode="!" horiz-adv-x="607" 
d="M157 1406h298l-18 -917h-261zM120 177q0 75 54 125.5t130 50.5q77 0 130 -50.5t53 -125.5q0 -76 -53.5 -126t-129.5 -50q-78 0 -131 50t-53 126z" />
    <glyph glyph-name="quotedbl" unicode="&#x22;" horiz-adv-x="651" 
d="M260 1537v-139l-41 -417h-175v556h216zM597 1537v-139l-40 -417h-174v556h214z" />
    <glyph glyph-name="numbersign" unicode="#" horiz-adv-x="1201" 
d="M200 0l70 410h-226v176h255l48 278h-227v176h256l71 416h189l-70 -416h178l71 416h190l-71 -416h226v-176h-255l-48 -278h228v-176h-257l-70 -410h-190l70 410h-179l-69 -410h-190zM489 586h178l48 278h-179z" />
    <glyph glyph-name="dollar" unicode="$" horiz-adv-x="1181" 
d="M776 384q0 83 -43 129.5t-147 88.5q-132 52 -232 109t-156 141.5t-56 217.5q0 171 112.5 279t295.5 125v212h158v-216q175 -25 280 -145.5t105 -318.5h-313q0 119 -47 175t-122 56q-83 0 -120 -49t-37 -119q0 -73 41 -118.5t151 -92.5q130 -53 229.5 -111.5t156.5 -143.5
t57 -217q0 -176 -110 -280t-291 -123v-199h-158v199q-113 12 -214.5 63t-165 152t-63.5 263h313q0 -93 30 -145.5t78 -74.5t101 -22q85 0 126 47.5t41 117.5z" />
    <glyph glyph-name="percent" unicode="%" horiz-adv-x="1518" 
d="M93 1099v77q0 124 81 212.5t238 88.5q161 0 241 -88.5t80 -212.5v-77q0 -122 -80 -210.5t-239 -88.5q-158 0 -239.5 88.5t-81.5 210.5zM1186 1247l-711 -1138l-149 77l711 1138zM297 1176v-77q0 -49 29 -88t88 -39t87 39t28 88v77q0 51 -28.5 90t-88.5 39
q-58 0 -86.5 -39t-28.5 -90zM787 280v77q0 123 82 211.5t239 88.5q161 0 240.5 -88.5t79.5 -211.5v-77q0 -123 -79.5 -211.5t-238.5 -88.5q-158 0 -240.5 88.5t-82.5 211.5zM992 357v-77q0 -50 33 -89t85 -39q71 0 92.5 39t21.5 89v77q0 50 -28.5 89t-87.5 39t-87.5 -39
t-28.5 -89z" />
    <glyph glyph-name="ampersand" unicode="&#x26;" horiz-adv-x="1364" 
d="M982 0l-72 82q-83 -52 -172.5 -77.5t-199.5 -25.5q-146 0 -253 53t-164.5 146t-57.5 213q0 128 73 213t187 167q-62 85 -97 161t-35 158q0 115 50 202t141 136t213 49q115 0 199 -47t130 -125t46 -171q0 -101 -54.5 -181t-138.5 -140l-90 -64l240 -278q26 53 41 115.5
t15 132.5h264q0 -134 -31 -252t-103 -212l220 -255h-351zM466 1095q0 -44 22.5 -88t60.5 -93l70 45q62 40 79.5 77.5t17.5 77.5q0 44 -31.5 82t-90.5 38q-64 0 -96 -41t-32 -98zM378 410q0 -82 51 -135t129 -53q97 0 186 51l-279 320l-15 -11q-43 -44 -57.5 -86.5
t-14.5 -85.5z" />
    <glyph glyph-name="quotesingle" unicode="'" horiz-adv-x="323" 
d="M279 1536v-154l-32 -405h-193v559h225z" />
    <glyph glyph-name="parenleft" unicode="(" horiz-adv-x="725" 
d="M385 592q0 -175 33 -344t100.5 -305t169.5 -212l-60 -159q-154 69 -265.5 221t-172 358t-60.5 436q0 172 34.5 333.5t99 299.5t157 239.5t207.5 152.5l60 -159q-102 -75 -169.5 -211.5t-100.5 -305.5t-33 -344z" />
    <glyph glyph-name="parenright" unicode=")" horiz-adv-x="725" 
d="M340 592q0 175 -33 344t-100 305.5t-170 211.5l60 159q154 -68 265.5 -222t172 -361t60.5 -437t-60.5 -437.5t-172 -360.5t-265.5 -222l-60 159q103 76 170 212t100 305t33 344z" />
    <glyph glyph-name="asterisk" unicode="*" horiz-adv-x="942" 
d="M126 688l222 273l-321 90l62 182l316 -128l-22 351h203l-23 -357l309 125l61 -185l-326 -90l215 -266l-164 -114l-184 293l-184 -284z" />
    <glyph glyph-name="plus" unicode="+" horiz-adv-x="1132" 
d="M684 402v-372h-236v372h-333v236h333v344h236v-344h333v-236h-333z" />
    <glyph glyph-name="comma" unicode="," horiz-adv-x="528" 
d="M403 249l-2 -204q0 -116 -57 -231.5t-143 -189.5l-160 79q34 68 69.5 141t35.5 185v220h257z" />
    <glyph glyph-name="hyphen" unicode="-" horiz-adv-x="989" 
d="M874 401h-759v235h759v-235z" />
    <glyph glyph-name="period" unicode="." horiz-adv-x="624" 
d="M128 176q0 75 54 125.5t130 50.5q77 0 130.5 -50.5t53.5 -125.5q0 -76 -54 -126t-130 -50q-78 0 -131 50t-53 126z" />
    <glyph glyph-name="slash" unicode="/" horiz-adv-x="739" 
d="M205 -125h-226l514 1581h227z" />
    <glyph glyph-name="zero" unicode="0" horiz-adv-x="914" 
d="M112 478q0 96 46.5 174t124.5 124.5t174 46.5t174 -46.5t124.5 -124.5t46.5 -174t-46.5 -174t-124.5 -124.5t-174 -46.5t-174 46.5t-124.5 124.5t-46.5 174zM330 478q0 -53 37 -86t90 -33q54 0 90.5 33t36.5 86t-36.5 86t-90.5 33q-53 0 -90 -33t-37 -86z" />
    <glyph glyph-name="one" unicode="1" horiz-adv-x="641" 
d="M515 0h-274v202q0 238 -18.5 429.5t-59.5 351t-109 300.5l256 93q113 -250 159 -536t46 -641v-199z" />
    <glyph glyph-name="two" unicode="2" horiz-adv-x="1122" 
d="M1028 1352q5 -46 8.5 -96.5t3.5 -97.5q0 -144 -37.5 -254t-124.5 -172t-236 -62q-28 0 -70.5 2.5t-80.5 10.5q13 -129 18 -250.5t5 -233.5v-199h-274v202q0 238 -18 429.5t-59 351t-109 300.5l256 92q30 -73 51 -129t50 -127q24 -57 48.5 -91.5t64 -50t108.5 -15.5
q80 0 119 46t39 116q0 55 -6.5 105.5t-14.5 98.5z" />
    <glyph glyph-name="three" unicode="3" horiz-adv-x="1399" 
d="M990 670q-66 0 -130.5 23.5t-99.5 63.5q-35 -37 -90.5 -62t-107.5 -25q-14 0 -35 0.5t-35 3.5q14 -130 18 -243t4 -232v-199h-274v202q0 238 -18 429.5t-59 351t-109 300.5l256 92q36 -86 59 -154t60 -156q18 -43 44.5 -73t78.5 -30q59 0 76 44.5t18 131.5l2 151l221 12
l6 -143q5 -121 29.5 -158.5t75.5 -37.5q38 0 57 27t25 68t6 84q0 50 -7.5 101t-12.5 86l258 24q5 -50 8.5 -102.5t3.5 -103.5q0 -125 -30.5 -233.5t-102 -175.5t-195.5 -67z" />
    <glyph glyph-name="four" unicode="4" horiz-adv-x="1220" 
d="M847 1097q-80 0 -122.5 -62.5t-42.5 -136.5q0 -27 57.5 -45.5t140.5 -18.5q61 0 128.5 12.5t128.5 41.5l37 -267q-86 -41 -167 -53t-139 -12q-103 0 -205 27t-170 70q14 -127 17.5 -249t3.5 -214v-190h-274v193q0 357 -42 618t-145 472l260 93l92 -270q19 -53 32.5 -87
t32.5 -54q6 106 51.5 195.5t125.5 144.5t188 55q104 0 172.5 -31t124.5 -75l-88 -220q-51 30 -96 46.5t-101 16.5z" />
    <glyph glyph-name="five" unicode="5" horiz-adv-x="1258" 
d="M631 112q-34 -49 -91.5 -80.5t-128.5 -31.5q-167 0 -249 106t-82 281q0 120 52 243.5t132 244t164 229.5l-60 59l165 218q233 -201 375 -381.5t206 -334.5t64 -278q0 -173 -80 -280t-247 -107q-67 0 -126 32t-94 80zM346 386q0 -43 26 -70t55 -27q42 0 62.5 32t30 79.5
t17.5 93.5h183q9 -48 18 -95.5t30.5 -78.5t65.5 -31q32 0 54.5 25t22.5 72q0 87 -39.5 177t-104.5 177.5t-141 168.5q-75 -95 -138.5 -186t-102.5 -176t-39 -161z" />
    <glyph glyph-name="six" unicode="6" horiz-adv-x="1047" 
d="M400 538q-132 36 -221.5 117.5t-89.5 228.5q0 132 56 239.5t157.5 171t236.5 63.5q96 0 168.5 -30t134.5 -77l-89 -234q-43 25 -95 47.5t-108 22.5q-49 0 -95.5 -22.5t-77.5 -61t-31 -87.5q0 -30 29 -56t72 -46t88 -32t77 -14q2 0 9.5 4.5t8.5 5.5q74 46 141 93t149 88
l74 -267q-125 -77 -233.5 -177t-214 -237.5t-222.5 -329.5l-243 105q63 121 145.5 242.5t173.5 242.5z" />
    <glyph glyph-name="seven" unicode="7" horiz-adv-x="1256" 
d="M499 0q-41 254 -119.5 488.5t-170.5 429t-174 326.5l248 135q85 -153 181.5 -370.5t163.5 -468.5q40 150 99.5 305t124.5 294t121 240l248 -135q-82 -132 -174 -326.5t-170 -429t-119 -488.5h-259z" />
    <glyph glyph-name="eight" unicode="8" horiz-adv-x="1256" 
d="M499 1322h259q41 -254 119 -488.5t170 -428.5t174 -327l-248 -135q-56 102 -121 240.5t-124.5 293.5t-99.5 305q-67 -251 -163.5 -468.5t-181.5 -370.5l-248 135q82 133 174 327t170.5 429t119.5 488z" />
    <glyph glyph-name="nine" unicode="9" horiz-adv-x="1029" 
d="M486 546q-110 0 -203.5 27.5t-150 105t-56.5 227.5q0 75 25.5 155.5t74.5 149t119.5 111.5t161.5 43q122 0 202.5 -52t128 -144.5t69 -215t25.5 -263.5q2 -49 3.5 -132.5t3.5 -182.5t4.5 -197.5t5.5 -177.5h-273q-4 144 -6.5 284.5t-4.5 274.5q-40 -6 -70.5 -9.5
t-58.5 -3.5zM473 825q24 0 65.5 3.5t69.5 10.5q-4 61 -19 118.5t-46.5 94.5t-87.5 37q-48 0 -76.5 -32t-40.5 -75t-12 -76q0 -44 27.5 -62.5t119.5 -18.5z" />
    <glyph glyph-name="colon" unicode=":" horiz-adv-x="624" 
d="M128 766q0 76 54 126t130 50q77 0 130.5 -50t53.5 -126q0 -75 -54 -125t-130 -50q-78 0 -131 49.5t-53 125.5zM128 177q0 75 54 125.5t130 50.5q77 0 130.5 -50.5t53.5 -125.5q0 -76 -54 -126t-130 -50q-78 0 -131 50t-53 126z" />
    <glyph glyph-name="semicolon" unicode=";" horiz-adv-x="565" 
d="M114 988q0 75 54 125.5t130 50.5q77 0 130.5 -50.5t53.5 -125.5q0 -76 -54 -126t-130 -50q-78 0 -131 50t-53 126zM426 249l-2 -204q0 -116 -57 -231.5t-143 -189.5l-160 79q34 68 69.5 141t35.5 185v220h257z" />
    <glyph glyph-name="less" unicode="&#x3c;" horiz-adv-x="1044" 
d="M924 815l-559 -199l559 -196v-289l-874 363v246l874 363v-288z" />
    <glyph glyph-name="equal" unicode="=" horiz-adv-x="1158" 
d="M1035 604h-901v226h901v-226zM1035 198h-901v226h901v-226z" />
    <glyph glyph-name="greater" unicode="&#x3e;" horiz-adv-x="1054" 
d="M115 417l565 202l-565 196v288l876 -363v-247l-876 -363v287z" />
    <glyph glyph-name="question" unicode="?" horiz-adv-x="1032" 
d="M617 453h-271q0 134 31.5 219.5t113.5 158.5q71 60 113 114.5t42 123.5q0 163 -143 163q-58 0 -103.5 -40t-47.5 -129h-314q3 143 65 234.5t166.5 135t233.5 43.5q215 0 336 -101t121 -292q0 -87 -33 -152.5t-88 -122t-122 -117.5q-58 -51 -78 -105.5t-22 -132.5z
M310 147q0 68 48 113.5t127 45.5t126.5 -45.5t47.5 -113.5q0 -67 -47.5 -113t-126.5 -46t-127 46t-48 113z" />
    <glyph glyph-name="at" unicode="@" horiz-adv-x="1835" 
d="M1752 542q-4 -104 -30.5 -204t-80 -181.5t-136 -129.5t-197.5 -48q-83 0 -146 37.5t-97 104.5q-98 -139 -263 -139q-97 0 -167 56t-103 157.5t-21 237.5q20 170 86 295t167 193.5t222 68.5q117 0 183.5 -33t127.5 -76l-50 -582q-11 -94 24 -124t77 -30q61 0 108 51.5
t75 139.5t31 198q11 215 -50.5 375.5t-198 249.5t-352.5 89q-204 0 -352 -103t-231.5 -281t-94.5 -403q-17 -362 145 -548t467 -186q87 0 177.5 19.5t153.5 47.5l38 -158q-70 -45 -175 -67t-198 -22q-400 0 -616 233.5t-199 680.5q9 205 74.5 379t181.5 302.5t275.5 199.5
t357.5 71q263 0 442 -109t267.5 -305t77.5 -457zM747 433q-10 -130 22.5 -199t105.5 -69q34 0 80.5 33t81.5 136l41 465q-36 10 -73 10q-118 0 -178.5 -96.5t-79.5 -279.5z" />
    <glyph glyph-name="A" unicode="A" horiz-adv-x="1385" 
d="M1037 0l-93 290h-503l-92 -290h-348l539 1456h304l541 -1456h-348zM522 542h342l-171 535z" />
    <glyph glyph-name="B" unicode="B" horiz-adv-x="1315" 
d="M689 0h-569v1456h516q262 0 410 -98t148 -302q0 -99 -48 -183t-159 -126q129 -33 183.5 -124t54.5 -194q0 -213 -137 -321t-399 -108zM636 1203h-190v-356h189q123 0 178 44.5t55 129.5q0 97 -55 139.5t-177 42.5zM902 433q0 90 -46.5 143t-153.5 53h-256v-377h243
q113 0 163 52t50 129z" />
    <glyph glyph-name="C" unicode="C" horiz-adv-x="1342" 
d="M957 488h324q-8 -150 -81 -264.5t-203.5 -179t-309.5 -64.5q-190 0 -326.5 85.5t-209.5 243t-73 374.5v89q0 217 75.5 375t212 244t320.5 86q186 0 314 -67t198.5 -184t84.5 -267h-325q-7 128 -67.5 195t-204.5 67q-140 0 -209 -107t-69 -340v-91q0 -229 64 -338
t215 -109q255 0 270 252z" />
    <glyph glyph-name="D" unicode="D" horiz-adv-x="1328" 
d="M581 0h-461v1456h459q197 0 348 -88t236.5 -244.5t85.5 -363.5v-65q0 -207 -85.5 -363.5t-236 -244t-346.5 -87.5zM579 1203h-133v-951h135q164 0 250.5 114t86.5 329v67q0 216 -87.5 328.5t-251.5 112.5z" />
    <glyph glyph-name="E" unicode="E" horiz-adv-x="1149" 
d="M1110 252v-252h-990v1456h991v-253h-665v-333h564v-244h-564v-374h664z" />
    <glyph glyph-name="F" unicode="F" horiz-adv-x="1122" 
d="M1019 842v-252h-573v-590h-326v1456h963v-253h-637v-361h573z" />
    <glyph glyph-name="G" unicode="G" horiz-adv-x="1396" 
d="M1293 769v-587q-36 -41 -109.5 -88t-187.5 -80.5t-272 -33.5q-191 0 -334 82.5t-222.5 239.5t-79.5 383v86q0 225 78 383t217.5 240.5t321.5 82.5q195 0 319.5 -62.5t188.5 -172.5t79 -253h-314q-16 110 -75 173t-188 63q-139 0 -217.5 -114t-78.5 -338v-88
q0 -453 326 -453q95 0 147.5 23t74.5 45v242h-259v227h585z" />
    <glyph glyph-name="H" unicode="H" horiz-adv-x="1443" 
d="M446 1456v-586h551v586h325v-1456h-325v618h-551v-618h-326v1456h326z" />
    <glyph glyph-name="I" unicode="I" horiz-adv-x="609" 
d="M467 1456v-1456h-325v1456h325z" />
    <glyph glyph-name="J" unicode="J" horiz-adv-x="1148" 
d="M705 452v1004h324v-1004q0 -146 -65.5 -252t-177 -163t-251.5 -57q-144 0 -256 48.5t-175.5 149.5t-63.5 256h326q0 -115 44 -158.5t125 -43.5q79 0 124.5 57.5t45.5 162.5z" />
    <glyph glyph-name="K" unicode="K" horiz-adv-x="1306" 
d="M938 0l-342 566l-150 -163v-403h-326v1456h326v-655l128 184l342 471h400l-504 -643l512 -813h-386z" />
    <glyph glyph-name="L" unicode="L" horiz-adv-x="1109" 
d="M1070 252v-252h-950v1456h326v-1204h624z" />
    <glyph glyph-name="M" unicode="M" horiz-adv-x="1794" 
d="M120 1456h426l350 -1041l349 1041h427v-1456h-327v377l32 686l-372 -1063h-219l-372 1063l32 -686v-377h-326v1456z" />
    <glyph glyph-name="N" unicode="N" horiz-adv-x="1442" 
d="M1321 1456v-1456h-325l-550 941v-941h-326v1456h326l551 -941v941h324z" />
    <glyph glyph-name="O" unicode="O" horiz-adv-x="1413" 
d="M1334 760v-65q0 -221 -79.5 -381.5t-220.5 -247t-326 -86.5t-327 86.5t-222.5 247t-80.5 381.5v65q0 222 80 382.5t221.5 247t326.5 86.5t326.5 -86.5t221.5 -247t80 -382.5zM1005 695v67q0 223 -78 340t-221 117q-146 0 -222 -117t-76 -340v-67q0 -221 77 -340t223 -119
q143 0 220 119t77 340z" />
    <glyph glyph-name="P" unicode="P" horiz-adv-x="1327" 
d="M694 506h-248v-506h-326v1456h574q174 0 298.5 -63t191 -172.5t66.5 -250.5q0 -211 -148 -337.5t-408 -126.5zM694 1203h-248v-444h248q120 0 173.5 59t53.5 150q0 93 -53.5 164t-173.5 71z" />
    <glyph glyph-name="Q" unicode="Q" horiz-adv-x="1413" 
d="M1336 760v-65q0 -202 -67.5 -353.5t-185.5 -241.5l239 -189l-204 -174l-310 250q-49 -7 -100 -7q-185 0 -327 86.5t-222.5 247t-80.5 381.5v65q0 222 80 382.5t221.5 247t326.5 86.5t327 -86.5t222.5 -247t80.5 -382.5zM1005 695v67q0 223 -78 340t-221 117
q-145 0 -221.5 -117t-76.5 -340v-67q0 -221 77.5 -340t222.5 -119q143 0 220 119t77 340z" />
    <glyph glyph-name="R" unicode="R" horiz-adv-x="1324" 
d="M926 0l-266 526h-214v-526h-326v1456h559q251 0 397.5 -112.5t146.5 -327.5q0 -163 -70 -259.5t-188 -150.5l310 -591v-15h-349zM679 1203h-233v-424h234q109 0 163.5 57t54.5 154q0 99 -55 156t-164 57z" />
    <glyph glyph-name="S" unicode="S" horiz-adv-x="1271" 
d="M875 384q0 49 -20.5 85.5t-79 69t-172.5 69.5q-130 43 -242.5 101t-181 145t-68.5 215q0 123 71 214.5t195 142t284 50.5t281.5 -57t189.5 -158t68 -235h-324q0 89 -55 145.5t-167 56.5q-109 0 -163.5 -47t-54.5 -114q0 -70 73 -116.5t206 -88.5q234 -73 359.5 -183.5
t125.5 -292.5q0 -193 -145.5 -299.5t-387.5 -106.5q-110 0 -217 28.5t-193.5 87.5t-138 150.5t-51.5 217.5h326q0 -132 74 -184.5t200 -52.5q108 0 158 45.5t50 111.5z" />
    <glyph glyph-name="T" unicode="T" horiz-adv-x="1281" 
d="M1241 1456v-253h-443v-1203h-325v1203h-434v253h1202z" />
    <glyph glyph-name="U" unicode="U" horiz-adv-x="1356" 
d="M917 1456h326v-956q0 -169 -71.5 -285t-198.5 -175.5t-294 -59.5t-295.5 59.5t-200.5 175.5t-72 285v956h327v-956q0 -141 63 -204.5t178 -63.5t176.5 63.5t61.5 204.5v956z" />
    <glyph glyph-name="V" unicode="V" horiz-adv-x="1346" 
d="M363 1456l309 -1084l310 1084h363l-499 -1456h-349l-496 1456h362z" />
    <glyph glyph-name="W" unicode="W" horiz-adv-x="1786" 
d="M351 1456l183 -965l220 965h276l222 -966l182 966h322l-316 -1456h-332l-217 896l-213 -896h-334l-316 1456h323z" />
    <glyph glyph-name="X" unicode="X" horiz-adv-x="1304" 
d="M396 1456l256 -496l256 496h372l-414 -722l425 -734h-375l-264 505l-263 -505h-376l426 734l-415 722h372z" />
    <glyph glyph-name="Y" unicode="Y" horiz-adv-x="1277" 
d="M353 1456l285 -648l287 648h352l-473 -930v-526h-331v526l-474 930h354z" />
    <glyph glyph-name="Z" unicode="Z" horiz-adv-x="1246" 
d="M1192 252v-252h-1122v178l711 1025h-713v253h1113v-174l-706 -1030h717z" />
    <glyph glyph-name="bracketleft" unicode="[" horiz-adv-x="572" 
d="M557 1468h-129v-1581h129v-230h-416v2042h416v-231z" />
    <glyph glyph-name="backslash" unicode="\" horiz-adv-x="869" 
d="M596 -125l-607 1581h324l608 -1581h-325z" />
    <glyph glyph-name="bracketright" unicode="]" horiz-adv-x="572" 
d="M13 1699h417v-2042h-417v230h131v1581h-131v231z" />
    <glyph glyph-name="asciicircum" unicode="^" horiz-adv-x="907" 
d="M628 729l-173 459l-174 -459h-240l299 727h230l299 -727h-241z" />
    <glyph glyph-name="underscore" unicode="_" horiz-adv-x="908" 
d="M906 0v-235h-906v235h906z" />
    <glyph glyph-name="grave" unicode="`" horiz-adv-x="686" 
d="M390 1536l198 -311h-255l-278 311h335z" />
    <glyph glyph-name="a" unicode="a" horiz-adv-x="1092" 
d="M721 0q-19 39 -30 100q-42 -50 -106 -85t-162 -35q-101 0 -184.5 41.5t-133 114.5t-49.5 168q0 169 124.5 262.5t379.5 93.5h117v62q0 73 -34 116t-111 43q-65 0 -102 -33t-37 -94h-312q0 97 57.5 176t163 125.5t247.5 46.5q127 0 226.5 -42.5t157.5 -127.5t58 -212v-453
q0 -97 11.5 -153t33.5 -97v-17h-315zM494 207q69 0 116 30.5t67 68.5v182h-114q-105 0 -149.5 -48.5t-44.5 -116.5q0 -50 35 -83t90 -33z" />
    <glyph glyph-name="b" unicode="b" horiz-adv-x="1153" 
d="M1092 553v-21q0 -163 -45.5 -287.5t-138.5 -194.5t-236 -70q-91 0 -158 35.5t-115 98.5l-14 -114h-280v1536h312v-546q46 53 108.5 82.5t144.5 29.5q144 0 237.5 -71t139 -194.5t45.5 -283.5zM780 532v21q0 83 -15.5 152.5t-56 111.5t-116.5 42q-68 0 -110 -26.5
t-65 -75.5v-432q23 -49 66 -75.5t111 -26.5q77 0 117 39.5t54.5 109.5t14.5 160z" />
    <glyph glyph-name="c" unicode="c" horiz-adv-x="1066" 
d="M556 223q75 0 120 41.5t45 114.5h294q0 -118 -60.5 -208t-162.5 -140.5t-230 -50.5q-168 0 -279.5 72.5t-167.5 196.5t-56 279v26q0 155 55.5 279t167.5 196.5t279 72.5q134 0 236 -51.5t160 -147t58 -228.5h-294q0 77 -42 130.5t-125 53.5q-76 0 -115.5 -42.5t-53 -112
t-13.5 -150.5v-26q0 -82 13.5 -151.5t53 -111.5t117.5 -42z" />
    <glyph glyph-name="d" unicode="d" horiz-adv-x="1152" 
d="M60 528v21q0 165 48.5 289.5t143 194t230.5 69.5q79 0 141.5 -30.5t110.5 -85.5v550h314v-1536h-282l-15 116q-50 -63 -117 -99.5t-154 -36.5q-136 0 -229.5 71.5t-142 195.5t-48.5 281zM372 549v-21q0 -127 41 -216t146 -89q63 0 107 28t68 77v425q-50 106 -173 106
q-103 0 -146 -89t-43 -221z" />
    <glyph glyph-name="e" unicode="e" horiz-adv-x="1111" 
d="M614 -20q-172 0 -294.5 71.5t-188 190.5t-65.5 263v38q0 161 60 287.5t174.5 199t279.5 72.5q231 0 357.5 -144.5t126.5 -385.5v-128h-680q16 -101 81 -161.5t169 -60.5q74 0 141 28.5t116 89.5l146 -167q-50 -73 -158 -133t-265 -60zM578 859q-90 0 -134.5 -60
t-57.5 -154h372v24q-1 85 -46 137.5t-134 52.5z" />
    <glyph glyph-name="f" unicode="f" horiz-adv-x="738" 
d="M493 0h-314v863h-158v219h158v92q0 186 109.5 284.5t295.5 98.5q42 0 80.5 -6t73.5 -14v-233q-37 9 -87 9q-158 0 -158 -139v-92h214v-219h-214v-863z" />
    <glyph glyph-name="g" unicode="g" horiz-adv-x="1174" 
d="M63 528v21q0 165 53 289.5t152 194t235 69.5q94 0 160 -31t111 -87l12 98h284v-1043q0 -149 -67.5 -253t-188 -158t-280.5 -54q-70 0 -145.5 18t-143 55t-112.5 93l133 184q45 -52 109.5 -84.5t146.5 -32.5q113 0 173.5 60.5t60.5 171.5v52q-47 -52 -109.5 -81.5
t-145.5 -29.5q-135 0 -233.5 71.5t-151.5 195.5t-53 281zM375 549v-21q0 -127 50.5 -216t154.5 -89q64 0 107 23t69 64v461q-53 88 -174 88q-103 0 -155 -89t-52 -221z" />
    <glyph glyph-name="h" unicode="h" horiz-adv-x="1151" 
d="M409 1536v-572q52 65 124 101.5t159 36.5q107 0 188 -41.5t126.5 -134.5t45.5 -248v-678h-314v680q0 104 -43 141.5t-121 37.5q-62 0 -102 -22.5t-63 -60.5v-776h-312v1536h312z" />
    <glyph glyph-name="i" unicode="i" horiz-adv-x="553" 
d="M101 1362q0 68 48 111.5t126 43.5q79 0 127 -43.5t48 -111.5q0 -67 -48 -110.5t-127 -43.5q-78 0 -126 43.5t-48 110.5zM433 1082v-1082h-313v1082h313z" />
    <glyph glyph-name="j" unicode="j" horiz-adv-x="544" 
d="M100 1362q0 68 48 111.5t127 43.5q78 0 126 -43.5t48 -111.5q0 -67 -48 -110.5t-126 -43.5q-79 0 -127 43.5t-48 110.5zM124 1082h314v-1132q0 -187 -104.5 -287t-289.5 -100q-40 0 -76 3.5t-77 13.5v238q25 -4 47.5 -6.5t47.5 -2.5q138 0 138 141v1132z" />
    <glyph glyph-name="k" unicode="k" horiz-adv-x="1107" 
d="M775 0l-258 420l-99 -99v-321h-313v1537h313v-834l44 57l267 322h376l-387 -447l415 -635h-358z" />
    <glyph glyph-name="l" unicode="l" horiz-adv-x="553" 
d="M433 1536v-1536h-313v1536h313z" />
    <glyph glyph-name="m" unicode="m" horiz-adv-x="1769" 
d="M581 859q-56 0 -97.5 -27t-66.5 -73v-759h-312v1082h293l11 -126q53 69 130.5 107.5t179.5 38.5q97 0 170 -39.5t112 -125.5q52 77 132.5 121t189.5 44q102 0 179 -40t120 -131t43 -245v-686h-314v686q0 107 -39 140t-106 33q-60 0 -101.5 -28.5t-65.5 -77.5q1 -15 1 -31
v-722h-312v684q0 107 -39 141t-108 34z" />
    <glyph glyph-name="n" unicode="n" horiz-adv-x="1152" 
d="M575 859q-59 0 -99.5 -25t-65.5 -68v-766h-313v1082h294l10 -127q115 147 310 147q102 0 178.5 -39.5t119.5 -130.5t43 -246v-686h-314v687q0 102 -42.5 137t-120.5 35z" />
    <glyph glyph-name="o" unicode="o" horiz-adv-x="1154" 
d="M59 530v21q0 158 60 282.5t175 196.5t281 72q168 0 283.5 -72t175.5 -196.5t60 -282.5v-21q0 -158 -60 -282.5t-175 -196t-282 -71.5t-282.5 71.5t-175.5 196t-60 282.5zM372 551v-21q0 -86 19 -155.5t64 -110.5t122 -41q114 0 159 89t45 218v21q0 84 -19 154t-64 112
t-123 42q-76 0 -120.5 -42t-63.5 -112t-19 -154z" />
    <glyph glyph-name="p" unicode="p" horiz-adv-x="1153" 
d="M1092 553v-21q0 -157 -48 -282t-141.5 -197.5t-230.5 -72.5q-82 0 -145 30t-110 83v-509h-312v1498h291l10 -103q48 58 113 90.5t152 32.5q206 0 313.5 -150.5t107.5 -398.5zM779 532v21q0 132 -42 219t-146 87q-128 0 -174 -98v-437q23 -47 65.5 -74t110.5 -27
q70 0 110.5 42t58 112t17.5 155z" />
    <glyph glyph-name="q" unicode="q" horiz-adv-x="1153" 
d="M60 531v21q0 165 48.5 288.5t142.5 192.5t231 69q90 0 157.5 -35.5t114.5 -99.5l22 115h272v-1498h-314v508q-47 -53 -109.5 -82.5t-144.5 -29.5q-136 0 -229.5 72t-142 197t-48.5 282zM372 552v-21q0 -85 17.5 -155t58.5 -111.5t111 -41.5q67 0 109.5 26t65.5 72v442
q-23 47 -65 71.5t-108 24.5q-103 0 -146 -88t-43 -219z" />
    <glyph glyph-name="r" unicode="r" horiz-adv-x="763" 
d="M740 1090l-5 -291q-21 3 -52.5 5.5t-54.5 2.5q-163 0 -211 -108v-699h-312v1082h293l10 -136q40 73 101 114.5t140 41.5q52 0 91 -12z" />
    <glyph glyph-name="s" unicode="s" horiz-adv-x="1051" 
d="M680 301q0 44 -44 74.5t-174 58.5q-108 23 -195 64.5t-137.5 106.5t-50.5 159q0 91 52 167.5t150.5 123.5t236.5 47q215 0 339 -98t124 -252h-312q0 62 -36 100.5t-116 38.5q-62 0 -101 -31.5t-39 -80.5q0 -46 43.5 -75.5t148.5 -50.5q113 -21 206.5 -59t150 -105
t56.5 -177q0 -95 -57 -170.5t-161 -118.5t-246 -43q-153 0 -258.5 55t-159.5 139t-54 171h293q4 -82 57 -117.5t129 -35.5t115.5 30.5t39.5 78.5z" />
    <glyph glyph-name="t" unicode="t" horiz-adv-x="699" 
d="M654 1082v-219h-182v-524q0 -67 26 -89.5t85 -22.5q28 0 48.5 2t36.5 5v-226q-40 -13 -85 -20.5t-98 -7.5q-153 0 -239.5 75t-86.5 249v559h-147v219h147v268h313v-268h182z" />
    <glyph glyph-name="u" unicode="u" horiz-adv-x="1152" 
d="M759 0l-9 115q-50 -64 -123 -99.5t-169 -35.5q-160 0 -260.5 94t-100.5 308v700h312v-702q0 -83 39.5 -120t106.5 -37q71 0 115.5 25.5t68.5 70.5v763h314v-1082h-294z" />
    <glyph glyph-name="v" unicode="v" horiz-adv-x="1047" 
d="M337 1082l185 -711l187 711h328l-359 -1082h-311l-359 1082h329z" />
    <glyph glyph-name="w" unicode="w" horiz-adv-x="1495" 
d="M326 1082l124 -681l185 681h221l185 -671l124 671h301l-264 -1082h-264l-192 669l-193 -669h-262l-266 1082h301z" />
    <glyph glyph-name="x" unicode="x" horiz-adv-x="1049" 
d="M362 1082l166 -313l171 313h328l-295 -528l309 -554h-330l-182 334l-181 -334h-331l309 554l-294 528h330z" />
    <glyph glyph-name="y" unicode="y" horiz-adv-x="1046" 
d="M335 1082l187 -644l191 644h336l-435 -1244q-18 -54 -55 -118.5t-107 -110.5t-189 -46q-45 0 -69 4.5t-65 14.5l-1 227q12 -1 23.5 -1h21.5q83 0 120.5 26.5t55.5 80.5l30 77l-380 1090h336z" />
    <glyph glyph-name="z" unicode="z" horiz-adv-x="1049" 
d="M979 243v-243h-908v180l498 659h-480v243h877v-174l-500 -665h513z" />
    <glyph glyph-name="braceleft" unicode="{" horiz-adv-x="670" 
d="M633 -194l-60 -167q-137 39 -215.5 108.5t-111 161t-32.5 196.5v203q0 93 -39.5 148t-129.5 55v214q90 0 129.5 55t39.5 148v204q0 105 32.5 196.5t111 161t215.5 107.5l60 -166q-84 -31 -113.5 -112t-29.5 -187v-204q0 -99 -43.5 -180.5t-138.5 -129.5
q95 -47 138.5 -128.5t43.5 -181.5v-203q0 -106 29.5 -186.5t113.5 -112.5z" />
    <glyph glyph-name="bar" unicode="|" horiz-adv-x="520" 
d="M351 1456v-1726h-178v1726h178z" />
    <glyph glyph-name="braceright" unicode="}" horiz-adv-x="670" 
d="M98 -361l-60 167q84 32 113.5 112.5t29.5 186.5v203q0 101 44.5 182.5t141.5 127.5q-97 47 -141.5 128.5t-44.5 181.5v204q0 106 -29.5 187t-113.5 112l60 166q137 -38 215.5 -107.5t111 -161t32.5 -196.5v-204q0 -93 39.5 -148t130.5 -55v-214q-91 0 -130.5 -55
t-39.5 -148v-203q0 -105 -32.5 -196.5t-111 -161t-215.5 -108.5z" />
    <glyph glyph-name="asciitilde" unicode="~" horiz-adv-x="1311" 
d="M982 796h226q0 -194 -93 -308.5t-240 -114.5q-79 0 -140.5 31.5t-132.5 99.5q-40 41 -76 61.5t-76 20.5q-55 0 -89.5 -50.5t-34.5 -125.5l-226 3q0 197 92 307.5t239 110.5q79 0 145 -33t132 -98q40 -40 75.5 -61t73.5 -21q55 0 90 51.5t35 126.5z" />
    <glyph glyph-name="nbspace" unicode="&#xa0;" horiz-adv-x="508" 
 />
    <glyph glyph-name="exclamdown" unicode="&#xa1;" horiz-adv-x="597" 
d="M475 943q0 -67 -48 -113t-127 -46q-78 0 -126 46t-48 113q0 68 48 113.5t126 45.5q79 0 127 -45.5t48 -113.5zM133 -370l38 1003h257l38 -1003h-333z" />
    <glyph glyph-name="cent" unicode="&#xa2;" horiz-adv-x="1196" 
d="M596 223q75 0 120.5 41.5t44.5 114.5h295q-1 -153 -100 -257.5t-252 -132.5v-234h-197v232q-136 21 -226.5 96.5t-135.5 190.5t-45 254v26q0 139 45 254.5t135.5 191t226.5 95.5v223h197v-225q159 -27 255 -136t97 -282h-295q1 77 -41 130.5t-125 53.5q-77 0 -116 -42.5
t-52.5 -112t-13.5 -150.5v-26q0 -82 13.5 -151.5t53 -111.5t116.5 -42z" />
    <glyph glyph-name="sterling" unicode="&#xa3;" horiz-adv-x="1224" 
d="M893 571h-299l6 -130q0 -58 -14.5 -104.5t-47.5 -84.5h629l1 -252h-1064v252h100q46 11 55.5 62t9.5 108l-4 149h-164v244h157l-7 224q0 207 123.5 321.5t328.5 114.5q225 0 344.5 -116t119.5 -305h-307q0 95 -45 132t-107 37q-59 0 -96.5 -46t-37.5 -138l10 -224h309
v-244z" />
    <glyph glyph-name="currency" unicode="&#xa4;" horiz-adv-x="1408" 
d="M110 608q0 104 29 196.5t80 169.5l-144 147l139 143l143 -146q74 55 162.5 85.5t186.5 30.5t187 -31t162 -86l145 148l141 -144l-148 -151q51 -76 79 -167.5t28 -194.5q0 -98 -26 -186.5t-72 -162.5l139 -142l-141 -144l-132 135q-75 -60 -167.5 -94t-194.5 -34
t-194.5 33.5t-167.5 93.5l-130 -133l-139 143l136 138q-48 75 -74.5 164.5t-26.5 188.5zM294 608q0 -124 55.5 -223t149 -157t207.5 -58t207 58t148.5 157t55.5 223t-55.5 222.5t-148.5 156.5t-207 58t-207.5 -58t-149 -156.5t-55.5 -222.5z" />
    <glyph glyph-name="yen" unicode="&#xa5;" horiz-adv-x="1103" 
d="M991 451v-178h-280v-273h-325v273h-305v178h305v111h-305v179h246l-316 715h334l207 -547l206 547h335l-315 -715h213v-179h-280v-111h280z" />
    <glyph glyph-name="brokenbar" unicode="&#xa6;" horiz-adv-x="520" 
d="M398 1456v-758h-274v758h274zM398 -270h-274v795h274v-795z" />
    <glyph glyph-name="section" unicode="&#xa7;" horiz-adv-x="1295" 
d="M1166 -72q0 -181 -143 -277.5t-380 -96.5q-103 0 -201 20t-176.5 67.5t-125 127.5t-46.5 200h313q0 -71 35 -108t89 -50.5t112 -13.5q104 0 157.5 34.5t53.5 95.5q0 41 -24 71t-84.5 56.5t-168.5 57.5q-150 40 -258.5 91.5t-166.5 130t-58 198.5q0 90 42.5 158.5
t119.5 112.5q-68 50 -104 120t-36 170q0 116 65 202t183 133.5t278 47.5q245 0 385 -110t140 -316h-312q0 77 -53 130.5t-160 53.5q-113 0 -163 -40.5t-50 -98.5q0 -46 22 -76t81.5 -54.5t171.5 -54.5q154 -39 262 -91t165 -131t57 -199q0 -91 -41.5 -158.5t-117.5 -110.5
q67 -51 102 -121t35 -171zM682 362q72 -19 128 -37q69 45 69 132q0 45 -25 77.5t-86 61.5t-170 62q-34 10 -66.5 20t-61.5 20q-63 -43 -63 -132q0 -50 22 -83t81.5 -60t171.5 -61z" />
    <glyph glyph-name="dieresis" unicode="&#xa8;" horiz-adv-x="988" 
d="M96 1366q0 55 42 92t102 37q61 0 103 -37t42 -92q0 -54 -42 -91t-103 -37q-60 0 -102 37t-42 91zM601 1366q0 54 42 91t102 37q61 0 102.5 -37t41.5 -91q0 -55 -41.5 -92t-102.5 -37q-60 0 -102 37t-42 92z" />
    <glyph glyph-name="copyright" unicode="&#xa9;" horiz-adv-x="1609" 
d="M87 729q0 159 55 295t153 237.5t226.5 158t275.5 56.5t275.5 -56.5t226 -158t153 -237.5t55.5 -295t-55.5 -295t-153 -238t-226 -159t-275.5 -57t-275.5 57t-226.5 159t-153 238t-55 295zM208 729q0 -132 45.5 -246t126.5 -199t188 -132.5t229 -47.5t228.5 47.5
t187 132.5t126.5 199t46 246t-46 245.5t-126.5 198.5t-187 132t-228.5 47t-229 -47t-188 -132t-126.5 -198.5t-45.5 -245.5zM963 596h154q0 -157 -89.5 -235.5t-244.5 -78.5q-161 0 -255 107.5t-94 279.5v119q0 172 94 279.5t255 107.5q155 0 245 -78.5t90 -235.5h-154
q0 96 -46 138t-135 42q-97 0 -146 -71t-49 -181v-120q0 -112 49 -182.5t146 -70.5q89 0 134.5 41.5t45.5 138.5z" />
    <glyph glyph-name="ordfeminine" unicode="&#xaa;" horiz-adv-x="907" 
d="M604 705q-11 32 -17 68q-31 -33 -81 -57.5t-121 -24.5q-120 0 -184.5 62.5t-64.5 165.5q0 110 84.5 170.5t256.5 60.5h103v51q0 128 -117 128q-65 0 -102.5 -25.5t-37.5 -74.5l-171 14q0 101 85 167t226 66q130 0 210 -69.5t80 -206.5v-314q0 -49 6 -93t20 -88h-175z
M427 834q41 0 83.5 19t69.5 44v137h-102q-88 0 -128.5 -33.5t-40.5 -77.5q0 -89 118 -89z" />
    <glyph glyph-name="guillemotleft" unicode="&#xab;" horiz-adv-x="977" 
d="M500 107l-145 -134q-140 158 -206 284t-66 245q0 120 66 246t206 282l145 -135q-82 -127 -123.5 -218t-41.5 -175t41.5 -175.5t123.5 -219.5zM895 107l-145 -134q-140 158 -210.5 283.5t-70.5 245.5t70.5 246t210.5 282l144 -135q-82 -127 -123 -218t-41 -175
t41.5 -175.5t123.5 -219.5z" />
    <glyph glyph-name="logicalnot" unicode="&#xac;" horiz-adv-x="1126" 
d="M961 804v-430h-198v261h-637v169h835z" />
    <glyph glyph-name="uni00AD" unicode="&#xad;" horiz-adv-x="864" 
d="M874 401h-759v235h759v-235z" />
    <glyph glyph-name="registered" unicode="&#xae;" horiz-adv-x="1609" 
d="M87 729q0 159 55 295t153 237.5t226.5 158t275.5 56.5t275.5 -56.5t226 -158t153 -237.5t55.5 -295t-55.5 -295t-153 -238t-226 -159t-275.5 -57t-275.5 57t-226.5 159t-153 238t-55 295zM208 729q0 -132 45.5 -246t126.5 -199t188 -132.5t229 -47.5t228.5 47.5
t187 132.5t126.5 199t46 246t-46 245.5t-126.5 198.5t-187 132t-228.5 47t-229 -47t-188 -132t-126.5 -198.5t-45.5 -245.5zM811 653h-159v-337h-149v850h280q149 0 236.5 -67t87.5 -196q0 -111 -110 -173q59 -31 83 -87.5t24 -127.5v-56q0 -37 3.5 -70.5t13.5 -56.5v-16
h-153q-10 26 -11.5 74t-1.5 70v54q0 71 -32.5 105t-111.5 34zM783 1034h-131v-248h132q70 1 122.5 30t52.5 87q0 73 -39 102t-137 29z" />
    <glyph glyph-name="macron" unicode="&#xaf;" horiz-adv-x="1046" 
d="M865 1456v-168h-690v168h690z" />
    <glyph glyph-name="degree" unicode="&#xb0;" horiz-adv-x="806" 
d="M127 1199q0 76 37.5 139t100.5 100.5t138 37.5t136.5 -37.5t98.5 -100.5t37 -139t-37 -138.5t-98.5 -99t-136.5 -36.5t-138 36.5t-100.5 99t-37.5 138.5zM276 1199q0 -54 37.5 -89.5t89.5 -35.5q51 0 86.5 35t35.5 90t-35.5 91.5t-86.5 36.5q-52 0 -89.5 -36.5
t-37.5 -91.5z" />
    <glyph glyph-name="plusminus" unicode="&#xb1;" horiz-adv-x="1102" 
d="M1002 955v-252h-320v-359h-273v359h-323v252h323v334h273v-334h320zM979 247v-246h-872v246h872z" />
    <glyph glyph-name="twosuperior" unicode="&#xb2;" horiz-adv-x="765" 
d="M695 834v-167h-623v141l286 256q53 47 77.5 89.5t24.5 64.5q0 38 -22 60t-68 22q-50 0 -76 -33t-26 -75h-214q0 75 37.5 138t106 100.5t161.5 37.5q151 0 233 -65t82 -185q0 -88 -54 -152.5t-170 -150.5l-95 -81h340z" />
    <glyph glyph-name="threesuperior" unicode="&#xb3;" horiz-adv-x="765" 
d="M275 1001v138h90q54 0 80.5 23.5t26.5 62.5q0 26 -22.5 50.5t-79.5 24.5q-39 0 -67.5 -15t-28.5 -43h-213q0 75 42.5 125t111.5 75.5t148 25.5q143 0 232.5 -58t89.5 -169q0 -61 -38 -103.5t-99 -65.5q68 -18 110 -61t42 -122q0 -111 -97 -172t-240 -61q-73 0 -146.5 24
t-122.5 79t-49 146h215q0 -31 31.5 -56t86.5 -25q58 0 83 26t25 60q0 50 -32.5 70.5t-88.5 20.5h-90z" />
    <glyph glyph-name="acute" unicode="&#xb4;" horiz-adv-x="684" 
d="M95 1225l198 311h334l-277 -311h-255z" />
    <glyph glyph-name="mu" unicode="&#xb5;" horiz-adv-x="1289" 
d="M137 1082h312v-620q0 -97 21 -148.5t60 -70t92 -18.5q74 0 121 27t72 74v756h313v-1082h-293l-5 60q-42 -39 -97 -60t-122 -21q-94 0 -162 40v-435h-312v1498z" />
    <glyph glyph-name="paragraph" unicode="&#xb6;" horiz-adv-x="1001" 
d="M877 0h-222v520h-83q-159 0 -268.5 60.5t-166.5 166.5t-57 241q0 134 57 240t166.5 167t268.5 61h305v-1456z" />
    <glyph glyph-name="periodcentered" unicode="&#xb7;" horiz-adv-x="638" 
d="M140 692q0 68 48 114t127 46q78 0 126 -46t48 -114q0 -67 -48 -113t-126 -46q-79 0 -127 46t-48 113z" />
    <glyph glyph-name="cedilla" unicode="&#xb8;" horiz-adv-x="560" 
d="M123 8h237l-12 -59q56 -10 103.5 -48.5t47.5 -124.5q0 -109 -92 -175.5t-271 -66.5l-7 173q44 0 73 19t29 62q0 40 -32.5 56t-106.5 20z" />
    <glyph glyph-name="onesuperior" unicode="&#xb9;" horiz-adv-x="765" 
d="M535 1453v-786h-213v544l-182 -39v160l376 121h19z" />
    <glyph glyph-name="ordmasculine" unicode="&#xba;" horiz-adv-x="938" 
d="M119 1044v77q0 155 93 255t252 100q161 0 253.5 -100t92.5 -255v-77q0 -155 -92 -254.5t-252 -99.5t-253.5 99.5t-93.5 254.5zM292 1121v-77q0 -90 43 -149.5t131 -59.5q86 0 128.5 59.5t42.5 149.5v77q0 89 -42.5 148.5t-130.5 59.5q-87 0 -129.5 -59.5t-42.5 -148.5z
" />
    <glyph glyph-name="guillemotright" unicode="&#xbb;" horiz-adv-x="977" 
d="M477 107q82 128 123 219.5t41 175.5t-40.5 175t-123.5 218l144 135q141 -156 207 -282t66 -246q0 -119 -66 -245t-206 -284zM82 107q82 128 123 219.5t41 175.5t-40.5 175t-123.5 218l144 135q141 -156 211 -282t70 -246t-70 -245.5t-210 -283.5z" />
    <glyph glyph-name="onequarter" unicode="&#xbc;" horiz-adv-x="1460" 
d="M503 1450v-786h-213v544l-182 -39v160l376 121h19zM1170 1255l-711 -1138l-149 77l711 1138zM1377 329v-170h-85v-159h-214v159h-339l-14 138l353 492h214v-460h85zM927 329h151v206l-15 -23z" />
    <glyph glyph-name="onehalf" unicode="&#xbd;" horiz-adv-x="1545" 
d="M1130 1255l-711 -1138l-149 77l711 1138zM482 1457v-786h-213v544l-182 -39v160l376 121h19zM1472 167v-167h-623v141l286 256q53 47 77.5 89.5t24.5 64.5q0 38 -22 60t-68 22q-50 0 -76 -33t-26 -75h-214q0 75 37.5 138t106 100.5t161.5 37.5q151 0 233 -65t82 -185
q0 -88 -54 -152.5t-170 -150.5l-95 -81h340z" />
    <glyph glyph-name="threequarters" unicode="&#xbe;" horiz-adv-x="1674" 
d="M1344 1255l-711 -1138l-149 77l711 1138zM1558 329v-170h-85v-159h-214v159h-339l-14 138l353 492h214v-460h85zM1108 329h151v206l-15 -23zM320 1001v138h90q54 0 80.5 23.5t26.5 62.5q0 26 -22.5 50.5t-79.5 24.5q-39 0 -67.5 -15t-28.5 -43h-213q0 75 42.5 125
t111.5 75.5t148 25.5q143 0 232.5 -58t89.5 -169q0 -61 -38 -103.5t-99 -65.5q68 -18 110 -61t42 -122q0 -111 -97 -172t-240 -61q-73 0 -146.5 24t-122.5 79t-49 146h215q0 -31 31.5 -56t86.5 -25q58 0 83 26t25 60q0 50 -32.5 70.5t-88.5 20.5h-90z" />
    <glyph glyph-name="questiondown" unicode="&#xbf;" horiz-adv-x="1032" 
d="M730 944q0 -67 -48 -113t-126 -46q-79 0 -127 46t-48 113q0 68 48 113.5t127 45.5q78 0 126 -45.5t48 -113.5zM415 638h270q0 -133 -28 -216.5t-111 -157.5q-70 -64 -115 -119.5t-45 -135.5q0 -77 38 -113.5t99 -36.5q65 0 110 40.5t48 129.5h313q-2 -143 -64 -235
t-166 -135.5t-234 -43.5q-214 0 -336 101t-122 292q0 88 35.5 155.5t93 126t123.5 119.5q58 51 73.5 101t17.5 128z" />
    <glyph glyph-name="Agrave" unicode="&#xc0;" horiz-adv-x="1385" 
d="M1037 0l-93 290h-503l-92 -290h-348l539 1456h304l541 -1456h-348zM522 542h342l-171 535zM648 1846l198 -311h-255l-278 311h335z" />
    <glyph glyph-name="Aacute" unicode="&#xc1;" horiz-adv-x="1385" 
d="M1037 0l-93 290h-503l-92 -290h-348l539 1456h304l541 -1456h-348zM522 542h342l-171 535zM549 1535l198 311h334l-277 -311h-255z" />
    <glyph glyph-name="Acircumflex" unicode="&#xc2;" horiz-adv-x="1385" 
d="M1037 0l-93 290h-503l-92 -290h-348l539 1456h304l541 -1456h-348zM522 542h342l-171 535zM785 1846l315 -280v-12h-247l-158 141l-157 -141h-242v16l309 276h180z" />
    <glyph glyph-name="Atilde" unicode="&#xc3;" horiz-adv-x="1385" 
d="M1037 0l-93 290h-503l-92 -290h-348l539 1456h304l541 -1456h-348zM522 542h342l-171 535zM900 1845l176 -11q0 -73 -29.5 -134t-80.5 -97.5t-118 -36.5q-63 0 -105.5 21.5t-81.5 43t-91 21.5q-33 0 -56 -23.5t-23 -70.5l-178 10q0 71 29.5 132t81 98.5t117.5 37.5
q53 0 97 -21t87.5 -42.5t92.5 -21.5q34 0 58 24t24 70z" />
    <glyph glyph-name="Adieresis" unicode="&#xc4;" horiz-adv-x="1385" 
d="M1037 0l-93 290h-503l-92 -290h-348l539 1456h304l541 -1456h-348zM522 542h342l-171 535zM296 1676q0 55 42 92t102 37q61 0 103 -37t42 -92q0 -54 -42 -91t-103 -37q-60 0 -102 37t-42 91zM801 1676q0 54 42 91t102 37q61 0 102.5 -37t41.5 -91q0 -55 -41.5 -92
t-102.5 -37q-60 0 -102 37t-42 92z" />
    <glyph glyph-name="Aring" unicode="&#xc5;" horiz-adv-x="1385" 
d="M1037 0l-93 290h-503l-92 -290h-348l539 1456h304l541 -1456h-348zM522 542h342l-171 535zM473 1730q0 83 63 143t160 60t160 -60t63 -143q0 -84 -63 -142t-160 -58t-160 58t-63 142zM591 1730q0 -44 28 -75t77 -31t77.5 31t28.5 75t-28.5 75.5t-77.5 31.5t-77 -31.5
t-28 -75.5z" />
    <glyph glyph-name="AE" unicode="&#xc6;" horiz-adv-x="1924" 
d="M1857 246v-246h-895l-14 333h-413l-160 -333h-364l759 1456h1025v-246h-572l15 -341h476v-246h-466l16 -377h593zM658 588h279l-22 533z" />
    <glyph glyph-name="Ccedilla" unicode="&#xc7;" horiz-adv-x="1342" 
d="M957 488h324q-8 -150 -81 -264.5t-203.5 -179t-309.5 -64.5q-190 0 -326.5 85.5t-209.5 243t-73 374.5v89q0 217 75.5 375t212 244t320.5 86q186 0 314 -67t198.5 -184t84.5 -267h-325q-7 128 -67.5 195t-204.5 67q-140 0 -209 -107t-69 -340v-91q0 -229 64 -338
t215 -109q255 0 270 252zM572 6h237l-12 -59q56 -10 103.5 -48.5t47.5 -124.5q0 -109 -92 -175.5t-271 -66.5l-7 173q44 0 73 19t29 62q0 40 -32.5 56t-106.5 20z" />
    <glyph glyph-name="Egrave" unicode="&#xc8;" horiz-adv-x="1149" 
d="M1110 252v-252h-990v1456h991v-253h-665v-333h564v-244h-564v-374h664zM593 1848l198 -311h-255l-278 311h335z" />
    <glyph glyph-name="Eacute" unicode="&#xc9;" horiz-adv-x="1149" 
d="M1110 252v-252h-990v1456h991v-253h-665v-333h564v-244h-564v-374h664zM494 1537l198 311h334l-277 -311h-255z" />
    <glyph glyph-name="Ecircumflex" unicode="&#xca;" horiz-adv-x="1149" 
d="M1110 252v-252h-990v1456h991v-253h-665v-333h564v-244h-564v-374h664zM730 1848l315 -280v-12h-247l-158 141l-157 -141h-242v16l309 276h180z" />
    <glyph glyph-name="Edieresis" unicode="&#xcb;" horiz-adv-x="1149" 
d="M1110 252v-252h-990v1456h991v-253h-665v-333h564v-244h-564v-374h664zM242 1678q0 55 42 92t102 37q61 0 103 -37t42 -92q0 -54 -42 -91t-103 -37q-60 0 -102 37t-42 91zM747 1678q0 54 42 91t102 37q61 0 102.5 -37t41.5 -91q0 -55 -41.5 -92t-102.5 -37q-60 0 -102 37
t-42 92z" />
    <glyph glyph-name="Igrave" unicode="&#xcc;" horiz-adv-x="609" 
d="M467 1456v-1456h-325v1456h325zM256 1848l198 -311h-255l-278 311h335z" />
    <glyph glyph-name="Iacute" unicode="&#xcd;" horiz-adv-x="609" 
d="M467 1456v-1456h-325v1456h325zM157 1537l198 311h334l-277 -311h-255z" />
    <glyph glyph-name="Icircumflex" unicode="&#xce;" horiz-adv-x="609" 
d="M467 1456v-1456h-325v1456h325zM394 1848l315 -280v-12h-247l-158 141l-157 -141h-242v16l309 276h180z" />
    <glyph glyph-name="Idieresis" unicode="&#xcf;" horiz-adv-x="609" 
d="M467 1456v-1456h-325v1456h325zM-95 1678q0 55 42 92t102 37q61 0 103 -37t42 -92q0 -54 -42 -91t-103 -37q-60 0 -102 37t-42 91zM410 1678q0 54 42 91t102 37q61 0 102.5 -37t41.5 -91q0 -55 -41.5 -92t-102.5 -37q-60 0 -102 37t-42 92z" />
    <glyph glyph-name="Eth" unicode="&#xd0;" horiz-adv-x="1358" 
d="M611 0h-461v640h-145v185h145v631h459q197 0 348 -88t236.5 -244.5t85.5 -363.5v-65q0 -207 -85.5 -363.5t-236 -244t-346.5 -87.5zM721 825v-185h-245v-388h135q164 0 250.5 114t86.5 329v67q0 216 -87.5 328.5t-251.5 112.5h-133v-378h245z" />
    <glyph glyph-name="Ntilde" unicode="&#xd1;" horiz-adv-x="1442" 
d="M1321 1456v-1456h-325l-550 941v-941h-326v1456h326l551 -941v941h324zM931 1845l176 -11q0 -73 -29.5 -134t-80.5 -97.5t-118 -36.5q-63 0 -105.5 21.5t-81.5 43t-91 21.5q-33 0 -56 -23.5t-23 -70.5l-178 10q0 71 29.5 132t81 98.5t117.5 37.5q53 0 97 -21t87.5 -42.5
t92.5 -21.5q34 0 58 24t24 70z" />
    <glyph glyph-name="Ograve" unicode="&#xd2;" horiz-adv-x="1413" 
d="M1334 760v-65q0 -221 -79.5 -381.5t-220.5 -247t-326 -86.5t-327 86.5t-222.5 247t-80.5 381.5v65q0 222 80 382.5t221.5 247t326.5 86.5t326.5 -86.5t221.5 -247t80 -382.5zM1005 695v67q0 223 -78 340t-221 117q-146 0 -222 -117t-76 -340v-67q0 -221 77 -340t223 -119
q143 0 220 119t77 340zM658 1846l198 -311h-255l-278 311h335z" />
    <glyph glyph-name="Oacute" unicode="&#xd3;" horiz-adv-x="1413" 
d="M1334 760v-65q0 -221 -79.5 -381.5t-220.5 -247t-326 -86.5t-327 86.5t-222.5 247t-80.5 381.5v65q0 222 80 382.5t221.5 247t326.5 86.5t326.5 -86.5t221.5 -247t80 -382.5zM1005 695v67q0 223 -78 340t-221 117q-146 0 -222 -117t-76 -340v-67q0 -221 77 -340t223 -119
q143 0 220 119t77 340zM559 1535l198 311h334l-277 -311h-255z" />
    <glyph glyph-name="Ocircumflex" unicode="&#xd4;" horiz-adv-x="1413" 
d="M1334 760v-65q0 -221 -79.5 -381.5t-220.5 -247t-326 -86.5t-327 86.5t-222.5 247t-80.5 381.5v65q0 222 80 382.5t221.5 247t326.5 86.5t326.5 -86.5t221.5 -247t80 -382.5zM1005 695v67q0 223 -78 340t-221 117q-146 0 -222 -117t-76 -340v-67q0 -221 77 -340t223 -119
q143 0 220 119t77 340zM795 1846l315 -280v-12h-247l-158 141l-157 -141h-242v16l309 276h180z" />
    <glyph glyph-name="Otilde" unicode="&#xd5;" horiz-adv-x="1413" 
d="M1334 760v-65q0 -221 -79.5 -381.5t-220.5 -247t-326 -86.5t-327 86.5t-222.5 247t-80.5 381.5v65q0 222 80 382.5t221.5 247t326.5 86.5t326.5 -86.5t221.5 -247t80 -382.5zM1005 695v67q0 223 -78 340t-221 117q-146 0 -222 -117t-76 -340v-67q0 -221 77 -340t223 -119
q143 0 220 119t77 340zM909 1845l176 -11q0 -73 -29.5 -134t-80.5 -97.5t-118 -36.5q-63 0 -105.5 21.5t-81.5 43t-91 21.5q-33 0 -56 -23.5t-23 -70.5l-178 10q0 71 29.5 132t81 98.5t117.5 37.5q53 0 97 -21t87.5 -42.5t92.5 -21.5q34 0 58 24t24 70z" />
    <glyph glyph-name="Odieresis" unicode="&#xd6;" horiz-adv-x="1413" 
d="M1334 760v-65q0 -221 -79.5 -381.5t-220.5 -247t-326 -86.5t-327 86.5t-222.5 247t-80.5 381.5v65q0 222 80 382.5t221.5 247t326.5 86.5t326.5 -86.5t221.5 -247t80 -382.5zM1005 695v67q0 223 -78 340t-221 117q-146 0 -222 -117t-76 -340v-67q0 -221 77 -340t223 -119
q143 0 220 119t77 340zM306 1676q0 55 42 92t102 37q61 0 103 -37t42 -92q0 -54 -42 -91t-103 -37q-60 0 -102 37t-42 91zM811 1676q0 54 42 91t102 37q61 0 102.5 -37t41.5 -91q0 -55 -41.5 -92t-102.5 -37q-60 0 -102 37t-42 92z" />
    <glyph glyph-name="multiply" unicode="&#xd7;" horiz-adv-x="1078" 
d="M373 515l-265 271l164 170l267 -272l267 272l164 -170l-265 -271l267 -272l-165 -170l-268 273l-268 -273l-165 170z" />
    <glyph glyph-name="Oslash" unicode="&#xd8;" horiz-adv-x="1410" 
d="M1345 760v-65q0 -221 -80 -381.5t-221.5 -247t-326.5 -86.5q-162 0 -293 68l-83 -143h-198l142 244q-93 92 -145.5 230.5t-52.5 315.5v65q0 222 80 382.5t221.5 247t326.5 86.5q167 0 301 -72l67 114h196l-126 -217q90 -93 141 -230t51 -311zM417 695q0 -152 37 -257
l424 728q-67 53 -163 53q-146 0 -222 -117t-76 -340v-67zM1014 695v67q0 142 -33 244l-420 -723q65 -47 156 -47q143 0 220 119t77 340z" />
    <glyph glyph-name="Ugrave" unicode="&#xd9;" horiz-adv-x="1356" 
d="M917 1456h326v-956q0 -169 -71.5 -285t-198.5 -175.5t-294 -59.5t-295.5 59.5t-200.5 175.5t-72 285v956h327v-956q0 -141 63 -204.5t178 -63.5t176.5 63.5t61.5 204.5v956zM626 1846l198 -311h-255l-278 311h335z" />
    <glyph glyph-name="Uacute" unicode="&#xda;" horiz-adv-x="1356" 
d="M917 1456h326v-956q0 -169 -71.5 -285t-198.5 -175.5t-294 -59.5t-295.5 59.5t-200.5 175.5t-72 285v956h327v-956q0 -141 63 -204.5t178 -63.5t176.5 63.5t61.5 204.5v956zM527 1535l198 311h334l-277 -311h-255z" />
    <glyph glyph-name="Ucircumflex" unicode="&#xdb;" horiz-adv-x="1356" 
d="M917 1456h326v-956q0 -169 -71.5 -285t-198.5 -175.5t-294 -59.5t-295.5 59.5t-200.5 175.5t-72 285v956h327v-956q0 -141 63 -204.5t178 -63.5t176.5 63.5t61.5 204.5v956zM763 1846l315 -280v-12h-247l-158 141l-157 -141h-242v16l309 276h180z" />
    <glyph glyph-name="Udieresis" unicode="&#xdc;" horiz-adv-x="1356" 
d="M917 1456h326v-956q0 -169 -71.5 -285t-198.5 -175.5t-294 -59.5t-295.5 59.5t-200.5 175.5t-72 285v956h327v-956q0 -141 63 -204.5t178 -63.5t176.5 63.5t61.5 204.5v956zM275 1676q0 55 42 92t102 37q61 0 103 -37t42 -92q0 -54 -42 -91t-103 -37q-60 0 -102 37
t-42 91zM780 1676q0 54 42 91t102 37q61 0 102.5 -37t41.5 -91q0 -55 -41.5 -92t-102.5 -37q-60 0 -102 37t-42 92z" />
    <glyph glyph-name="Yacute" unicode="&#xdd;" horiz-adv-x="1277" 
d="M353 1456l285 -648l287 648h352l-473 -930v-526h-331v526l-474 930h354zM494 1535l198 311h334l-277 -311h-255z" />
    <glyph glyph-name="Thorn" unicode="&#xde;" horiz-adv-x="1257" 
d="M125 1456h313v-264h212q178 0 300 -58.5t185 -160.5t63 -235q0 -132 -63 -234.5t-185 -161t-300 -58.5h-212v-284h-313v1456zM650 950h-212v-424h212q126 0 180.5 64t54.5 146q0 83 -54.5 148.5t-180.5 65.5z" />
    <glyph glyph-name="germandbls" unicode="&#xdf;" horiz-adv-x="1312" 
d="M448 1096v-1096h-312v1101q0 227 132 343t361 116q118 0 216.5 -42t157.5 -125t59 -206q0 -73 -15.5 -116t-35 -74t-35 -67.5t-15.5 -96.5q0 -39 29 -75t72 -75t86 -85.5t72 -104.5t29 -133q0 -178 -118.5 -279t-343.5 -101q-76 0 -154.5 15t-119.5 39l57 238
q31 -17 86.5 -33.5t128.5 -16.5q69 0 110.5 36t41.5 98q0 48 -29 85.5t-72 73t-86.5 76.5t-72.5 95.5t-29 131.5q0 68 15.5 111t35 76t35 71t15.5 96q0 65 -42 105.5t-107 40.5q-69 0 -110.5 -48.5t-41.5 -173.5z" />
    <glyph glyph-name="agrave" unicode="&#xe0;" horiz-adv-x="1092" 
d="M721 0q-19 39 -30 100q-42 -50 -106 -85t-162 -35q-101 0 -184.5 41.5t-133 114.5t-49.5 168q0 169 124.5 262.5t379.5 93.5h117v62q0 73 -34 116t-111 43q-65 0 -102 -33t-37 -94h-312q0 97 57.5 176t163 125.5t247.5 46.5q127 0 226.5 -42.5t157.5 -127.5t58 -212v-453
q0 -97 11.5 -153t33.5 -97v-17h-315zM494 207q69 0 116 30.5t67 68.5v182h-114q-105 0 -149.5 -48.5t-44.5 -116.5q0 -50 35 -83t90 -33zM496 1536l198 -311h-255l-278 311h335z" />
    <glyph glyph-name="aacute" unicode="&#xe1;" horiz-adv-x="1092" 
d="M721 0q-19 39 -30 100q-42 -50 -106 -85t-162 -35q-101 0 -184.5 41.5t-133 114.5t-49.5 168q0 169 124.5 262.5t379.5 93.5h117v62q0 73 -34 116t-111 43q-65 0 -102 -33t-37 -94h-312q0 97 57.5 176t163 125.5t247.5 46.5q127 0 226.5 -42.5t157.5 -127.5t58 -212v-453
q0 -97 11.5 -153t33.5 -97v-17h-315zM494 207q69 0 116 30.5t67 68.5v182h-114q-105 0 -149.5 -48.5t-44.5 -116.5q0 -50 35 -83t90 -33zM397 1225l198 311h334l-277 -311h-255z" />
    <glyph glyph-name="acircumflex" unicode="&#xe2;" horiz-adv-x="1092" 
d="M721 0q-19 39 -30 100q-42 -50 -106 -85t-162 -35q-101 0 -184.5 41.5t-133 114.5t-49.5 168q0 169 124.5 262.5t379.5 93.5h117v62q0 73 -34 116t-111 43q-65 0 -102 -33t-37 -94h-312q0 97 57.5 176t163 125.5t247.5 46.5q127 0 226.5 -42.5t157.5 -127.5t58 -212v-453
q0 -97 11.5 -153t33.5 -97v-17h-315zM494 207q69 0 116 30.5t67 68.5v182h-114q-105 0 -149.5 -48.5t-44.5 -116.5q0 -50 35 -83t90 -33zM633 1536l315 -280v-12h-247l-158 141l-157 -141h-242v16l309 276h180z" />
    <glyph glyph-name="atilde" unicode="&#xe3;" horiz-adv-x="1092" 
d="M721 0q-19 39 -30 100q-42 -50 -106 -85t-162 -35q-101 0 -184.5 41.5t-133 114.5t-49.5 168q0 169 124.5 262.5t379.5 93.5h117v62q0 73 -34 116t-111 43q-65 0 -102 -33t-37 -94h-312q0 97 57.5 176t163 125.5t247.5 46.5q127 0 226.5 -42.5t157.5 -127.5t58 -212v-453
q0 -97 11.5 -153t33.5 -97v-17h-315zM494 207q69 0 116 30.5t67 68.5v182h-114q-105 0 -149.5 -48.5t-44.5 -116.5q0 -50 35 -83t90 -33zM747 1534l176 -11q0 -73 -29.5 -134t-80.5 -97.5t-118 -36.5q-63 0 -105.5 21.5t-81.5 43t-91 21.5q-33 0 -56 -23.5t-23 -70.5
l-178 10q0 71 29.5 132t81 98.5t117.5 37.5q53 0 97 -21t87.5 -42.5t92.5 -21.5q34 0 58 24t24 70z" />
    <glyph glyph-name="adieresis" unicode="&#xe4;" horiz-adv-x="1092" 
d="M721 0q-19 39 -30 100q-42 -50 -106 -85t-162 -35q-101 0 -184.5 41.5t-133 114.5t-49.5 168q0 169 124.5 262.5t379.5 93.5h117v62q0 73 -34 116t-111 43q-65 0 -102 -33t-37 -94h-312q0 97 57.5 176t163 125.5t247.5 46.5q127 0 226.5 -42.5t157.5 -127.5t58 -212v-453
q0 -97 11.5 -153t33.5 -97v-17h-315zM494 207q69 0 116 30.5t67 68.5v182h-114q-105 0 -149.5 -48.5t-44.5 -116.5q0 -50 35 -83t90 -33zM144 1366q0 55 42 92t102 37q61 0 103 -37t42 -92q0 -54 -42 -91t-103 -37q-60 0 -102 37t-42 91zM649 1366q0 54 42 91t102 37
q61 0 102.5 -37t41.5 -91q0 -55 -41.5 -92t-102.5 -37q-60 0 -102 37t-42 92z" />
    <glyph glyph-name="aring" unicode="&#xe5;" horiz-adv-x="1092" 
d="M721 0q-19 39 -30 100q-42 -50 -106 -85t-162 -35q-101 0 -184.5 41.5t-133 114.5t-49.5 168q0 169 124.5 262.5t379.5 93.5h117v62q0 73 -34 116t-111 43q-65 0 -102 -33t-37 -94h-312q0 97 57.5 176t163 125.5t247.5 46.5q127 0 226.5 -42.5t157.5 -127.5t58 -212v-453
q0 -97 11.5 -153t33.5 -97v-17h-315zM494 207q69 0 116 30.5t67 68.5v182h-114q-105 0 -149.5 -48.5t-44.5 -116.5q0 -50 35 -83t90 -33zM321 1420q0 83 63 143t160 60t160 -60t63 -143q0 -84 -63 -142t-160 -58t-160 58t-63 142zM439 1420q0 -44 28 -75t77 -31t77.5 31
t28.5 75t-28.5 75.5t-77.5 31.5t-77 -31.5t-28 -75.5z" />
    <glyph glyph-name="ae" unicode="&#xe6;" horiz-adv-x="1730" 
d="M1242 -20q-124 0 -220 37t-162 104q-54 -56 -149.5 -98.5t-233.5 -42.5q-200 0 -306.5 93t-106.5 248q0 158 129 244.5t379 86.5h150v52q0 73 -37.5 114t-108.5 41q-78 0 -120.5 -33.5t-42.5 -82.5l-313 19q0 99 59 175.5t167 120.5t254 44q207 0 323 -100q61 49 142 75
t181 25q212 0 334 -132t122 -357v-168h-654q11 -97 70.5 -160t182.5 -63q101 0 165 22.5t124 51.5l80 -195q-58 -43 -166.5 -82t-241.5 -39zM1226 859q-94 0 -139 -59.5t-57 -154.5h345v27q0 86 -37.5 136.5t-111.5 50.5zM536 199q49 0 100 21.5t86 51.5v186h-148
q-97 0 -147 -42.5t-50 -98.5q0 -54 38.5 -86t120.5 -32z" />
    <glyph glyph-name="ccedilla" unicode="&#xe7;" horiz-adv-x="1066" 
d="M556 223q75 0 120 41.5t45 114.5h294q0 -118 -60.5 -208t-162.5 -140.5t-230 -50.5q-168 0 -279.5 72.5t-167.5 196.5t-56 279v26q0 155 55.5 279t167.5 196.5t279 72.5q134 0 236 -51.5t160 -147t58 -228.5h-294q0 77 -42 130.5t-125 53.5q-76 0 -115.5 -42.5t-53 -112
t-13.5 -150.5v-26q0 -82 13.5 -151.5t53 -111.5t117.5 -42zM446 6h237l-12 -59q56 -10 103.5 -48.5t47.5 -124.5q0 -109 -92 -175.5t-271 -66.5l-7 173q44 0 73 19t29 62q0 40 -32.5 56t-106.5 20z" />
    <glyph glyph-name="egrave" unicode="&#xe8;" horiz-adv-x="1111" 
d="M614 -20q-172 0 -294.5 71.5t-188 190.5t-65.5 263v38q0 161 60 287.5t174.5 199t279.5 72.5q231 0 357.5 -144.5t126.5 -385.5v-128h-680q16 -101 81 -161.5t169 -60.5q74 0 141 28.5t116 89.5l146 -167q-50 -73 -158 -133t-265 -60zM578 859q-90 0 -134.5 -60
t-57.5 -154h372v24q-1 85 -46 137.5t-134 52.5zM492 1537l198 -311h-255l-278 311h335z" />
    <glyph glyph-name="eacute" unicode="&#xe9;" horiz-adv-x="1111" 
d="M614 -20q-172 0 -294.5 71.5t-188 190.5t-65.5 263v38q0 161 60 287.5t174.5 199t279.5 72.5q231 0 357.5 -144.5t126.5 -385.5v-128h-680q16 -101 81 -161.5t169 -60.5q74 0 141 28.5t116 89.5l146 -167q-50 -73 -158 -133t-265 -60zM578 859q-90 0 -134.5 -60
t-57.5 -154h372v24q-1 85 -46 137.5t-134 52.5zM393 1226l198 311h334l-277 -311h-255z" />
    <glyph glyph-name="ecircumflex" unicode="&#xea;" horiz-adv-x="1111" 
d="M614 -20q-172 0 -294.5 71.5t-188 190.5t-65.5 263v38q0 161 60 287.5t174.5 199t279.5 72.5q231 0 357.5 -144.5t126.5 -385.5v-128h-680q16 -101 81 -161.5t169 -60.5q74 0 141 28.5t116 89.5l146 -167q-50 -73 -158 -133t-265 -60zM578 859q-90 0 -134.5 -60
t-57.5 -154h372v24q-1 85 -46 137.5t-134 52.5zM629 1537l315 -280v-12h-247l-158 141l-157 -141h-242v16l309 276h180z" />
    <glyph glyph-name="edieresis" unicode="&#xeb;" horiz-adv-x="1111" 
d="M614 -20q-172 0 -294.5 71.5t-188 190.5t-65.5 263v38q0 161 60 287.5t174.5 199t279.5 72.5q231 0 357.5 -144.5t126.5 -385.5v-128h-680q16 -101 81 -161.5t169 -60.5q74 0 141 28.5t116 89.5l146 -167q-50 -73 -158 -133t-265 -60zM578 859q-90 0 -134.5 -60
t-57.5 -154h372v24q-1 85 -46 137.5t-134 52.5zM141 1367q0 55 42 92t102 37q61 0 103 -37t42 -92q0 -54 -42 -91t-103 -37q-60 0 -102 37t-42 91zM646 1367q0 54 42 91t102 37q61 0 102.5 -37t41.5 -91q0 -55 -41.5 -92t-102.5 -37q-60 0 -102 37t-42 92z" />
    <glyph glyph-name="igrave" unicode="&#xec;" horiz-adv-x="572" 
d="M442 1082v-1082h-313v1082h313zM239 1518l198 -311h-255l-278 311h335z" />
    <glyph glyph-name="iacute" unicode="&#xed;" horiz-adv-x="572" 
d="M442 1082v-1082h-313v1082h313zM140 1207l198 311h334l-277 -311h-255z" />
    <glyph glyph-name="icircumflex" unicode="&#xee;" horiz-adv-x="572" 
d="M442 1082v-1082h-313v1082h313zM377 1518l315 -280v-12h-247l-158 141l-157 -141h-242v16l309 276h180z" />
    <glyph glyph-name="idieresis" unicode="&#xef;" horiz-adv-x="572" 
d="M442 1082v-1082h-313v1082h313zM-112 1348q0 55 42 92t102 37q61 0 103 -37t42 -92q0 -54 -42 -91t-103 -37q-60 0 -102 37t-42 91zM393 1348q0 54 42 91t102 37q61 0 102.5 -37t41.5 -91q0 -55 -41.5 -92t-102.5 -37q-60 0 -102 37t-42 92z" />
    <glyph glyph-name="eth" unicode="&#xf0;" horiz-adv-x="1172" 
d="M232 1349l98 230q237 -48 416 -178l166 105l77 -115l-133 -84q122 -122 190.5 -287.5t68.5 -367.5v-68q0 -179 -69 -315.5t-189 -212.5t-273 -76q-152 0 -267 65.5t-178.5 176t-63.5 246.5q0 224 116.5 360t335.5 136q133 0 237 -69q-25 77 -66 140.5t-94 113.5
l-185 -116l-77 115l146 92q-59 37 -124 64t-132 45zM387 468q0 -103 53 -174t148 -71q107 0 160 93.5t53 233.5v104v8q-28 31 -79 53t-126 22q-106 0 -157.5 -72t-51.5 -197z" />
    <glyph glyph-name="ntilde" unicode="&#xf1;" horiz-adv-x="1152" 
d="M575 859q-59 0 -99.5 -25t-65.5 -68v-766h-313v1082h294l10 -127q115 147 310 147q102 0 178.5 -39.5t119.5 -130.5t43 -246v-686h-314v687q0 102 -42.5 137t-120.5 35zM782 1534l176 -11q0 -73 -29.5 -134t-80.5 -97.5t-118 -36.5q-63 0 -105.5 21.5t-81.5 43t-91 21.5
q-33 0 -56 -23.5t-23 -70.5l-178 10q0 71 29.5 132t81 98.5t117.5 37.5q53 0 97 -21t87.5 -42.5t92.5 -21.5q34 0 58 24t24 70z" />
    <glyph glyph-name="ograve" unicode="&#xf2;" horiz-adv-x="1154" 
d="M59 530v21q0 158 60 282.5t175 196.5t281 72q168 0 283.5 -72t175.5 -196.5t60 -282.5v-21q0 -158 -60 -282.5t-175 -196t-282 -71.5t-282.5 71.5t-175.5 196t-60 282.5zM372 551v-21q0 -86 19 -155.5t64 -110.5t122 -41q114 0 159 89t45 218v21q0 84 -19 154t-64 112
t-123 42q-76 0 -120.5 -42t-63.5 -112t-19 -154zM529 1536l198 -311h-255l-278 311h335z" />
    <glyph glyph-name="oacute" unicode="&#xf3;" horiz-adv-x="1154" 
d="M59 530v21q0 158 60 282.5t175 196.5t281 72q168 0 283.5 -72t175.5 -196.5t60 -282.5v-21q0 -158 -60 -282.5t-175 -196t-282 -71.5t-282.5 71.5t-175.5 196t-60 282.5zM372 551v-21q0 -86 19 -155.5t64 -110.5t122 -41q114 0 159 89t45 218v21q0 84 -19 154t-64 112
t-123 42q-76 0 -120.5 -42t-63.5 -112t-19 -154zM430 1225l198 311h334l-277 -311h-255z" />
    <glyph glyph-name="ocircumflex" unicode="&#xf4;" horiz-adv-x="1154" 
d="M59 530v21q0 158 60 282.5t175 196.5t281 72q168 0 283.5 -72t175.5 -196.5t60 -282.5v-21q0 -158 -60 -282.5t-175 -196t-282 -71.5t-282.5 71.5t-175.5 196t-60 282.5zM372 551v-21q0 -86 19 -155.5t64 -110.5t122 -41q114 0 159 89t45 218v21q0 84 -19 154t-64 112
t-123 42q-76 0 -120.5 -42t-63.5 -112t-19 -154zM666 1536l315 -280v-12h-247l-158 141l-157 -141h-242v16l309 276h180z" />
    <glyph glyph-name="otilde" unicode="&#xf5;" horiz-adv-x="1154" 
d="M59 530v21q0 158 60 282.5t175 196.5t281 72q168 0 283.5 -72t175.5 -196.5t60 -282.5v-21q0 -158 -60 -282.5t-175 -196t-282 -71.5t-282.5 71.5t-175.5 196t-60 282.5zM372 551v-21q0 -86 19 -155.5t64 -110.5t122 -41q114 0 159 89t45 218v21q0 84 -19 154t-64 112
t-123 42q-76 0 -120.5 -42t-63.5 -112t-19 -154zM781 1534l176 -11q0 -73 -29.5 -134t-80.5 -97.5t-118 -36.5q-63 0 -105.5 21.5t-81.5 43t-91 21.5q-33 0 -56 -23.5t-23 -70.5l-178 10q0 71 29.5 132t81 98.5t117.5 37.5q53 0 97 -21t87.5 -42.5t92.5 -21.5q34 0 58 24
t24 70z" />
    <glyph glyph-name="odieresis" unicode="&#xf6;" horiz-adv-x="1154" 
d="M59 530v21q0 158 60 282.5t175 196.5t281 72q168 0 283.5 -72t175.5 -196.5t60 -282.5v-21q0 -158 -60 -282.5t-175 -196t-282 -71.5t-282.5 71.5t-175.5 196t-60 282.5zM372 551v-21q0 -86 19 -155.5t64 -110.5t122 -41q114 0 159 89t45 218v21q0 84 -19 154t-64 112
t-123 42q-76 0 -120.5 -42t-63.5 -112t-19 -154zM178 1366q0 55 42 92t102 37q61 0 103 -37t42 -92q0 -54 -42 -91t-103 -37q-60 0 -102 37t-42 91zM683 1366q0 54 42 91t102 37q61 0 102.5 -37t41.5 -91q0 -55 -41.5 -92t-102.5 -37q-60 0 -102 37t-42 92z" />
    <glyph glyph-name="divide" unicode="&#xf7;" horiz-adv-x="1198" 
d="M446 893q0 65 46 111.5t111 46.5t111 -46.5t46 -111.5t-46 -111t-111 -46t-111 45t-46 112zM115 405v235h968v-235h-968zM446 147q0 65 46 111.5t111 46.5t111 -46.5t46 -111.5q0 -64 -46 -110.5t-111 -46.5t-111 45.5t-46 111.5z" />
    <glyph glyph-name="oslash" unicode="&#xf8;" horiz-adv-x="1153" 
d="M59 530v21q0 158 60 282.5t175 196.5t281 72q98 0 182 -27l69 142h169l-103 -210q99 -73 150.5 -191.5t51.5 -264.5v-21q0 -158 -60 -282.5t-175 -196t-282 -71.5q-93 0 -173 24l-72 -147h-169l104 213q-102 72 -155 192t-53 268zM372 551v-21q0 -53 7 -100t22 -85
l245 502q-32 12 -71 12q-76 0 -120.5 -42t-63.5 -112t-19 -154zM781 551q0 48 -6 92.5t-20 81.5l-240 -493q28 -9 62 -9q114 0 159 89t45 218v21z" />
    <glyph glyph-name="ugrave" unicode="&#xf9;" horiz-adv-x="1152" 
d="M759 0l-9 115q-50 -64 -123 -99.5t-169 -35.5q-160 0 -260.5 94t-100.5 308v700h312v-702q0 -83 39.5 -120t106.5 -37q71 0 115.5 25.5t68.5 70.5v763h314v-1082h-294zM528 1536l198 -311h-255l-278 311h335z" />
    <glyph glyph-name="uacute" unicode="&#xfa;" horiz-adv-x="1152" 
d="M759 0l-9 115q-50 -64 -123 -99.5t-169 -35.5q-160 0 -260.5 94t-100.5 308v700h312v-702q0 -83 39.5 -120t106.5 -37q71 0 115.5 25.5t68.5 70.5v763h314v-1082h-294zM429 1225l198 311h334l-277 -311h-255z" />
    <glyph glyph-name="ucircumflex" unicode="&#xfb;" horiz-adv-x="1152" 
d="M759 0l-9 115q-50 -64 -123 -99.5t-169 -35.5q-160 0 -260.5 94t-100.5 308v700h312v-702q0 -83 39.5 -120t106.5 -37q71 0 115.5 25.5t68.5 70.5v763h314v-1082h-294zM665 1536l315 -280v-12h-247l-158 141l-157 -141h-242v16l309 276h180z" />
    <glyph glyph-name="udieresis" unicode="&#xfc;" horiz-adv-x="1152" 
d="M759 0l-9 115q-50 -64 -123 -99.5t-169 -35.5q-160 0 -260.5 94t-100.5 308v700h312v-702q0 -83 39.5 -120t106.5 -37q71 0 115.5 25.5t68.5 70.5v763h314v-1082h-294zM176 1366q0 55 42 92t102 37q61 0 103 -37t42 -92q0 -54 -42 -91t-103 -37q-60 0 -102 37t-42 91z
M681 1366q0 54 42 91t102 37q61 0 102.5 -37t41.5 -91q0 -55 -41.5 -92t-102.5 -37q-60 0 -102 37t-42 92z" />
    <glyph glyph-name="yacute" unicode="&#xfd;" horiz-adv-x="1046" 
d="M335 1082l187 -644l191 644h336l-435 -1244q-18 -54 -55 -118.5t-107 -110.5t-189 -46q-45 0 -69 4.5t-65 14.5l-1 227q12 -1 23.5 -1h21.5q83 0 120.5 26.5t55.5 80.5l30 77l-380 1090h336zM379 1225l198 311h334l-277 -311h-255z" />
    <glyph glyph-name="thorn" unicode="&#xfe;" horiz-adv-x="1154" 
d="M1092 553v-21q0 -157 -48 -282t-141.5 -197.5t-230.5 -72.5q-82 0 -144.5 29.5t-109.5 81.5v-507h-314v1952h314v-543q46 52 108.5 80.5t143.5 28.5q206 0 314 -150.5t108 -398.5zM779 532v21q0 132 -42 219t-146 87q-126 0 -173 -95v-444q23 -45 65.5 -71t109.5 -26
q70 0 110.5 42t58 112t17.5 155z" />
    <glyph glyph-name="ydieresis" unicode="&#xff;" horiz-adv-x="1046" 
d="M335 1082l187 -644l191 644h336l-435 -1244q-18 -54 -55 -118.5t-107 -110.5t-189 -46q-45 0 -69 4.5t-65 14.5l-1 227q12 -1 23.5 -1h21.5q83 0 120.5 26.5t55.5 80.5l30 77l-380 1090h336zM126 1366q0 55 42 92t102 37q61 0 103 -37t42 -92q0 -54 -42 -91t-103 -37
q-60 0 -102 37t-42 91zM631 1366q0 54 42 91t102 37q61 0 102.5 -37t41.5 -91q0 -55 -41.5 -92t-102.5 -37q-60 0 -102 37t-42 92z" />
    <glyph glyph-name="Amacron" unicode="&#x100;" horiz-adv-x="1385" 
d="M1037 0l-93 290h-503l-92 -290h-348l539 1456h304l541 -1456h-348zM522 542h342l-171 535zM1041 1762v-168h-690v168h690z" />
    <glyph glyph-name="amacron" unicode="&#x101;" horiz-adv-x="1092" 
d="M721 0q-19 39 -30 100q-42 -50 -106 -85t-162 -35q-101 0 -184.5 41.5t-133 114.5t-49.5 168q0 169 124.5 262.5t379.5 93.5h117v62q0 73 -34 116t-111 43q-65 0 -102 -33t-37 -94h-312q0 97 57.5 176t163 125.5t247.5 46.5q127 0 226.5 -42.5t157.5 -127.5t58 -212v-453
q0 -97 11.5 -153t33.5 -97v-17h-315zM494 207q69 0 116 30.5t67 68.5v182h-114q-105 0 -149.5 -48.5t-44.5 -116.5q0 -50 35 -83t90 -33zM888 1452v-168h-690v168h690z" />
    <glyph glyph-name="Abreve" unicode="&#x102;" horiz-adv-x="1385" 
d="M1037 0l-93 290h-503l-92 -290h-348l539 1456h304l541 -1456h-348zM522 542h342l-171 535zM836 1841h218q0 -133 -97 -216.5t-262 -83.5q-166 0 -262.5 83.5t-96.5 216.5h217q0 -51 32 -90.5t110 -39.5q77 0 109 39.5t32 90.5z" />
    <glyph glyph-name="abreve" unicode="&#x103;" horiz-adv-x="1092" 
d="M721 0q-19 39 -30 100q-42 -50 -106 -85t-162 -35q-101 0 -184.5 41.5t-133 114.5t-49.5 168q0 169 124.5 262.5t379.5 93.5h117v62q0 73 -34 116t-111 43q-65 0 -102 -33t-37 -94h-312q0 97 57.5 176t163 125.5t247.5 46.5q127 0 226.5 -42.5t157.5 -127.5t58 -212v-453
q0 -97 11.5 -153t33.5 -97v-17h-315zM494 207q69 0 116 30.5t67 68.5v182h-114q-105 0 -149.5 -48.5t-44.5 -116.5q0 -50 35 -83t90 -33zM684 1531h218q0 -133 -97 -216.5t-262 -83.5q-166 0 -262.5 83.5t-96.5 216.5h217q0 -51 32 -90.5t110 -39.5q77 0 109 39.5t32 90.5z
" />
    <glyph glyph-name="Aogonek" unicode="&#x104;" horiz-adv-x="1385" 
d="M1 0l539 1456h304l541 -1456h-96q-78 -42 -114 -80t-36 -91q0 -27 14 -45.5t49 -18.5q26 0 43.5 6.5t30.5 13.5l35 -161q-25 -15 -65 -29.5t-101 -14.5q-97 0 -165.5 54t-68.5 157q0 58 26 114.5t97 105.5l-90 279h-503l-92 -290h-348zM522 542h342l-171 535z" />
    <glyph glyph-name="aogonek" unicode="&#x105;" horiz-adv-x="1092" 
d="M1005 -376q-25 -15 -64.5 -29.5t-100.5 -14.5q-98 0 -166.5 54t-68.5 157q0 56 24.5 110.5t89.5 102.5q-18 39 -28 96q-42 -50 -106 -85t-162 -35q-101 0 -184.5 41.5t-133 114.5t-49.5 168q0 169 124.5 262.5t379.5 93.5h117v62q0 73 -34 116t-111 43q-65 0 -102 -33
t-37 -94h-312q0 97 57.5 176t163 125.5t247.5 46.5q127 0 226.5 -42.5t157.5 -127.5t58 -212v-453q0 -97 11.5 -153t33.5 -97v-17h-53q-77 -42 -113.5 -80t-36.5 -91q0 -27 14.5 -45.5t48.5 -18.5q27 0 44 6.5t30 13.5zM494 207q69 0 116 30.5t67 68.5v182h-114
q-105 0 -149.5 -48.5t-44.5 -116.5q0 -50 35 -83t90 -33z" />
    <glyph glyph-name="Cacute" unicode="&#x106;" horiz-adv-x="1342" 
d="M957 488h324q-8 -150 -81 -264.5t-203.5 -179t-309.5 -64.5q-190 0 -326.5 85.5t-209.5 243t-73 374.5v89q0 217 75.5 375t212 244t320.5 86q186 0 314 -67t198.5 -184t84.5 -267h-325q-7 128 -67.5 195t-204.5 67q-140 0 -209 -107t-69 -340v-91q0 -229 64 -338
t215 -109q255 0 270 252zM544 1540l198 311h334l-277 -311h-255z" />
    <glyph glyph-name="cacute" unicode="&#x107;" horiz-adv-x="1066" 
d="M556 223q75 0 120 41.5t45 114.5h294q0 -118 -60.5 -208t-162.5 -140.5t-230 -50.5q-168 0 -279.5 72.5t-167.5 196.5t-56 279v26q0 155 55.5 279t167.5 196.5t279 72.5q134 0 236 -51.5t160 -147t58 -228.5h-294q0 77 -42 130.5t-125 53.5q-76 0 -115.5 -42.5t-53 -112
t-13.5 -150.5v-26q0 -82 13.5 -151.5t53 -111.5t117.5 -42zM390 1225l198 311h334l-277 -311h-255z" />
    <glyph glyph-name="Ccircumflex" unicode="&#x108;" horiz-adv-x="1342" 
d="M957 488h324q-8 -150 -81 -264.5t-203.5 -179t-309.5 -64.5q-190 0 -326.5 85.5t-209.5 243t-73 374.5v89q0 217 75.5 375t212 244t320.5 86q186 0 314 -67t198.5 -184t84.5 -267h-325q-7 128 -67.5 195t-204.5 67q-140 0 -209 -107t-69 -340v-91q0 -229 64 -338
t215 -109q255 0 270 252zM780 1851l315 -280v-12h-247l-158 141l-157 -141h-242v16l309 276h180z" />
    <glyph glyph-name="ccircumflex" unicode="&#x109;" horiz-adv-x="1066" 
d="M556 223q75 0 120 41.5t45 114.5h294q0 -118 -60.5 -208t-162.5 -140.5t-230 -50.5q-168 0 -279.5 72.5t-167.5 196.5t-56 279v26q0 155 55.5 279t167.5 196.5t279 72.5q134 0 236 -51.5t160 -147t58 -228.5h-294q0 77 -42 130.5t-125 53.5q-76 0 -115.5 -42.5t-53 -112
t-13.5 -150.5v-26q0 -82 13.5 -151.5t53 -111.5t117.5 -42zM627 1536l315 -280v-12h-247l-158 141l-157 -141h-242v16l309 276h180z" />
    </font>
</defs>
</svg>
